<?xml version="1.0" encoding="utf-8"?>
<!-- Generator: Adobe Illustrator 15.1.0, SVG Export Plug-In . SVG Version: 6.00 Build 0)  -->
<!DOCTYPE svg PUBLIC "-//W3C//DTD SVG 1.1//EN" "http://www.w3.org/Graphics/SVG/1.1/DTD/svg11.dtd">
<svg version="1.1" id="Layer_1" xmlns="http://www.w3.org/2000/svg" xmlns:xlink="http://www.w3.org/1999/xlink" x="0px" y="0px"
	 width="200px" height="200px" viewBox="0 0 200 200" enable-background="new 0 0 200 200" xml:space="preserve">
<path fill="#00A99D" d="M189.883,68.641c-1.742-4.722-3.873-9.204-6.376-13.315c-8.772-14.409-23.291-25.829-37.495-33.182
	c-15.514-8.032-32.604-11.344-49.716-11.431c-0.878-0.004-1.653,0.163-2.336,0.451c-22.133-0.191-44.217,7.158-61.128,23.059
	C20.142,46.154,12.222,63.308,7.504,80.522c-4.875,17.791-6.426,37.503-2.055,55.593c10.437,43.187,60.91,51.911,95.822,53.06
	c10.266,0.337,20.549-0.105,30.782-1.015c10.411-0.925,19.802-2.426,28.992-8.185c9.322-5.842,17.083-14.663,22.885-24.414
	c5.351-8.992,8.101-19.853,10.327-30.18C198.283,106.712,199.075,85.672,189.883,68.641z"/>
<path fill="#FFFFFF" d="M149.025,64.891c-0.39-0.198-0.787-0.383-1.191-0.553c-4.302-3.267-10.449-3.332-15.773-3.021
	c-8.354,0.49-16.514-0.366-24.842-0.965c-8.402-0.605-16.924-0.614-25.347-0.506c-7.538,0.096-15.341,0.39-22.651,2.419
	c-3.03,0.048-6.027,0.587-8.726,1.779c-4.755,2.099-8.004,7.886-5.856,13.015c0.927,2.213,2.189,4.263,3.636,6.202
	c0.069,1.512,0.713,3.032,1.736,4.346c5.895,7.557,11.195,15.55,16.985,23.185c4.428,5.837,9.089,11.418,13.367,17.365
	c3.249,4.518,7.371,10.483,13.239,11.725c5.598,1.185,10.275-0.99,14.111-4.622c1.965-0.828,3.796-2.102,5.425-3.744
	c1.186-1.195,2.289-2.461,3.356-3.758c4.422-3.079,8.041-6.885,11.276-11.038c4.52-4.417,8.896-8.979,13.026-13.738
	c4.522-5.209,12.195-13.489,13.579-21.487c0.095-0.183,0.196-0.364,0.283-0.553C157.732,74.307,155.581,68.241,149.025,64.891z"/>
</svg>
