<?xml version="1.0" encoding="utf-8"?>
<!-- Generator: Adobe Illustrator 15.1.0, SVG Export Plug-In . SVG Version: 6.00 Build 0)  -->
<!DOCTYPE svg PUBLIC "-//W3C//DTD SVG 1.1//EN" "http://www.w3.org/Graphics/SVG/1.1/DTD/svg11.dtd">
<svg version="1.1" id="Layer_1" xmlns="http://www.w3.org/2000/svg" xmlns:xlink="http://www.w3.org/1999/xlink" x="0px" y="0px"
	 width="200px" height="200px" viewBox="0 0 200 200" enable-background="new 0 0 200 200" xml:space="preserve">
<path fill="#00A99D" d="M189.883,68.641c-1.742-4.722-3.873-9.204-6.376-13.315c-8.772-14.409-23.291-25.829-37.495-33.182
	c-15.514-8.032-32.604-11.344-49.716-11.431c-0.878-0.004-1.653,0.163-2.336,0.451c-22.133-0.191-44.217,7.158-61.128,23.059
	C20.142,46.154,12.222,63.308,7.504,80.522c-4.875,17.791-6.426,37.503-2.055,55.593c10.437,43.187,60.91,51.911,95.822,53.06
	c10.266,0.337,20.549-0.105,30.782-1.015c10.411-0.925,19.802-2.426,28.992-8.185c9.322-5.842,17.083-14.663,22.885-24.414
	c5.351-8.992,8.101-19.853,10.327-30.18C198.283,106.712,199.075,85.672,189.883,68.641z"/>
<path fill="#FFFFFF" d="M154.659,119.058c-0.087-0.189-0.188-0.37-0.283-0.553c-1.383-7.999-9.057-16.278-13.579-21.487
	c-4.13-4.759-8.506-9.321-13.026-13.738c-3.235-4.153-6.854-7.959-11.276-11.038c-1.067-1.297-2.17-2.562-3.356-3.758
	c-1.629-1.642-3.46-2.917-5.425-3.744c-3.836-3.632-8.513-5.806-14.111-4.622c-5.869,1.242-9.99,7.207-13.239,11.725
	c-4.277,5.947-8.939,11.528-13.367,17.365c-5.79,7.635-11.091,15.628-16.985,23.185c-1.023,1.314-1.667,2.834-1.736,4.346
	c-1.446,1.938-2.708,3.988-3.636,6.202c-2.148,5.129,1.101,10.916,5.856,13.015c2.699,1.192,5.695,1.731,8.726,1.779
	c7.31,2.029,15.113,2.323,22.651,2.419c8.423,0.108,16.944,0.099,25.347-0.506c8.328-0.6,16.487-1.455,24.842-0.965
	c5.324,0.311,11.471,0.246,15.773-3.021c0.405-0.169,0.801-0.354,1.191-0.553C155.581,131.759,157.732,125.693,154.659,119.058z"/>
</svg>
