<?xml version="1.0" encoding="utf-8"?>
<!-- Generator: Adobe Illustrator 15.1.0, SVG Export Plug-In . SVG Version: 6.00 Build 0)  -->
<!DOCTYPE svg PUBLIC "-//W3C//DTD SVG 1.1//EN" "http://www.w3.org/Graphics/SVG/1.1/DTD/svg11.dtd">
<svg version="1.1" id="Layer_1" xmlns="http://www.w3.org/2000/svg" xmlns:xlink="http://www.w3.org/1999/xlink" x="0px" y="0px"
	 width="200px" height="200px" viewBox="0 0 200 200" enable-background="new 0 0 200 200" xml:space="preserve">
<path fill="#662D91" d="M173.577,52.238C145.997,17.869,107.073-5.561,61.838,6.758C21.541,17.722,7.122,55.713,8.506,92.491
	c-4.36,33.369,7.856,64.009,37.029,86.045C126.871,239.984,236.757,130.974,173.577,52.238z"/>
<g>
	<g>
		<g>
			<path fill="#FFFFFF" d="M139.764,59.944c-12.502,0.483-25.014,0.194-37.514,0.033c-13.959-0.159-27.722,2.481-41.667,0.748
				c-3.066-0.391-4.847,1.354-5.397,3.604c-0.275,0.654-0.458,1.412-0.48,2.272c-0.656,30.706,1.422,63.444,6.679,93.736
				c0.312,1.791,2.294,3.834,4.111,4.109c16.012,2.353,32.471,2.95,48.624,2.364c9.584-0.33,28.663-0.367,30.177-13.086
				c1.676-14.105,1.688-28.548,2.043-42.725c0.391-15.393,1.424-31.45-0.918-46.741C145.043,61.781,142.127,59.853,139.764,59.944
				L139.764,59.944z M133.129,146.806c-0.115,1.732-0.242,3.465-0.402,5.199c0,0.037,0,0.057,0,0.091
				c-5.533,3.479-14.945,2.836-21.178,3.054c-12.984,0.472-26.438,0.093-39.396-1.571c-4.281-26.127-6.016-54.066-5.764-80.628
				c11.964,0.574,23.844-1.32,35.861-1.218c10.813,0.104,21.626,0.334,32.439,0.081C137.617,96.114,134.655,122.688,133.129,146.806
				L133.129,146.806z M133.129,146.806"/>
			<path fill="#FFFFFF" d="M144.424,43.002c-7.496,0.012-14.992,0.058-22.487,0.114c-6.21-8.814-13.66-10.056-24.242-10.136
				c-9.494-0.069-15.061,2.376-18.619,10.538c-7.829,0.057-15.657,0.103-23.498,0.114c-7.579,0-7.579,11.755,0,11.755
				c29.615-0.036,59.23-0.598,88.846-0.631C152,54.757,152,43.002,144.424,43.002L144.424,43.002z M144.424,43.002"/>
		</g>
		<path fill="#FFFFFF" d="M80.994,101.227c-0.034-3.793-8.155-3.793-8.121,0c0.043,12.542,0.84,25.054,2.581,37.531
			c0.525,3.733,8.647,3.766,8.123,0C81.835,126.28,81.038,113.769,80.994,101.227L80.994,101.227z M80.994,101.227"/>
		<path fill="#FFFFFF" d="M86.828,83.062c1.059,18.782,2.712,37.524,2.806,56.315c0.032,3.799,8.153,3.799,8.122,0
			c-0.092-18.791-1.747-37.533-2.806-56.315C94.726,79.287,86.604,79.275,86.828,83.062L86.828,83.062z M86.828,83.062"/>
		<path fill="#FFFFFF" d="M110.703,101.227c-0.034-3.793-8.155-3.793-8.121,0c0.043,12.542,0.84,25.054,2.581,37.531
			c0.525,3.733,8.647,3.766,8.123,0C111.544,126.28,110.747,113.769,110.703,101.227L110.703,101.227z M110.703,101.227"/>
		<path fill="#FFFFFF" d="M116.537,83.062c1.059,18.782,2.712,37.524,2.806,56.315c0.032,3.799,8.154,3.799,8.122,0
			c-0.093-18.791-1.747-37.533-2.806-56.315C124.435,79.287,116.313,79.275,116.537,83.062L116.537,83.062z M116.537,83.062"/>
	</g>
</g>
</svg>
