<?xml version="1.0" encoding="utf-8"?>
<!-- Generator: Adobe Illustrator 15.1.0, SVG Export Plug-In . SVG Version: 6.00 Build 0)  -->
<!DOCTYPE svg PUBLIC "-//W3C//DTD SVG 1.1//EN" "http://www.w3.org/Graphics/SVG/1.1/DTD/svg11.dtd">
<svg version="1.1" id="Layer_1" xmlns="http://www.w3.org/2000/svg" xmlns:xlink="http://www.w3.org/1999/xlink" x="0px" y="0px"
	 width="200px" height="200px" viewBox="0 0 200 200" enable-background="new 0 0 200 200" xml:space="preserve">
<g>
	<path fill="#39B54A" d="M173.866,52.238C146.286,17.869,107.362-5.561,62.127,6.758C21.83,17.722,7.412,55.713,8.796,92.491
		c-4.36,33.369,7.856,64.009,37.029,86.045C127.16,239.984,237.047,130.974,173.866,52.238z"/>
	<g>
		<g>
			<g>
				<path fill="#FFFFFF" d="M136.146,61.908c-12.502,0.483-25.014,0.194-37.514,0.033c-13.959-0.159-27.722,2.481-41.667,0.748
					c-3.066-0.391-4.847,1.354-5.397,3.604c-0.275,0.654-0.458,1.412-0.48,2.272c-0.656,30.706,1.422,63.444,6.679,93.736
					c0.312,1.792,2.294,3.834,4.111,4.11c16.012,2.353,32.471,2.95,48.624,2.364c9.584-0.33,28.663-0.367,30.177-13.086
					c1.676-14.105,1.688-28.548,2.043-42.725c0.391-15.393,1.424-31.45-0.918-46.741C141.425,63.745,138.509,61.816,136.146,61.908
					L136.146,61.908z M129.511,148.769c-0.115,1.732-0.242,3.465-0.402,5.199c0,0.037,0,0.057,0,0.091
					c-5.533,3.479-14.945,2.836-21.178,3.054c-12.984,0.472-26.438,0.093-39.396-1.571c-4.281-26.127-6.016-54.066-5.764-80.628
					c11.964,0.574,23.844-1.32,35.861-1.218c10.813,0.104,21.626,0.334,32.439,0.081
					C133.999,98.078,131.037,124.651,129.511,148.769L129.511,148.769z M129.511,148.769"/>
				<path fill="#FFFFFF" d="M140.806,44.965c-7.496,0.012-14.992,0.058-22.487,0.114c-6.21-8.814-13.66-10.056-24.242-10.136
					c-9.494-0.069-15.061,2.376-18.619,10.538c-7.829,0.057-15.657,0.103-23.498,0.114c-7.579,0-7.579,11.755,0,11.755
					c29.615-0.036,59.23-0.598,88.846-0.631C148.381,56.72,148.381,44.965,140.806,44.965L140.806,44.965z M140.806,44.965"/>
			</g>
			<path fill="#FFFFFF" d="M77.375,103.19c-0.034-3.793-8.155-3.793-8.121,0c0.043,12.542,0.84,25.054,2.581,37.531
				c0.525,3.733,8.647,3.766,8.123,0C78.217,128.244,77.419,115.732,77.375,103.19L77.375,103.19z M77.375,103.19"/>
			<path fill="#FFFFFF" d="M83.209,85.026c1.059,18.782,2.712,37.524,2.806,56.315c0.032,3.799,8.153,3.799,8.122,0
				c-0.092-18.791-1.747-37.533-2.806-56.315C91.107,81.25,82.985,81.239,83.209,85.026L83.209,85.026z M83.209,85.026"/>
			<path fill="#FFFFFF" d="M107.085,103.19c-0.034-3.793-8.155-3.793-8.121,0c0.043,12.542,0.84,25.054,2.581,37.531
				c0.525,3.733,8.647,3.766,8.123,0C107.926,128.244,107.129,115.732,107.085,103.19L107.085,103.19z M107.085,103.19"/>
			<path fill="#FFFFFF" d="M112.919,85.026c1.059,18.782,2.712,37.524,2.806,56.315c0.032,3.799,8.154,3.799,8.122,0
				c-0.093-18.791-1.747-37.533-2.806-56.315C120.817,81.25,112.695,81.239,112.919,85.026L112.919,85.026z M112.919,85.026"/>
		</g>
	</g>
</g>
</svg>
