<?xml version="1.0" encoding="utf-8"?>
<!-- Generator: Adobe Illustrator 15.1.0, SVG Export Plug-In . SVG Version: 6.00 Build 0)  -->
<!DOCTYPE svg PUBLIC "-//W3C//DTD SVG 1.1//EN" "http://www.w3.org/Graphics/SVG/1.1/DTD/svg11.dtd">
<svg version="1.1" id="Layer_1" xmlns="http://www.w3.org/2000/svg" xmlns:xlink="http://www.w3.org/1999/xlink" x="0px" y="0px"
	 width="200px" height="200px" viewBox="0 0 200 200" enable-background="new 0 0 200 200" xml:space="preserve">
<path fill="#00A99D" d="M152.202,22.989C123.892,0.356,83.618-5.276,51.586,12.893c-0.775,0.44-1.374,0.97-1.83,1.552
	c-7.41,4.665-13.724,13.705-17.459,19.592c-0.347,0.547-0.682,1.097-1.022,1.646c-5.112,6.312-8.509,13.825-11.228,21.606
	c-0.023,0.067-0.043,0.134-0.066,0.201c-3.95,9.59-6.71,19.615-7.838,30.221c-1.183,11.119-0.023,22.27,1.484,33.295
	c1.336,9.778,3.899,19.161,7.782,28.229c8.095,18.909,23.538,35.616,42.934,42.847c13.874,5.171,29.511,5.392,44.137,5.755
	c15.12,0.376,32.477-0.037,44.1-10.937c2.675-2.507,5.046-4.994,8.185-6.923c2.773-1.707,5.309-3.827,7.505-6.224
	c5.338-5.827,8.928-13.153,11.943-20.387c4.889-11.733,7.014-24.126,7.668-36.699C190.791,81.933,180.129,45.316,152.202,22.989z"/>
<path fill="#FFFFFF" d="M129.05,91.928c-2.457-6-8.15-11.528-12.299-15.367c-0.509-0.471-1.021-0.938-1.537-1.403
	c-1.17-1.604-2.317-3.229-3.489-4.856c-4.775-6.63-10.538-12.176-17.337-16.436c-2.597-3.961-5.471-8.831-9.404-11.011
	c-7.224-4.004-10.717,4.378-11.685,10c-0.026,0.031-0.054,0.054-0.08,0.085c-2.457,3.091-2.84,7.053-2.794,10.897
	c0.044,3.832,0.14,7.659,0.238,11.485c-1.044,10.592-1.872,21.4-2.573,32.495c-0.518,8.196-1.498,16.419-1.544,24.637
	c-0.044,7.689,0.394,16.041,4.421,22.816c1.447,2.434,4.11,3.316,6.792,2.764c0.48-0.099,0.926-0.244,1.355-0.413
	c1.246,0.25,2.649-0.002,4.09-0.994c18.438-12.706,34.052-28.864,48.521-45.839c1.613-1.894,1.819-4.064,1.196-5.941
	c0.132-0.434,0.244-0.875,0.329-1.324C134.13,98.803,132.101,95.001,129.05,91.928z"/>
</svg>
