<?xml version="1.0" encoding="utf-8"?>
<!-- Generator: Adobe Illustrator 15.1.0, SVG Export Plug-In . SVG Version: 6.00 Build 0)  -->
<!DOCTYPE svg PUBLIC "-//W3C//DTD SVG 1.1//EN" "http://www.w3.org/Graphics/SVG/1.1/DTD/svg11.dtd">
<svg version="1.1" id="Layer_1" xmlns="http://www.w3.org/2000/svg" xmlns:xlink="http://www.w3.org/1999/xlink" x="0px" y="0px"
	 width="200px" height="200px" viewBox="0 0 200 200" enable-background="new 0 0 200 200" xml:space="preserve">
<path fill="#E50FBD" d="M191.118,133.223c0.08-0.224,0.178-0.448,0.253-0.67c0.539-1.617,0.968-3.269,1.419-4.916
	c0.261-0.95,0.566-1.892,0.788-2.854c4.898-20.17,3.537-42.034-4.79-60.201c-12.765-27.86-37.173-45.049-64.92-51.428
	c-23.931-9.662-51.093-10.26-74.821,1.035c-13.027,6.2-23.274,17.172-30.472,30.263c-44.378,55.852,17.22,148.471,87.965,149.796
	c21.483,0.403,42.408-8.583,58.571-22.922C177.233,161.67,186.013,148.206,191.118,133.223z"/>
<g>
	<path fill="#FFFFFF" d="M158.433,152.903c-0.138-0.899-0.523-1.768-0.604-2.676c-0.141-1.584-0.027-3.237-0.006-4.84
		c0-0.028,0.006-0.052,0.006-0.081c-0.001-0.068-0.002-0.136-0.002-0.203c0-0.05,0.002-0.1,0.002-0.148
		c0-0.015-0.004-0.03-0.004-0.047c-0.349-26.11-0.354-52.223-0.354-78.336c0-0.288-0.054-0.54-0.133-0.774
		c0.118-0.834-0.168-1.729-1.067-2.328c-5.535-3.686-7.742-7.157-13.093-11.089c-5.492-4.036-11.682-6.977-17.596-10.353
		c-0.529-0.302-1.045-0.386-1.518-0.316c-0.022-0.001-0.041-0.008-0.063-0.008c-7.279-0.025-14.552-0.516-21.832-0.324
		c-7.136,0.19-14.15,1.392-21.312,1.434c-7.052,0.042-14.117-0.033-21.161-0.368c-3.074-0.147-6.15-0.303-9.222-0.477
		c-1.979-0.114-3.943-0.157-5.806,0.351c-1.647-0.478-3.698,0.62-3.12,2.515c-0.036,0.595,0.179,1.205,0.561,1.692
		c0.708,2.661,0.616,5.487,0.761,8.225c0.239,4.541,0.532,9.083,0.801,13.623c0.57,9.597,1.15,19.194,1.43,28.806
		c0.154,5.295,0.405,10.588,0.661,15.881c-1.025,6.75-0.46,13.614-0.914,20.42c-0.474,7.133-1.396,14.031,0.09,21.078
		c-0.029,0.101-0.063,0.198-0.081,0.312c-0.658,4.139,3.497,4.913,6.783,5.202c5.689,0.501,11.354,0.51,17.06,0.637
		c14.068,0.311,27.97-1.083,41.963-2.215c6.834-0.552,13.721-0.292,20.561-0.019c5.922,0.237,9.186-0.849,15.097-0.481
		c3.367,0.211,7.529,0.798,10.645-0.789C158.685,156.325,158.683,154.523,158.433,152.903z"/>
	<path fill="#E50FBD" d="M108.29,40.942c-5.252-0.592-10.631,0.055-15.898,0.797c-5.112-0.881-10.217-0.483-15.381-0.117
		c-5.058,0.359-10.136,0.077-15.193,0.186c-0.779,0.018-1.409,0.193-1.921,0.479c-1.525-0.875-3.995-0.156-4.072,2.149
		c-0.217,6.524,0.375,13.02,0.926,19.517c0.275,3.235,0.536,6.473,0.682,9.716c0.073,1.606-0.252,3.662,1.191,4.855
		c4.077,3.376,9.268,0.813,13.933,0.34c6.438-0.653,12.969-0.886,19.43-0.463c5.999,0.39,12.012,1.238,17.963,2.064
		c3.606,0.499,8.058,0.755,9.899-3.031c1.124-2.309,0.759-5.358,0.738-7.839c-0.025-3.183-0.229-6.366-0.365-9.545
		c-0.133-3.077-0.079-6.153-0.383-9.221c-0.3-3.039-0.73-6.025-0.53-9.086c0.172-2.643-3.097-3.177-4.586-1.645
		C112.991,40.332,109.751,40.938,108.29,40.942z M101.856,70.575c-1.094-0.118-2.177-0.246-3.252-0.369
		c-0.041-0.319-0.073-0.697-0.114-1.153c-0.558-6.082-1.447-12.235-1.599-18.368c4.145-0.214,8.284-0.53,12.438-0.57
		c0.141,2.41,0.245,4.819,0.429,7.176c0.369,4.717,1.636,9.409,1.614,14.127C108.252,70.817,105.018,70.916,101.856,70.575z"/>
	<path fill="#E50FBD" d="M142.216,146.362c-0.011-8.405-0.245-16.803-0.701-25.194c-0.189-3.455-0.258-6.722-0.067-10.163
		c0.166-2.982-1.083-5.519-4.197-6.254c-3.322-0.786-7.38,0.245-10.69,0.668c-4.377,0.559-8.741,1.209-13.127,1.707
		c-8.494,0.963-17.091,0.607-25.62,0.419c-3.649-0.081-7.306-0.029-10.952-0.195c-3.221-0.147-6.445-0.316-9.621,0.353
		c-2.693,0.566-4.006,3.092-4.773,5.43c-1.213,3.694-1.731,7.636-2.07,11.486c-0.697,7.943,0.68,15.762,2.641,23.437
		c1.56,6.107,11.472,4.223,16.011,3.923c10.337-0.681,20.816-0.417,31.171-0.43c9.56-0.011,19.494,1.017,28.939-0.756
		c0.012-0.002,0.022-0.003,0.033-0.005c0.055-0.01,0.111-0.019,0.166-0.029c0.638-0.122,1.078-0.423,1.36-0.808
		c0.285-0.111,0.547-0.272,0.785-0.505c0.453-0.443,0.71-1.051,0.71-1.678c0-0.228-0.04-0.454-0.108-0.674
		C142.176,146.873,142.216,146.63,142.216,146.362z M114.377,146.8c-8.604,0.001-17.208,0.02-25.812,0.175
		c-3.711,0.067-7.432,0.103-11.134,0.37c-1.527,0.11-9.093,1.242-9.719-0.552c-2.647-7.598-3.11-16.289-2.271-24.209
		c0.219-2.059,0.588-4.149,1.144-6.147c0.352-1.267,0.537-2.817,1.409-3.865c0.726-0.872,3.213-0.607,4.214-0.622
		c1.79-0.029,3.582,0.095,5.369,0.176c8.186,0.373,16.479,0.415,24.673,0.354c8.535-0.063,16.879-1.37,25.321-2.445
		c2.037-0.26,4.076-0.479,6.119-0.669c0.736-0.069,1.514-0.029,2.252-0.019c0.973,0.012,0.666,1.054,0.659,1.657
		c-0.01,1.36-0.262,2.712-0.309,4.074c-0.081,2.331,0.304,4.766,0.431,7.097c0.437,8.036,0.635,16.082,0.645,24.129
		C129.834,147.611,121.984,146.799,114.377,146.8z"/>
	<path fill="#E50FBD" d="M125.078,119.033c-16.156-0.016-32.3-0.688-48.455-0.704c-3.125-0.002-3.125,4.742,0,4.746
		c16.155,0.016,32.299,0.688,48.455,0.704C128.202,123.781,128.202,119.036,125.078,119.033z"/>
	<path fill="#E50FBD" d="M125.078,128.523c-16.156-0.017-32.3-0.688-48.455-0.704c-3.125-0.003-3.125,4.743,0,4.746
		c16.155,0.015,32.299,0.688,48.455,0.704C128.202,133.271,128.202,128.525,125.078,128.523z"/>
	<path fill="#E50FBD" d="M125.078,138.013c-16.156-0.014-32.3-0.688-48.455-0.703c-3.125-0.004-3.125,4.741,0,4.744
		c16.155,0.016,32.299,0.688,48.455,0.704C128.202,142.762,128.202,138.018,125.078,138.013z"/>
</g>
</svg>
