<?xml version="1.0" encoding="utf-8"?>
<!-- Generator: Adobe Illustrator 15.1.0, SVG Export Plug-In . SVG Version: 6.00 Build 0)  -->
<!DOCTYPE svg PUBLIC "-//W3C//DTD SVG 1.1//EN" "http://www.w3.org/Graphics/SVG/1.1/DTD/svg11.dtd">
<svg version="1.1" id="Layer_1" xmlns="http://www.w3.org/2000/svg" xmlns:xlink="http://www.w3.org/1999/xlink" x="0px" y="0px"
	 width="200px" height="200px" viewBox="0 0 200 200" enable-background="new 0 0 200 200" xml:space="preserve">
<path fill="#00A99D" d="M152.202,22.989C123.892,0.356,83.618-5.276,51.586,12.893c-0.775,0.44-1.374,0.97-1.83,1.552
	c-7.41,4.665-13.724,13.705-17.459,19.592c-0.347,0.547-0.682,1.097-1.022,1.646c-5.112,6.312-8.509,13.825-11.228,21.606
	c-0.023,0.067-0.043,0.134-0.066,0.201c-3.95,9.59-6.71,19.615-7.838,30.221c-1.183,11.119-0.023,22.27,1.484,33.295
	c1.336,9.778,3.899,19.161,7.782,28.229c8.095,18.909,23.538,35.616,42.934,42.847c13.874,5.171,29.511,5.392,44.137,5.755
	c15.12,0.376,32.477-0.037,44.1-10.937c2.675-2.507,5.046-4.994,8.185-6.923c2.773-1.707,5.309-3.827,7.505-6.224
	c5.338-5.827,8.928-13.153,11.943-20.387c4.889-11.733,7.014-24.126,7.668-36.699C190.791,81.933,180.129,45.316,152.202,22.989z"/>
<path fill="#FFFFFF" d="M66.75,103.522c0.084,0.449,0.197,0.89,0.329,1.324c-0.624,1.876-0.417,4.047,1.196,5.941
	c14.469,16.975,30.083,33.134,48.521,45.839c1.44,0.992,2.844,1.244,4.09,0.994c0.429,0.169,0.875,0.314,1.355,0.413
	c2.682,0.552,5.345-0.33,6.792-2.764c4.027-6.775,4.465-15.126,4.421-22.816c-0.046-8.217-1.026-16.44-1.544-24.637
	c-0.701-11.095-1.529-21.903-2.573-32.495c0.098-3.827,0.193-7.654,0.238-11.485c0.045-3.845-0.337-7.807-2.794-10.897
	c-0.025-0.031-0.053-0.054-0.08-0.085c-0.968-5.621-4.461-14.004-11.685-10c-3.934,2.181-6.807,7.05-9.404,11.011
	c-6.799,4.26-12.562,9.806-17.337,16.436c-1.172,1.626-2.319,3.251-3.489,4.856c-0.515,0.464-1.028,0.932-1.537,1.403
	C79.1,80.4,73.406,85.927,70.95,91.928C67.899,95.001,65.87,98.803,66.75,103.522z"/>
</svg>
