<?xml version="1.0" encoding="utf-8"?>
<!-- Generator: Adobe Illustrator 15.1.0, SVG Export Plug-In . SVG Version: 6.00 Build 0)  -->
<!DOCTYPE svg PUBLIC "-//W3C//DTD SVG 1.1//EN" "http://www.w3.org/Graphics/SVG/1.1/DTD/svg11.dtd">
<svg version="1.1" id="Layer_1" xmlns="http://www.w3.org/2000/svg" xmlns:xlink="http://www.w3.org/1999/xlink" x="0px" y="0px"
	 width="100px" height="100px" viewBox="50 50 100 100" enable-background="new 50 50 100 100" xml:space="preserve">
<g>
	<path fill="#ED1C24" d="M113.201,54.678c-6.816-3.448-14.759-5.072-23.501-4.144c-30.163,3.199-43.796,32.724-37.627,59.563
		c6.573,28.604,35.578,45.783,63.908,38.512c21.497-5.519,33.7-26.047,34.592-46.788C151.652,76.741,133.714,59.799,113.201,54.678z
		"/>
	<g>
		<path fill="#FFFFFF" d="M114.986,93.507c-2.277-2.02-5.248-3.542-7.788-5.232c-1.549-1.03-3.158-1.97-4.711-2.993
			c-1.484-0.979-3.031-2.11-4.695-2.764c-2.7-1.062-5.459-0.648-5.931,2.618c-0.021,0.15-0.039,0.301-0.056,0.451
			c-0.516,0.568-0.765,1.37-0.478,2.336c0.129,0.437,0.264,0.872,0.398,1.307c0.078,1.816,0.248,3.626,0.143,5.481
			c-0.072,1.265-0.135,2.632,0.025,3.944c-0.088,4.731-0.119,9.46,0.184,14.183c0.043,0.674,0.295,1.252,0.678,1.695
			c0.2,1.117,1.047,2.075,2.549,2.014c1.912-0.079,3.683-0.895,5.319-1.936c0.13-0.039,0.261-0.084,0.393-0.145
			c5.855-2.662,11.656-7.582,15.185-12.915C118.093,98.694,117.492,95.729,114.986,93.507z"/>
		<path fill="#FFFFFF" d="M135.38,85.145c0.037-3.841-0.206-8.809-3.779-11.161c-2.98-1.961-7.527-1.973-10.965-2.487
			c-5.478-0.819-11.105-1.64-16.651-1.57c-5.685,0.072-11.33,0.892-17.016,0.982c-2.784,0.044-5.57,0.004-8.354,0.004
			c-2.744,0-5.534-0.218-8.271-0.062c-1.706,0.097-3.792,0.265-4.753,1.881c-0.412,0.693-0.475,1.448-0.394,2.221
			c-0.065,0.363-0.049,0.763,0.076,1.198c0.225,0.781,0.309,1.531,0.443,2.281c-0.188,0.348-0.301,0.764-0.3,1.252
			c0.01,11.54,0.469,23.076,0.478,34.616c0.002,2.577,0.437,5.137,0.876,7.67c0.328,1.889,0.153,4.349,1.493,5.867
			c1.361,1.543,3.632,1.877,5.586,1.974c2.399,0.119,4.84-0.159,7.248-0.121c5.709,0.092,11.409,0.473,17.116,0.626
			c5.71,0.153,11.368-0.161,17.047-0.735c2.689-0.271,5.375-0.581,8.064-0.858c2.555-0.263,5.121-0.301,7.646-0.801
			c4.944-0.979,4.169-7.183,4.31-10.918C135.679,106.404,135.278,95.752,135.38,85.145z M132.767,87.926
			c0,0.344-0.115,0.688-0.312,0.979c0.038,0.14,0.066,0.283,0.072,0.434c0.02,0.559,0.031,1.124-0.031,1.681
			c-0.064,0.567-0.125,1.128-0.426,1.633c-0.459,0.77-1.353,1.172-2.241,0.947c-0.575-0.146-1.032-0.565-1.333-1.055
			c-0.428-0.701-0.578-1.512-0.673-2.31c-0.103-0.87,0.035-1.743,0.416-2.533c0.48-0.994,1.63-1.613,2.733-1.542
			C131.948,86.222,132.767,86.916,132.767,87.926z M67.908,80.032c0.643-1.324,2.099-2.065,3.542-2.114
			c0.977-0.033,1.793,0.828,1.793,1.766c0,0.215-0.045,0.416-0.115,0.602c0.267,1.053,0.211,2.185-0.375,3.148
			c-0.885,1.453-2.584,1.868-3.96,0.799c-0.513-0.399-1-1.231-1.146-1.86C67.457,81.556,67.54,80.788,67.908,80.032z
			 M73.004,102.525c-0.001,0.78,0.004,1.623-0.303,2.354c-0.334,0.794-0.843,1.217-1.729,1.297
			c-1.938,0.173-3.122-1.907-2.892-3.592c0.236-1.736,1.291-3.636,3.37-3.473c0.974,0.076,1.793,0.746,1.793,1.767
			c0,0.357-0.129,0.72-0.344,1.022C72.966,102.086,73.004,102.294,73.004,102.525z M67.907,91.374
			c0.497-1.406,1.471-2.529,3.064-2.624c0.977-0.058,1.793,0.847,1.793,1.766c0,0.018-0.004,0.035-0.005,0.052
			c0.554,1.209,0.556,2.564-0.021,3.771c-0.651,1.362-2.388,1.822-3.643,0.958C67.8,94.405,67.391,92.836,67.907,91.374z
			 M68.198,113.006c0.412-1.574,1.725-2.963,3.491-2.827c0.974,0.075,1.793,0.747,1.793,1.767c0,0.154-0.026,0.309-0.07,0.459
			c0.001,0.005,0.003,0.009,0.005,0.014c0.343,1.062,0.509,2.327,0.263,3.424c-0.407,1.815-2.397,2.449-3.939,1.491
			C68.249,116.405,67.766,114.653,68.198,113.006z M74.457,125.354c-0.238,0.305-0.442,0.602-0.812,0.773
			c-0.332,0.153-0.702,0.309-1.082,0.269c-0.469-0.052-0.688-0.082-1.113-0.306c-0.208-0.109-0.398-0.268-0.573-0.42
			c-0.266-0.235-0.494-0.534-0.668-0.842c-0.512-0.899-0.677-1.968-0.171-2.908c0.292-0.544,0.885-0.979,1.49-1.12
			c0.624-0.146,1.212-0.098,1.834,0.039c0.874,0.192,1.405,1.106,1.296,1.944c0.186,0.273,0.29,0.595,0.258,0.937
			C74.869,124.237,74.796,124.92,74.457,125.354z M126.334,120.679c-0.216,0.664-0.386,1.348-0.441,2.098
			c-0.011,0.156-0.006,0.303,0.007,0.446c-0.101,0.006-0.201,0.012-0.301,0.019c-8.479,0.566-16.816,1.917-25.345,1.816
			c-7.833-0.092-15.63-0.714-23.459-0.588c-0.034-1.488-0.185-2.97-0.326-4.458c-0.2-2.111-0.174-4.218-0.183-6.336
			c-0.02-4.628-0.316-9.227-0.628-13.841c-0.127-1.879-0.312-3.751-0.508-5.625c0.296-3.626,0.42-7.251,0.655-10.881
			c0.144-2.224,0.301-4.854-0.341-7.145c0.341,0.015,0.679,0.027,1.007,0.027c5.801,0,11.59,0.084,17.379-0.349
			c5.583-0.417,11.261-1.077,16.845-0.322c4.358,0.589,8.722,1.109,13.071,1.749c-0.011,0.09-0.021,0.181-0.023,0.276
			c-0.11,3.13,0.483,6.23,1.097,9.329c-0.423,5.534,0.409,10.948,0.6,16.551c0.195,5.753,0.299,11.493,0.9,17.213
			C126.338,120.664,126.337,120.672,126.334,120.679z M127.254,78.24c0.345-0.578,0.943-1.073,1.626-1.199
			c0.814-0.15,1.564,0.006,2.281,0.411c0.66,0.374,0.975,1.134,0.85,1.842c0.469,1.214,0.137,2.598-0.977,3.34
			c-0.994,0.662-2.507,0.367-3.243-0.541C126.942,81.048,126.518,79.469,127.254,78.24z M127.842,99.511
			c0.194-1.17,1.353-1.914,2.416-2.221c0.938-0.271,1.949,0.318,2.205,1.234c0.071,0.253,0.076,0.507,0.034,0.749
			c0.077,0.133,0.143,0.275,0.205,0.429c0.094,0.233,0.182,0.472,0.229,0.718c0.137,0.703,0.122,1.287-0.191,1.942
			c-0.324,0.678-1.093,1.019-1.811,1.057c-0.809,0.044-1.681-0.462-2.194-1.049c-0.383-0.435-0.597-0.791-0.807-1.32
			C127.729,100.549,127.756,100.028,127.842,99.511z M128.212,110.409c0.044-0.506,0.143-0.99,0.433-1.426
			c0.326-0.491,0.691-0.824,1.186-1.154c0.774-0.517,1.88-0.187,2.386,0.534c0.357,0.226,0.635,0.566,0.726,0.993
			c0.075,0.356,0.133,0.723,0.158,1.086c0.065,0.945-0.278,2.057-1.185,2.531c-0.96,0.505-2.062,0.292-2.832-0.439
			C128.534,112.014,128.146,111.17,128.212,110.409z M132.241,122.378c-0.64,0.706-1.891,0.667-2.536,0
			c-0.66-0.684-1.201-1.644-1.113-2.62c0.096-1.066,0.725-1.917,1.695-2.309c0.315-0.271,0.721-0.441,1.164-0.441
			c0.978,0,1.793,0.803,1.793,1.767C133.243,120.081,133.164,121.357,132.241,122.378z"/>
	</g>
</g>
</svg>
