<?xml version="1.0" encoding="utf-8"?>
<!-- Generator: Adobe Illustrator 15.1.0, SVG Export Plug-In . SVG Version: 6.00 Build 0)  -->
<!DOCTYPE svg PUBLIC "-//W3C//DTD SVG 1.1//EN" "http://www.w3.org/Graphics/SVG/1.1/DTD/svg11.dtd">
<svg version="1.1" id="Layer_1" xmlns="http://www.w3.org/2000/svg" xmlns:xlink="http://www.w3.org/1999/xlink" x="0px" y="0px"
	 width="200px" height="200px" viewBox="0 0 200 200" enable-background="new 0 0 200 200" xml:space="preserve">
<g>
	<path fill-rule="evenodd" clip-rule="evenodd" fill="#F15A24" d="M168.907,36.554C140.717,2.536,86.359-4.596,50.321,20.856
		c-3.428,2.421-6.615,5.089-9.661,7.877C25.852,37.029,14.757,51.218,11.704,71.57c-0.358,2.393-0.601,4.767-0.791,7.136
		c-4.235,16.572-4.484,34.241-0.133,51.331c8.528,33.486,36.891,53.64,68.468,59.119c35.485,13.912,75.444-0.759,97.758-32.599
		C201.519,121.581,195.159,68.235,168.907,36.554z"/>
	<path fill-rule="evenodd" clip-rule="evenodd" fill="#FFFFFF" d="M151.861,62.354c-0.911-0.213-1.916-0.242-3.003-0.025
		c-1.629,0.323-3.125,0.938-4.583,1.645c-1.585-2.414-3.483-4.647-5.481-6.712c-4.348-4.492-10.054-8.166-15.509-11.153
		c-11.965-6.552-25.644-8.137-38.888-5.267C72.17,43.491,60.332,48.847,52.899,59.18c-3.344,4.648-6.3,9.845-9.156,14.806
		c-1.659,2.882-2.85,6.065-3.534,9.311c-0.607,2.881-0.104,5.861-1.04,8.664c-2.745,8.22,10.198,11.715,12.921,3.563
		c1.503-4.501,0.515-9.243,2.597-13.597c2.098-4.388,5.106-8.438,7.613-12.605c5.604-9.314,14.381-12.426,24.439-15.225
		c10.584-2.945,21.559-0.922,31.067,4.285c4.57,2.503,8.903,5.658,12.524,9.4c0.467,0.482,0.9,0.99,1.312,1.512
		c-2.031,0.898-3.922,2.041-5.496,3.769c-3.157,3.468-2.159,7.862,1.356,10.522c3.46,2.619,7.703,3.794,11.385,6.059
		c3.318,2.041,7.347,4.757,11.452,3.628c4.291-1.181,5.798-5.853,6.899-9.637c1.294-4.449,2.377-8.96,3.671-13.41
		C162.661,64.21,156.382,60.704,151.861,62.354z"/>
	<path fill-rule="evenodd" clip-rule="evenodd" fill="#FFFFFF" d="M159.942,106.911c-0.406-3.629-2.74-6.7-6.7-6.7
		c-3.344,0-7.107,3.063-6.7,6.7c0.369,3.293-1.759,6.845-3.029,9.816c-1.942,4.546-4.427,8.756-7.19,12.843
		c-4.693,6.943-13.339,11.315-20.895,14.304c-8.456,3.346-16.78,5.711-25.761,3.065c-4.859-1.431-9.463-4.665-13.606-7.494
		c-3.13-2.14-5.366-5.879-7.627-9.019c4.096-2.181,7.7-5.559,6.279-10.745c-1.172-4.275-5.877-6.911-9.496-8.853
		c-3.372-1.808-7.099-3.578-10.937-4.193c-0.263-0.115-0.529-0.219-0.801-0.294c-3.792-1.042-6.922,1.278-8.241,4.68
		c-2.873,7.405-6.031,15.525-5.091,23.615c0.548,4.712,5.37,8.781,10.081,5.784c2.163-1.375,4.315-2.731,6.489-4.021
		c0.325,0.797,0.778,1.566,1.333,2.281c3.542,4.557,6.515,8.901,11.248,12.334c5.101,3.7,10.851,6.796,16.806,8.847
		c11.45,3.94,23.346,0.707,34.147-3.564c10.286-4.069,20.209-9.854,26.865-18.906c3.491-4.749,6.249-9.88,8.561-15.292
		C157.686,117.401,160.531,112.169,159.942,106.911z"/>
</g>
</svg>
