<?xml version="1.0" encoding="utf-8"?>
<!-- Generator: Adobe Illustrator 15.1.0, SVG Export Plug-In . SVG Version: 6.00 Build 0)  -->
<!DOCTYPE svg PUBLIC "-//W3C//DTD SVG 1.1//EN" "http://www.w3.org/Graphics/SVG/1.1/DTD/svg11.dtd">
<svg version="1.1" id="Layer_1" xmlns="http://www.w3.org/2000/svg" xmlns:xlink="http://www.w3.org/1999/xlink" x="0px" y="0px"
	 width="55.804px" height="79.463px" viewBox="0 0 55.804 79.463" enable-background="new 0 0 55.804 79.463" xml:space="preserve">
<g>
	<path fill="#FAF6EF" d="M51.533,15.392c-0.08-0.188-0.19-0.34-0.315-0.468c-0.384-2.3-3.222-4.458-4.863-5.586
		c-3.937-2.707-8.492-4.381-13.219-4.984c-8.446-1.079-19.37-0.649-25.415,6.231c-0.088,0.019-0.178,0.042-0.271,0.073
		c-2.143,0.735-2.553,2.287-2.043,3.787C5.478,23.23,6.26,31.983,6.892,40.74c0.317,4.426-0.173,8.907-0.035,13.343
		c0.041,1.299,0.144,2.6,0.324,3.887c-0.043,0.16-0.074,0.329-0.075,0.518c-0.047,3.67-0.607,7.328,0.965,10.779
		c1.441,3.166,5.459,4.397,8.541,5.11c4.148,0.96,8.281,1.246,12.528,1.327c2.074,0.04,4.024,0.144,6.055-0.296
		c2.671-0.105,5.279-1.108,7.03-3.09c0.839,0.13,1.725-0.247,2.018-1.344c0.581-2.183,0.702-4.446,1.283-6.628
		c0.621-2.329,1.126-4.746,1.409-7.14c0.263-2.227,0.566-4.463,0.829-6.705c0.661-2.564,1.205-5.141,1.459-7.879
		c0.474-5.141,1.016-10.293,1.582-15.424c0.25-2.272,0.56-4.582,0.97-6.83C52.091,18.637,52.237,17.034,51.533,15.392z"/>
	<path fill="#66C4CF" d="M45.085,28.349c-0.203-1.556-0.695-3.017-1.69-4.227c-3.247-3.955-8.665-4.162-13.385-4.134
		c-6.169,0.037-12.311,0.33-18.285,2.004c-0.018,0.005-0.033,0.012-0.05,0.018c-0.59,0.132-1.104,0.55-1.294,1.327
		c-0.771,3.158-0.104,6.374,0.034,9.57c0.161,3.738,0.376,7.472,0.776,11.192c0.406,3.75,0.92,7.484,1.205,11.248
		c0.217,2.842,0.132,5.695,0.485,8.517c-0.162,0.277-0.252,0.619-0.218,1.04c0.319,3.94,2.41,6,6.269,6.582
		c1.823,0.274,3.658,0.436,5.494,0.5c0.241,0.117,0.523,0.188,0.854,0.188c0.305,0,0.571-0.059,0.802-0.161
		c2.91,0.002,5.819-0.247,8.69-0.763c1.098-0.198,1.968-0.571,2.667-1.074c0.873,0.15,1.816-0.229,2.099-1.339
		c3.248-12.795,6.208-25.732,6.27-39.001C45.812,29.146,45.512,28.655,45.085,28.349z"/>
	<path fill="#FFFFFF" d="M45.672,14.147c-4.726-4.065-10.492-5.661-16.646-5.699c-5.463-0.034-11.442-0.744-16.264,2.404
		c-1.64,1.07-0.77,3.384,0.699,3.622c0.049,0.044,0.102,0.087,0.156,0.129c4.106,3.08,9.897,2.65,14.75,2.806
		c5.495,0.177,11.069,1.918,16.456-0.046C46.071,16.909,46.859,15.169,45.672,14.147z M29.464,13.639
		c-3.597-0.392-7.681,0.194-11.181-0.965c3.098-0.753,6.512-0.483,9.633-0.398c4.055,0.112,7.909,0.522,11.395,2.209
		C36.032,14.629,32.625,13.984,29.464,13.639z"/>
</g>
</svg>
