<?xml version="1.0" encoding="utf-8"?>
<!-- Generator: Adobe Illustrator 15.1.0, SVG Export Plug-In . SVG Version: 6.00 Build 0)  -->
<!DOCTYPE svg PUBLIC "-//W3C//DTD SVG 1.1//EN" "http://www.w3.org/Graphics/SVG/1.1/DTD/svg11.dtd">
<svg version="1.1" id="Layer_1" xmlns="http://www.w3.org/2000/svg" xmlns:xlink="http://www.w3.org/1999/xlink" x="0px" y="0px"
	 width="58.58px" height="164.286px" viewBox="0 0 58.58 164.286" enable-background="new 0 0 58.58 164.286" xml:space="preserve">
<g>
	<path fill="#4D7860" d="M50.1,125.588c-0.006-0.219-0.016-0.438-0.024-0.657c0.038-0.166,0.06-0.343,0.059-0.536
		c-0.023-3.103-0.338-6.178-0.671-9.26c-0.175-1.618-0.282-3.229-0.366-4.843c0.034-5.007,0.078-10.034-0.233-15.017
		c-0.187-2.994-0.303-5.981-0.313-8.981c-0.009-2.623-0.177-5.282-0.952-7.802c-0.078-0.254-0.188-0.471-0.322-0.655
		c-0.522-5.315-2.075-10.433-5.702-14.601c-2.269-2.607-4.057-5.354-4.798-8.77c-0.133-0.612-0.243-1.244-0.327-1.882
		c0.031-5.074,0.104-20.141,0.256-25.218c0.046-1.548,0.151-3.877-0.119-6.103c0.498-3.652,0.341-8.471-2.425-10.884
		c-1.457-1.271-3.817-1.63-6.022-1.222c-2.268-0.396-4.651-0.266-6.762,0.359c-1.767,0.523-3.008,1.51-3.582,3.278
		c-0.46,1.418-0.088,3.024-0.009,4.49c-0.283,9.461,0.287,28.917,0.356,38.377c-0.058,0.248-0.06,0.523,0.004,0.82
		c0,0.201,0.002,0.401,0.003,0.603c0,0.261,0.04,0.495,0.11,0.705c-0.19,1.123-0.928,2.506-1.265,3.304
		c-0.94,2.229-2.761,4.094-4.12,6.07c-2.295,3.339-4.667,7.04-4.385,11.11c-0.126,0.269-0.194,0.586-0.182,0.955
		c0.015,0.46,0.038,0.919,0.065,1.378c-0.042,0.171-0.066,0.354-0.065,0.555c0.009,1.801,0.091,3.597,0.219,5.388
		c-0.392,5.792-0.219,11.66-0.219,17.459c0,0.507,0.147,0.92,0.386,1.237c-0.011,1.251-0.024,2.502-0.028,3.753
		c-0.001,0.036-0.006,0.07-0.006,0.106c-0.032,2.366-0.244,4.663,0.24,7c0.017,1.55,0.025,3.101,0.053,4.652
		c0.033,1.884,0.154,3.708,0.479,5.565c0.102,0.585,0.242,1.179,0.384,1.775c0.236,5.031,0.256,19.039,0.249,24.102
		c-0.001,0.519,0.152,0.938,0.401,1.259c0.02,0.052,0.039,0.104,0.062,0.157c1.334,2.913,4.429,4.465,7.289,5.514
		c3.802,1.394,8.016,1.685,12.028,1.528c3.833-0.15,7.909-0.51,11.461-2.039c2.637-1.135,6.153-2.702,7.917-5.176
		c0.792-0.228,1.442-0.875,1.438-1.945C50.638,145.859,50.23,131.224,50.1,125.588z"/>
	<path fill="#1F1E20" d="M34.374,5.072c-2.006-1.476-4.951-1.062-7.312-0.697c-1.531-0.066-3.09,0.1-4.564,0.476
		c-1.062,0.164-2.082,0.469-2.999,1.13c-2.325,1.334-4.026,5.557-2.142,7.744c0.318,0.369,0.686,0.603,1.092,0.757
		c0.673,0.484,1.5,0.792,2.389,0.868c2.047,0.176,4.189-0.218,6.237-0.34c2.539-0.15,5.441,0.021,7.731-1.242
		c0.646-0.356,1.125-0.899,1.427-1.525c0.174-0.181,0.344-0.373,0.501-0.591C38.406,9.341,36.175,6.398,34.374,5.072z"/>
	<path fill="#72B98E" d="M22.718,22.656c-0.007-1.36-2.116-1.36-2.109,0c0.041,7.641,1.366,25.205,1.406,32.847
		c0.007,1.359,2.117,1.36,2.109,0C24.083,47.861,22.759,30.297,22.718,22.656z"/>
	<path fill="#72B98E" d="M16.524,68.466c-1.814,2.151-3.48,4.306-4.057,7.123c-0.358,1.749-0.231,3.192-0.263,4.97
		c-0.035,1.977-0.031,4.459-0.031,5.459c0,2,2.109,2,2.109,0c0-2,0.008-5.68,0.118-8.754c0.115-3.218,1.601-5.153,3.616-7.542
		C18.886,68.688,17.402,67.425,16.524,68.466z"/>
	<path fill="#72B98E" d="M21.944,154.698c-2.726-0.754-5.166-2.128-6.117-4.942c-0.512-1.515-0.49-3.189-0.573-4.772
		c-0.105-2.015-0.093-12.967-0.093-14.967c0-1-2.109-1-2.109,0c0.001,2,0.012,13.829,0.17,16.284
		c0.112,1.739,0.228,3.546,0.986,5.145c1.391,2.93,4.149,4.471,7.174,5.307C22.696,157.116,23.253,155.059,21.944,154.698z"/>
	<path fill="#1F1E20" d="M50.485,112.62c-0.247-2.527-0.467-5.049-0.622-7.584c-0.313-5.138-0.925-10.288-0.96-15.438
		c-0.001-0.173-0.038-0.324-0.098-0.454c-0.167-0.624-0.814-1.104-1.488-0.632c-2.629,1.839-5.614,2.359-8.461,3.693
		c-3.124,1.464-5.775,2.872-9.285,3.193c-3.528,0.323-7.063,0.333-10.595,0.058c-3.283-0.255-6.477-1.079-9.792-0.937
		c-0.521,0.022-0.84,0.349-0.961,0.738C7.966,95.421,7.78,95.7,7.78,96.1c-0.008,2.916-0.1,5.831-0.052,8.747
		c0.052,3.124,0.582,6.169,0.824,9.274c0.186,2.382,0.493,4.799,0.516,7.187c0.013,1.406-0.092,2.909,0.242,4.295
		c-0.305,0.548-0.002,1.416,0.65,1.566c0.339,0.077,0.64,0.082,0.928,0.047c0.421,0.167,0.942,0.213,1.461,0.166
		c0.171-0.016,0.321-0.064,0.449-0.136c0.226,0.013,0.462,0.016,0.72,0.001c3.825-0.211,7.676-0.041,11.507-0.202
		c3.669-0.154,7.329-0.514,10.944-1.165c2.613-0.471,5.44-0.995,7.766-2.342c2.419-0.628,4.597-1.77,6.131-3.904
		c0.365-0.034,0.685-0.267,0.756-0.759C50.931,116.766,50.691,114.729,50.485,112.62z"/>
</g>
</svg>
