<?xml version="1.0" encoding="utf-8"?>
<!-- Generator: Adobe Illustrator 15.1.0, SVG Export Plug-In . SVG Version: 6.00 Build 0)  -->
<!DOCTYPE svg PUBLIC "-//W3C//DTD SVG 1.1//EN" "http://www.w3.org/Graphics/SVG/1.1/DTD/svg11.dtd">
<svg version="1.1" id="Layer_1" xmlns="http://www.w3.org/2000/svg" xmlns:xlink="http://www.w3.org/1999/xlink" x="0px" y="0px"
	 width="96.429px" height="95.088px" viewBox="0 0 96.429 95.088" enable-background="new 0 0 96.429 95.088" xml:space="preserve">
<g>
	<path fill="#F5E8C8" d="M15.692,34.79c1.471-4.274,3.307-8.341,6.08-11.895c0.052-0.146,0.125-0.292,0.235-0.43
		c1.706-2.122,3.89-4.143,6.347-5.39c1.684-1.566,3.49-2.719,5.414-3.552c3.615-2.271,7.742-3.16,11.962-3.494
		c5.919-1.398,12.028-1.895,17.29,1.475c0.17,0.064,0.342,0.113,0.512,0.181c2.887,0.833,5.658,1.905,8.217,3.641
		c1.924,1.305,4.482,3.68,5.688,6.115c1,1.073,1.93,2.21,2.787,3.423c1.307,1.85,2.766,3.692,3.608,5.806
		c0.059,0.147,0.065,0.277,0.072,0.408c1.394,2.999,1.63,6.205,1.64,9.51c-0.19,3.073-0.722,6.056-1.538,9.025
		c-0.659,2.402-1.223,4.957-2.456,7.147c0.047,0.264-0.004,0.556-0.208,0.854c-2.63,3.851-5.278,7.25-8.942,10.251
		c-1.715,1.405-3.837,2.288-5.811,3.255c-2.016,0.988-3.757,2.24-5.811,3.065c0.322,3.256,0.191,7.397-3.4,8.532
		c-5.01,1.584-10.52,1.6-15.723,1.62c-0.197,0-0.358-0.048-0.504-0.117c-1.477,0.041-2.939-0.219-4.443-0.161
		c-5.645,0.255-12.15,1.029-15.949-2.878c-0.203-0.208-0.301-0.433-0.336-0.659c-0.037-0.057-0.086-0.091-0.117-0.16
		c-1.051-2.292-1.168-4.684-0.854-7.115c0.009-0.797,0.034-1.598,0.059-2.403c-0.072-0.163-0.113-0.351-0.104-0.573
		c0.166-4.056-0.221-6.94-2.595-10.299c-1.536-2.173-2.349-4.926-2.933-7.477c-0.352-1.54-0.416-3.052-0.275-4.538
		C12.533,43.666,14.313,38.801,15.692,34.79z"/>
	<path fill="#382514" d="M41.016,55.982c0.963,5.392,6.34,7.605,11.314,5.481c4.602-1.965,7.85-7.342,4.316-11.908
		c-2.057-2.661-6.958-4.549-10.158-2.864C42.833,48.013,40.278,51.86,41.016,55.982z"/>
	<path fill="#382514" d="M22.041,55.818c2.15,1.75,5.188-0.318,6.673-1.991c1.502-1.693,1.174-3.561,0.123-5.159
		c-0.559-1.958-1.99-3.529-4.178-3.458c-0.213-0.044-0.441-0.026-0.688,0.067C19.467,46.122,18.705,53.105,22.041,55.818z"/>
	<path fill="#382514" d="M28.512,71.107c0.557,1.382,2.15,0.568,3.142-0.226c0.321,0.544,0.714,1.068,1.401,1.013
		c0.809-0.064,1.396-0.354,1.638-1.168c0.585-1.977-1.448-3.494-2.323-4.946c-0.143-0.235-0.359-0.313-0.57-0.299
		c-0.249-0.199-0.63-0.225-0.87,0.028C29.799,66.698,27.792,69.321,28.512,71.107z"/>
	<path fill="#DD962F" d="M53.385,32.787c2.401-3.81,8.809-5.834,9.159-10.787c0.138-2.159-1.661-4.269-3.898-3.458
		c-1.587,0.575-2.263-1.947-0.692-2.516c3.785-1.372,7.439,2.201,7.199,5.975c-0.19,2.7-1.57,4.666-3.46,6.521
		c-1.048,1.03-2.239,1.917-3.368,2.856c-0.52,0.43-1.02,0.885-1.521,1.333c-1.008,0.895-0.432,2.946,1.011,2.457
		c1.598-0.542,2.278,1.979,0.693,2.517C55.583,38.676,51.159,36.316,53.385,32.787z"/>
	<path fill="#DD962F" d="M27.127,26.636c0.146-0.558,0.548-1.082,0.854-1.555c0.959-1.48,0.11-2.569-0.207-3.983
		c-0.296-1.314,0.363-2.969,0.833-4.161c0.607-1.548,3.131-0.875,2.515,0.693c-0.426,1.084-0.936,2.314-0.667,3.51
		c0.184,0.813,0.787,1.678,0.676,2.553c-0.262,2.082-2.57,4.481-0.054,5.779c1.496,0.771,0.177,3.023-1.317,2.252
		C27.6,30.613,26.475,29.121,27.127,26.636z"/>
	<path fill="#DD962F" d="M33.699,48.421c0.653,0.479,1.489,0.248,2.067-0.211c0.518-0.411,0.707-1.12,0.756-1.748
		c0.066-0.833-0.084-1.883-0.482-2.687c-0.008-0.022-0.022-0.04-0.031-0.062c-0.056-0.105-0.098-0.223-0.162-0.317
		c-0.012-0.017-0.025-0.028-0.039-0.045c-0.004-0.006-0.01-0.012-0.015-0.019c-0.507-0.663-1.335-0.629-1.884-0.249
		C32.203,43.93,32.244,47.356,33.699,48.421z"/>
	<g>
		<path fill="#DD962F" d="M15.534,49.189c0.006-0.017,0.012-0.033,0.016-0.052c0.045-1.006,1.238-1.5,1.996-1.041
			c0.169,0.076,0.334,0.173,0.48,0.306c0.434,0.389,0.48,0.859,0.326,1.267c-0.005,0.235-0.076,0.478-0.261,0.73
			c-0.483,0.665-1.414,0.911-2.049,0.264c-0.313-0.319-0.539-0.644-0.552-1.109C15.486,49.432,15.502,49.31,15.534,49.189z"/>
		<path fill="#DD962F" d="M15.538,49.165c-0.004,0.007-0.002,0.016-0.004,0.024C15.491,49.325,15.471,49.384,15.538,49.165z"/>
	</g>
	<path fill="#DD962F" d="M17.292,56.305c0.221,0.261,0.473,0.457,0.852,0.521c0.432,0.072,0.965,0.042,1.27-0.336
		c0.279-0.347,0.459-0.624,0.471-1.087c0.005-0.229-0.07-0.473-0.197-0.685c-0.135-0.494-0.525-0.896-1.195-0.872
		c-0.398,0.014-0.746,0.084-1.075,0.317C16.625,54.722,16.597,55.698,17.292,56.305z"/>
	<path fill="#DD962F" d="M21.083,62.826c-1.008-0.169-1.605-1.714-0.477-2.42c3.223-2.018,6.939,3.951,3.598,6.037
		c-1.23,0.769-2.932,0.011-3.506-1.23C20.248,64.243,20.485,63.384,21.083,62.826z"/>
	<path fill="#DD962F" d="M46.96,65.814c0.403-0.307,0.938-0.324,1.44-0.179c0.373,0.009,0.672,0.177,0.873,0.445
		c0.145,0.111,0.278,0.229,0.378,0.355c0.382,0.486,0.501,1.009,0.204,1.581c-0.568,1.09-1.969,1.381-2.859,0.492
		c-0.011-0.011-0.015-0.023-0.025-0.034c-0.093-0.059-0.188-0.102-0.273-0.194C45.903,67.434,46.077,66.488,46.96,65.814z"/>
	<path fill="#DD962F" d="M52.661,66.019c0.275-0.293,0.803-0.47,1.203-0.348c0.531-0.083,1.021,0.173,1.471,0.529
		c0.853,0.674,0.604,2.033-0.301,2.511c-0.675,0.358-1.557,0.362-2.223-0.016C51.737,68.086,51.94,66.792,52.661,66.019z"/>
	<path fill="#DD962F" d="M59.452,61.413c0.476-0.205,1.02-0.175,1.502,0.08c1.046,0.551,1.502,2.032,0.585,2.917
		c-1.066,1.028-2.903,0.44-3.271-0.95C57.993,62.417,58.618,61.624,59.452,61.413z"/>
	<path fill="#DD962F" d="M62.506,51.558c0.231-0.368,0.576-0.656,1.019-0.752c0.51-0.11,0.931,0.002,1.26,0.242
		c1.001,0.446,1.548,1.742,0.91,2.831c-0.485,0.828-1.349,0.941-2.103,0.651c-0.175-0.02-0.357-0.079-0.541-0.193
		C61.936,53.644,61.789,52.361,62.506,51.558z"/>
	<path fill="#DD962F" d="M79.999,34.923c0.432-0.852,1.286-1.116,2.127-0.844c0.529,0.097,1.048,0.357,1.423,0.712
		c0.634,0.602,0.978,1.531,0.818,2.364c0.003,0.337-0.065,0.673-0.253,0.979c-0.289,0.474-0.809,0.734-1.352,0.801
		c-0.141,0.121-0.312,0.219-0.535,0.274c-1.311,0.32-2.345-0.559-2.701-1.775C79.291,36.632,79.418,35.573,79.999,34.923z"/>
	<path fill="#DD962F" d="M66.204,60.527c1.141-1.718,3.138-2.199,5.064-1.78c1.646,0.357,0.947,2.873-0.691,2.517
		c-0.734-0.16-1.403-0.019-1.9,0.411c0.646,0.016,1.307,0.22,1.859,0.517c1.303,0.701,1.714,2.335,0.709,3.472
		c-1.326,1.5-3.654,1.721-5.121,0.344C64.625,64.604,65.205,62.03,66.204,60.527z"/>
	<path fill="#D43EC9" d="M69.243,45.661c1.334-2.048,4.967-1.534,5.066,1.029c0.052,1.367-1.641,1.6-2.321,0.749
		c1.328,3.199,2.778,3.356,4.353,0.462c0.455-1.162,0.19-2.596-0.074-3.75c-0.469-2.046-2.028-3.441-3.544-4.753
		c-1.991-1.723-4.437-3.863-4.036-6.81c0.422-3.121,2.164-5.248,5.289-5.651c3.021-0.39,4.072,3.088,3.615,5.258
		c-0.348,1.646-2.863,0.947-2.516-0.693c-3.955-0.542-4.878,0.779-2.766,3.959c0.457,0.501,0.944,0.971,1.462,1.41
		c1.036,0.937,2.089,1.796,3.038,2.826c1.215,1.317,1.996,3.238,2.224,5c0.45,3.489-1.03,8.043-5.337,8.014
		C70.094,52.687,66.982,49.136,69.243,45.661z"/>
	<path fill="#D43EC9" d="M34.872,35.247c0.018-0.019,0.041-0.027,0.06-0.044c0.503-0.659,1.396-0.914,2.31-0.621
		c0.107,0.011,0.216,0.013,0.321,0.031c0.369,0.062,0.642,0.329,0.801,0.659c0.753,0.782,1.039,1.981,0.208,2.878
		c-1.238,1.335-3.68,1.091-4.326-0.667C33.958,36.709,34.33,35.801,34.872,35.247z"/>
	<path fill="#D43EC9" d="M16.95,34.765c1.094-1.041,2.568-1.706,3.857-2.461c0.83-0.485,1.695-1.014,1.957-1.985
		c0.143-0.53,0.094-2.274-0.806-2.298c-1.68-0.045-1.684-2.656,0-2.609c3.12,0.084,3.878,3.534,3.194,6.073
		c-0.445,1.659-2.41,2.711-3.761,3.501c-1.169,0.683-2.234,1.278-3.228,2.224c-0.994,1.049-1.246,2.332-0.749,3.848
		c0.42,0.264,1.14,0.209,1.157,0.362c-0.191-1.67,2.422-1.652,2.609,0c0.436,3.812-6.209,2.959-6.696-0.134
		C14.079,38.707,15.083,36.544,16.95,34.765z"/>
	<path fill="#79B186" d="M35.068,18.031c1.08,0.158,2.33,0.685,3.224,1.317c0.375,0.265,0.541,0.628,0.566,0.995
		c0.379,0.688,0.238,1.632-0.74,1.806c-1.875,0.332-5.711,0.369-5.971-2.176C31.97,18.245,33.754,17.838,35.068,18.031z"/>
	<path fill="#79B186" d="M44.424,13.193c0.843,0.003,1.562,0.548,1.788,1.355c0.208,0.745-0.108,1.512-0.411,2.177
		c-0.541,1.188-1.451,2.443-2.518,3.21c-0.186,0.134-0.401,0.17-0.621,0.169c-0.199,0.043-0.414,0.116-0.662,0.03
		c-0.178-0.063-0.33-0.164-0.475-0.164l0,0c-0.662,0-0.984-0.736-0.978-1.397C40.072,16.47,42.323,13.186,44.424,13.193z"/>
	<path fill="#79B186" d="M36.883,27.433c0.519-1.193,1.365-2.236,2.449-2.951c0.211-0.209,0.48-0.344,0.777-0.391
		c0.984-0.221,1.777,0.788,1.549,1.633c0.16,1.416-0.3,2.724-1.084,3.95c-0.709,1.11-2.052,2.46-3.446,1.504
		C35.827,30.284,36.372,28.613,36.883,27.433z"/>
	<path fill="#79B186" d="M43.627,23.131c0.1-0.553,0.493-1.044,1.218-1.049c1.394-0.008,2.867-0.082,4.159,0.539
		c1.379,0.665,2.203,2.396,1.452,3.825c-1.301,2.474-6.106-0.41-6.876-2.123C43.383,23.886,43.446,23.474,43.627,23.131z"/>
	<path fill="#79B186" d="M23.846,36.33c0.011-0.042,0.033-0.076,0.047-0.116c0.01-0.044,0.002-0.088,0.016-0.132
		c0.21-0.768,0.918-1.089,1.655-1.1c0.241-0.004,0.438,0.058,0.61,0.146c0.051,0.015,0.103,0.022,0.154,0.04
		c0.519,0.185,1.004,0.656,0.957,1.258c-0.033,0.445-0.146,0.974-0.457,1.331c-0.242,0.517-0.758,0.914-1.472,0.76
		C24.391,38.309,23.549,37.368,23.846,36.33z"/>
	<path fill="#79B186" d="M58.897,40.825c0.191-0.444,0.65-0.781,1.121-0.87c0.068-0.014,0.129-0.006,0.194-0.012
		c0.509-0.218,1.091-0.248,1.673,0.018c0.664,0.303,1.111,1.401,0.846,2.076c-0.07,0.178-0.164,0.34-0.27,0.495
		c-0.106,0.462-0.423,0.886-0.902,0.977c-0.67,0.127-1.453,0.231-2.055-0.179c-0.502-0.341-0.789-0.924-0.738-1.517
		C58.721,41.498,58.752,41.162,58.897,40.825z"/>
	<path fill="#79B186" d="M43.769,82.528c-0.528-1.293-0.478-2.874-0.479-4.212c0-0.284,0.092-0.502,0.216-0.69
		c-0.372-0.684-0.229-1.628,0.742-1.816c1.498-0.291,2.424,0.498,2.676,1.949c0.239,1.369,0.592,2.844,0.41,4.235
		c-0.189,1.453-1.84,3.024-3.064,1.438c-0.18-0.233-0.318-0.49-0.438-0.754C43.807,82.629,43.788,82.58,43.769,82.528z"/>
	<path fill="#79B186" d="M36.495,78.177c0.08-0.706,0.531-1.305,1.305-1.305c0.023,0,0.049,0.007,0.072,0.008
		c1.567-0.527,2.606,0.661,2.672,2.183c0.021,0.533-0.078,1.063-0.035,1.596c0.059,0.715,0.205,1.469,0.027,2.18
		c-0.188,0.754-0.816,1.414-1.586,1.582c-0.869,0.191-1.539-0.298-2.018-0.973C35.955,82.063,36.321,79.72,36.495,78.177z"/>
	<path fill="#79B186" d="M30.777,77.993c0.207-1.222,1.464-1.42,2.409-0.943c0.826,0.416,0.986,1.553,0.943,2.365
		c-0.01,0.19-0.033,0.381-0.061,0.572c0.148,1.495,0.295,3.375-0.938,4.047c-2.305,1.256-2.564-2.334-2.564-3.689
		C30.566,79.404,30.643,78.788,30.777,77.993z"/>
	<path fill="#79B186" d="M24.605,76.963c0.526-1.074,1.798-0.706,2.235,0.131c0.465,0.26,0.811,0.753,0.704,1.411
		c0.006-0.047,0.013-0.094-0.007,0.14c-0.023,0.242-0.041,0.484-0.062,0.726c-0.051,0.568-0.123,1.136-0.223,1.697
		c-0.18,1.003-0.796,2.472-2.059,2.379C21.913,83.204,23.788,78.632,24.605,76.963z"/>
	<path fill="#79B186" d="M47.016,52.908c1.01-1.379,2.848-1.508,4.136-0.438c0.826,0.687,1.285,1.804,1.16,2.863
		c0.08,0.973-0.258,1.919-1.231,2.471C48.265,59.397,45.233,55.346,47.016,52.908z"/>
	<path fill="#79B186" d="M23.769,49.5c0.562-0.441,1.246-0.633,1.913-0.272c0.676,0.365,0.854,1.06,0.939,1.762
		c0.011,0.089,0.008,0.176-0.006,0.26c0.065,0.436,0.048,0.88-0.039,1.256c-0.143,0.608-0.816,1.264-1.484,1.181
		c-0.748-0.093-1.354-0.483-1.783-1.108C22.678,51.663,22.885,50.195,23.769,49.5z"/>
</g>
</svg>
