<?xml version="1.0" encoding="utf-8"?>
<!-- Generator: Adobe Illustrator 15.1.0, SVG Export Plug-In . SVG Version: 6.00 Build 0)  -->
<!DOCTYPE svg PUBLIC "-//W3C//DTD SVG 1.1//EN" "http://www.w3.org/Graphics/SVG/1.1/DTD/svg11.dtd">
<svg version="1.1" id="Layer_1" xmlns="http://www.w3.org/2000/svg" xmlns:xlink="http://www.w3.org/1999/xlink" x="0px" y="0px"
	 width="96.429px" height="95.088px" viewBox="0 0 96.429 95.088" enable-background="new 0 0 96.429 95.088" xml:space="preserve">
<g>
	<path fill="#8A7853" d="M81.879,33.966c-1.471-4.274-3.307-8.341-6.081-11.896c-0.052-0.146-0.124-0.292-0.233-0.43
		c-1.707-2.122-3.891-4.142-6.348-5.39c-1.684-1.566-3.491-2.719-5.414-3.552c-3.615-2.271-7.741-3.161-11.961-3.495
		c-5.92-1.397-12.029-1.895-17.291,1.476c-0.17,0.064-0.342,0.113-0.512,0.181c-2.887,0.833-5.658,1.904-8.217,3.64
		c-1.924,1.305-4.482,3.68-5.688,6.115c-1,1.073-1.929,2.211-2.786,3.423c-1.307,1.849-2.766,3.691-3.609,5.805
		c-0.059,0.148-0.063,0.277-0.072,0.408c-1.393,2.998-1.629,6.205-1.639,9.51c0.189,3.073,0.723,6.056,1.537,9.025
		c0.66,2.403,1.223,4.958,2.457,7.147c-0.046,0.264,0.004,0.556,0.207,0.854c2.632,3.851,5.279,7.25,8.942,10.251
		c1.715,1.405,3.837,2.288,5.812,3.255c2.016,0.988,3.756,2.24,5.811,3.066c-0.322,3.255-0.191,7.396,3.399,8.532
		c5.01,1.584,10.521,1.6,15.724,1.62c0.197,0,0.357-0.048,0.504-0.117c1.476,0.041,2.939-0.218,4.443-0.161
		c5.644,0.256,12.15,1.029,15.949-2.878c0.202-0.208,0.3-0.433,0.336-0.659c0.037-0.058,0.086-0.091,0.117-0.16
		c1.05-2.292,1.167-4.684,0.854-7.116c-0.008-0.796-0.034-1.598-0.059-2.402c0.072-0.164,0.114-0.351,0.105-0.573
		c-0.166-4.056,0.221-6.94,2.595-10.299c1.536-2.173,2.349-4.926,2.933-7.476c0.353-1.541,0.415-3.053,0.275-4.539
		C85.04,42.842,83.259,37.977,81.879,33.966z"/>
	<path fill="#382514" d="M51.082,45.867c-3.199-1.685-8.101,0.204-10.157,2.864c-3.533,4.566-0.285,9.943,4.315,11.908
		c4.976,2.124,10.353-0.089,11.316-5.481C57.293,51.036,54.739,47.189,51.082,45.867z"/>
	<path fill="#382514" d="M73.6,44.452c-0.246-0.093-0.476-0.111-0.688-0.067c-2.188-0.07-3.619,1.5-4.177,3.459
		c-1.053,1.598-1.38,3.466,0.122,5.159c1.484,1.673,4.521,3.741,6.673,1.991C78.866,52.281,78.103,45.298,73.6,44.452z"/>
	<path fill="#382514" d="M66.643,64.685c-0.241-0.253-0.623-0.228-0.871-0.028c-0.211-0.015-0.428,0.063-0.57,0.299
		c-0.876,1.452-2.908,2.969-2.324,4.945c0.242,0.815,0.83,1.104,1.639,1.168c0.688,0.055,1.08-0.468,1.4-1.013
		c0.992,0.794,2.585,1.608,3.143,0.227C69.78,68.497,67.772,65.874,66.643,64.685z"/>
	<path fill="#DD962F" d="M44.186,31.962c-2.402-3.809-8.81-5.834-9.158-10.786c-0.138-2.158,1.66-4.269,3.896-3.458
		c1.588,0.575,2.264-1.948,0.693-2.517c-3.785-1.371-7.439,2.202-7.199,5.975c0.19,2.7,1.57,4.667,3.461,6.522
		c1.047,1.03,2.237,1.917,3.367,2.855c0.519,0.431,1.019,0.884,1.521,1.333c1.009,0.896,0.432,2.946-1.011,2.458
		c-1.598-0.542-2.278,1.979-0.693,2.516C41.988,37.852,46.413,35.492,44.186,31.962z"/>
	<path fill="#DD962F" d="M70.443,25.812c-0.146-0.557-0.548-1.082-0.854-1.554c-0.959-1.48-0.109-2.569,0.207-3.983
		c0.296-1.314-0.363-2.969-0.832-4.162c-0.607-1.547-3.131-0.874-2.516,0.693c0.427,1.084,0.936,2.315,0.668,3.511
		c-0.185,0.814-0.787,1.679-0.676,2.553c0.262,2.082,2.57,4.481,0.053,5.779c-1.495,0.771-0.176,3.023,1.318,2.252
		C69.97,29.788,71.095,28.297,70.443,25.812z"/>
	<path fill="#DD962F" d="M63.663,42.259c-0.549-0.38-1.377-0.414-1.884,0.249c-0.006,0.006-0.011,0.012-0.016,0.019
		c-0.013,0.017-0.026,0.028-0.038,0.045c-0.065,0.095-0.107,0.212-0.162,0.317c-0.01,0.022-0.023,0.04-0.031,0.062
		c-0.398,0.804-0.549,1.854-0.483,2.687c0.05,0.629,0.238,1.337,0.757,1.749c0.578,0.458,1.414,0.69,2.066,0.211
		C65.329,46.532,65.368,43.106,63.663,42.259z"/>
	<g>
		<path fill="#DD962F" d="M82.038,48.365c-0.006-0.017-0.012-0.032-0.017-0.051c-0.044-1.006-1.238-1.5-1.995-1.041
			c-0.17,0.076-0.334,0.173-0.481,0.306c-0.433,0.389-0.479,0.859-0.325,1.267c0.004,0.235,0.076,0.478,0.26,0.73
			c0.485,0.664,1.415,0.91,2.049,0.263c0.314-0.318,0.539-0.644,0.553-1.109C82.084,48.608,82.069,48.486,82.038,48.365z"/>
		<path fill="#DD962F" d="M82.034,48.341c0.004,0.008,0.002,0.016,0.004,0.024C82.081,48.501,82.1,48.56,82.034,48.341z"/>
	</g>
	<path fill="#DD962F" d="M80.155,53.34c-0.328-0.232-0.677-0.303-1.074-0.317c-0.67-0.024-1.062,0.378-1.196,0.872
		c-0.126,0.211-0.202,0.456-0.196,0.685c0.012,0.463,0.19,0.741,0.471,1.087c0.305,0.378,0.837,0.408,1.269,0.336
		c0.38-0.064,0.631-0.26,0.853-0.521C80.973,54.874,80.945,53.898,80.155,53.34z"/>
	<path fill="#DD962F" d="M76.488,62.001c1.008-0.169,1.606-1.713,0.478-2.42c-3.223-2.017-6.939,3.951-3.598,6.037
		c1.23,0.769,2.932,0.011,3.506-1.229C77.323,63.418,77.086,62.56,76.488,62.001z"/>
	<path fill="#DD962F" d="M50.61,64.991c-0.402-0.307-0.938-0.324-1.44-0.18c-0.372,0.009-0.672,0.178-0.873,0.445
		c-0.145,0.111-0.278,0.229-0.378,0.355c-0.381,0.487-0.501,1.009-0.203,1.582c0.568,1.089,1.969,1.381,2.858,0.492
		c0.011-0.011,0.015-0.023,0.025-0.034c0.093-0.06,0.188-0.103,0.275-0.195C51.668,66.61,51.495,65.665,50.61,64.991z"/>
	<path fill="#DD962F" d="M44.91,65.194c-0.273-0.293-0.802-0.469-1.202-0.348c-0.53-0.083-1.021,0.173-1.471,0.529
		c-0.854,0.675-0.604,2.033,0.301,2.511c0.675,0.357,1.557,0.362,2.223-0.016C45.833,67.262,45.631,65.967,44.91,65.194z"/>
	<path fill="#DD962F" d="M38.12,60.589c-0.477-0.205-1.02-0.175-1.502,0.079c-1.047,0.551-1.502,2.033-0.585,2.917
		c1.067,1.029,2.903,0.441,3.271-0.95C39.579,61.593,38.954,60.799,38.12,60.589z"/>
	<path fill="#DD962F" d="M35.066,50.734c-0.233-0.368-0.577-0.656-1.019-0.752c-0.511-0.109-0.932,0.003-1.262,0.242
		c-1,0.447-1.547,1.743-0.91,2.831c0.485,0.828,1.351,0.942,2.104,0.651c0.174-0.019,0.356-0.079,0.541-0.193
		C35.635,52.82,35.783,51.537,35.066,50.734z"/>
	<path fill="#DD962F" d="M17.573,34.099c-0.433-0.852-1.286-1.116-2.127-0.844c-0.529,0.097-1.049,0.357-1.423,0.713
		c-0.634,0.602-0.978,1.531-0.819,2.363c-0.002,0.338,0.066,0.673,0.254,0.98c0.288,0.474,0.809,0.733,1.351,0.801
		c0.141,0.121,0.312,0.219,0.536,0.274c1.31,0.319,2.344-0.559,2.701-1.775C18.281,35.809,18.153,34.75,17.573,34.099z"/>
	<path fill="#DD962F" d="M31.368,59.703c-1.142-1.717-3.139-2.198-5.065-1.779c-1.646,0.357-0.947,2.873,0.692,2.516
		c0.734-0.16,1.402-0.018,1.899,0.411c-0.646,0.017-1.306,0.22-1.858,0.517c-1.303,0.702-1.715,2.336-0.709,3.472
		c1.326,1.5,3.654,1.722,5.121,0.344C32.947,63.78,32.368,61.206,31.368,59.703z"/>
	<path fill="#D43EC9" d="M28.328,44.837c-1.333-2.048-4.966-1.534-5.065,1.029c-0.053,1.368,1.641,1.6,2.32,0.749
		c-1.328,3.199-2.778,3.356-4.352,0.461c-0.455-1.162-0.19-2.595,0.073-3.749c0.469-2.046,2.028-3.441,3.544-4.753
		c1.992-1.723,4.438-3.864,4.037-6.81c-0.423-3.121-2.164-5.247-5.289-5.651c-3.021-0.39-4.073,3.089-3.614,5.258
		c0.347,1.646,2.861,0.948,2.515-0.693c3.955-0.542,4.879,0.778,2.766,3.959c-0.457,0.501-0.945,0.971-1.463,1.41
		c-1.035,0.937-2.089,1.796-3.037,2.825c-1.215,1.317-1.997,3.238-2.225,5c-0.449,3.489,1.031,8.043,5.337,8.014
		C27.477,51.863,30.588,48.312,28.328,44.837z"/>
	<path fill="#D43EC9" d="M62.7,34.422c-0.018-0.018-0.041-0.026-0.061-0.043c-0.502-0.659-1.395-0.915-2.309-0.621
		c-0.107,0.011-0.215,0.013-0.321,0.031c-0.369,0.062-0.642,0.33-0.801,0.659c-0.753,0.783-1.04,1.981-0.209,2.878
		c1.239,1.335,3.681,1.091,4.327-0.667C63.612,35.885,63.242,34.977,62.7,34.422z"/>
	<path fill="#D43EC9" d="M80.622,33.94c-1.094-1.041-2.568-1.706-3.857-2.46c-0.83-0.485-1.695-1.014-1.957-1.985
		c-0.143-0.529-0.094-2.273,0.805-2.298c1.68-0.045,1.684-2.655,0-2.61c-3.12,0.085-3.877,3.535-3.193,6.074
		c0.446,1.66,2.41,2.711,3.76,3.501c1.169,0.683,2.234,1.278,3.228,2.223c0.995,1.05,1.246,2.333,0.749,3.849
		c-0.42,0.263-1.139,0.209-1.156,0.362c0.19-1.671-2.422-1.652-2.61,0c-0.436,3.812,6.21,2.958,6.696-0.135
		C83.493,37.883,82.489,35.721,80.622,33.94z"/>
	<path fill="#79B186" d="M62.503,17.207c-1.08,0.159-2.331,0.686-3.224,1.317c-0.375,0.265-0.541,0.628-0.566,0.995
		c-0.379,0.688-0.238,1.632,0.74,1.806c1.874,0.332,5.711,0.369,5.971-2.176C65.6,17.421,63.816,17.014,62.503,17.207z"/>
	<path fill="#79B186" d="M53.147,12.369c-0.844,0.003-1.562,0.548-1.789,1.355c-0.207,0.745,0.109,1.512,0.412,2.177
		c0.54,1.188,1.451,2.444,2.517,3.211c0.187,0.134,0.403,0.17,0.621,0.169c0.199,0.043,0.415,0.117,0.662,0.03
		c0.179-0.063,0.331-0.163,0.476-0.163l0,0c0.662,0,0.984-0.737,0.977-1.398C57.499,15.646,55.249,12.362,53.147,12.369z"/>
	<path fill="#79B186" d="M60.688,26.608c-0.519-1.193-1.365-2.236-2.449-2.951c-0.211-0.21-0.481-0.344-0.778-0.391
		c-0.983-0.221-1.777,0.788-1.548,1.633c-0.16,1.416,0.299,2.724,1.084,3.95c0.709,1.11,2.052,2.461,3.445,1.505
		C61.745,29.46,61.2,27.789,60.688,26.608z"/>
	<path fill="#79B186" d="M53.944,22.307c-0.1-0.553-0.493-1.044-1.218-1.049c-1.394-0.008-2.867-0.082-4.159,0.539
		c-1.38,0.665-2.203,2.396-1.453,3.825c1.301,2.474,6.107-0.41,6.877-2.123C54.187,23.061,54.125,22.649,53.944,22.307z"/>
	<path fill="#79B186" d="M73.725,35.506c-0.012-0.042-0.033-0.077-0.047-0.116c-0.01-0.044-0.002-0.088-0.016-0.132
		c-0.211-0.767-0.918-1.089-1.656-1.1c-0.241-0.003-0.438,0.057-0.608,0.146c-0.052,0.015-0.104,0.022-0.155,0.04
		c-0.52,0.185-1.004,0.655-0.958,1.258c0.034,0.445,0.147,0.974,0.458,1.33c0.242,0.518,0.758,0.914,1.473,0.76
		C73.179,37.484,74.023,36.544,73.725,35.506z"/>
	<path fill="#79B186" d="M38.674,40.001c-0.191-0.445-0.651-0.781-1.121-0.87c-0.069-0.013-0.129-0.006-0.195-0.012
		c-0.509-0.218-1.091-0.248-1.672,0.018c-0.664,0.303-1.111,1.401-0.846,2.076c0.07,0.178,0.164,0.341,0.27,0.496
		c0.105,0.462,0.422,0.886,0.902,0.977c0.669,0.128,1.452,0.231,2.055-0.179c0.501-0.342,0.789-0.924,0.738-1.517
		C38.85,40.673,38.819,40.338,38.674,40.001z"/>
	<path fill="#79B186" d="M53.802,81.704c0.528-1.293,0.477-2.874,0.478-4.212c0-0.284-0.091-0.502-0.215-0.69
		c0.372-0.684,0.23-1.628-0.742-1.816c-1.498-0.291-2.424,0.498-2.677,1.949c-0.238,1.369-0.591,2.844-0.41,4.235
		c0.189,1.453,1.84,3.024,3.065,1.437c0.18-0.232,0.318-0.489,0.438-0.753C53.764,81.805,53.784,81.756,53.802,81.704z"/>
	<path fill="#79B186" d="M61.077,77.353c-0.08-0.707-0.532-1.305-1.305-1.305c-0.024,0-0.049,0.006-0.072,0.008
		c-1.567-0.527-2.607,0.661-2.671,2.184c-0.023,0.533,0.077,1.063,0.034,1.596c-0.059,0.714-0.205,1.469-0.027,2.179
		c0.188,0.754,0.817,1.414,1.586,1.583c0.869,0.191,1.539-0.299,2.017-0.973C61.618,81.239,61.25,78.896,61.077,77.353z"/>
	<path fill="#79B186" d="M66.793,77.169c-0.205-1.222-1.464-1.42-2.409-0.943c-0.824,0.416-0.986,1.552-0.942,2.364
		c0.01,0.19,0.032,0.381,0.06,0.572c-0.147,1.496-0.294,3.376,0.938,4.047c2.305,1.256,2.566-2.334,2.566-3.688
		C67.006,78.58,66.928,77.963,66.793,77.169z"/>
	<path fill="#79B186" d="M72.965,76.139c-0.525-1.073-1.797-0.706-2.234,0.131c-0.465,0.261-0.811,0.754-0.705,1.411
		c-0.005-0.047-0.012-0.094,0.008,0.141c0.023,0.242,0.041,0.484,0.062,0.725c0.051,0.568,0.123,1.136,0.223,1.697
		c0.18,1.003,0.796,2.472,2.059,2.379C75.659,82.38,73.784,77.808,72.965,76.139z"/>
	<path fill="#79B186" d="M50.554,52.083c-1.009-1.379-2.848-1.507-4.135-0.438c-0.827,0.686-1.286,1.804-1.161,2.862
		c-0.08,0.974,0.258,1.92,1.232,2.472C49.305,58.573,52.338,54.522,50.554,52.083z"/>
	<path fill="#79B186" d="M73.802,48.675c-0.563-0.441-1.247-0.633-1.914-0.271c-0.676,0.365-0.853,1.06-0.938,1.762
		c-0.011,0.088-0.008,0.176,0.006,0.26c-0.064,0.436-0.047,0.881,0.039,1.257c0.142,0.607,0.815,1.264,1.484,1.181
		c0.748-0.093,1.354-0.484,1.783-1.109C74.893,50.838,74.686,49.371,73.802,48.675z"/>
</g>
</svg>
