<?xml version="1.0" encoding="utf-8"?>
<!-- Generator: Adobe Illustrator 15.1.0, SVG Export Plug-In . SVG Version: 6.00 Build 0)  -->
<!DOCTYPE svg PUBLIC "-//W3C//DTD SVG 1.1//EN" "http://www.w3.org/Graphics/SVG/1.1/DTD/svg11.dtd">
<svg version="1.1" id="Layer_1" xmlns="http://www.w3.org/2000/svg" xmlns:xlink="http://www.w3.org/1999/xlink" x="0px" y="0px"
	 width="93.304px" height="38.393px" viewBox="0 0 93.304 38.393" enable-background="new 0 0 93.304 38.393" xml:space="preserve">
<g>
	<path fill="#CDCF0D" d="M7.22,5.589C6.734,5.6,6.38,5.926,6.224,6.314c-0.072,0.049-0.143,0.104-0.21,0.178
		c-3.208,3.541-2.791,10.387-2.054,14.782c0.302,1.812,1.021,4.502,2.643,5.599c0.373,0.252,0.745,0.373,1.104,0.399
		c0.088,0.03,0.18,0.053,0.285,0.06c4.894,0.33,9.795,0.113,14.697,0.153c5.283,0.043,10.578,0.497,15.843,0.915
		c10.338,0.819,20.656,1.861,31.023,2.209c0.158,0.136,0.363,0.229,0.621,0.246c3.927,0.262,7.866,0.418,11.77,0.932
		c1.452,0.191,2.816,0.232,3.995-0.113c1.91-0.197,2.886-1.888,3.46-3.775c0.999-2.541,1.525-5.377,1.513-8.095
		c0.284-2.667,0.083-5.252-1.602-7.713c-0.415-0.606-1.15-0.558-1.596-0.208c-0.152-0.08-0.315-0.148-0.49-0.208
		c-0.165-0.163-0.387-0.28-0.675-0.304c-0.287-0.025-0.574-0.061-0.86-0.096c-0.113-0.056-0.238-0.098-0.384-0.112
		C72.2,9.844,59.133,8.54,46.002,7.52c-6.311-0.49-12.595-1.258-18.915-1.596C21.078,5.602,14.902,6.5,8.918,5.806
		C8.437,5.593,7.874,5.508,7.22,5.589z"/>
	<path fill="#F5E8C8" d="M6.679,7.884c-2.428,0.708-1.802,5.211-1.646,6.987c0.013,0.149,0.029,0.301,0.044,0.452
		c0.003,0.729,0.032,1.416,0.049,1.993c0.056,1.891-0.143,5.558,1.318,7.264c-0.684,1.071,1.064,2.055,1.819,0.993
		c2.369-3.324,2.749-7.745,2.859-11.709C11.187,11.584,10.073,6.893,6.679,7.884z"/>
	<path fill="#F5E8C8" d="M46.338,11.564c-0.003,3.574,0.092,7.71-1.515,11.192c-0.674,1.462-2.337,1.454-3.717,1.431
		c-1.743-0.031-3.489-0.203-5.235-0.249c-3.979-0.105-7.962-0.117-11.941-0.118c-3.902-0.001-7.786-0.172-11.654,0.445
		c-1.317,0.21-0.756,2.204,0.551,1.996c4.692-0.749,9.571-0.386,14.305-0.377c4.495,0.009,8.994,0.032,13.48,0.307
		c2.636,0.159,5.039-0.301,6.224-2.869c1.668-3.617,1.573-8.184,1.574-11.758C48.412,10.374,46.338,10.374,46.338,11.564z"/>
	<path fill="#F5E8C8" d="M52.764,12.2c9.811,0.021,19.266,1.524,28.951,2.865c1.306,0.181,1.87-1.816,0.551-1.999
		c-9.872-1.367-19.501-2.917-29.502-2.938C51.427,10.125,51.427,12.197,52.764,12.2z"/>
	<path fill="#705538" d="M13.38,6.81c-1.336,0.008-1.336,2.081,0,2.073c4.853-0.027,9.696-0.466,14.55-0.303
		c5.315,0.18,10.528,1.626,15.645,2.961c1.295,0.337,1.844-1.663,0.551-1.999c-4.81-1.254-9.619-2.461-14.578-2.939
		C24.188,6.086,18.749,6.781,13.38,6.81z"/>
	<path fill="#705538" d="M50.345,9.133c-0.551-0.047-1.128,0.281-1.104,0.994c0.036,1.067,0.185,2.12,0.347,3.171
		c-0.298,2.154-0.59,4.31-0.924,6.453c-0.284,1.814-0.78,3.72-2.031,4.889c-0.258,0.08-0.519,0.157-0.777,0.24
		c-0.142,0.047-0.253,0.117-0.351,0.197c-1.551,0.05-3.098,0.158-4.646,0.247c-0.733-0.089-1.464-0.183-2.188-0.273
		c-0.429-0.054-0.715,0.128-0.863,0.401c-0.195,0.005-0.393,0.011-0.589,0.014c-1.335,0.012-1.336,2.084,0,2.072
		c1.229-0.012,2.456-0.072,3.681-0.143c1.234,0.143,2.471,0.263,3.706,0.309c0.084,0.014,0.171,0.017,0.263,0.009
		c1.693,0.048,3.386-0.049,5.064-0.419c0.07-0.017,0.133-0.038,0.192-0.063c0.118,0.125,0.281,0.223,0.5,0.271
		c5.885,1.29,11.893,1.793,17.87,2.459c5.755,0.641,11.077,1.032,16.696-0.331c0.191,0.721,1.083,1.231,1.68,0.507
		c2.378-2.886,3.116-6.907,3.586-10.527c0.382-2.935,0.719-6.924-1.931-8.926c-1.067-0.808-2.099,0.994-1.046,1.79
		c1.899,1.436,1.145,5.626,0.825,7.62c-0.382,2.382-0.815,5.108-2.031,7.29c-0.179-0.066-0.386-0.08-0.619-0.015
		c-5.825,1.626-11.246,1.197-17.16,0.52c-5.795-0.663-11.591-1.135-17.301-2.386c-0.022-0.005-0.049-0.004-0.049-0.008
		c0-0.088,0-0.175,0-0.264c0-2.39,0.818-4.722,0.997-7.119c0.125-1.666-0.19-3.312-0.466-4.957c0.146-0.986,0.289-1.972,0.436-2.96
		C52.271,9.11,50.92,8.542,50.345,9.133z"/>
	<path fill="#705538" d="M7.784,7.639c3.642,0.257,3.629,5.501,3.387,8.129c-0.244,2.648-0.897,7.62-4.078,8.284
		c-1.308,0.272-0.753,2.271,0.551,1.998c4.313-0.899,5.213-6.672,5.6-10.282c0.423-3.963-0.508-9.853-5.46-10.201
		C6.449,5.472,6.458,7.546,7.784,7.639z"/>
	<path fill="#D9E021" d="M39.705,17.821H22.143c-1,0-1,2,0,2h13.012c-1.936,0-3.899,0.63-5.877,0.759
		c-3.487-0.01-6.972-0.164-10.44-0.686c-1.307-0.196-1.87,1.807-0.551,2.004c0.327,0.05,0.654,0.094,0.982,0.137
		c0.114,0.391,0.429,0.72,0.951,0.735c3.035,0.08,6.093,0.086,9.127-0.121c4.137,0.016,8.279-0.177,12.432-0.294
		c1.333-0.037,1.337-2.109,0-2.072c-0.174,0.005-0.349,0.011-0.521,0.016c0.488-0.179,0.976-0.368,1.459-0.571
		c1.227-0.52,0.17-2.304-1.046-1.79c-0.354,0.149-0.712,0.294-1.069,0.428C40.455,18.05,40.16,17.821,39.705,17.821z"/>
	<path fill="#D9E021" d="M28.926,13.029c-1.332,0.051-1.337,2.123,0,2.073c5.256-0.2,10.507-0.178,15.753,0.207
		c1.334,0.098,1.325-1.977,0-2.073C39.433,12.851,34.182,12.829,28.926,13.029z"/>
	<path fill="#D9E021" d="M55.044,22.978c-1.321,0.113-1.333,2.188,0,2.073c3.953-0.34,8.062,1.152,11.946,1.801
		c4.214,0.703,8.456,1.155,12.72,0.687c1.313-0.145,1.327-2.219,0-2.072c-4.35,0.478-8.633-0.023-12.929-0.74
		C62.928,24.084,58.983,22.639,55.044,22.978z"/>
	<path fill="#D9E021" d="M55.39,19.832c3.969,0.766,8.071,0.73,12.098,0.858c4.49,0.143,8.978,0.282,13.467,0.422
		c1.338,0.042,1.333-2.031,0-2.073c-3.966-0.124-7.93-0.248-11.896-0.373c-4.345-0.137-8.836-0.009-13.117-0.833
		C54.635,17.582,54.078,19.579,55.39,19.832z"/>
	<path fill="#D9E021" d="M26.713,10.592c-2.96,0.128-6.411-0.079-9.255,0.815c-1.271,0.399-0.727,2.4,0.551,1.999
		c2.641-0.831,5.942-0.606,8.704-0.741c3.224-0.158,6.45-0.167,9.675-0.052c1.338,0.049,1.333-2.024,0-2.072
		C33.161,10.425,29.938,10.454,26.713,10.592z"/>
	<path fill="#D9E021" d="M55.183,16.101c4,1.07,8.401,0.419,12.502,0.483c5.055,0.079,10.093,0.45,15.066,1.382
		c1.307,0.244,1.864-1.753,0.552-1.999c-4.394-0.823-8.828-1.232-13.292-1.396c-2.296-0.085-4.599-0.111-6.895-0.083
		c-2.5,0.03-4.934,0.27-7.382-0.386C54.44,13.756,53.893,15.756,55.183,16.101z"/>
</g>
</svg>
