<?xml version="1.0" encoding="utf-8"?>
<!-- Generator: Adobe Illustrator 15.1.0, SVG Export Plug-In . SVG Version: 6.00 Build 0)  -->
<!DOCTYPE svg PUBLIC "-//W3C//DTD SVG 1.1//EN" "http://www.w3.org/Graphics/SVG/1.1/DTD/svg11.dtd">
<svg version="1.1" id="Layer_1" xmlns="http://www.w3.org/2000/svg" xmlns:xlink="http://www.w3.org/1999/xlink" x="0px" y="0px"
	 width="49.651px" height="128.571px" viewBox="0 0 49.651 128.571" enable-background="new 0 0 49.651 128.571"
	 xml:space="preserve">
<g>
	<path fill="#FCCD21" d="M43.193,101.511c-0.005-0.188-0.013-0.376-0.021-0.565c0.033-0.143,0.052-0.295,0.051-0.461
		c-0.021-2.67-0.292-5.318-0.578-7.97c-0.151-1.393-0.243-2.779-0.314-4.168c0.029-4.31,0.067-8.636-0.201-12.925
		c-0.161-2.576-0.261-5.147-0.269-7.729c-0.008-2.257-0.152-4.547-0.82-6.715c-0.067-0.219-0.162-0.405-0.277-0.563
		c-0.45-4.575-1.786-8.98-4.907-12.567c-1.952-2.243-3.492-4.607-4.129-7.547c-0.114-0.526-0.209-1.071-0.282-1.621
		c0.027-4.366,0.09-8.728,0.22-13.096c0.04-1.333,0.13-3.337-0.103-5.253c0.429-3.144,0.294-7.291-2.087-9.368
		c-1.253-1.094-3.285-1.403-5.183-1.051c-1.952-0.341-4.003-0.229-5.82,0.309c-1.521,0.45-2.589,1.299-3.083,2.822
		c-0.396,1.22-0.076,2.602-0.007,3.864c-0.244,8.143,0.247,16.28,0.306,24.423c-0.05,0.213-0.052,0.45,0.004,0.706
		c0,0.173,0.002,0.345,0.002,0.519c0,0.224,0.035,0.426,0.095,0.606c-0.164,0.967-0.799,2.158-1.088,2.844
		c-0.809,1.918-2.376,3.523-3.546,5.224c-1.976,2.874-4.017,6.059-3.774,9.561c-0.108,0.232-0.167,0.505-0.157,0.822
		c0.013,0.396,0.032,0.792,0.056,1.187c-0.036,0.146-0.057,0.305-0.056,0.478c0.008,1.55,0.079,3.096,0.188,4.638
		C7.076,72.898,7.225,77.949,7.224,82.94c0,0.437,0.126,0.792,0.332,1.064c-0.009,1.077-0.021,2.154-0.024,3.23
		c-0.001,0.03-0.005,0.06-0.005,0.091c-0.027,2.037-0.21,4.013,0.207,6.024c0.015,1.335,0.022,2.669,0.046,4.004
		c0.028,1.621,0.133,3.191,0.413,4.79c0.088,0.503,0.208,1.015,0.331,1.528c0.204,4.329,0.22,8.64,0.214,12.997
		c-0.001,0.446,0.131,0.808,0.345,1.083c0.017,0.045,0.033,0.09,0.054,0.136c1.148,2.507,3.812,3.843,6.273,4.745
		c3.272,1.2,6.898,1.45,10.352,1.315c3.298-0.129,6.807-0.439,9.864-1.755c2.27-0.976,5.295-2.326,6.814-4.455
		c0.681-0.196,1.241-0.753,1.237-1.674C43.656,111.212,43.305,106.362,43.193,101.511z"/>
	<path fill="#999999" d="M29.659,6.397c-1.727-1.271-4.261-0.914-6.294-0.6c-1.317-0.057-2.659,0.086-3.928,0.41
		c-0.914,0.141-1.792,0.403-2.581,0.973c-2.001,1.148-3.465,4.782-1.843,6.665c0.273,0.317,0.59,0.519,0.939,0.65
		c0.58,0.417,1.291,0.682,2.056,0.748c1.761,0.151,3.605-0.188,5.368-0.292c2.185-0.129,4.683,0.018,6.653-1.069
		c0.556-0.306,0.968-0.773,1.229-1.313c0.15-0.156,0.296-0.321,0.432-0.509C33.129,10.07,31.208,7.538,29.659,6.397z"/>
	<path fill="#FCEE21" d="M19.627,21.53c-0.006-1.17-1.821-1.17-1.815,0c0.035,6.577,1.175,13.086,1.21,19.664
		c0.006,1.17,1.822,1.17,1.815,0C20.802,34.616,19.662,28.106,19.627,21.53z"/>
	<path fill="#FCEE21" d="M14.296,52.35c-1.562,1.851-2.996,3.705-3.492,6.13c-0.309,1.505-0.199,2.671-0.226,4.201
		c-0.03,1.701-0.027,3.622-0.027,4.622c0,2,1.815,2,1.815,0s0.007-4.812,0.101-7.458c0.099-2.77,1.377-4.396,3.112-6.454
		C16.33,52.504,15.052,51.454,14.296,52.35z"/>
	<path fill="#FCEE21" d="M18.961,118.819c-2.346-0.649-4.446-1.832-5.264-4.254c-0.44-1.303-0.422-2.755-0.494-4.117
		c-0.091-1.733-0.08-3.146-0.08-5.146c0-1-1.815-1-1.815,0c0,2,0.01,4.167,0.146,6.279c0.097,1.497,0.196,3.057,0.849,4.433
		c1.197,2.521,3.571,3.851,6.175,4.571C19.608,120.898,20.087,119.13,18.961,118.819z"/>
	<path fill="#2E3192" d="M43.525,90.352c-0.212-2.175-0.401-4.345-0.535-6.528c-0.27-4.422-0.796-8.854-0.826-13.287
		c-0.001-0.15-0.033-0.279-0.084-0.39c-0.145-0.538-0.701-0.951-1.281-0.545c-2.263,1.583-4.832,2.031-7.282,3.179
		c-2.688,1.259-4.971,2.471-7.991,2.749c-3.037,0.277-6.079,0.286-9.118,0.05c-2.825-0.22-5.574-0.929-8.427-0.806
		c-0.448,0.019-0.723,0.299-0.828,0.635c-0.222,0.142-0.382,0.382-0.382,0.726c-0.007,2.509-0.086,5.019-0.044,7.528
		c0.044,2.688,0.501,5.311,0.709,7.982c0.16,2.05,0.424,4.131,0.444,6.185c0.011,1.21-0.08,2.505,0.208,3.697
		c-0.262,0.472-0.002,1.219,0.559,1.348c0.292,0.066,0.551,0.07,0.799,0.04c0.362,0.145,0.811,0.184,1.258,0.143
		c0.147-0.014,0.276-0.055,0.387-0.117c0.195,0.011,0.398,0.013,0.62,0c3.292-0.181,6.606-0.035,9.904-0.173
		c3.158-0.133,6.308-0.443,9.419-1.003c2.249-0.405,4.682-0.856,6.684-2.016c2.082-0.541,3.957-1.523,5.277-3.36
		c0.314-0.028,0.589-0.229,0.65-0.653C43.909,93.918,43.703,92.165,43.525,90.352z"/>
	<path fill="#D5952B" d="M28.027,80.667c-0.476-0.834-1.112-1.455-1.823-1.85c-1.698-1.53-4.467-1.609-6.276,0.037
		c-2.175,1.98-2.422,4.931-2.208,7.684c0.197,2.535,0.736,5.239,2.476,7.189c1.859,2.084,5.533,1.729,7.203-0.4
		c0.243-0.309,0.443-0.644,0.606-0.998c0.793-1.156,1.147-2.697,1.298-4.081C29.571,85.798,29.26,82.834,28.027,80.667z"/>
</g>
</svg>
