<?xml version="1.0" encoding="utf-8"?>
<!-- Generator: Adobe Illustrator 15.1.0, SVG Export Plug-In . SVG Version: 6.00 Build 0)  -->
<!DOCTYPE svg PUBLIC "-//W3C//DTD SVG 1.1//EN" "http://www.w3.org/Graphics/SVG/1.1/DTD/svg11.dtd">
<svg version="1.1" id="Layer_1" xmlns="http://www.w3.org/2000/svg" xmlns:xlink="http://www.w3.org/1999/xlink" x="0px" y="0px"
	 width="98.759px" height="125.893px" viewBox="0 0 98.759 125.893" enable-background="new 0 0 98.759 125.893"
	 xml:space="preserve">
<g>
	<path fill="#1F1E20" d="M89.141,25.731c0-0.784-0.194-1.438-0.5-1.993c-0.082-0.369-0.165-0.738-0.264-1.097
		c0.009-0.64-0.12-1.312-0.469-2.001c-0.228-0.449-0.482-0.878-0.751-1.298C82.112,8.6,68.48,3.414,57.01,2.759
		c-8.718-0.497-21.044,0.997-30.861,5.542c-5.72,1.929-10.591,5.457-13.573,11.505c-0.959,0.652-1.633,1.728-1.612,3.256
		c0.096,6.793,0.55,13.871,1.572,20.586c0.48,3.159,0.916,6.722,1.64,10.18c-0.02,0.196-0.049,0.386-0.042,0.599
		c0.277,9.568,4.63,17.832,13.935,21.46c4.099,1.599,8.411,2.828,12.782,3.515c0.565,4.401-0.797,11.126-0.329,16.529
		c-0.378,2.015-0.723,4.049-0.775,6.093c-2.015,0.658-3.963,1.454-5.864,2.39c-3.176,1.563-6.604,3.298-7.969,6.756
		c-3.145,7.973,6.454,10.357,12.21,10.792c0.245,0.018,0.466,0,0.687-0.016c5.255,1.45,11.959,0.83,17.778-0.416
		c2.608,0.047,5.468-0.193,7.829-1.195c3.021-0.452,5.818-1.338,7.558-3.078c7.338-7.337-7.252-13.945-14.436-16.106
		c-0.041-1.555-0.117-3.107-0.202-4.659c0.078-5.776,0.148-11.534,0.125-17.315c2.316-0.405,4.659-0.922,7.195-1.515
		c4.084-0.562,7.969-1.736,11.503-4.393c1.425-1.069,2.932-2.128,4.305-3.319c0.263-0.197,0.528-0.378,0.789-0.586
		c2.095-1.673,4.127-4.251,5.312-7.049c0.338-0.428,0.6-0.962,0.757-1.617C90.001,49.468,89.141,37.193,89.141,25.731z"/>
	<path fill="#6FB48B" d="M15.801,53.94c-0.436-2.911-0.569-5.963-0.67-8.903c-0.069-2.049,0.702-6.7-1.55-7.98
		c-0.084-0.96-0.741-1.866-1.983-1.88C5.3,35.104,1.008,44.374,3.223,49.782c1.409,3.442,7.506,11.738,11.791,8.139
		C16.11,57,15.987,55.178,15.801,53.94z"/>
	<path fill="#6FB48B" d="M94.981,36.51c-1.229-2.668-4.136-3.932-6.919-3.375c-0.054,0.011-0.099,0.036-0.151,0.05
		c-0.025-0.002-0.046-0.01-0.07-0.012c-1.485-0.11-2.134,1.13-1.959,2.281c-0.75,2.289-0.462,5.61-0.528,7.065
		c-0.106,2.34,0.059,4.707-0.117,7.04c-0.106,1.396-0.617,3.102,0.15,4.411c1.903,3.25,5.654-0.201,7.216-1.814
		c1.152-1.19,1.99-2.731,2.534-4.409C96.712,44.34,96.718,40.278,94.981,36.51z"/>
	<path fill="#6FB48B" d="M55.086,39.128c-1.093-1.776-2.557-2.657-4.079-2.843c-1.827-0.926-4.334-0.801-5.825,0.578
		c-2.243,2.074-2.829,4.639-2.994,7.559c-0.163,0.392-0.329,0.779-0.473,1.213c-1.462,4.418-2.008,9.856,3.117,11.596
		C55.238,60.765,59.508,46.317,55.086,39.128z"/>
	<path fill="#6FB48B" d="M83.662,21.178c-1.873-5.23-7.446-9.342-12.296-11.671C62.2,5.103,48.36,3.376,37.887,6.785
		c-3.767,0.558-7.419,1.687-10.65,3.814c-0.13,0.085-0.242,0.18-0.343,0.279c-0.569,0.231-1.129,0.469-1.659,0.722
		c-3.587,1.717-6.245,4.462-8.927,7.331c-0.114,0.122-0.209,0.249-0.288,0.377c-1.472,0.966-2.283,2.682-0.951,4.505
		c2.599,3.556,8.35,5.028,12.522,5.371c7.748,0.637,15.497,0.421,23.259,0.469c9.108,0.055,17.577,0.207,26.226-2.97
		C78.874,26.021,84.837,24.461,83.662,21.178z M78.37,20.599c-0.005,0.006-0.246,0.206-0.282,0.246
		c-0.154,0.107-0.314,0.205-0.476,0.297c-0.067,0.039-0.112,0.066-0.143,0.086c-0.032,0.009-0.071,0.022-0.133,0.044
		c-0.115,0.041-0.658,0.081-0.172,0.056c-0.424,0.021-0.822,0.155-1.154,0.375c-8.566,1.903-16.246,3.67-25.207,3.268
		c-9.009-0.406-20.442,0.014-29.024-3.805c0.023-0.09,0.05-0.175,0.062-0.271c0.599-4.751,12.133-7.711,15.393-8.725
		c2.311-0.718,4.807-1.324,7.36-1.752c0.084-0.011,0.169-0.024,0.249-0.044c4.351-0.708,8.861-0.885,12.919-0.165
		c0.357,0.063,0.683,0.038,0.979-0.046c0.951,0.167,1.875,0.352,2.763,0.552c3.939,0.887,7.846,2.156,11.281,4.291
		c2.212,1.375,4.085,3.48,5.823,5.409C78.525,20.471,78.444,20.529,78.37,20.599z"/>
	<path fill="#6FB48B" d="M54.962,79.042c-0.03-0.294-0.223-0.558-0.578-0.596c-0.146-0.272-0.431-0.46-0.761-0.324
		c-3.358,1.383-7.366,1.792-10.812,0.5c-0.677-0.254-1.027,0.572-0.698,1.058c-0.241,0.307-0.231,0.813,0.167,1.036
		c1.966,1.1,4.927,0.927,7.085,0.874c1.63-0.04,4.842-0.027,5.702-1.789C55.212,79.506,55.13,79.236,54.962,79.042z"/>
	<path fill="#6FB48B" d="M54.99,101.876c0.011-0.41-0.37-0.837-0.866-0.732c-1.921,0.406-3.976,1.033-6.016,1.27
		c-0.576-0.021-1.163-0.063-1.755-0.109c-1.053-0.395-2.156-0.739-3.267-0.855c-0.916-0.096-2.17,0.261-2.037,1.447
		c0.123,1.082,1.426,1.411,2.315,1.59c0.901,0.181,1.955,0.333,2.877,0.165c2.845,0.208,6.458-1.116,8.415-1.676
		C55.201,102.818,55.248,102.225,54.99,101.876z"/>
	<path fill="#6FB48B" d="M68.987,112.303c-0.112-0.299-0.338-0.448-0.588-0.472c-0.172-0.082-0.377-0.088-0.591,0.06
		c-1.33,0.921-3.265,1.694-5.126,2.262c-2.32,0.45-4.603,0.811-4.721,0.838c-0.214,0.05-0.353,0.17-0.427,0.318
		c-0.967,0.171-1.932,0.319-2.899,0.453c-0.726-0.024-1.438-0.038-2.121-0.006c-3.918,0.18-7.852,0.357-11.763-0.001
		c-3.24-0.296-6.089-1.268-9.045-2.491c-1.262-0.521-2.779-1.187-4.098-0.72c-0.048-0.019-0.094-0.04-0.145-0.055
		c-0.591-0.176-0.935,0.403-0.814,0.862c-0.07,0.422,0.239,0.867,0.639,0.85c1.762,1.192,3.631,1.998,5.569,2.533
		c0.473,0.151,0.945,0.297,1.42,0.43c1.062,0.344,2.14,0.619,3.242,0.778c2.545,0.506,5.133,0.794,7.779,0.906
		c2.576,0.11,5.471,0.47,7.856-0.606c2.808,0.349,6.031-0.362,8.988-1.536c0.063-0.02,0.125-0.03,0.188-0.052
		c0.055-0.019,0.093-0.052,0.139-0.08c0.942-0.389,1.857-0.82,2.718-1.28C67.592,114.729,69.559,113.827,68.987,112.303z"/>
	<path fill="#6FB48B" d="M28.671,39.427c-0.018-0.115-0.055-0.217-0.091-0.32c-0.143-0.878-0.496-1.549-1.259-1.461
		c-1.04,0.12-1.534,1.106-1.729,2.299c-0.488,1.57-0.295,3.669,0.452,4.905c0.023,0.082,0.047,0.178,0.07,0.252
		c0.124,0.395,0.635,0.68,1.012,0.412c0.225-0.16,0.412-0.362,0.57-0.596c0.258-0.273,0.425-0.624,0.546-1.007
		c0.129-0.11,0.22-0.274,0.227-0.493C28.511,42.079,28.881,40.767,28.671,39.427z"/>
	<path fill="#6FB48B" d="M36.757,49.122c-0.167-1.025-1.721-1.426-2.556-1.474c-1.375-0.078-2.789,0.439-4.102,0.775
		c-0.272,0.07-0.411,0.254-0.46,0.461c-1.276,1.52,2.375,2.057,3.126,2.151c0.552,0.07,1.415,0.071,2.204-0.089
		c0.125,0.005,0.241-0.013,0.333-0.072C36.206,50.623,36.917,50.106,36.757,49.122z"/>
	<path fill="#6FB48B" d="M21.994,47.275c-1.017-0.455-2.351-0.77-3.436-0.408c-0.568,0.189-1.014,0.586-1.238,1.04
		c-0.339,0.448-0.434,1.055-0.081,1.623c0.56,0.897,1.935,0.963,2.868,0.943c0.941-0.02,2.068-0.154,2.77-0.841
		C23.812,48.715,22.893,47.677,21.994,47.275z"/>
	<path fill="#6FB48B" d="M26.707,52.078c-0.066-0.093-0.151-0.167-0.245-0.225c0.062-0.544-0.653-1.072-1.17-0.583
		c-0.963,0.911-1.177,2.642-1.34,3.877c-0.149,1.136-0.186,2.839,1.095,3.327C27.458,59.392,27.503,53.2,26.707,52.078z"/>
	<path fill="#6FB48B" d="M74.1,36.526c-0.101-0.243-0.217-0.486-0.38-0.73c-0.228-0.343-0.61-0.672-1.038-0.704
		c-0.292-0.083-0.648,0.022-0.785,0.301c-0.024,0.049-0.041,0.106-0.063,0.157c-0.115,0.177-0.195,0.377-0.244,0.598
		c-0.702,2.041-0.559,4.721,0.641,6.448c0.024,0.036,0.054,0.059,0.082,0.088c-0.002,0.021-0.007,0.042-0.009,0.064
		c-0.081,0.669,0.695,0.822,1.119,0.474c0.187-0.025,0.37-0.099,0.499-0.292c0.682-1.019,0.683-2.612,0.7-3.786
		C74.632,38.429,74.626,37.202,74.1,36.526z"/>
	<path fill="#6FB48B" d="M69.805,46.996c0.03-0.262-0.072-0.527-0.34-0.671c-0.574-0.614-1.673-0.893-2.374-1.049
		c-1.073-0.237-2.883-0.559-3.762,0.323c-0.945,0.947-0.558,2.029,0.557,2.494c0.847,0.705,2.27,0.711,3.28,0.635
		c0.85-0.063,2.652-0.302,2.678-1.474C69.847,47.161,69.82,47.081,69.805,46.996z"/>
	<path fill="#6FB48B" d="M82.99,45.432c-1.729-1.497-4.771-0.993-6.704,0.113c-0.165,0.078-0.321,0.164-0.459,0.271
		c-0.002,0.003-0.008,0.005-0.012,0.008c-0.043,0.029-0.066,0.068-0.099,0.103c-0.109,0.1-0.23,0.187-0.315,0.311
		c-0.23,0.338-0.034,0.728,0.248,0.943c1.818,1.392,5.849,0.96,7.342-0.775C83.222,46.138,83.289,45.691,82.99,45.432z"/>
	<path fill="#6FB48B" d="M72.469,50.608c-0.228-0.714-1.417-0.679-1.333,0.149c0.14,1.393-2.047,7.145,1.023,6.862
		C75.006,57.357,74.088,51.968,72.469,50.608z"/>
	<path fill="#E2992E" d="M74.717,45.796c-0.005-0.016-0.005-0.03-0.011-0.046c-0.362-0.949-1.464-1.462-2.357-0.87
		c-0.558,0.369-0.739,0.982-0.636,1.559c-0.009,0.24,0.083,0.482,0.242,0.667c0.088,0.103,0.19,0.197,0.3,0.285
		c0.024,0.018,0.031,0.045,0.054,0.062c0.054,0.039,0.106,0.057,0.16,0.087c0.146,0.295,0.434,0.492,0.821,0.426
		c0.113,0.015,0.226,0.011,0.335-0.013c0.76-0.164,1.268-0.798,1.233-1.47C74.933,46.252,74.863,45.996,74.717,45.796z"/>
	<path fill="#E2992E" d="M27.505,47.422c-0.765-0.532-1.653-0.333-2.082,0.428c-0.579,0.349-0.576,1.306,0.023,1.543
		c0.075,0.464,0.454,0.855,1.018,0.646c0.702-0.26,1.345-0.715,1.319-1.438C28.024,48.196,27.909,47.702,27.505,47.422z"/>
</g>
</svg>
