<?xml version="1.0" encoding="utf-8"?>
<!-- Generator: Adobe Illustrator 15.1.0, SVG Export Plug-In . SVG Version: 6.00 Build 0)  -->
<!DOCTYPE svg PUBLIC "-//W3C//DTD SVG 1.1//EN" "http://www.w3.org/Graphics/SVG/1.1/DTD/svg11.dtd">
<svg version="1.1" id="Layer_1" xmlns="http://www.w3.org/2000/svg" xmlns:xlink="http://www.w3.org/1999/xlink" x="0px" y="0px"
	 width="113.937px" height="65.625px" viewBox="0 0 113.937 65.625" enable-background="new 0 0 113.937 65.625"
	 xml:space="preserve">
<g>
	<path fill="#B54D3E" d="M110.604,39.759c-0.416-0.977-0.881-1.927-1.372-2.865c-0.956-2.716-1.988-5.404-3-8.057
		c-1.464-3.834-3.23-7.705-6.347-10.317c-0.237-0.198-0.507-0.301-0.779-0.344c-0.562-0.765-1.186-1.419-1.902-1.877
		c-8.545-5.463-21.473-5.386-31.43-4.973c-7.38-0.437-14.833-0.107-22.188-0.08c-6.691,0.024-13.052,0.872-19.254,3.435
		c-3.566,0.647-6.761,1.899-8.812,4.115c-3.455,3.731-5.255,8.751-7.169,13.488c-1.874,4.639-4.657,8.842-4.928,13.973
		c-0.005,0.1,0.028,0.173,0.037,0.263c0.005,0.046,0.009,0.09,0.019,0.136c0.081,0.412,0.303,0.702,0.61,0.869
		c0.018,0.013,0.026,0.03,0.045,0.042c4.061,2.488,6.898,6.309,11.132,8.557c4.103,2.179,8.627,3.45,13.012,4.799
		c2.685,0.827,5.486,1.054,8.287,1.161c7.804,1.556,15.516,1.506,23.509,1.385c9.009-0.137,17.253-0.806,25.903-3.705
		c3.626-1.214,7.023-2.708,10.351-4.321c1.776-0.521,3.515-1.146,5.226-1.832c3.046-0.263,6.018-1.386,8.473-3.353
		c0.231-0.185,0.416-0.384,0.577-0.59c0.076-0.046,0.153-0.086,0.221-0.146c1.004-0.88,1.271-2.185,1.128-3.651
		C112.242,44.006,111.341,41.493,110.604,39.759z"/>
	<path fill="#705538" d="M91.512,16.542c-3.928-2.199-10.381-2.439-15.798-2.236c-3.955-0.256-7.047-0.299-7.479-0.3
		c-1.47-0.001-2.939,0.043-4.408,0.07c-2.028-0.153-4.096-0.223-6.234-0.163c-8.229,0.232-17.465,0.387-25.839,2.321
		c-3.818,0.34-7.675,1.094-9.903,4.158c-0.496,0.682-0.106,1.677,0.544,2.078c1.703,1.049,3.497,1.499,5.351,1.803
		c7.623,3.314,15.632,4.794,23.98,5.571c4.847,0.451,9.464,0.258,14.005-0.318c4.863,0.055,9.73-0.315,14.123-1.877
		c4.438-0.472,13.674-1.415,16.272-5.85C97.646,19.203,94.089,17.457,91.512,16.542z"/>
	<path fill="#C88027" d="M92.063,18.515c-0.482-0.61-1.218-0.788-1.955-0.787c-0.5-0.201-1.049-0.283-1.6-0.201
		c-0.24,0.036-0.463,0.115-0.676,0.21c0.129-0.773,0.098-1.638-0.083-2.473c-0.091-0.728-0.381-1.433-0.813-2.039
		c-0.032-0.05-0.071-0.094-0.105-0.143c-0.071-0.092-0.132-0.191-0.209-0.276c-0.561-0.67-1.293-1.112-2.189-1.144
		c-0.782-0.069-1.575,0.154-2.252,0.565c0.221-1.945-0.752-3.212-2.173-3.849c-0.617-0.475-1.422-0.602-2.227-0.486
		c-1.839-0.061-3.77,0.612-4.79,1.946c-0.015-0.522-0.095-1.045-0.314-1.537c-0.641-1.428-2.088-2.209-3.618-2.192
		c-0.294,0.003-0.558,0.055-0.812,0.129c-0.132,0.011-0.262,0.037-0.394,0.058c0.147-1.684-0.732-3.382-2.445-4
		c-0.854-0.309-1.806-0.339-2.723-0.16c-1.918,0.032-3.699,0.947-3.815,2.973c-0.123,0.319-0.206,0.643-0.243,0.97
		c-0.667-0.096-1.382-0.022-2.114,0.31c-0.051,0.023-0.074,0.061-0.12,0.087c-0.043,0.012-0.082,0.032-0.125,0.045
		c-0.044-0.536-0.243-1.093-0.677-1.662c-0.395-0.519-0.859-0.868-1.359-1.104c-2.247-2.661-5.34-0.645-6.499,2.021
		c-0.257,0.382-0.455,0.798-0.567,1.236c-0.153,0.599-0.087,1.202,0.116,1.758c-0.334,0.022-0.662,0.072-0.961,0.187
		c-0.678,0.258-1.22,0.665-1.653,1.157c0.127-1.01-0.124-2.078-0.772-2.848c-0.208-0.246-0.45-0.435-0.705-0.6
		c-0.493-0.472-1.098-0.835-1.766-1.005c-2.228-0.567-4.025,0.966-4.726,2.967c-0.022,0.064-0.026,0.128-0.044,0.192
		c-0.319,0.764-0.424,1.627-0.262,2.525c0.082,0.451,0.275,0.798,0.519,1.088c-0.801-0.095-1.674,0.04-2.479,0.351
		c-0.538,0.027-1.088,0.179-1.614,0.506c-1.049,0.653-1.483,1.892-1.214,2.967c-0.336,0.833-0.326,1.759,0.359,2.48
		c0.208,0.219,0.472,0.379,0.752,0.51c-0.245,0.057-0.487,0.125-0.718,0.212c-0.517-0.014-1.031,0.079-1.494,0.274
		c-0.145,0.047-0.268,0.114-0.38,0.197c-0.137,0.083-0.278,0.162-0.395,0.265c-0.826,0.732-0.963,1.832-0.457,2.79
		c0.047,0.09,0.128,0.144,0.188,0.222c0.093,0.445,0.369,0.819,0.858,1.068c0.074,0.097,0.13,0.202,0.219,0.292
		c0.241,0.24,0.506,0.415,0.782,0.549c0.234,0.184,0.495,0.342,0.802,0.449c0.968,0.336,2.145-0.103,2.981-0.576
		c0.311-0.176,0.574-0.401,0.812-0.645c0.688,0.245,1.487,0.267,2.203,0.097c0.001,0.04-0.006,0.079-0.003,0.119
		c0.376,3.819,6.278,2.133,7.503-0.206c0.335-0.64,0.414-1.332,0.3-1.987c0.018-0.364-0.091-0.709-0.338-0.982
		c-0.245-0.456-0.59-0.866-1.035-1.18c-0.165-0.116-0.317-0.209-0.497-0.289c0.533-0.518,0.855-1.225,0.855-2.038v-0.026
		c0,0.114,0.79,0.191,1.22,0.178c0.535-0.017,1.061-0.157,1.565-0.391c0.177-0.008,0.369-0.045,0.531-0.082
		c0.266,0.864,1.036,1.517,1.986,1.775c-0.808,0.359-1.465,1.079-1.883,1.92c-0.466,0.399-0.808,0.958-0.904,1.713
		c-0.096,0.753,0.177,1.399,0.64,1.905c0.12,0.307,0.274,0.606,0.508,0.888c0.285,0.341,0.647,0.531,1.037,0.62
		c0.048,0.025,0.086,0.058,0.138,0.083c1.833,0.869,3.828,0.203,4.822-1.287c0.051,0.071,0.075,0.145,0.132,0.214
		c0.522,0.636,1.224,0.932,1.972,0.972c1.367,0.64,3.301,0.399,4.301-0.794c0.134-0.16,0.237-0.34,0.346-0.517
		c0.186,0.331,0.403,0.641,0.679,0.903c1.234,1.171,2.92,0.967,4.325,0.254c0.355-0.18,0.683-0.407,0.992-0.652
		c0.185,0.253,0.396,0.478,0.649,0.649c1.259,1.678,4.007,1.49,5.236-0.277c0.755-1.085,0.805-2.485,0.356-3.681
		c-0.05-0.166-0.117-0.325-0.197-0.481c-0.006-0.012-0.009-0.024-0.015-0.037c-0.104-0.199-0.231-0.386-0.38-0.559
		c-0.113-0.146-0.239-0.276-0.371-0.404c0.451-0.095,0.891-0.253,1.299-0.471c-0.052,0.125-0.108,0.245-0.146,0.379
		c-0.203,0.705-0.194,1.449,0.01,2.127c0.059,0.383,0.193,0.695,0.392,0.942c0.891,1.765,3.35,1.84,4.92,0.942
		c0.489-0.28,0.887-0.658,1.203-1.088c0.145-0.078,0.28-0.155,0.393-0.232c1.094-0.742,1.57-1.965,0.99-3.193
		c-0.256-0.541-0.708-0.929-1.216-1.237c-0.23-0.382-0.5-0.739-0.795-1.046c-0.745-0.777-1.707-0.468-2.218,0.191
		c-0.493,0.012-0.975,0.105-1.427,0.265c0.31-0.526,0.483-1.126,0.497-1.736c0.119,0.053,0.217,0.127,0.349,0.166
		c1.187,0.35,2.245,0.064,3.111-0.557c-0.208,1.003,0.028,2.057,0.928,2.76c0.356,0.279,0.748,0.446,1.152,0.561
		c0.36,0.333,0.767,0.617,1.232,0.802c0.737,0.291,1.533,0.321,2.255,0.126c-0.086,0.894,0.224,1.856,0.836,2.444
		c0.764,0.733,1.819,0.906,2.819,0.738c0.015,0,0.027-0.004,0.04-0.005c0.028-0.004,0.055-0.007,0.082-0.013
		c1.411-0.125,2.631-1.12,3.203-2.502C92.862,20.245,92.639,19.242,92.063,18.515z M42.338,13.665
		c-0.103,0.348-0.134,0.681-0.128,1.006c-0.19-0.051-0.382-0.09-0.574-0.104c-0.901-0.063-1.689,0.34-2.233,0.974
		c0.167-0.64,0.099-1.328-0.384-1.972c-0.064-0.087-0.144-0.153-0.217-0.23c0.499,0.047,1.016,0.006,1.497-0.115
		c0.813,0.09,1.634-0.026,2.376-0.373C42.542,13.122,42.417,13.395,42.338,13.665z M51.426,13.625h-0.662
		c0.221-2,0.277-1.652,0.14-2.42c-0.012-0.066-0.044-0.135-0.061-0.199c0.444-0.031,0.908-0.124,1.376-0.261
		c0.629-0.091,1.28-0.384,1.848-0.793c0.076,0.349,0.179,0.693,0.323,1.021c0.017,0.257,0.049,0.517,0.124,0.781
		c0.011,0.04,0.033,0.069,0.045,0.107c-0.123,0.513-0.117,1.045,0.077,1.503C53.594,12.454,52.379,12.625,51.426,13.625z
		 M54.546,21.18c-0.211-0.366-0.47-0.709-0.796-0.996c0.716,0.097,1.438,0.064,2.098-0.126C55.32,20.344,54.878,20.724,54.546,21.18
		z M61.034,20.044c-0.133,0.189-0.222,0.4-0.249,0.637c-0.004-0.003-0.007-0.007-0.011-0.01c-0.036-0.047-0.061-0.097-0.1-0.143
		c-0.834-0.979-2.195-1.136-3.389-0.97c-0.205,0.028-0.388,0.098-0.58,0.152c1.074-0.558,2.187-1.563,2.396-2.666
		c0.173-0.915-0.173-1.638-0.766-2.168c0.562-0.067,1.111-0.19,1.57-0.4c0.122-0.056,0.206-0.146,0.316-0.212
		c-1.055,1.461-1.167,3.602,0.508,4.72c0.195,0.13,0.402,0.218,0.61,0.302C61.221,19.53,61.121,19.784,61.034,20.044z
		 M63.083,11.575c0.129-0.303,0.201-0.624,0.244-0.951c0.585-0.024,1.161-0.146,1.699-0.367c-0.089,0.402-0.065,0.788,0.063,1.143
		C64.349,11.119,63.672,11.226,63.083,11.575z M68.806,20.06c-0.206,0.063-0.394,0.147-0.568,0.249
		c-0.169-0.808-0.562-1.529-1.143-2.086c0.768-1.06,0.963-2.412,0.453-3.608c0.3,0.095,0.608,0.146,0.919,0.157
		c-0.218,0.491-0.369,1.016-0.44,1.548c-0.028,0.071-0.064,0.14-0.087,0.212c-0.301,0.933-0.067,1.705,0.446,2.302
		c0.159,0.333,0.352,0.655,0.615,0.939c0.071,0.076,0.154,0.133,0.229,0.201C69.088,19.993,68.944,20.018,68.806,20.06z"/>
	<path fill="#F5E8C8" d="M69.844,44.14c2.321-2.082,4.588-5.533,2.075-7.504c-0.418-0.705-1.096-1.323-2.112-1.789
		c-3.572-1.637-5.786,2.594-5.619,5.909c-4.927-1.094-10.321,0.308-15.325,0.101c-1.448-0.06-4.457-0.41-7.142-0.17
		c-0.601-0.021-1.203-0.041-1.806-0.052c-0.021-0.071-0.048-0.144-0.07-0.216c0.425-3.984-3.165-8.136-7.418-6.259
		c-2.069,0.912-1.991,3.567-1.569,5.428c0.302,1.329,1.044,2.717,2.044,3.845c0,0.007,0,0.014,0,0.021
		c-3,2.291-4.25,7.01-0.441,8.488c2.282,0.884,4.809-0.707,5.924-2.615c0.001-0.003-0.039-0.006-0.038-0.009
		c3.1,0.711,7.545,0.114,9.104,0.023c5.097-0.296,10.738,0.807,15.762-0.444c0.264,0.009,0.513-0.004,0.771-0.009
		c0.387,2.03,1.374,3.973,3.144,4.216c1.186,0.735,2.827,0.79,3.905-0.16C74.376,50.005,72.505,46.518,69.844,44.14z"/>
</g>
</svg>
