<?xml version="1.0" encoding="utf-8"?>
<!-- Generator: Adobe Illustrator 15.1.0, SVG Export Plug-In . SVG Version: 6.00 Build 0)  -->
<!DOCTYPE svg PUBLIC "-//W3C//DTD SVG 1.1//EN" "http://www.w3.org/Graphics/SVG/1.1/DTD/svg11.dtd">
<svg version="1.1" id="Layer_1" xmlns="http://www.w3.org/2000/svg" xmlns:xlink="http://www.w3.org/1999/xlink" x="0px" y="0px"
	 width="125px" height="150px" viewBox="0 0 125 150" enable-background="new 0 0 125 150" xml:space="preserve">
<g>
	<path fill="#F5E8C8" d="M119.627,53.314c-0.162-6.296-6.219-10.956-12.154-10.677c0.352-3.095-2.258-6.583-5.18-8.093
		c-0.131-0.067-0.257-0.108-0.384-0.14c-0.265-0.225-0.603-0.368-0.971-0.36c-1.027,0.02-1.902,0.338-2.808,0.791
		c-0.095,0.047-0.18,0.105-0.257,0.171c-1.234-0.01-2.464,0.118-3.624,0.349c-1.636,0.325-3.124,1.29-4.754,1.691
		c-1.84,0.455-0.007-3.765,0.188-4.262c0.472-1.207,0.607-2.66,0.81-3.931c0.589-3.7,0.342-7.819-3.232-9.881
		c-2.125-1.225-4.797-0.876-7.288-0.114c1.925-4.511,0.336-9.724-4.182-12.269C71,3.891,65.467,4.8,61.868,8.392
		c-0.01-0.017-0.016-0.034-0.028-0.052c-2.929-4.314-9.909-8.225-15.09-5.55c-4.04,2.085-4.37,6.875-3.726,11.083
		c-3.114-0.769-6.021,0.312-7.468,3.916c-1.292,3.221-0.377,5.96,1.268,8.399c-2.627,0.021-5.309,0.256-7.402,2.004
		c-2.236,1.867-3.354,4.337-3.481,6.978c-4.69-2.667-11.822-5.885-14.331,0.75c-1.057,2.799-1.523,7.633-0.048,10.941
		c-2.973,0.418-5.042,2.442-5.577,6.432c-0.429,3.19-0.627,5.54,1.622,8.087c0.711,0.805,1.647,1.352,2.678,1.751
		c-3.905,1.907-5.155,7.517-4.468,11.492c0.498,2.879,3.08,4.501,5.715,5.192c2.314,0.605,4.691-0.176,6.816-1.29
		c0.104,2.181,0.906,4.245,3.223,5.08c2.613,0.942,5.542,0.953,8.108-0.018c-0.382,4.25,0.724,8.066,4.191,10.441
		c-2.61,2.306-3.809,6.348-4.191,9.737c-0.566,5.02,2.437,8.368,6.687,9.79c-1.974,3.26-2.436,7.63-0.646,11.025
		c2.178,4.135,6.828,6.453,11.422,6.527c-1.999,2.532-1.704,7.294-0.183,10.264c1.625,3.172,6.215,4.067,9.418,4.086
		c3.543,0.021,5.237-2.351,6.496-5.083c0.842,0.88,1.535,1.925,2.504,2.69c1.212,0.955,2.587,1.563,4.018,2.104
		c2.904,1.099,6.559,0.994,9.485,0.057c2.376-0.76,4.321-2.586,4.781-5.069c0.32-1.729-0.308-3.415-1.165-5.022
		c4.11,1.813,8.533,2.229,11.997-1.9c3.095-3.691,0.96-8.632-1.999-11.819c3.74-0.499,7.039-2.844,8.56-6.506
		c1.751-4.214-0.274-8.456-3.419-11.289c1.177-0.298,2.188-0.87,3.066-2.382c1.145-1.967,1.483-4.826,1.132-7.043
		c-0.745-4.688-4.209-7.183-8.257-8.665c1.073-0.671,1.944-1.578,2.565-2.673c3.575,1.58,10.233,0.863,12.463,0.272
		c7.631-2.015,6.785-10.76,2.331-15.57C117.06,65.491,119.799,60.056,119.627,53.314z"/>
	<path fill="#232123" d="M104.496,54.504c-0.024-3.136-0.054-6.902-2.021-9.516c-0.908-1.205-2.186-1.783-3.561-2.113
		c-2.736-1.93-6.756-1.845-9.931-1.864c-5.464-0.033-11.365-0.187-16.719-1.479c1.123-5.923,0.916-12.091,0.165-18.047
		c-0.502-3.992-3.852-4.29-7.257-4.339c-1.268-0.137-2.567-0.168-3.875-0.153c-0.125-0.016-0.25-0.033-0.372-0.054
		c-0.303-0.049-0.574-0.012-0.815,0.076c-1.678,0.045-3.357,0.12-4.983,0.077c-2.691-0.068-6.143-0.533-8.696,0.547
		c-1.786,0.756-2.033,2.361-2.202,4.115c-0.119,1.229-0.276,2.466-0.44,3.707c-0.135,0.217-0.218,0.483-0.215,0.808
		c0.003,0.224,0.015,0.446,0.02,0.67c-0.602,4.577-1.122,9.203,0.036,13.695c0.009,0.036,0.024,0.068,0.035,0.103
		c-0.026,0.624-0.042,1.248-0.058,1.871c-4.372-0.184-8.748-0.472-13.119-0.554c-2.381-0.393-4.77-0.587-7.171-0.373
		c-2.066,0.186-3.42,1.224-4.151,3.131c-0.542,1.412-0.264,3.262-0.264,4.719v6.833c0,3.164-0.723,7.196,0.429,10.215
		c0.072,0.186,0.149,0.36,0.244,0.53c0.626,2.801,3.636,3.509,6.421,3.636c7.051,2.099,14.81,0.729,22.02,0.673
		c0.039,0,0.072-0.009,0.109-0.011c0.961,1.22,0.571,3.543,0.486,4.913c-0.159,2.511,0.004,4.971,0.313,7.453
		c-0.145,1.485-0.272,2.972-0.354,4.463c-0.347,6.413-0.371,13.06,0.238,19.454c0.014,0.152,0.05,0.287,0.097,0.416
		c-0.063,3.722,0.088,7.429,0.83,11.041c0.051,0.248,0.143,0.447,0.26,0.608c0.165,2.05,0.696,4.007,2.225,5.554
		c2.363,2.388,6.445,2.112,9.497,2.266c4.533,0.229,15.208,3.09,17.931-2.412c1.605-3.247,0.72-7.044,0.725-10.523
		c0.011-5.971,0.202-11.938,0.27-17.907c0.067-5.79-0.083-11.574-0.313-17.359c-0.107-2.681-0.31-5.342-0.131-8.022
		c0.121-1.808,0.117-3.475-0.619-5.146c-0.001-0.005-0.004-0.007-0.006-0.01c3.726,0.972,7.514,0.862,11.332,0.582
		c3.198-0.234,6.306,0.085,9.484-0.085C107.347,66.319,104.531,58.897,104.496,54.504z"/>
	<g>
		<path fill="#B6592D" d="M71.301,53.817c1.409-0.34,2.761-0.851,3.969-1.669c2.464-1.671,3.021-5.316,0.984-7.57
			c-3.016-3.336-9.11-3.012-13.158-0.612c0.136-4.184-0.243-9.115-5.173-9.041c-3.834,0.058-5.029,4.317-4.978,8.072
			c-0.017,0.221-0.027,0.442-0.034,0.665c-3.397-2.69-8.048-5.426-10.787-1.753c-3.756,5.037,0.663,8.92,5.02,11.354
			c-3.248,1.501-6.837,3.531-5.208,7.401c0.976,2.32,3.539,4.726,6.234,4.302c2.181-0.342,3.854-1.761,5.337-3.351
			c1.058,4.44,3.392,9.794,7.838,9.764c3.258-0.023,4.83-3.382,4.831-6.165c0.001-0.654-0.077-1.324-0.213-1.997
			c3.641,2.1,7.769,2.992,10.09-0.803C78.027,59.19,74.795,55.939,71.301,53.817z"/>
		<path fill="#F9F5DF" d="M61.209,53.191c0.038-0.693-0.178-1.39-0.654-1.978c-0.964-1.19-2.755-0.741-3.718,0.145
			c-0.08,0.073-0.147,0.155-0.205,0.242c-0.34,0.241-0.628,0.567-0.839,0.981c-0.457,0.908-0.558,2.1,0.022,2.983
			c0.293,0.448,0.669,0.734,1.076,0.899c0.78,0.493,1.883,0.482,2.691,0.103c1.021-0.478,1.765-1.622,1.737-2.752
			C61.312,53.599,61.269,53.392,61.209,53.191z"/>
		<path fill="#D18F2D" d="M80.527,66.051c3.633-0.936,9.118-2.519,7.458-6.022c-1.265-2.667-5.495-2.023-8.644-0.749
			c0.434-3.941,0.489-9.504-2.692-10.062c-4.487-0.786-3.538,6.879-3.514,10.753c-3.014-2.682-7.051-4.922-10.385-4.065
			c-2.792,0.719-2.527,3.644-1.406,5.618c1.513,2.664,4.239,3.836,7.034,4.623c-2.797,2.982-8.147,7.023-5.415,10.512
			c3.449,4.405,6.908-2.1,9.22-6.493c0.117,0.874,0.199,1.746,0.202,2.603c0.003,1.756,0.041,3.628,0.665,5.288
			c0.635,1.685,2.913,2.961,4.465,1.647c1.573-1.334,1.879-4.117,1.752-6.841c2.842,3.319,6.646,6.924,8.767,3.906
			C90.826,72.791,83.939,68.948,80.527,66.051z"/>
		<path fill="#D18F2D" d="M50.957,49.29c1.192-1.665,1.419-4.811-0.801-5.834c-3.228-1.486-6.298,1.044-8.846,3.484
			c-1.421-2.816-4.693-6.818-7.34-4.828c-3.406,2.562-0.622,6.006,1.84,8.465c-2.897,1.472-6.667,3.792-5.83,6.898
			c-0.076,0.682,0.262,1.341,0.894,1.604c1.497,1.388,4.066-0.221,6.125-1.619c-0.562,3.244-0.994,7.489,2.543,7.321
			c2.833-0.136,3.896-3.329,4.287-6.162c2.693,1.362,6.109,1.833,6.981-1.658c0.609-2.438-1.293-3.846-3.517-4.673
			C48.642,51.639,49.859,50.823,50.957,49.29z"/>
		<path fill="#F9F5DF" d="M77.056,63.947c-0.959-1.18-2.848-0.79-3.915-0.034c-0.326,0.232-0.567,0.55-0.683,0.901
			c-0.309,0.386-0.43,0.932-0.312,1.412c0.137,0.56,0.446,1.012,0.848,1.321c0.049,0.294,0.186,0.575,0.417,0.808
			c0.573,0.572,1.601,0.614,2.167,0c0.198-0.212,0.373-0.459,0.519-0.724c0.688-0.227,1.434-0.727,1.621-1.405
			C77.945,65.407,77.56,64.567,77.056,63.947z"/>
		<g>
			<path fill="#F9F5DF" d="M37.557,53.556c-0.001-0.014-0.005-0.027-0.005-0.041C37.55,53.554,37.552,53.564,37.557,53.556z"/>
			<path fill="#F9F5DF" d="M42.005,53.896c0-0.625-0.366-1.12-0.881-1.365c-0.325-0.587-0.993-0.889-1.648-0.994
				c-0.017-0.003-0.033-0.005-0.048-0.008c-0.138-0.02-0.275-0.034-0.407-0.036c-0.12-0.005-0.234,0.011-0.345,0.035
				c-0.013,0.004-0.026,0.009-0.04,0.013c-0.098,0.025-0.192,0.061-0.281,0.105c-0.015,0.007-0.029,0.017-0.042,0.024
				c-0.083,0.046-0.163,0.1-0.238,0.159c-0.017,0.015-0.034,0.029-0.052,0.044c-0.062,0.056-0.119,0.116-0.172,0.182
				c-0.023,0.026-0.046,0.053-0.066,0.08c-0.036,0.051-0.417,0.102-0.448,0.155c-0.029,0.049-0.435,0.096-0.435,0.148
				c0,0.001,0,0.001,0,0.003c0,0.253,0.206,0.533,0.255,0.812c0.007,0.042,0.189,0.084,0.199,0.125
				c0.005,0.019-0.232,0.036-0.227,0.055c0.002,0.007-0.227,0.016-0.227,0.025c0,0.019,0,0.039,0,0.058
				c0-0.009,0.327-0.022,0.331-0.033c0.002,0.014,0.169,0.029,0.173,0.042c-0.004,0.017,0.073,0.027,0.069,0.032
				c0.035,0.386,0.264,0.768,0.494,1.06c0.012,0.018,0.053,0.031,0.067,0.047c0.121,0.223,0.293,0.428,0.472,0.607
				c0.519,0.522,1.399,0.591,1.986,0.157C41.317,55.449,42.005,54.691,42.005,53.896z"/>
		</g>
	</g>
	<path fill="#F5E8C8" d="M54.04,74.041c-0.561-0.621-1.598-0.569-2.167,0c-0.331,0.331-0.462,0.757-0.429,1.177
		c-0.008,0.065-0.02,0.128-0.02,0.196c0,0.814,0.698,1.562,1.532,1.533c0.584-0.02,1.138-0.289,1.442-0.807
		C54.824,75.413,54.569,74.624,54.04,74.041z"/>
	<path fill="#F5E8C8" d="M55.451,88.916c-0.355-1.502-1.83-3.063-1.307-4.661c0.615-1.885-2.343-2.685-2.956-0.815
		c-0.458,1.404-0.15,2.769,0.407,4.092c0.335,0.796,1.535,2.459,0.587,3.136c-1.594,1.135-0.067,3.796,1.547,2.646
		C55.283,92.206,55.896,90.793,55.451,88.916z"/>
	<path fill="#F5E8C8" d="M52.402,97.145c-0.835,0-1.5,0.697-1.5,1.532v0.583c0,0.835,0.665,1.532,1.5,1.532
		c0.834,0,1.5-0.697,1.5-1.532v-0.583C53.902,97.842,53.236,97.145,52.402,97.145z"/>
	<path fill="#F5E8C8" d="M55.393,111.5c-0.649-1.146-2.246-2.224-1.404-3.615c1.026-1.696-1.625-3.235-2.646-1.546
		c-0.97,1.602-0.88,3.267,0.079,4.847c0.354,0.582,0.813,1.099,1.198,1.661c0.463,0.675,0.399,0.534-0.165,1.033
		c-1.483,1.312,0.694,3.472,2.167,2.167C56.04,114.792,56.322,113.142,55.393,111.5z"/>
	<path fill="#F5E8C8" d="M56.407,121.38c-0.419-0.629-0.961-0.906-1.704-0.972c-0.834-0.073-1.533,0.753-1.533,1.533
		c0,0.378,0.131,0.696,0.341,0.944c0.057,0.256,0.182,0.504,0.399,0.721c0.547,0.548,1.635,0.645,2.166,0
		c0.234-0.282,0.438-0.539,0.515-0.908C56.679,122.269,56.659,121.761,56.407,121.38z"/>
	<path fill="#F5E8C8" d="M69.418,121.694c-0.038-0.001-0.088-0.004-0.167-0.004c-0.382,0-0.796-0.172-1.156-0.285
		c-0.949-0.296-1.862-0.693-2.825-0.95c-2.015-0.54-3.883,0.132-4.486,2.242c-0.544,1.905,2.414,2.711,2.956,0.816
		c0.18-0.631,2.833,0.611,3.54,0.848c1.745,0.584,3.632,0.622,4.738-1.064C73.092,121.66,70.522,120.151,69.418,121.694z"/>
	<path fill="#F5E8C8" d="M75.902,116.552C75.902,116.552,78.902,116.552,75.902,116.552c0,0-1,3.065,0,3.065l0,0
		C78.902,119.617,78.902,116.552,75.902,116.552z"/>
	<path fill="#F5E8C8" d="M77.851,106.734c-0.254-0.785-0.688-1.456-1.256-2.041c-0.26-0.264-0.544-0.509-0.815-0.763
		c-0.078-0.073-0.148-0.157-0.224-0.232c0.077-0.044,0.169-0.113,0.274-0.208c1.813-0.773,0.25-3.411-1.547-2.646
		c-1.51,0.645-2.823,2.178-1.803,3.86c0.941,1.557,3.861,3.043,2.075,5.103c-1.286,1.486,0.871,3.664,2.167,2.167
		C78.068,110.421,78.494,108.713,77.851,106.734z"/>
	<path fill="#F5E8C8" d="M76.106,94.319c-0.134-0.292-0.332-0.561-0.547-0.796c-0.566-0.614-1.595-0.573-2.167,0
		c-0.568,0.569-0.563,1.428-0.098,2.039c0.004,0.005,0.002,0.005,0.006,0.011c0.003,0.004,0.004,0.007,0.006,0.01
		c0.033,0.129,0.075,0.256,0.137,0.378c0.293,0.573,0.782,0.912,1.442,0.954c0.393,0.022,0.811-0.178,1.083-0.449
		c0.311-0.313,0.401-0.663,0.448-1.083C76.457,95.031,76.241,94.619,76.106,94.319z"/>
	<path fill="#F5E8C8" d="M76.924,87.475c-0.233-0.989-1.612-2.497-1.262-3.51c0.645-1.874-2.315-2.672-2.957-0.816
		c-0.408,1.189,0,2.333,0.489,3.421c0.227,0.503,0.513,0.98,0.706,1.497c0.211,0.57,0.212,0.334-0.198,0.564
		c-1.724,0.966-0.18,3.612,1.546,2.647C76.714,90.456,77.309,89.105,76.924,87.475z"/>
	<path fill="#F5E8C8" d="M45.803,66.376c-1.475-0.436-2.869-0.192-4.29,0.317c-1.513,0.54-2.578,1.208-3.757-0.214
		c-1.264-1.522-3.419,0.658-2.167,2.167c1.226,1.477,2.687,1.973,4.557,1.712c1.657-0.23,3.122-1.536,4.842-1.027
		C46.889,69.892,47.695,66.934,45.803,66.376z"/>
	<path fill="#F5E8C8" d="M28.476,67.027C28.476,67.027,28.476,66.027,28.476,67.027c0,0,3.064,1,3.064,0l0,0
		C31.54,66.027,28.476,66.027,28.476,67.027z"/>
	<path fill="#F5E8C8" d="M26.395,65.366c-0.644-0.49-2.324-0.814-2.422-1.662c-0.241-2.076,1.055-3.744,0.219-5.854
		c-0.718-1.815-3.683-1.024-2.956,0.815c0.496,1.25-0.051,2.354-0.259,3.613c-0.155,0.949-0.117,1.992,0.224,2.898
		c0.632,1.686,2.363,1.857,3.648,2.837C26.421,69.212,27.944,66.549,26.395,65.366z"/>
	<path fill="#F5E8C8" d="M22.902,49.456c-0.835,0-2,0.698-2,1.533v0.582c0,0.834,1.165,1.532,2,1.532s2-0.698,2-1.532v-0.582
		C24.902,50.153,23.737,49.456,22.902,49.456z"/>
	<path fill="#F5E8C8" d="M28.722,45.012c-1.137-0.5-2.069-1.323-3.248-1.762c-1.582-0.587-3.089,0.315-3.792,1.729
		c-0.875,1.765,1.768,3.317,2.646,1.547c0.051-0.103,0.268-0.386,0.153-0.383c0.139-0.004,0.459,0.194,0.62,0.282
		c0.708,0.385,1.333,0.907,2.073,1.233c0.765,0.336,1.639,0.23,2.098-0.55C29.657,46.45,29.486,45.348,28.722,45.012z"/>
	<path fill="#F5E8C8" d="M48.126,36.382c-0.301-0.599-0.95-0.827-1.567-0.885c-0.833-0.078-1.532,0.756-1.532,1.533
		c0,0.514,0.235,0.912,0.59,1.177c0.274,0.388,0.713,0.646,1.232,0.646c0.815,0,1.561-0.697,1.533-1.531
		C48.371,36.947,48.292,36.713,48.126,36.382z"/>
	<path fill="#F5E8C8" d="M49.962,28.797c-0.186-1.118-1.763-3.807-0.593-4.694c1.554-1.175,0.03-3.839-1.547-2.645
		c-1.666,1.261-2.12,2.771-1.758,4.799c0.306,1.718,1.845,3.871,0.285,5.328c-1.447,1.352,0.726,3.514,2.167,2.167
		C49.985,32.379,50.288,30.719,49.962,28.797z"/>
	<path fill="#F5E8C8" d="M53.902,18.923c-1,0-1,3.064,0,3.064C55.902,21.987,55.902,18.923,53.902,18.923z"/>
	<path fill="#F5E8C8" d="M60.127,19.131c-1.572-1.198-3.096,1.466-1.546,2.647c1.139,0.866,2.682,0.992,4.061,1.096
		c0.742,0.058,1.489,0.079,2.232,0.138c0.294,0.023,0.574,0.077,0.858,0.147c0.227,1.562,2.683,2.091,2.952,0.319
		C69.451,18.438,62.489,20.928,60.127,19.131z"/>
	<path fill="#F5E8C8" d="M70.808,27.368c-0.3-0.599-0.95-0.827-1.566-0.885c-0.834-0.078-1.532,0.755-1.532,1.532
		c0,0.515,0.235,0.914,0.59,1.179c0.275,0.387,0.715,0.644,1.233,0.644c0.814,0,1.56-0.697,1.532-1.533
		C71.053,27.933,70.975,27.699,70.808,27.368z"/>
	<path fill="#F5E8C8" d="M69.66,35.336c-0.077-0.332,0-0.255,0.355-0.473c1.678-1.036,0.14-3.686-1.546-2.646
		c-1.198,0.738-1.993,1.85-1.856,3.305c0.09,0.961,0.94,2.241,0.569,3.135c-0.32,0.774,0.341,1.685,1.071,1.886
		c0.88,0.242,1.566-0.3,1.886-1.07c0.371-0.896,0.208-1.877-0.067-2.776C69.932,36.243,69.767,35.801,69.66,35.336z"/>
	<path fill="#F5E8C8" d="M89.466,45.562c-0.722-1.619-2.593-1.513-4.001-1.023c-0.646,0.226-1.27,0.506-1.924,0.709
		c-0.273-1.749-3.096-1.686-3.035,0.213c0.066,2.144,1.518,3.27,3.599,2.813c0.75-0.165,1.458-0.518,2.177-0.78
		c0.122-0.044,0.458-0.138,0.648-0.197C87.833,48.777,90.232,47.278,89.466,45.562z"/>
	<path fill="#F5E8C8" d="M96.153,45.272c-0.44-0.755-1.349-0.924-2.095-0.551c-0.655,0.329-1.24,0.766-1.24,1.589
		c0,0.973,0.823,1.557,1.722,1.558c0.477,0,0.903-0.231,1.186-0.581C96.367,46.865,96.532,45.916,96.153,45.272z"/>
	<path fill="#F5E8C8" d="M101.489,51.895c-0.296-0.536-0.813-1.031-1.147-1.467c-0.4-0.523-0.396-0.328-0.065-0.683
		c1.343-1.446-0.82-3.618-2.167-2.167c-1.157,1.245-1.466,2.776-0.521,4.248c0.337,0.521,0.841,1.013,1.159,1.467
		c0.056,0.083,0.106,0.169,0.152,0.258c0.001,0.018,0.001,0.033,0.001,0.057c0-0.224-0.447,0.322-0.501,0.369
		c-1.494,1.3,0.684,3.458,2.166,2.167C101.877,55.001,102.354,53.461,101.489,51.895z"/>
	<path fill="#F5E8C8" d="M99.902,59.925c-1,0-1,3.064,0,3.064C102.902,62.989,102.902,59.925,99.902,59.925z"/>
	<path fill="#F5E8C8" d="M97.317,61.556c-1.724-2.725-4.972-2.681-7.62-1.422c-1.785,0.848-0.229,3.489,1.546,2.646
		c1.063-0.504,2.689-0.845,3.428,0.322C95.725,64.766,98.377,63.231,97.317,61.556z"/>
	<path fill="#397156" d="M58.364,135.542c-0.305-1.687-1.787-2.115-3.231-1.963c-0.743-0.166-1.542-0.041-2.22,0.479
		c-0.325,0.25-0.577,0.552-0.779,0.879c-0.288,0.312-0.522,0.672-0.671,1.075c-0.356,0.964,0.084,1.872,0.783,2.504
		c0.062,0.091,0.112,0.186,0.185,0.271c0.432,0.516,1.005,0.803,1.62,0.923c0.086,0.021,0.172,0.034,0.258,0.04
		c0.813,0.094,1.68-0.088,2.394-0.47C58.025,138.573,58.623,136.969,58.364,135.542z"/>
	<path fill="#397156" d="M77.117,135.857c-0.281-0.599-0.757-1.012-1.309-1.252c-0.252-0.119-0.531-0.203-0.83-0.239
		c-2.965-0.375-4.233,3.448-2.518,5.477c0.079,0.094,0.162,0.177,0.25,0.254c0.268,0.801,1.044,1.27,1.881,1.062
		c0.722-0.181,1.451-0.384,1.86-1.069c0.089-0.146,0.139-0.293,0.174-0.442C77.569,138.679,77.667,137.023,77.117,135.857z"/>
	<path fill="#397156" d="M91.348,127.194c-0.286-1.734-1.686-2.489-3.139-2.426c-1.247-0.279-2.417,0.196-3.172,1.364
		c-0.826,1.275-0.789,3.172,0.378,4.226C87.804,132.51,91.877,130.391,91.348,127.194z"/>
	<path fill="#397156" d="M46.089,120.496c-0.252-0.722-0.682-1.356-1.215-1.903c-0.482-0.494-1.137-0.982-1.826-1.129
		c-0.575-0.122-1.104-0.069-1.63,0.205c-0.522,0.273-0.815,0.791-1.013,1.319c-0.154,0.416-0.172,0.901-0.155,1.342
		c0.022,0.624,0.124,1.265,0.257,1.875c0.233,1.087,1.094,2.344,2.363,2.218c0.797-0.078,1.482-0.5,1.942-1.128
		c0.152-0.05,0.3-0.112,0.439-0.2C46.132,122.542,46.427,121.459,46.089,120.496z"/>
	<path fill="#397156" d="M42.023,99.875c-0.703-0.909-1.73-1.797-2.946-1.783c-1.533,0.016-2.229,1.212-2.449,2.544
		c-1.006,1.34-0.985,3.456,0.508,4.437c0.123,0.195,0.288,0.359,0.51,0.454c1.051,0.445,2.404,0.888,3.448,0.15
		c0.339-0.24,0.578-0.525,0.749-0.838c0.052-0.058,0.109-0.114,0.158-0.175c0.382-0.337,0.696-0.757,0.9-1.252
		C43.407,102.17,42.776,100.849,42.023,99.875z"/>
	<path fill="#397156" d="M41.489,85.433c-0.019-0.102-0.045-0.199-0.076-0.292c-0.094-0.508-0.279-1.01-0.508-1.485
		c-0.226-0.464-0.821-0.774-1.324-0.759c-1.49,0.046-2.747,1.009-3.186,2.433c-0.206,0.672-0.118,1.491,0.268,2.081
		c0.512,0.781,1.317,1.088,2.213,1.163c0.716,0.062,1.573-0.354,2.035-0.882C41.482,87.038,41.642,86.277,41.489,85.433z"/>
	<path fill="#397156" d="M26.027,73.879c-1.844,0.074-3.412,1.697-2.792,3.591c0.726,2.221,3.441,2.79,5.086,1.199
		c0.1-0.096,0.186-0.198,0.265-0.304c0.346-0.283,0.563-0.719,0.605-1.205C29.351,75.307,27.873,73.805,26.027,73.879z"/>
	<path fill="#397156" d="M15.605,70.57c-0.232-0.352-0.518-0.713-0.853-1.009c-0.49-0.472-1.127-0.782-1.86-0.79
		c-0.75-0.008-1.413,0.389-1.881,0.946c-0.002,0.001-0.004,0.004-0.005,0.005c-0.97,0.904-1.615,2.835-0.725,3.997
		c0.711,0.929,1.625,1.126,2.743,0.972c0.958-0.131,2.001-0.65,2.442-1.549c0.212-0.431,0.297-0.902,0.278-1.367
		C15.87,71.376,15.843,70.935,15.605,70.57z"/>
	<path fill="#397156" d="M15.18,53.142c-0.331-0.186-0.688-0.269-1.047-0.273c-0.842-0.334-1.863-0.134-2.66,0.285
		c-0.665,0.352-0.905,1.205-0.647,1.879c-0.604,1.033-0.732,2.254,0.11,3.332c0.728,0.93,2.258,1.036,3.243,0.564
		c0.687-0.327,1.112-0.941,1.362-1.631c0.496-0.252,0.821-0.772,0.855-1.366C16.456,54.871,16.173,53.701,15.18,53.142z"/>
	<path fill="#397156" d="M20.018,36.819c-0.875-0.731-1.914-1.146-3.057-0.819c-0.529,0.15-0.994,0.459-1.385,0.848
		c-0.01,0.008-0.021,0.014-0.034,0.022c-0.339,0.256-0.592,0.592-0.701,0.965c-0.968,1.799-0.458,4.275,1.871,4.497
		c1.833,0.174,3.093-1.562,3.173-3.238c0.045-0.035,0.09-0.066,0.132-0.107C20.569,38.435,20.659,37.355,20.018,36.819z"/>
	<path fill="#397156" d="M38.15,33.657c0.209-0.762-0.25-1.722-1.07-1.885c-0.236-0.047-0.475-0.081-0.712-0.101
		c-1.183-0.528-2.637-0.309-3.426,1.016c-0.245,0.409-0.354,0.888-0.396,1.363c-0.023,0.066-0.055,0.13-0.074,0.199
		c-0.188,0.68-0.201,1.533,0.078,2.19c0.423,1.007,1.097,1.578,2.197,1.719c0.917,0.12,1.851-0.581,2.428-1.208
		c0.763-0.826,1.193-2.075,0.938-3.191C38.123,33.724,38.14,33.692,38.15,33.657z"/>
	<path fill="#397156" d="M42.235,18.527c-0.291-0.614-0.972-1.238-1.661-1.341c-1.138-0.17-2.028,0.359-2.608,1.332
		c-0.382,0.642-0.209,1.475,0.343,1.944c0.019,0.582,0.224,1.151,0.53,1.638c0.357,0.569,1.062,0.913,1.731,0.705
		c0.95-0.297,1.618-0.934,1.942-1.876C42.785,20.135,42.581,19.258,42.235,18.527z"/>
	<path fill="#397156" d="M53.982,7.258c-0.411-0.255-0.896-0.38-1.398-0.416c-0.276-0.131-0.576-0.225-0.906-0.265
		c-1.092-0.135-2.135,0.628-2.89,1.346c-0.917,0.632-1.53,1.541-1.348,2.815c0.12,0.828,0.919,1.495,1.589,1.893
		c0.869,0.514,1.852,0.84,2.859,0.565c0.581-0.16,1.05-0.494,1.41-0.93c0.169-0.074,0.325-0.178,0.451-0.325
		c0.673-0.781,1.205-1.563,1.337-2.602C55.193,8.492,54.679,7.69,53.982,7.258z"/>
	<path fill="#397156" d="M74,9.858c-0.984-0.861-2.35-0.95-3.596-0.823c-0.832,0.085-1.533,0.632-1.533,1.532
		c0,0.068,0.012,0.137,0.023,0.206c-0.185,0.316-0.305,0.681-0.33,1.101c-0.059,1.057,0.789,1.981,1.594,2.537
		c0.557,0.383,1.214,0.461,1.852,0.356c0.659,0.362,1.546,0.31,2.043-0.519c0.374-0.625,0.688-1.392,0.694-2.148
		C74.883,11.291,74.682,10.455,74,9.858z"/>
	<path fill="#397156" d="M86.852,24.985c-0.794-1.855-2.795-2.961-4.554-1.565c-0.221,0.175-0.41,0.383-0.582,0.604
		c-0.59,0.315-1.093,0.801-1.404,1.405c-0.917,1.766-0.247,4.146,1.294,5.321c1.406,1.072,3.342,0.721,4.556-0.451
		C87.617,28.896,87.594,26.72,86.852,24.985z"/>
	<path fill="#397156" d="M103.87,39.239c-0.25-0.917-0.816-1.688-1.75-1.876c-0.137-0.062-0.276-0.12-0.412-0.168
		c-0.675-0.235-1.534-0.009-2.01,0.519c-0.599,0.666-0.724,1.53-0.499,2.326c-0.008,0.024-0.021,0.046-0.029,0.072
		c-0.211,0.771,0.254,1.707,1.07,1.885c0.977,0.212,1.839-0.02,2.613-0.629c0.183-0.142,0.336-0.312,0.462-0.499
		c0.053-0.047,0.108-0.088,0.159-0.139C103.866,40.348,104.011,39.764,103.87,39.239z"/>
	<path fill="#397156" d="M112.162,50.381c-0.461,0.156-0.758,0.454-0.917,0.805c-0.99,0.298-1.839,1.085-2.084,2.137
		c-0.189,0.815,0.014,1.639,0.454,2.321c0.105,0.495,0.462,0.927,0.935,1.121c0.123,0.123,0.258,0.239,0.411,0.344
		c1.119,0.769,2.569,0.439,3.496-0.419c0.74-0.478,1.307-1.224,1.562-2.139C116.697,52.104,114.812,49.495,112.162,50.381z"/>
	<path fill="#397156" d="M106.379,72.515c-0.099-0.066-0.197-0.121-0.306-0.168c-0.534-0.239-1.226-0.304-1.703,0.091
		c-1.181,0.077-2.142,0.743-2.537,1.972c-0.41,1.273,0.26,2.831,1.47,3.393c1.472,0.683,3.208,0.041,3.967-1.384
		C107.984,75.079,107.667,73.374,106.379,72.515z"/>
	<path fill="#397156" d="M91.543,80.583c-0.092-0.663-0.417-1.317-1.006-1.655c-0.925-0.529-1.827-0.321-2.605,0.347
		c-0.229,0.196-0.362,0.46-0.416,0.744c-0.76,0.681-1.11,1.646-0.962,2.688c0.11,0.769,0.564,1.213,1.139,1.407
		c0.406,0.446,0.942,0.745,1.603,0.669c1.159-0.131,1.885-0.894,2.32-1.93C91.923,82.123,91.896,81.276,91.543,80.583z"/>
	<path fill="#397156" d="M96.007,95.087c-0.159-0.377-0.404-0.696-0.704-0.961c-0.019-0.023-0.033-0.049-0.053-0.072
		c-0.595-0.712-1.467-0.93-2.324-0.828c-0.492-0.021-0.978,0.041-1.411,0.194c-0.644,0.23-1.099,0.779-1.118,1.438
		c-0.083,0.174-0.143,0.353-0.185,0.537c-0.31,0.646-0.393,1.406-0.227,2.11c0.327,1.375,1.787,2.186,3.126,2.133
		c0.951-0.037,1.703-0.519,2.22-1.224C96.169,97.562,96.49,96.23,96.007,95.087z"/>
	<path fill="#397156" d="M95.542,108.601c-0.91-0.909-2.228-0.852-3.289-0.265c-0.415,0.228-0.785,0.561-1.123,0.891
		c-0.196,0.19-0.316,0.397-0.388,0.606c-0.536,0.859-0.76,1.978-0.676,2.892c0.155,1.701,1.393,2.776,3.052,2.961
		c2.359,0.263,3.505-2.364,3.46-4.318C96.557,110.371,96.263,109.319,95.542,108.601z"/>
</g>
</svg>
