<?xml version="1.0" encoding="utf-8"?>
<!-- Generator: Adobe Illustrator 15.1.0, SVG Export Plug-In . SVG Version: 6.00 Build 0)  -->
<!DOCTYPE svg PUBLIC "-//W3C//DTD SVG 1.1//EN" "http://www.w3.org/Graphics/SVG/1.1/DTD/svg11.dtd">
<svg version="1.1" id="Layer_1" xmlns="http://www.w3.org/2000/svg" xmlns:xlink="http://www.w3.org/1999/xlink" x="0px" y="0px"
	 width="96.429px" height="95.088px" viewBox="0 0 96.429 95.088" enable-background="new 0 0 96.429 95.088" xml:space="preserve">
<g>
	<path fill="#FDC32E" d="M88.589,53.057c-0.878-1.414-0.57-3.072-1.075-4.605c-0.237-0.716-0.695-1.349-0.956-2.06
		c-0.244-0.663,0.88-1.22,0.809-1.878c-0.108-0.991-0.502-1.669-1.119-2.442c-1.158-1.452-1.806-2.893-2.51-4.604
		c-0.112-0.271-0.335-0.408-0.57-0.443c-0.777-0.621-2.506-1.198-2.283-2.272c0.312-1.497,2.847-2.152,2.252-4.048
		c-0.437-1.392-1.153-2.593-1.459-4.052c-0.22-1.05-0.995-2.526-1.614-3.425c-1.36-1.973-4.26-1.688-5.321-3.947
		c-0.028-0.062-0.063-0.112-0.101-0.156c0.022-0.813,0.214-1.581,0.341-2.408c0.034-0.216-0.024-0.401-0.131-0.543
		c0.017-0.1,0.009-0.211-0.04-0.335c-1.042-2.644-3.433-1.6-4.331,0.548c-0.24,0.574-0.326,1.19-0.598,1.755
		c-0.803,1.67-0.743-0.091-0.713-0.243c0.055-0.286,0.13-0.578,0.15-0.87c0.106-1.509,0.162-2.995-1.303-3.874
		c-0.876-0.525-1.337-0.866-1.717-1.833c-0.225-0.574-0.431-1.194-0.835-1.673c-0.903-1.07-2.245-1.578-3.575-1.026
		c-0.809,0.335-1.371,0.823-2.333,0.674c-0.751-0.115-1.432-0.626-2.214-0.606c-1.642,0.041-3.143,0.853-4.688,1.392
		c0.17-0.503,0.278-1,0.338-1.358c0.285-1.723-0.854-2.425-2.409-2.512c-2.397-0.133-4.885-0.92-7.283-0.472
		c-1.302,0.244-2.135,1.403-3.318,1.895c-1.029,0.428-1.801,0.604-2.297,1.688c-0.296,0.647,0.429,1.229,0.907,0.99
		c0.157,0.74,0.049,1.523,0.182,2.277c0.195,1.104,0.616,2.171,0.935,3.246c0.539,1.822,0.209,3.783,0.678,5.636
		c0.359,1.423,0.794,2.858,0.998,4.315c-0.026-0.016-0.054-0.032-0.085-0.047c-0.358-0.18-0.664-0.463-0.963-0.723
		c-0.619-0.536-1.167-1.159-1.697-1.78c-1.312-1.542-2.996-2.721-4.065-4.474c-0.354-0.581-0.529-1.17-0.957-1.707
		c-0.576-0.724-1.521-0.709-2.35-0.857c-0.814-0.146-1.712-1.049-2.41-1.478c-0.737-0.453-1.559-0.616-2.411-0.639
		c-1.987-0.051-3.861,1.841-5.51,2.72c-0.029,0.016-0.052,0.034-0.077,0.052c-1.133,0.321-2.299,0.576-3.283,1.251
		c-0.979,0.672-1.215,2.124-1.5,3.181c-0.406,1.514-1.371,2.769-1.725,4.309c-0.389,1.69-1.322,3.284-1.478,5.015
		c-0.018,0.195,0.039,0.345,0.135,0.453c-0.499,0.674-0.917,1.272-0.625,2.303c0.05,0.178,0.123,0.349,0.211,0.515
		c-0.045-0.002-0.088-0.008-0.133-0.008c-1.583,0.007-2.921,0.527-4.16,1.506c-1.246,0.986-1.426,2.865-1.459,4.329
		c-0.056,2.441,1.914,4.647,1.421,7.028c-0.01,0.044-0.013,0.087-0.014,0.13c-0.038,0.116-0.04,0.252,0.014,0.405
		c0.43,1.226-0.581,2.147-1.206,3.113c-0.46,0.712-0.389,1.753-0.371,2.552c0.061,2.786,0.488,5.461,0.713,8.226
		c0.182,2.239,0.205,4.427,1.194,6.495c1.088,2.277,3.897,1.953,5.983,2.407c0.314,0.069,0.562-0.065,0.708-0.271
		c0.132,0.188,0.252,0.39,0.384,0.578c0.209,0.933,0.666,1.511,1.41,2.124c0.954,0.786,1.394,1.845,1.992,2.889
		c1.541,2.687,5.51,2.293,6.921,5.104c0.948,1.888,2.265,3.624,4.381,4.298c0.672,0.215,1.398-0.073,1.872-0.547
		c0.197-0.196,0.285-0.487,0.372-0.743c0.131-0.388,0.333,0.23,0.54,0.468c0.16,0.184,0.439,0.231,0.665,0.176
		c1.019-0.25,1.538,2.159,2.008,2.899c0.562,0.885,1.421,1.506,2.436,1.735c0.285,0.065,0.514-0.039,0.663-0.212
		c0.462,0.515,0.926,1.03,1.458,1.437c1.064,0.814,2.792,0.998,3.701-0.23c0.8-1.083,0.312-2.416-0.069-3.571
		c-0.106-0.323-0.193-0.648-0.27-0.979c-0.272-1.168,0.901-1.279,1.444-0.424c0.473,0.746,0.629,1.723,0.905,2.554
		c0.37,1.115,1.32,2.839,2.568,3.181c1.755,0.48,3.139-0.842,4.457-1.814c0.737-0.544,1.433-1.127,2.069-1.788
		c0.252-0.263,0.46-0.573,0.667-0.87c0.401-0.574,0.3-0.693,0.724-0.605c2.521,0.522,5.042,0.599,7.612,0.601
		c0.145,0,0.263-0.04,0.36-0.101c1.405-0.279,3.232-0.348,4.278-1.361c1.227-1.188,1.598-2.819,3.321-3.498
		c1.18-0.466,2.104-0.739,2.759-1.901c0.853-1.517,1.208-2.785,2.654-3.918c2.271-1.781,0.489-3.854,0.421-6.235
		c-0.041-1.452,2.278-1.817,2.658-3.196c0.247-0.899-0.078-1.324,1.217-2.324h0.001c0.18,1,0.518,0.563,0.871,0.33
		c0.265-0.176,0.515-0.277,0.753-0.45c0.095-0.029,0.19-0.024,0.285-0.062c0.229-0.09,0.361-0.242,0.42-0.432
		c1.168-0.975,1.948-2.045,2.43-3.785c0.375-1.352,1.63-2.038,2.351-3.154C89.604,54.99,89.129,53.925,88.589,53.057z"/>
	<path fill="#F9963E" d="M15.245,45.405c-0.791-0.616-1.472-1.38-1.516-2.435c-0.029-0.669-0.113-1.341-0.585-1.862
		c-0.047-0.053-0.096-0.097-0.145-0.143c0.07-0.192,0.068-0.41-0.051-0.571c-0.393-0.532-0.877-0.769-1.514-0.926
		c-0.583-0.144-2.164-0.062-2.022-0.951c0.138-0.862-1.179-1.232-1.318-0.363c-0.119,0.745-0.016,1.366,0.483,1.832
		c-0.237,0.305-0.227,0.766,0.174,0.999c0.561,0.328,1.351,0.36,2.05,0.489c0.144,0.064,0.281,0.12,0.399,0.149
		c0.1,0.025,0.198,0.036,0.295,0.041c0.487,0.204,0.835,0.566,0.866,1.307c0.059,1.41,0.812,2.543,1.916,3.401
		C14.965,46.905,15.94,45.945,15.245,45.405z"/>
	<path fill="#F9963E" d="M18.548,46.259c-0.558-0.175-1.149-0.208-1.716-0.344c-0.857-0.205-1.221,1.113-0.363,1.318
		c0.567,0.135,1.158,0.168,1.717,0.343C19.028,47.84,19.386,46.521,18.548,46.259z"/>
	<path fill="#F9963E" d="M35.156,28.754c-0.825-0.662-1.284-1.621-2.046-2.344c-0.74-0.702-1.998-0.862-2.928-1.159
		c-1.381-0.441-2.654-1.744-3.753-2.643c-1.144-0.935-2.202-1.961-3.117-3.123c-0.546-0.695-1.497,0.28-0.966,0.966
		c0.911,1.178,1.921,2.266,2.913,3.375c1.021,1.144,2.392,1.901,3.229,3.213c0.274,0.429,0.39,0.9,0.64,1.303
		c-1.662,0.178-3.218,0.859-4.222,2.318c-0.71,0.527-1.268,1.126-1.748,2.134c-0.106,0.223-0.19,0.468-0.236,0.712
		c-0.757,0.762-1.051,1.663-1.162,2.656c-0.323,0.095-0.577,0.392-0.447,0.807c0.029,0.093,0.051,0.187,0.076,0.28
		c-0.025,0.017-0.051,0.036-0.073,0.057c-0.45-0.246-1.034-0.356-1.747-0.344c-0.88,0.015-0.882,1.382,0,1.367
		c1.09-0.019,1.447,0.189,1.466,1.27c0.011,0.614,0.003,1.212,0.082,1.823c0.245,1.895,0.03,3.914,0.004,5.834
		c-0.082-0.001-0.165-0.001-0.247-0.007c0.011-0.003-0.146-0.026-0.143-0.026c0.016,0.003-0.203-0.074-0.131-0.04
		c-0.111-0.051-0.445-0.077-0.558-0.081c-0.114-0.203-0.898-0.356-0.898-0.356c-1,0-1,1.367,0,1.367c0,0,0.27-0.005,0.295-0.007
		c0.056,0.109,0.247,0.202,0.363,0.256c0.444,0.207,0.942,0.265,1.429,0.265c0.253,0,0.503-0.146,0.621-0.355
		c0.199-0.002,0.4-0.08,0.508-0.249c0.284,0.163,0.664,0.132,0.882-0.249c0.54-0.941,1.276-1.55,2.162-2.158
		c0.236-0.162,0.429-0.474,0.315-0.772c-0.457-1.196-1.14-2.227-1.8-3.318c-0.591-0.976-0.741-2.048-0.91-3.127
		c0.032-0.078,0.052-0.167,0.051-0.268c-0.005-1.106-0.128-2.326,0.458-3.246c0.098,0.036,0.206,0.066,0.331,0.082
		c0.846,0.109,1.409-1.52,1.528-2.119c0.104-0.522,0.291-0.965,0.538-1.342c0.401-0.232,0.834-0.424,1.208-0.652
		c0.257-0.158,0.343-0.4,0.317-0.633c1.3-0.605,2.98-0.628,4.441-0.357c0.477,0.142,0.955,0.261,1.409,0.372
		c0.479,0.118,0.79-0.211,0.833-0.576c0.022,0.019,0.043,0.039,0.066,0.057C34.87,30.267,35.844,29.306,35.156,28.754z
		 M31.775,28.44c-0.678-0.222-1.308-0.521-1.601-0.952c-0.216-0.317-0.357-0.656-0.507-0.992c0.494,0.188,1.009,0.331,1.535,0.482
		c1.018,0.293,1.537,1.087,2.134,1.841C32.84,28.66,32.315,28.531,31.775,28.44z"/>
	<path fill="#F9963E" d="M16.65,51.899c-2.407-0.161-4.912-0.162-7.036-1.452c-0.034-0.021-0.067-0.034-0.101-0.048
		c-0.042-0.138-0.08-0.274-0.101-0.401c-0.081-0.518-0.814-0.644-1.142-0.302c-0.859,0.898-0.891,1.822-0.279,2.888
		c0.025,0.044,0.053,0.082,0.083,0.116c-0.271,0.314-0.422,0.644-0.495,1.074c-0.086,0.504,0.3,0.98,0.841,0.84
		c1.444-0.372,2.518-1.221,4.074-1.278c1.482-0.054,2.864,0.236,4.337-0.095C17.621,53.063,17.386,51.948,16.65,51.899z"/>
	<path fill="#F9963E" d="M39.137,69.407c-0.929-0.115-1.847-0.253-2.759-0.469c-0.593-0.141-1.152-0.356-1.682-0.656
		c-0.611-0.346-0.379-1.286-0.635-1.798c-0.695-1.39-1.413-3.901-3.302-4.062c-1.193-0.102-2.22,0.115-3.42-0.202
		c-1.4-0.37-1.888-1.394-2.964-2.16c-1.614-1.149-3.906-0.846-5.676-0.241c-0.83,0.283-0.474,1.604,0.363,1.318
		c1.02-0.349,2.042-0.499,3.119-0.451c1.538,0.067,1.813,1.34,2.918,2.038c0.87,0.549,1.874,0.833,2.871,1.056
		c1.284,0.286,2.699-0.504,3.606,0.779c0.564,0.798,1.288,2.315,1.3,3.25c0.011,0.78,0.545,1.237,1.129,1.653
		c1.402,1,3.476,1.107,5.13,1.312C40.01,70.882,39.999,69.514,39.137,69.407z"/>
	<path fill="#F9963E" d="M30.897,73.097c-0.067-0.271-0.165-0.517-0.284-0.743c0.105-0.167,0.147-0.386,0.084-0.557
		c-0.523-1.429-2.425-1.669-3.72-1.966c-1.227-0.282-2.895-0.425-4.195-1.008c-0.49-0.34-0.92-0.764-1.251-1.309
		c-0.19-0.313-0.487-0.386-0.746-0.306c-0.51-0.123-1.127,0.415-0.777,0.996c0.144,0.239,0.307,0.45,0.484,0.644
		c0.632,1.828,2.281,3.578,4.122,4.022c1.37,0.33,3.249,0.429,4.765,0.05c0.046,0.078,0.091,0.155,0.126,0.242
		c0.496,1.244-1.46,2.317-2.233,2.949c-0.913,0.747-1.585,1.687-1.522,2.904c0.046,0.877,1.413,0.882,1.367,0
		C26.985,76.482,31.625,76.016,30.897,73.097z"/>
	<path fill="#F9963E" d="M75.151,30.642c-0.174-0.168-0.349-0.32-0.531-0.462c0.097-0.367,0.099-0.688,0.021-1.124
		c-0.053-0.292-0.376-0.507-0.659-0.501c-0.735,0.013-1.329,0.333-1.833,0.797c-0.088-1.453-0.931-2.791-1.812-3.954
		c-0.721-0.952-1.403-2.198-2.695-1.278c-1.465,1.043-1.304,3.16-1.46,4.75c-0.107,1.102-0.089,2.384,0.139,3.47
		c0.188,0.894,0.252,1.653-0.224,2.496c-0.297,0.525-0.512,1.022-0.67,1.601c-0.051,0.187-0.024,0.348,0.046,0.48
		c-0.05,0.07-0.102,0.138-0.149,0.214c-0.203,0.327-0.094,0.641,0.133,0.831c-0.035,0.17-0.058,0.348-0.055,0.544
		c0.008,0.557,0.565,0.8,1.029,0.59c1.187-0.537,2.694-0.589,3.957-1.018c1.074-0.365,2.027-0.835,2.955-1.486
		c0.793-0.557,1.157-1.491,1.471-2.368c0.305-0.854-0.047-1.986,0.445-2.754C75.422,31.216,75.364,30.849,75.151,30.642z
		 M73.641,32.67c-0.185,1.43-0.433,2.349-1.693,3.237c-1.4,0.986-3.083,1.119-4.673,1.504c0.16-0.17,0.336-0.327,0.496-0.481
		c0.125-0.121,0.185-0.255,0.201-0.389c0.287-0.187,0.572-0.383,0.83-0.642c0.67-0.673,1.302-1.36,1.882-2.113
		c0.643-0.833,1.432-2.815,2.487-3.567c-0.007,0.012-0.012,0.025-0.019,0.038c-0.119,0.288,0.079,0.621,0.314,0.771
		c0.127,0.076,0.246,0.161,0.36,0.251C73.666,31.726,73.717,32.089,73.641,32.67z"/>
	<path fill="#F9963E" d="M63.991,21.61c-0.767-0.033-1.535,0.179-2.165,0.626c-0.146,0.105-1.887-1.252-2.254-1.382
		c-0.695-0.245-1.851,0.236-2.487,0.451c-0.956,0.322-1.875,0.566-2.868,0.74c-1.19,0.208-1.541,1.453-1.614,2.534
		c-0.06,0.883,0.033,1.618,0.447,2.399c0.337,0.635,0.73,1.016,0.776,1.809c0.021,0.37,0.008,0.865,0.189,1.202
		c0.338,0.628,0.713,1.017,1.355,1.336c0.792,0.395,2.109,0.415,2.503,1.355c0.335,0.8,1.655,0.45,1.319-0.36
		c0.665-0.494,1.682-0.734,2.33-1.215c0.804-0.596,1.498-1.406,2.2-2.117c1.184-1.201,2.119-2.803,2.214-4.503
		C66,23.347,65.332,21.667,63.991,21.61z"/>
	<path fill="#F9963E" d="M58.704,15.166c-0.765,0.006-1.358,0.656-1.877,1.144c-1.195,1.125-2.391,2.069-3.76,2.991
		c-1.796,1.21-3.323,2.612-4.541,4.287c-0.059-1.225-0.37-2.405-0.564-3.625c0.23-0.191,0.354-0.515,0.175-0.854
		c-0.117-0.222-0.21-0.467-0.292-0.725c0.095-3.136,2.157-6.256,3.552-8.885c0.119-0.222,0.104-0.437,0.017-0.613
		c0.045-0.304,0.072-0.607,0.077-0.933c0.008-0.5-0.593-0.877-1.028-0.59c-0.324,0.214-0.61,0.47-0.893,0.728
		c-0.075-0.252-0.209-0.5-0.442-0.78c-0.151-0.184-0.493-0.251-0.716-0.251c-0.746,0-1.307,0.191-2.121-0.001
		c-2.67-0.634-4.794,1.286-6.436,3.158c-0.364,0.415-0.184,0.946,0.301,1.142c0.534,0.216,1.031,0.276,0.809,0.958
		c-0.112,0.346-0.216,0.79-0.016,1.131c0.514,0.878,1.725,0.695,2.546,0.555c2.495-0.424,2.554,2.608,3.077,4.702
		c-0.019,0.675,0.019,1.361,0.142,2.064c0.111,0.638,0.312,1.341,0.427,2.046c-0.74-0.532-1.52-1.003-2.2-1.613
		c-0.585-0.523-0.879-1.437-1.374-2.06c-0.354-0.446-0.977-0.118-1.143,0.302c-0.549,1.396-0.582,2.681-0.404,4.157
		c0.145,1.207,0.714,2.948-0.941,3.11c-1.199,0.118-2.79,0.238-2.797,1.84c-0.007,1.788,1.558,2.519,3.111,2.821
		c2.567,0.499,4.552-0.966,7.012-1.108c0.214-0.012,0.375-0.104,0.484-0.233c0.15-0.083,0.252-0.234,0.304-0.403
		c1.122-0.273,2.111-0.766,2.665-1.859c0.579-1.144,0.358-2.604,0.421-3.837c0.197-3.81,6.187-4.233,7.083-7.902
		C59.468,15.604,59.159,15.162,58.704,15.166z"/>
	<path fill="#F9963E" d="M40.053,36.683c-0.919-1.381-1.987-3.371-3.609-3.886c-1.726-0.549-2.379,0.861-3.436,1.958
		c-0.545,0.566-1.156,0.182-1.775,0.352c-0.495,0.136-0.804,0.65-1.082,1.042c-0.688,0.97-1.886,3.016-1.217,4.248
		c1.534,2.823,5.744,3.272,8.604,3.048c1.149-0.09,2.054-0.645,2.44-1.738c0.415-1.175-0.501-3.001,0.705-3.812
		C41.391,37.419,40.763,36.291,40.053,36.683z"/>
	<path fill="#F9963E" d="M47.235,52.095c-0.484-0.578-1.035-1.086-1.598-1.585c-0.794-0.705-1.312-1.652-2.134-2.318
		c-1.095-0.886-2.754-0.384-4-1.046c-0.987-0.523-1.788-1.384-2.676-2.09c-0.075-0.196-0.238-0.345-0.492-0.364
		c-0.039-0.026-0.075-0.055-0.114-0.08c-0.374-0.243-0.733-0.062-0.903,0.238c-0.515,0.134-0.996,0.334-1.502,0.609
		c-0.934,0.507-2.24,0.224-3.263,0.697c-0.475,0.221-0.415,0.943,0,1.18c1.535,0.876,4.087-0.104,5.631,0.542
		c-0.968,1.323,1.472,4.081,3.694,3.239c0.355,0.662,0.752,1.3,1.072,1.982c0.146,0.311,0.655,0.455,0.935,0.245
		c0.392-0.293,0.835-0.434,1.302-0.566c0.664-0.188,1.024,0.483,1.401,0.916c0.552,0.636,1.423,0.927,2.25,0.765
		C48.189,54.192,47.929,52.923,47.235,52.095z"/>
	<path fill="#F9963E" d="M26.091,54.646c-2.052-0.27-2.43-3.526-3.968-4.67c-1.006-0.748-2.75-0.388-3.908-0.722
		c-1.79-0.515-3.165-1.631-4.826-2.411c-0.793-0.372-1.487,0.806-0.689,1.18c1.426,0.669,2.675,1.822,4.199,2.25
		c0.811,0.227,1.582,0.506,2.418,0.633c0.639,0.097,1.292-0.037,1.865,0.168c-1.18,1.7,1.396,3.004,2.802,4.052
		c-1.119,0.651-2.677,0.694-3.731,1.5c-0.689,0.528-0.01,1.716,0.69,1.18c1.299-0.995,3.152-0.912,4.394-1.975
		c0.227,0.079,0.472,0.144,0.754,0.181C26.962,56.127,26.951,54.758,26.091,54.646z"/>
	<path fill="#F9963E" d="M44.713,58.803c-0.055-0.619-0.344-1.478-0.207-2.091c0.155-0.7-0.05-1.169-0.493-1.729
		c-0.911-1.149-3.157-1.648-4.534-1.711c-0.253-0.012-0.431,0.094-0.538,0.25c-0.456-0.213-1.15,0.149-0.979,0.787
		c0.449,1.682-1.467,3.079-2.163,4.451c-0.24,0.475,0.057,0.999,0.59,1.028c1.185,0.066,2.088-1.045,3.205-0.012
		c0.665,0.615,1.188,1.41,2.107,1.69C43.297,61.953,44.862,60.455,44.713,58.803z"/>
	<path fill="#F9963E" d="M84.002,41.093c0.146-0.2,0.188-0.46,0.01-0.7c-0.155-0.21-0.293-0.413-0.477-0.564
		c-0.668-1.457-1.733-2.699-3.031-2.863c-0.105-0.014-0.203,0.013-0.293,0.059c-0.121-0.042-0.258-0.058-0.402-0.034
		c-2.741,0.448-3.399,3.25-4.533,5.368c-0.378,0.707-0.857,1.236-1.546,1.648c-1.085,0.648-2.346-0.336-3.136-0.987
		c-0.737-0.605-1.612-1.396-2.629-1.051c-0.83,0.282-0.473,1.603,0.363,1.318c0.588-0.199,1.519,0.882,1.919,1.2
		c0.512,0.408,1.031,0.641,1.638,0.877c1.233,0.479,2.396,0.021,3.373-0.756c1.661-1.319,1.886-4.181,3.396-5.565
		c0.051,0.229,0.205,0.425,0.468,0.468c0.416,0.069,0.788,0.138,1.208,0.029c0.213-0.054,0.477-0.19,0.703-0.261
		c0.195,0.2,0.393,0.396,0.591,0.593c0.042,0.189,0.092,0.376,0.18,0.526c0.144,0.246,0.418,0.323,0.663,0.429
		c0.242,0.648,0.408,1.308,0.466,1.83c-0.344,0.086-0.605,0.443-0.511,0.839c0.185,0.778,0.434,1.544-0.114,2.231
		c-0.655,0.822-1.574,1.456-2.503,1.916c-0.707,0.35-1.404,0.622-2.046,1.089c-0.979,0.713-1.766,1.018-2.915,0.344
		c-0.612-0.36-2.101-0.741-2.585,0.056c-0.383,0.631-0.124,1.334,0.225,1.952c-0.38-0.018-0.795-0.308-1.217-0.485
		c-0.052-0.057-0.115-0.109-0.199-0.15c-0.605-0.301-0.952-0.284-1.602-0.032c-0.985,0.382-2.116-1.08-3.024-1.411
		c-0.576-0.209-1.42,0.242-1.923,0.477c-0.576,0.27-1.168,0.375-1.77,0.446c0.141-0.132,0.27-0.272,0.368-0.433
		c0.257-0.42,0.317-0.838,0.322-1.324c0.011-1-0.817-2.066,0.589-2.114c0.32-0.011,0.521-0.199,0.609-0.431
		c0.802,0.024,1.606-0.02,2.319-0.28c0.821-0.3,0.467-1.621-0.363-1.318c-2.385,0.871-5.293-0.307-7.783,0.096
		c-0.932,0.15-1.079,0.951-0.832,1.736c0.338,1.08,0.756,1.672-0.033,2.773c-0.771,1.076-2.338,1.138-3.53,1.035
		c-0.622-0.054-0.797,0.614-0.54,1.037c-0.583,0.992-1.277,1.819-2.126,2.635c-0.662,0.634-0.966,1.475-1.254,2.323
		c-0.284,0.837,1.036,1.193,1.318,0.363c0.33-0.972,0.701-1.562,1.47-2.236c0.823-0.721,1.458-1.771,1.971-2.743
		c0.236-0.013,0.472-0.041,0.706-0.081c-0.093,0.105-0.157,0.243-0.168,0.415c-0.044,0.651-0.396,1.211-0.535,1.84
		c-0.127,0.571,0.044,1.085,0.285,1.595c0.109,0.229,0.274,0.416,0.47,0.577c-0.188,0.094-0.378,0.188-0.566,0.283
		c-0.484-0.024-0.699,0.376-0.651,0.75c-1.237,0.618-2.388,2.152-3.159,2.941c-0.724,0.743-1.831,0.643-2.443,1.519
		c-0.875,1.25-0.997,2.933,0.105,4.024c0.627,0.621,1.594-0.346,0.966-0.966c-0.737-0.731-0.335-2.303,0.619-2.595
		c0.621-0.19,1.063-0.412,1.542-0.843c0.624-0.562,2.817-3.674,3.739-2.805c0.389,0.366,0.896,0.154,1.092-0.203
		c0.082,0.028,0.168,0.04,0.255,0.04c-0.236,0.401-0.334,0.888-0.222,1.45c0.125,0.626,0.383,1.259,0.83,1.729
		c0.911,0.958,2.254,0.79,2.452,2.423c0.371,3.049,1.515,7.267,4.187,9.267c-1.074,0.167-2.394-0.583-3.184-1.083
		c-0.823-0.521-1.232-1.179-1.628-2.022c-0.146-0.31-0.592-0.821-0.895-0.98c-0.816-0.429-1.481-0.365-2.345-0.09
		c-1.39,0.443-3.068,0.618-4.513,0.344c-0.073-0.014-0.141-0.014-0.206-0.008c-0.159-0.375-0.275-0.807-0.416-1.051
		c-0.28-0.49-0.897-0.91-1.309-1.281c-0.798-0.722-1.733-1.245-2.835-1.314c-1.116-0.07-1.636,0.688-1.507,1.76
		c0.144,1.197,0.423,1.973-0.11,3.166c-0.346,0.775-0.859,1.465-1.067,2.297c-0.188,0.747-0.274,1.332-1.017,1.72
		c-0.537,0.28-0.766,0.947-0.893,1.486c-0.262,1.104,0.176,2.325-0.374,3.381c-0.557,1.071-1.813,1.846-2.808,2.445
		c-1.941,1.167-3.579,0.818-5.66,0.619c-1.328-0.126-2.502,0.094-3.168,1.342c-0.415,0.777,0.765,1.468,1.18,0.69
		c0.753-1.411,3.143-0.395,4.396-0.315c1.517,0.096,3.091-0.645,4.354-1.404c1.251-0.752,2.417-1.783,3.095-3.087
		c0.284-0.546,0.25-1.352,0.265-1.944c0.014-0.584-0.154-1.877,0.573-2.161c0.183-0.072,0.39-0.164,0.527-0.308
		c0.912-0.954,0.946-2.499,1.565-3.655c0.111-0.206,0.213-0.42,0.308-0.638c0.225,0.48,0.567,0.858,1.003,1.232
		c0.96,0.823,1.59,1.371,2.042,2.608c0.79,2.16,0.643,4.477,1.29,6.653c-0.108,0.248-0.079,0.549,0.082,0.746
		c-0.644-0.015-1.244,0.054-1.841,0.463c-1.256,0.861-2.337,0.839-3.82,0.634c-0.861-0.119-1.233,1.198-0.363,1.318
		c1.094,0.152,2.14,0.251,3.236,0.078c0.426-0.068,0.968-0.29,1.309-0.564c0.51-0.41,0.935-0.529,1.429-0.548
		c0.011,0.33,0.1,0.665,0.263,1.039c0.218,0.505,0.476,1.023,0.33,1.583c-0.136,0.518-0.5,1.015-0.692,1.521
		c-0.314,0.825,1.007,1.179,1.317,0.363c0.289-0.759,0.721-1.367,0.805-2.191c0.082-0.81-0.729-1.691-0.637-2.459
		c0.124-0.129,0.18-0.314,0.173-0.501c0.048-0.176,0.018-0.342-0.061-0.48c0.075-0.095,0.12-0.211,0.112-0.349
		c0.589-0.333,0.98-0.912,1.26-1.595c2.041-0.084,3.964-0.723,4.439-2.732c1.409,1.305,3.171,2.163,5.033,2.208
		c-0.004,0.007-0.009,0.012-0.013,0.02c-1.68,3.337-6.123,3.599-9.193,2.158c-0.793-0.372-1.487,0.806-0.69,1.18
		c3.711,1.742,9.029,1.393,11.062-2.648c0.149-0.296,0.074-0.578-0.098-0.773c0.017-0.002,0.034-0.003,0.05-0.006
		c2.227-0.344,3.43-2.187,3.804-4.237c0.063-0.345,0.08-0.674,0.057-0.981c0.076,0.001,0.155-0.009,0.241-0.039
		c0.784-0.277,1.934-0.699,2.661-0.069c0.73,0.634,0.833,1.958,0.937,2.843c0.102,0.864,1.469,0.875,1.367,0
		c-0.156-1.329-0.349-2.814-1.337-3.809c-1.061-1.067-2.735-0.727-3.991-0.283c-0.105,0.037-0.19,0.091-0.259,0.156
		c-0.384-0.599-1.042-0.982-1.956-1.03c-2.66-1.283-3.613-4.773-4.325-7.404c-0.332-1.221,0.001-2.681-1.141-3.553
		c-0.507-0.388-1.183-0.487-1.67-0.888c-0.854-0.702-0.96-1.984,0.273-2.271c0.737-0.172,0.572-1.164-0.031-1.317
		c0.015-0.171-0.036-0.351-0.182-0.512c-0.167-0.184-0.351-0.338-0.545-0.478c0.535-0.901,0.597-1.923,1.508-2.644
		c0.458-0.364,0.713-0.814,0.992-1.267c0.957-0.185,1.964-0.05,2.894-0.306c1.058-0.291,1.812-1.081,2.966-0.115
		c0.461,0.386,0.909,0.625,1.477,0.802c0.242,0.075,0.521,0,0.792-0.091c0.004,0.144,0.046,0.292,0.14,0.442
		c0.464,0.748,1.312,1.122,2.069,1.511c0.186,0.096,0.37,0.202,0.554,0.316c-1.6,0.157-4.554,0.378-5.35,1.724
		c-1.192-0.361-2.039-1.363-3.171-1.889c-0.794-0.369-1.489,0.81-0.69,1.18c1.349,0.627,2.316,1.83,3.826,2.107
		c0.373,0.642,1.292,0.903,2.006,1.085c0.87,0.223,1.338,1.158,2.197,1.496c-1.247,0.561-2.345,1.434-3.756,1.594
		c-2.472,0.281-4.621-2.4-6.364-3.751c-0.688-0.533-1.662,0.427-0.966,0.966c1.833,1.422,3.397,3.128,5.613,3.878
		c0.048,0.065,0.109,0.126,0.189,0.177c1.402,0.891,1.738,2.506,2.272,3.97c0.246,0.676,0.678,2.184,1.494,2.385
		c0.895,0.222,1.368-0.393,1.853-1.074c0.514-0.722,0.123-1.719-0.054-2.586c0.682,0.189,1.44,0.755,2.049,0.932
		c1.247,0.363,2.403-0.515,3.707-0.125c0.324,0.096,0.576-0.038,0.717-0.253c0.369-0.083,0.761-0.241,1.183-0.502
		c0.749-0.462,0.062-1.645-0.689-1.18c-1.683,1.039-2.881-0.437-4.064-1.527c-0.833-0.768-1.726-1.419-2.78-1.69
		c0.427-0.166,0.873-0.286,1.352-0.315c0.79-0.048,0.869-1.161,0.232-1.34c0.032-0.019,0.067-0.038,0.098-0.057
		c0.914-0.546,1.351-0.929,2.473-0.697c0.586,0.122,1.001,0.021,1.458-0.337c1.452-1.138-1.19-2.906-1.844-3.42
		c-1.093-0.862-2.039-1.612-3.131-2.328c0.082,0.028,0.166,0.054,0.255,0.076c0.65,0.16,1.191-0.274,1.63-0.679
		c0.218-0.202,0.267-0.578,0.107-0.828c-0.158-0.233-0.303-0.475-0.437-0.723c-0.093-0.165-0.178-0.262-0.236-0.314
		c0.073,0.039,0.205,0.095,0.422,0.149c0.824,0.203,1.443,0.77,2.322,0.849c1.412,0.126,2.301-1.197,3.488-1.778
		c1.494-0.73,2.799-1.448,3.857-2.777c0.57-0.715,0.594-1.535,0.462-2.363c0.16-0.093,0.292-0.246,0.318-0.412
		C84.368,42.958,84.27,42.031,84.002,41.093z M57.506,76.27c-0.05,1.689-1.381,2.107-2.773,2.206c0.224-1.032,0.33-2.104,0.51-2.882
		c0.198-0.858-1.119-1.222-1.318-0.363c-0.224,0.964-0.293,3.926-1.285,4.871c-0.544-2.068-0.482-4.258-1.192-6.312
		c-0.112-0.324-0.221-0.63-0.346-0.923c0.992-0.253,1.649-1.83,1.911-2.767c0.006-0.022,0.007-0.043,0.011-0.064
		c0.864,0.053,1.743-0.002,2.596-0.128c0,0.004-0.001,0.007-0.002,0.011c-0.119,2.072,0.675,4.239,2.012,5.972
		C57.558,75.992,57.51,76.117,57.506,76.27z M66.31,73.181c1.574,0.045,1.119,1.691,0.758,2.729
		c-0.621,1.784-2.731,2.428-4.458,2.008c-3.191-0.777-5.807-4.835-5.625-7.999c0.006-0.107-0.009-0.199-0.04-0.28
		c0.794-0.199,1.51-0.307,2.028,0.796c0.335,0.715,0.762,1.149,1.36,1.653C61.849,73.366,64.533,74.477,66.31,73.181z
		 M73.561,55.035c0.756,0.62,1.479,1.304,2.144,1.909c0.208,0.188-1.11,0.095-1.208,0.105c-0.53,0.055-0.974,0.288-1.419,0.563
		c-0.709,0.439-1.545,1.248-2.311,0.33c-0.42-0.504-0.967-0.793-1.577-1.007c-0.468-0.164-1.651-0.184-0.767-0.661
		c0.487-0.261,1.09-0.367,1.624-0.488c1.016-0.232,2.055-0.344,3.086-0.484C73.347,55.271,73.485,55.17,73.561,55.035z"/>
	<path fill="#F9963E" d="M56.162,35.277c-0.024,0.019-0.046,0.039-0.07,0.059c-0.137-0.599-0.549-1.059-1.414-1.233
		c-0.929-0.187-1.749-0.288-2.649-0.633c-1.082-0.415-2.183-0.721-3.29-0.257c-0.41,0.172-0.639,0.58-0.409,1.004
		c0.586,1.081,1.735,1.545,2.386,2.566c0.519,0.815,0.927,1.478,1.867,1.818c1.087,0.394,2.234-0.174,2.965-1.041
		c0.073-0.026,0.143-0.065,0.207-0.116c0.479-0.379,0.894-0.822,1.373-1.201C57.819,35.697,56.845,34.736,56.162,35.277z"/>
	<path fill="#F9963E" d="M49.682,39.364c-1.384-1.797-3.364-2.063-5.226-0.761c-1.83,1.28-1.89,3.197-1.883,5.225
		c0.003,0.881,1.37,0.881,1.367,0c-0.004-1.191-0.151-2.479,0.634-3.474c1.041-1.321,2.815-1.746,3.929-0.301
		C49.032,40.741,50.22,40.062,49.682,39.364z"/>
	<path fill="#F9963E" d="M51.79,43.268c-1.289-1.91-3.605-3.4-5.958-3.213c-0.729,0.059-0.852,1.019-0.361,1.294
		c-0.353,0.655-0.305,1.606,0.012,2.428c0.662,1.714,2.647,2.981,4.43,3.198c0.979,0.119,1.947-0.164,2.414-1.095
		C52.763,45.007,52.283,43.998,51.79,43.268z"/>
	<path fill="#F96D21" d="M32.86,28.377c-0.706-1.128-1.891-1.639-3.012-2.274c-1.285-0.729-2.375-1.764-3.748-2.33
		c-0.273-0.113-0.492-0.037-0.635,0.123c-0.667-0.429-1.542,0.478-0.888,1.019c2.172,1.801,4.641,4.534,7.692,4.492
		C32.774,29.399,33.14,28.826,32.86,28.377z"/>
	<path fill="#F96D21" d="M46.945,23.643c-0.95-0.58-1.879-0.193-2.457,1.107c-0.329,0.738-0.651,1.417-1.059,2.118
		c-0.35,0.6-0.835,1.359-0.842,2.082c-0.017,1.914,2.403,1.252,3.341,0.528c0.542-0.418,1.239-1.082,1.42-1.775
		c0.188-0.721,0.037-1.582,0.164-2.331c0.256-0.169,0.423-0.508,0.316-0.833C48.132,23.965,47.462,23.449,46.945,23.643z"/>
	<path fill="#F96D21" d="M49.303,10.788c-0.233-2.522-4.761-0.762-5.877-0.164c-0.32,0.171-0.438,0.628-0.245,0.935
		c0.302,0.479,0.649,0.813,1.214,0.985c1.209,0.368,1.534,1.14,1.806,2.285c0.024,0.102,0.065,0.184,0.115,0.252
		c-0.289,1.786-0.021,3.584,0.228,5.413c0.119,0.87,1.436,0.498,1.318-0.364c-0.302-2.211-0.658-4.405,0.317-6.509
		C48.605,12.704,49.403,11.867,49.303,10.788z"/>
	<path fill="#F96D21" d="M61.621,26.244c-0.046,0.035-0.091,0.073-0.136,0.109c0-0.001-0.001-0.001-0.001-0.003
		c-0.003,0.003-0.007,0.009-0.01,0.012c-0.317,0.257-0.613,0.541-0.92,0.809c-0.093-0.829-0.167-1.642-0.988-2.128
		c-0.357-0.212-0.921-0.03-1.003,0.408c-0.215,1.142-0.286,4.012-1.498,4.653c-0.156-0.013-0.309,0.035-0.436,0.124
		c-0.197,0.014-0.414-0.015-0.659-0.104c-0.83-0.302-1.184,1.02-0.363,1.318c0.51,0.185,0.951,0.241,1.337,0.199
		c2.622,1.95,4.14-2.829,5.507-4.323C62.948,26.772,62.265,25.754,61.621,26.244z"/>
	<path fill="#F96D21" d="M70.692,29.743c-0.136-0.339-0.453-0.593-0.84-0.478c-1.257,0.374-1.919,1.242-2.3,2.462
		c-0.316,1.013-0.53,2.167-0.655,3.294c-0.031,0.027-0.063,0.058-0.093,0.084c-0.334,0.298-0.25,0.692,0.001,0.933
		c-0.012,0.196-0.022,0.39-0.03,0.58c-0.033,0.882,1.333,0.879,1.367,0c0.012-0.33,0.046-0.656,0.091-0.98
		C69.741,34.171,71.519,31.792,70.692,29.743z"/>
	<path fill="#F96D21" d="M79.786,31.158c-0.299-0.27-0.88-0.284-1.073,0.138c-0.867,1.89-1.135,4.099-2.334,5.733
		c-0.001,0-0.002,0.001-0.003,0.003c-0.891,0.772-2.186,1.087-3.275,1.464c-0.644,0.223-1.298,0.419-1.96,0.58
		c-1.333-0.071-2.687-0.319-3.853-0.395c-0.84-0.055-0.872,1.183-0.114,1.348c-0.111,0.398,0.097,0.891,0.629,0.877
		c1.328-0.034,2.8-0.208,4.25-0.551c1.211-0.032,2.405-0.235,3.57-0.806c0.897-0.439,1.532-1.078,2.018-1.826
		c0.06-0.052,0.122-0.101,0.179-0.154C79.286,36.211,81.854,33.017,79.786,31.158z"/>
	<path fill="#F96D21" d="M33.049,50.986c-0.72-0.02-0.755-1.161-0.991-1.686c-0.399-0.888-1.453-1.072-1.944-1.87
		c-0.597-0.969-0.854-1.619-1.686-1.9c-0.108-0.099-0.256-0.161-0.449-0.154c-0.087,0.002-0.176,0.009-0.265,0.016
		c-0.042-0.004-0.088-0.006-0.132-0.008c-0.55-0.413-1.133-0.808-1.555-1.361c-0.45-0.589-0.519-1.343-0.866-1.979
		c-0.441-0.807-0.837-1.621-1.201-2.466c-0.347-0.808-1.525-0.111-1.18,0.69c0.306,0.71,0.623,1.407,0.994,2.086
		c0.417,0.768,0.586,1.625,1.073,2.358c0.324,0.487,0.742,0.919,1.156,1.329c0.032,0.031,0.067,0.058,0.1,0.087
		c-0.115,0.186-0.183,0.415-0.185,0.699c-0.005,1.021,1.088,1.992,1.754,2.63c0.692,0.663,1.438,1.241,2.106,1.934
		c0.866,0.898,1.776,1.948,2.921,2.495C34.824,54.901,35.596,51.055,33.049,50.986z"/>
	<path fill="#F96D21" d="M30.942,66.155c-0.763-0.313-1.822-0.109-2.613-0.042c-1.75,0.151-3.119-1.131-4.294-2.306
		c-0.054-0.305-0.355-0.534-0.673-0.554c-0.459-0.13-0.941,0.324-0.864,0.783c-1.694,3.616,4.491,6.193,7.342,5.332
		C31.173,68.966,32.875,66.949,30.942,66.155z"/>
	<path fill="#F96D21" d="M51.148,88.849c0.117-0.178,0.146-0.397,0.105-0.595c1.487-1.693,1.467-5.326-1.818-5.115
		c-0.473,0.031-0.914,0.142-1.306,0.315c-0.461-0.012-0.907-0.023-1.26-0.119c-0.334-0.091-0.59,0.058-0.73,0.284
		c-0.17-0.055-0.348-0.097-0.534-0.126c-0.551-0.622-1.487-0.928-2.265-0.673c-0.194-0.173-0.477-0.25-0.773-0.102
		c-0.156,0.079-0.284,0.171-0.397,0.269c-0.932,0.332-1.747-0.316-2.68-0.51c-0.489-0.101-1.002,0.314-0.841,0.841
		c0.425,1.395,1.751,1.438,2.449,2.526c0.754,1.178-1.653,2.923-0.075,4.062c1.037,0.747,2.935,0.111,3.088-1.276
		c0.1-0.897-0.258-1.558-0.552-2.346c-0.03-0.204-0.059-0.408-0.083-0.613c-0.137-1.156,0.663-2.223,1.414-0.808
		c0.586,1.105,1.121,2.226,1.79,3.285c0.116,0.185,0.246,0.375,0.386,0.565c0.077,0.214,0.171,0.406,0.295,0.558
		c0.292,0.358,0.683,0.664,1.116,0.879c0.865,0.596,1.856,0.746,2.805-0.254C51.627,89.533,51.466,89.066,51.148,88.849z"/>
	<path fill="#F96D21" d="M72.066,75.917c-0.226-0.942-0.646-1.929-1.594-2.291c-0.993-0.379-1.941,1.183-2.194,1.864
		c-0.355,0.963-0.571,1.763-1.304,2.56c-0.593,0.646-1.491,0.886-1.97,1.668c-0.398,0.65-0.46,1.342-1.024,1.927
		c-0.736,0.765-2.066,0.953-3.054,1.175c-0.345,0.078-0.49,0.336-0.488,0.604c-0.275,0.301-0.318,0.785,0.153,0.988
		c1.493,0.644,2.925,0.153,4.474,0.062c1.436-0.084,2.665-1.303,3.822-2.028c1.237-0.774,2.188-1.654,2.938-2.915
		C72.611,78.21,72.416,77.375,72.066,75.917z"/>
	<path fill="#F96D21" d="M86.684,54.817c-0.553-0.016-1.102-0.067-1.648-0.145c-0.098-0.204-0.291-0.362-0.583-0.37
		c-0.683-0.019-1.358-0.094-2.026-0.199c-1.69-0.484-3.34-1.152-4.946-1.815c-1.392-0.575-3.888-1.757-4.947-0.051
		c-0.16,0.258-0.108,0.619,0.106,0.829c0.738,0.717,1.577,0.882,2.534,1.206c0.294,0.1,0.527-0.001,0.672-0.183
		c2.135,0.317,4.205,0.98,6.33,1.341c1.467,0.417,2.962,0.711,4.508,0.754C87.566,56.208,87.563,54.842,86.684,54.817z"/>
	<path fill="#F96D21" d="M73.606,18.284c-0.295-0.352-0.853-0.206-1.073,0.138c-0.68,1.059-1.184,2.375-2.234,3.134
		c-0.212,0.153-0.534,0.299-0.77,0.397c-0.003,0.001-0.055-0.275-0.089-0.475c-0.081-0.472-0.171-0.898-0.361-1.339
		c-0.255-0.594-1.078-0.33-1.249,0.164c-0.281,0.814-0.347,1.691-0.362,2.561c-0.168-0.015-0.344,0.048-0.491,0.228
		c-0.768,0.933-1.748,2.025-2.064,3.22c-0.511,1.933-1.676,3.26-3.072,4.648c-1.929,1.915-3.78,3.813-3.99,6.691
		c-0.034,0.477,0.459,0.732,0.865,0.659c0.173-0.031,0.335-0.082,0.493-0.141c-0.304,0.212-0.618,0.4-0.921,0.556
		c-0.15-0.147-0.363-0.236-0.622-0.189c-1.818,0.325-2.14,1.88-3.22,3.094c-0.546,0.614-1.601,0.331-2.241,0.83
		c-0.482,0.375-0.718,1.011-0.583,1.62c0.323,1.449,1.777,2.365,3.21,2.37c0.68,0.001,1.363-0.495,1.864-0.905
		c0.818-0.668,1.417-1.156,2.524-1.203c1.684,0.039,3.549-1.404,4.297-2.852c0.342-0.661,0.316-1.464,0.005-2.124
		c-0.734-1.561,0.27-2.695,0.404-4.216c0.107-1.223-0.584-2.748-1.844-2.518c0.512-0.512,1.037-1.011,1.525-1.522
		c0.829-0.868,1.636-1.808,2.132-2.908c0.638-1.414,1.031-2.578,1.935-3.793c0.039,0.034,0.082,0.063,0.127,0.087
		c0.229,0.297,0.668,0.431,1,0.078c0.339-0.362,0.711-0.225,1.13-0.293c0.537-0.088,0.929-0.436,1.375-0.733
		c0.699-0.465,1.251-0.981,1.806-1.612C74.063,20.849,74.632,19.502,73.606,18.284z M61.631,41.726
		c-0.59,0.604-1.532,1.268-2.412,1.247c-0.984,0.042-1.847,0.265-2.628,0.888c-1.132,0.904-2.449,1.906-3.539,0.244
		c-0.444-0.677,1.303-0.873,1.559-0.962c0.409-0.144,0.696-0.431,0.977-0.747c0.829-0.933,1.037-2.293,2.439-2.544
		c0.021-0.003,0.037-0.011,0.057-0.016c0.196,0.185,0.487,0.271,0.793,0.119c1.455-0.727,2.689-1.834,3.348-3.341
		c0.031-0.071,0.051-0.143,0.075-0.214c0.003-0.001,0.005-0.001,0.008-0.002c-0.316,0.945-0.766,1.813-0.296,2.918
		C62.472,40.398,62.402,40.937,61.631,41.726z"/>
	<path fill="#F96D21" d="M50.262,45.232c-0.704-0.566-1.379-1.159-1.968-1.846c-0.223-0.26-0.414-0.559-0.542-0.879
		c0.131,0.076,0.261,0.167,0.308,0.194c0.762,0.448,1.449-0.734,0.69-1.18c-0.505-0.297-1.167-0.644-1.763-0.403
		c-0.576,0.233-0.777,0.828-0.657,1.411c0.318,1.547,1.802,2.734,2.965,3.67C49.975,46.746,50.949,45.785,50.262,45.232z"/>
	<path fill="#F96D21" d="M49.092,47.264c-1.732,0.006-1.729,1.25-2.434,2.264c-0.626-0.592-1.3-1.129-1.932-1.719
		c-0.823-0.768-1.288-1.837-1.835-2.802c-0.72-1.269-1.73-1.881-3.06-2.009c-0.109-0.109-0.262-0.181-0.463-0.181
		c-0.937,0.003-1.845,0.018-2.733-0.047c0.688-0.068,1.363-0.337,1.761-0.927c0.401-0.594,0.538-1.299,0.67-2
		c0.332-0.089,0.629-0.397,0.556-0.831c-0.28-1.644-1.733-4.102-3.702-3.636c-1.013,0.239-1.15,1.248-1.298,2.099
		c-0.112,0.649-0.807,0.864-1.282,1.199c-0.436,0.308-0.711,0.763-0.888,1.256c-0.368,1.028,0.408,1.772,1.371,2.244
		c-0.257-0.102-0.514-0.22-0.769-0.356c-0.777-0.415-1.468,0.765-0.69,1.18c2.048,1.094,4.101,1.188,6.329,1.188
		c0.108,0.096,0.253,0.158,0.442,0.153c2.147-0.045,2.692,1.572,3.607,3.196c0.803,1.424,2.366,2.299,3.461,3.471
		c0.269,0.287,0.691,0.236,0.966,0c0.66-0.567,0.96-2.371,1.92-2.375C49.974,48.628,49.974,47.261,49.092,47.264z"/>
	<path fill="#F96D21" d="M49.254,56.558c-2.134,0.657-4.042,1.539-5.225,3.521c-0.941,1.579-1.762,3.225-3.917,2.916
		c-0.687-0.098-1.352-0.306-2.019-0.509c-0.079-0.079-0.187-0.139-0.331-0.165c-0.135-0.024-0.266-0.039-0.396-0.049
		c-0.319-0.088-0.64-0.166-0.966-0.221c-0.425-0.072-0.729,0.212-0.826,0.537c-1.278,0.617-2.022,2.039-1.631,3.748
		c0.282,1.233,0.859,2.187,1.993,2.785c1.01,0.533,2.188,0.571,3.142,1.129c-1.431,0.52-3.483-0.181-4.492-1.094
		c-0.651-0.59-1.621,0.373-0.967,0.966c1.761,1.594,5.048,2.359,7.03,0.769c0.5,0.53,0.923,1.175,1.433,1.645
		c1.081,0.994,2.387,0.866,3.595,0.177c0.765-0.437,0.077-1.617-0.69-1.18c-1.284,0.732-1.941,0.135-2.774-0.872
		c-0.714-0.863-1.436-1.688-2.563-1.98c-0.207-0.054-0.385-0.015-0.524,0.075c-0.662-0.27-1.375-0.437-2.089-0.658
		c-2.194-0.68-2.554-4.669,0.045-4.496c1.937,0.506,3.815,1.307,5.731,0.239c1.136-0.634,1.805-1.982,2.396-3.071
		c0.92-1.691,2.673-2.359,4.408-2.893C50.457,57.617,50.098,56.297,49.254,56.558z"/>
	<path fill="#E0571B" d="M50.195,42.404c-0.329-0.354-0.717-0.703-1.146-0.929c-0.142-0.075-0.3-0.12-0.459-0.137
		c-0.122-0.108-0.281-0.174-0.446-0.187c-0.247-0.102-0.521-0.082-0.737,0.135c-0.24,0.239-0.294,0.736,0,0.966
		c0.016,0.012,0.034,0.024,0.05,0.037c0.03,0.119,0.076,0.234,0.13,0.347c0.17,1.121,1.316,2.217,2.333,2.42
		c0.38,0.075,0.663-0.14,0.787-0.417c0.14-0.117,0.245-0.278,0.277-0.499C51.087,43.45,50.638,42.88,50.195,42.404z"/>
	<path fill="#E0571B" d="M61.252,63.387c-0.172-0.615-0.382-1.126-0.853-1.57c-0.621-0.588-1.54-0.577-2.036-1.329
		c-0.545-0.829-0.885-2.769-2.179-2.769c-0.937,0-2.764,0.784-3.375,1.497c-0.141,0.165-0.251,0.328-0.344,0.492
		c-0.408-0.17-0.978,0.028-0.967,0.599c0.005,0.296,0.019,0.586,0.045,0.87c-0.736,1.948-0.542,3.944,0.842,5.622
		c0.561,0.68,1.522-0.293,0.966-0.967c-0.546-0.662-0.824-1.414-0.876-2.188c0.125,0.142,0.265,0.279,0.424,0.408
		c0.531,0.429,1.287,0.037,1.143-0.665c-0.25-1.214-1.183-2.701,0.22-3.501c0.447-0.255,0.925-0.458,1.405-0.642
		c0.536-0.206,0.44-0.167,0.692,0.282c0.441,0.784,0.72,1.604,1.311,2.299c0.775,0.913,1.882,0.562,2.264,1.924
		C60.171,64.597,61.49,64.236,61.252,63.387z"/>
	<path fill="#E0571B" d="M71.457,62.394c-0.061-0.009-0.313-0.014-0.313-0.023c0,0,0,0.145,0,0.145s0.252,0,0.247,0
		c-1.021,0-2.041-0.244-3.073-0.244c-0.841-0.001-0.877,1.205-0.112,1.318c-0.21,0.716,0.272,1.521,0.483,2.238
		c0.248,0.844,1.567,0.476,1.318-0.372c-0.116-0.393-0.785-1.337-0.32-1.622c0.437-0.267,1.169-0.1,1.655-0.094
		C72.094,63.748,72.232,62.514,71.457,62.394z"/>
	<path fill="#E0571B" d="M79.571,64.252c-0.058,0.118-0.123,0.233-0.192,0.345c-0.187-0.035-0.388,0.016-0.56,0.204
		c-0.752,0.822-1.734,0.828-2.778,0.83c-0.559,0.001-0.799,0.57-0.59,1.028c0.414,0.91,1.183,1.571,1.717,2.403
		c0.346,0.541,1.312,0.369,1.273-0.345c-0.042-0.747,0.433-1.29,0.894-1.829c0.525-0.614,1.061-1.213,1.416-1.946
		C81.133,64.153,79.954,63.459,79.571,64.252z"/>
	<path fill="#E0571B" d="M56.3,37.574c-1.32,0.996-2.584,2.058-3.84,3.133c-0.041-0.051-0.106-0.14-0.19-0.254
		c0.073-0.169,0.083-0.368-0.013-0.575c-1.641-3.542-7.435-5.146-9.345-1.186c-0.016,0.018-0.035,0.034-0.051,0.052
		c-0.586,0.654,0.377,1.624,0.966,0.966c0.014-0.015,0.029-0.028,0.042-0.042c0.037-0.03,0.071-0.064,0.102-0.103
		c0.829-0.846,1.858-1.252,3.048-1.359c1.483-0.133,2.366,0.778,3.262,1.791c0.028,0.032,0.057,0.068,0.085,0.102
		c-0.293-0.16-0.545-0.297-0.691-0.35c-0.92-0.335-1.917-0.487-2.892-0.542c-1.679-0.095-2.742,0.979-2.644,2.63
		c0.11,1.858,1.518,3.652,2.934,4.737c0.996,0.763,2.109,1.049,3.205,0.961c-1.772,1.802-1.697,4.816,0.7,6.494
		c0.57,0.398,1.11-0.25,0.967-0.789c0.306,0.048,0.631-0.087,0.723-0.478c0.314-1.324,0.505-2.397,1.446-3.441
		c0.759-0.843,1.167-1.626,0.785-2.757c-0.191-0.568-0.868-0.581-1.187-0.266c-0.146-0.074-0.312-0.118-0.492-0.138
		c0.119-0.528-0.414-1.147-0.98-0.766c-1.65,1.111-3.451,0.956-4.949-0.404c-0.9-0.817-3.222-4.362-0.508-4.417
		c1.231-0.025,3.066,0.412,3.968,1.234c0.768,0.699,1.426,0.808,2.278,0.196c0.073-0.052,0.13-0.11,0.177-0.172
		c0.049-0.025,0.097-0.056,0.144-0.096c1.191-1.021,2.385-2.037,3.638-2.983C57.683,38.229,57.003,37.042,56.3,37.574z"/>
	<path fill="#E0571B" d="M31.208,28.239c-1.156-0.931-2.505-1.533-3.743-2.338c-0.742-0.482-1.426,0.702-0.69,1.18
		c0.083,0.054,0.168,0.105,0.252,0.156c-0.319-0.032-0.634-0.051-0.937-0.056c-0.882-0.014-0.881,1.353,0,1.367
		c0.675,0.011,1.414,0.095,2.1,0.301c0.054,0.289,0.269,0.547,0.646,0.558c0.207,0.005,0.413,0.02,0.617,0.034
		c0.022,0.016,0.046,0.028,0.068,0.044c0.272,0.202,0.541,0.149,0.728-0.02c0.219-0.006,0.437-0.029,0.657-0.083
		C31.371,29.268,31.614,28.565,31.208,28.239z"/>
	<path fill="#E0571B" d="M47.436,54.867c-0.151,0.021-0.296,0.02-0.438,0.007c-0.027-0.315-0.242-0.599-0.652-0.572
		c-0.948,0.062-1.106-0.641-1.729-1.203c-0.64-0.577-1.386-0.663-2.165-0.744c-0.095-0.514-0.293-0.845-0.704-1.21
		c-0.713-0.632-0.512-1.399-0.917-2.163c-0.026-0.186-0.128-0.354-0.33-0.443c-0.542-0.477-1.543-0.42-2.292-0.375
		c-0.263-0.022-0.525-0.038-0.791-0.041c-0.881-0.01-0.881,1.357,0,1.367c0.019,0,0.038,0.002,0.058,0.002
		c0.085,0.04,0.185,0.062,0.302,0.059c0.143-0.003,0.287-0.01,0.43-0.016c0.259,0.024,0.516,0.058,0.772,0.096
		c-0.212,1.167,0.283,2.133,0.961,3.008c-1.109-0.026-2.993,0.05-2.577,1.463c0.099,0.335,0.299,0.629,0.069,0.941
		c-0.351,0.475-0.481,1.121-0.753,1.645c-0.293,0.566-1.314,2.393-2.075,2.604c-0.784-0.946-1.848-1.599-3.146-1.342
		c-1.728,0.342-1.645,2.694-3.149,3.243c-0.258,0.094-0.399,0.288-0.447,0.5c-0.378,0.374-0.228,1.192,0.457,1.185
		c1.017-0.012,2.099-0.182,3.08,0.147c0.12,0.041,0.251,0.034,0.373-0.003c-0.007,0.124-0.016,0.248-0.017,0.374
		c-0.007,0.882,1.36,0.881,1.367,0c0.009-1.069,0.185-2.039,1.131-2.461c0.354,0.125,0.775-0.086,0.901-0.42
		c1.385-0.593,2.48-2.608,3.029-3.802c0.28-0.609,0.897-1.445,0.748-2.164c-0.102-0.485-0.465-0.498,0.137-0.557
		c0.459-0.045,0.931,0.017,1.391,0.031c0.229,0.007,0.397-0.081,0.508-0.215c0.139,0.109,0.291,0.145,0.436,0.125
		c0.05,0.065,0.103,0.129,0.163,0.188c0.779,0.778,2.18,0.465,3.097,1.12c1.069,0.765,1.806,1.125,3.134,0.944
		C48.669,56.066,48.297,54.75,47.436,54.867z"/>
	<path fill="#E0571B" d="M41.549,61.192c-0.783-0.124-1.207-0.837-1.737-1.357c-0.63-0.615-1.369-0.837-2.23-0.703
		c-0.869,0.135-0.5,1.452,0.363,1.318c0.66-0.103,1.108,0.56,1.498,0.986c0.474,0.518,1.035,0.961,1.744,1.074
		C42.048,62.647,42.418,61.33,41.549,61.192z"/>
	<path fill="#E0571B" d="M54.755,54.566c-0.42,0.192-0.585,0.147-0.782-0.27c-0.22-0.467-0.948-0.424-1.18,0
		c-0.538,0.982-0.611,2.133-1.202,3.09c-0.135,0.218-0.128,0.43-0.043,0.603c-0.328,0.714,0.777,1.319,1.223,0.602
		c0.802-1.288,2.465-1.737,2.987-3.253C55.974,54.714,55.25,54.341,54.755,54.566z"/>
	<path fill="#E0571B" d="M61.526,45.028c-0.131-0.253-0.498-0.415-0.771-0.314c-0.299,0.111-0.52,0.258-0.688,0.432
		c-0.087,0.051-0.168,0.124-0.235,0.225c-0.586,0.894-0.012,2.085,0.203,3.014c0.014,0.061,0.02,0.12,0.023,0.178
		c-0.002,0.021-0.007,0.042-0.01,0.062c-0.059,0.013-0.121,0.023-0.191,0.026c-0.599,0.026-1.083,0.41-1.359,0.912
		c-0.261,0.471,0.06,0.957,0.019,1.411c-0.061,0.127-0.105,0.259-0.125,0.398c-0.057,0.394,0.173,0.709,0.466,0.818
		c0.282,0.127,0.618,0.077,0.783-0.292c0.397-0.616,0.966-1.245,1.36-1.932c0.077-0.098,0.146-0.2,0.204-0.307
		c0.199-0.15,0.365-0.352,0.486-0.618C62.183,47.948,62.077,46.088,61.526,45.028z"/>
	<path fill="#E0571B" d="M74.013,45.062c-1.034,1.135-4.005-1.206-4.87-1.889c-0.684-0.54-1.658,0.42-0.966,0.966
		c1.503,1.188,5.006,3.861,6.802,1.889C75.572,45.377,74.608,44.408,74.013,45.062z"/>
	<path fill="#E0571B" d="M61.595,39.355c-0.285-0.828-1.606-0.472-1.317,0.363c0.252,0.732-0.629,1.233-1.153,1.57
		c-0.7,0.45-1.493,0.795-2.104,1.37c-0.644,0.604,0.325,1.569,0.966,0.966C59.233,42.453,62.402,41.694,61.595,39.355z"/>
	<path fill="#E0571B" d="M54.938,36.303c-1.139-0.18-2.033-0.666-2.788-1.541c-0.577-0.668-1.539,0.303-0.966,0.966
		c0.889,1.029,2.048,1.68,3.392,1.893C55.437,37.757,55.807,36.44,54.938,36.303z"/>
	<path fill="#E0571B" d="M20.891,61.217c-0.493-0.408-0.941-0.441-1.41-0.384c-0.21-0.068-0.467-0.069-0.781,0.016
		c-0.096,0.026-0.186,0.076-0.269,0.14c-0.131,0.011-0.267,0.015-0.408,0.007c-0.172-0.009-0.31,0.038-0.414,0.117
		c-0.249,0.136-0.431,0.403-0.364,0.756c0.184,0.967,0.454,1.91,0.472,2.9c0.006,0.293,0.163,0.487,0.367,0.585
		c-0.119,0.746-0.391,1.506-0.997,1.96c-0.478,0.358-0.813,0.604-0.925,1.222c-0.08,0.446,0.31,1.061,0.84,0.841
		c2.237-0.931,3.124-3.24,3.993-5.307C21.309,63.324,21.641,61.839,20.891,61.217z"/>
	<path fill="#E0571B" d="M69.143,76.27c0,0.09,0,0.178,0,0.267c0,0.001-0.329,0.001-0.33,0.002
		c-0.835,0.502-1.603,1.479-2.167,2.246c-0.645,0.876-1.541,1.896-1.825,2.969c-0.125,0.474,0.294,1.021,0.8,0.841
		c0.553-0.197,0.93-0.463,1.349-0.875c0.575-0.564,1.324-1.11,1.841-1.704c0.949-1.092,1.375-2.347,1.378-3.745
		C70.191,75.388,69.143,75.389,69.143,76.27z"/>
	<path fill="#F9963E" d="M40.947,36.912c0.019-0.222-0.136-0.449-0.258-0.634c-0.027-0.042-0.109-0.084-0.137-0.125
		c-0.497-1.389-1.272-2.9-2.619-3.578c-0.321-0.317-0.684-0.507-1.049-0.598c-0.02-0.007-0.044-0.016-0.065-0.022
		c-0.957-0.327-2.989,0.397-3.854,0.819c-0.354,0.174-0.62,0.661-0.738,1.017c-0.007,0.021-0.019,0.037-0.026,0.057
		c-0.339,0.236-0.653,0.452-0.928,0.616c-0.244,0.145-0.341,0.357-0.335,0.567c-0.218,0.099-0.443,0.191-0.669,0.293
		c-1.999,0.902-2.629,3.808-1.121,5.38c0.611,0.638,1.576-0.331,0.966-0.966c-0.833-0.868-0.427-2.375,0.483-3.039
		c0.543-0.396,1.261-0.567,1.843-0.91c0.205-0.121,0.372-0.281,0.514-0.46c0.661-0.304,1.277-0.711,1.925-1.053
		c0.495-0.262,1.393-0.528,2.122-0.473c0.501,0.988,1.428,3.737,2.771,3.998c0.386,1.604,0.371,3.625-0.629,3.625
		c-1,0-1,1.367,0,1.367C41.143,42.794,41.494,39.048,40.947,36.912z"/>
	<path fill="#E0571B" d="M39.306,37.745c-0.311,0.207-0.574,0.444-0.816,0.703c-0.214-0.194-0.425-0.342-0.717-0.429
		c-0.362-0.107-0.736,0.126-0.84,0.478c-0.26,0.881-0.571,1.893-1.583,2.097c-0.864,0.177-0.496,1.492,0.364,1.318
		c0.862-0.177,1.667-0.417,2.395-0.928c0.77-0.54,1.089-1.529,1.889-2.06C40.727,38.44,40.042,37.256,39.306,37.745z"/>
	<path fill="#E0571B" d="M22.468,44.964c0.543-3.201-0.056-8.571-3.354-7.688c-0.547,0.146-0.703,0.979-0.164,1.249
		c1.094,0.549,1.596,0.87,1.55,2.193c-0.045,1.301,0.307,2.645,0.525,3.916c0.005,0.034,0.012,0.068,0.017,0.103
		c-0.095,0.679-0.222,1.2-0.35,1.4c-0.141,0.22-0.134,0.434-0.046,0.608c-0.225,0.048-0.539-0.002-0.972-0.188
		c-0.854-0.368-1.624-0.647-2.565-0.659c-0.882-0.011-0.88,1.356,0,1.367c1.526,0.019,2.823,1.345,4.366,0.883
		c0.981-0.294,1.071-1.567,1.046-2.397C22.512,45.487,22.493,45.225,22.468,44.964z"/>
	<path fill="#E0571B" d="M51.954,82.972c-0.075-0.265-0.361-0.541-0.659-0.502c-0.483,0.062-0.858,0.236-1.276,0.484
		c-0.512,0.305-1.194,0.237-1.752,0.503c-0.324,0.156-0.398,0.443-0.321,0.704c-0.04,0.379,0.228,0.78,0.667,0.77
		c0.826-0.021,1.18,0.051,1.465,0.864c0.208,0.595,0.41,1.14,0.834,1.618c0.27,0.304,0.687,0.217,0.966,0
		C53.05,86.506,52.28,84.124,51.954,82.972z"/>
	<path fill="#F96D21" d="M71.157,73.726c-1.317-1.209-2.514,0.109-3.266,1.243c-0.534,0.804-1.078,1.504-1.672,2.264
		c-0.622,0.796-1.582,1.418-1.968,2.36c-0.025,0.059-0.038,0.115-0.046,0.168c-0.094,0.104-0.161,0.24-0.177,0.411
		c-0.091,0.951-0.589,1.645-1.351,2.192c-0.709,0.509-0.027,1.695,0.69,1.18c1.175-0.844,1.869-1.879,2.021-3.328
		c0.074-0.068,0.137-0.153,0.181-0.261c0.222-0.539,0.99-0.843,1.323-1.328c0.417-0.607,0.962-1.102,1.377-1.699
		c0.26-0.374,1.451-2.669,1.922-2.237C70.838,75.287,71.807,74.323,71.157,73.726z"/>
	<path fill="#F96D21" d="M87.087,55.677c-0.978-1.445-2.998-1.819-4.593-1.993c-1.414-0.155-2.849-0.132-4.269-0.133
		c-1.461-0.001-2.658-0.528-4.075-0.695c-0.874-0.104-0.864,1.264,0,1.367c0.867,0.103,1.631,0.554,2.5,0.66
		c0.924,0.111,1.853,0.035,2.782,0.039c1.825,0.008,3.795-0.045,5.481,0.746c2.034,0.954,0.951,2.964-0.134,4.454
		c-0.258-0.075-0.539,0.001-0.685,0.327c-0.209,0.467-0.438,0.868-0.715,1.223c-0.543,0.392-1.182,0.7-1.724,1.017
		c-0.303,0.177-0.558,0.404-0.815,0.625c-0.398,0.169-0.773,0.375-1.111,0.774c-0.524,0.617,0.119,1.377,0.828,1.073
		c0.548-0.235,1.028-0.603,1.509-0.976c0.512-0.218,1.044-0.414,1.468-0.705c0.445-0.305,0.797-0.702,1.091-1.141
		c0.424-0.389,0.805-0.824,1.165-1.312C86.851,59.587,88.252,57.4,87.087,55.677z"/>
	<path fill="#F96D21" d="M83.158,42.425c-0.048-0.291-0.38-0.508-0.659-0.502c-1.759,0.041-3.5-0.562-5.207,0.08
		c-1.245,0.468-1.984,1.746-2.928,2.605c-0.653,0.595,0.316,1.559,0.967,0.966c0.004-0.004,0.008-0.008,0.012-0.012
		c0.086,0.097,0.196,0.169,0.316,0.188c0.41,0.063,0.746,0.095,1.138-0.086c0.169-0.078,2.504-1.337,2.275-0.796
		c-0.72,1.701-2.535,3.613-4.424,3.714c-0.876,0.047-0.881,1.414,0,1.367c0.443-0.024,0.85-0.096,1.234-0.208
		c0.113,0.173,0.302,0.299,0.554,0.307c2.111,0.067,3.71-1.793,5.139-3.11c0.53-0.488,0.869-1.121,0.959-1.836
		C82.654,44.157,83.32,43.402,83.158,42.425z"/>
	<path fill="#F96D21" d="M75.49,56.128c-0.224-0.145-0.44-0.255-0.662-0.344c-0.01-0.171-0.073-0.336-0.194-0.443
		c-1.436-1.276-5.007-0.466-6.394,0.588c-0.643,0.488-0.102,1.545,0.541,1.267c0.438,0.863,1.972,1.508,2.604,1.771
		c0.01,0.004,0.021,0.004,0.031,0.007c0.24,0.195,0.578,0.231,0.832-0.083c0.382-0.475,0.683-0.846,1.308-0.991
		c0.26-0.06,0.545-0.08,0.765-0.244c0.135-0.1,0.22-0.212,0.274-0.333c0.12,0.016,0.242,0.033,0.368,0.054
		C75.713,57.499,76.171,56.57,75.49,56.128z"/>
	<path fill="#F96D21" d="M71.462,53.094c-0.54-0.82-1.467-1.204-2.332-1.604c-1.133-0.523-2.06-1.182-3.338-1.258
		c-0.449-0.027-0.924,0.229-1.323,0.408c-0.838,0.375-1.377,0.352-2.274,0.303c-0.97-0.053-1.658,0.513-2.241,1.217
		c-0.174,0.21-0.199,0.45-0.136,0.66c-0.577,0.766-0.867,1.815-0.859,2.706c0.01,1.074,0.872,1.235,0.125,2.328
		c-0.37,0.54-0.312,1.434-0.012,1.989c0.577,1.07,1.57,1.546,2.378,2.176c-0.008,0.052-0.011,0.106-0.006,0.166
		c0.119,1.614,0.728,2.963,1.479,4.306c0.253,1.636,0.837,2.983,2.298,4.326c0.048,0.044,0.098,0.078,0.149,0.105
		c0.047,0.084,0.095,0.168,0.142,0.254c0.421,0.773,1.602,0.083,1.18-0.69c-0.668-1.227-1.432-2.319-1.932-3.636
		c-0.271-0.717-0.461-1.458-0.638-2.202c-0.012-0.231-0.022-0.466-0.032-0.711c-0.032-0.778-0.292-1.435-0.702-2.002
		c-0.208-0.538-0.471-1.048-0.827-1.53c-0.246-0.334-0.564-0.62-0.893-0.871c-0.747-0.57-0.588-1.263-0.273-2.037
		c0.237-0.585,0.263-1.655,0.1-2.252c-0.056-0.204-0.215-0.344-0.353-0.494c-0.35-0.381-0.175-0.044,0.255-0.49
		c0.444-0.46,1.022-0.941,1.629-1.311c2.661,0.186,5.136,1.445,7.846,1.172C71.35,54.074,71.773,53.566,71.462,53.094z"/>
	<path fill="#F96D21" d="M55.382,50.472c-0.46,0.431-0.736,0.91-0.83,1.537c-0.052,0.348-0.045,0.69-0.077,1.028
		c-0.373-0.072-0.748-0.037-1.108,0.206c-0.571,0.385-0.795,1.064-1.424,1.396c-0.365,0.192-0.405,0.551-0.268,0.838
		c-0.066,0.102-0.135,0.2-0.193,0.308c-0.208-0.051-0.417-0.101-0.625-0.151c0.017-0.272,0.048-0.543,0.088-0.813
		c0.272-0.392,0.45-0.806,0.443-1.108c-0.026-1.156-2.088-3.332-1.5-4.629c0.219-0.254,0.501-0.482,0.704-0.764
		c0.403-0.558-0.381-1.303-0.935-0.935c-0.402,0.267-0.676,0.59-0.858,0.947c-0.133,0.139-0.255,0.273-0.358,0.416
		c-0.235-0.072-0.511-0.041-0.711,0.135c-0.496,0.438-0.829,1.082-1.352,1.483c-0.375,0.287-0.437,0.699-0.138,1.074
		c0.515,0.646,2.879,2.329,0.699,2.634c-0.711,0.1-0.591,1.14,0,1.318c0.274,0.083,0.518,0.102,0.77,0.09
		c0.025,0.113,0.093,0.223,0.212,0.321c-0.12,0.102-0.282,0.173-0.418,0.245c-0.362,0.193-0.75,0.341-1.117,0.522
		c-0.891,0.439-1.448,1.029-1.812,1.955c-0.322,0.822,1,1.174,1.318,0.363c0.403-1.024,1.538-1.254,2.424-1.726
		c0.224-0.119,0.434-0.275,0.608-0.453c0.302,0.708,1.238,0.865,1.927,1.296c0.561,0.336,1.075-0.214,1.005-0.712
		c0.453-0.301,0.806-0.854,1.123-1.322c0.106-0.158,0.132-0.312,0.107-0.452c0.239-0.188,0.45-0.405,0.643-0.657
		c0.327-0.427,0.368-0.609,0.899-0.336c0.429,0.22,0.83,0.01,1.004-0.409c0.369-0.886-0.027-1.982,0.718-2.679
		C56.993,50.834,56.025,49.87,55.382,50.472z"/>
	<path fill="#F96D21" d="M58.323,47.466c0.064-0.384,0.025-0.796-0.134-1.263c0.005-0.407-0.016-0.815-0.049-1.211
		c-0.036-0.423-0.412-0.802-0.865-0.659c-0.682,0.215-1.319,0.773-1.748,1.438c-0.288-0.124-0.615-0.037-0.847,0.268
		c-0.574,0.752-0.578,1.944-0.976,2.811c-0.537,1.169-1.173,2.11-1.906,3.152c-0.508,0.723,0.678,1.405,1.18,0.69
		c0.63-0.897,1.198-1.516,1.607-2.558c0.059-0.149,0.125-0.294,0.192-0.439c0.286,0.184,0.637,0.261,1.022,0.18
		c0.471-0.099,0.85-0.275,1.16-0.504c0.081-0.016,0.164-0.051,0.246-0.11c0.563-0.403,0.847-0.771,1.109-1.402
		C58.372,47.716,58.366,47.584,58.323,47.466z"/>
	<path fill="#F96D21" d="M47.998,46.718c-1.894-0.285-3.119-2.538-3.175-4.31c-0.028-0.879-1.395-0.882-1.367,0
		c0.074,2.323,1.683,5.253,4.179,5.628C48.496,48.166,48.867,46.849,47.998,46.718z"/>
	<path fill="#F96D21" d="M51.411,58.345c-2.153,0.356-3.417,1.798-3.956,3.856c-0.224,0.853,1.095,1.215,1.318,0.363
		c0.429-1.639,1.296-2.62,3-2.901C52.642,59.52,52.273,58.203,51.411,58.345z"/>
	<path fill="#F96D21" d="M53.097,38.944c-0.571,0.596-0.802-0.34-1.08-0.74c-0.21-0.303-0.474-0.557-0.736-0.813
		c-0.687-0.67-1.559-1.067-2.451-1.375c-1.78-0.615-3.678-0.504-5.38,0.247c-1.605,0.709-1.331,1.674-1.528,2.9
		c-0.243-1.32-0.97-2.595-1.565-3.759c-0.401-0.785-1.58-0.093-1.18,0.69c0.787,1.54,2.655,5.46,0.133,6.131
		c-0.014-0.001-0.026-0.004-0.04-0.004c-0.123,0-0.227,0.029-0.315,0.074c-0.089,0.012-0.183,0.021-0.281,0.026
		c-0.878,0.042-0.882,1.41,0,1.367c0.762-0.038,1.379-0.233,1.878-0.592c0.033,0.231,0.076,0.46,0.146,0.686
		c0.168,0.539,0.772,0.582,1.114,0.321c0.072,0.148,0.152,0.296,0.247,0.439c0.484,0.731,1.668,0.048,1.18-0.69
		c-0.993-1.501-0.284-3.057,0.269-4.542c0.032-0.121,0.032-0.242,0-0.363c-0.228-0.682-0.002-1.164,0.633-1.503
		c1.008-0.537,2.187-0.52,3.284-0.361c2.115,0.304,3.063,1.529,4.318,3.056c0.717,0.871,1.693,0.427,2.321-0.228
		C54.673,39.274,53.708,38.306,53.097,38.944z"/>
	<path fill="#F96D21" d="M27.231,46.994c-0.52-0.638-0.886-1.584-1.872-1.469c-1.183,0.138-1.842,1.399-2.967,1.69
		c-0.853,0.22-0.491,1.539,0.363,1.318c0.747-0.193,1.306-0.622,1.892-1.104c0.179-0.148,0.72-0.654,0.889-0.478
		c0.276,0.29,0.472,0.694,0.728,1.008C26.822,48.643,27.784,47.67,27.231,46.994z"/>
	<path fill="#F9963E" d="M34.5,53.749c-1.101-0.038-2.413,0.041-3.426,0.491c-0.874,0.388-1.013,0.869-2.075,0.731
		c-1.157-0.149-2.079-0.256-3.007-1.042c-1.339-1.131-1.649-4.425-3.996-3.933c-0.862,0.181-0.496,1.498,0.363,1.318
		c0.727-0.153,1.617,2.114,1.916,2.639c0.598,1.045,1.604,1.67,2.705,2.071c0.892,0.325,2.612,0.609,3.529,0.358
		c0.72-0.198,1.026-1.032,1.806-1.119c0.624-0.069,1.571-0.17,2.187-0.149C35.381,55.146,35.379,53.78,34.5,53.749z"/>
	<path fill="#F9963E" d="M22.27,37.889c-1.142-1.534-2.353-2.961-4.041-3.907c-1.772-0.994-4.051-0.725-5.991-0.704
		c-0.158,0.001-0.287,0.048-0.388,0.122C8.227,33.649,6.4,36.4,6.529,39.973c0.032,0.886,0.234,1.771,0.479,2.617
		c0.167,0.576,0.445,1.115,0.608,1.696c0.235,0.837-0.083,1.724-0.306,2.518c-0.402,1.432-0.397,2.748-0.26,4.08
		c-0.385,0.812-0.635,1.679-0.664,2.655c-0.019,0.641,0.696,0.812,1.099,0.522c0.134,0.834,1.472,0.838,1.361-0.026
		c-0.12-0.935-0.321-1.871-0.458-2.811c0.339-0.656,0.78-1.27,1.251-1.874c0.535-0.686-0.424-1.661-0.966-0.966
		c-0.14,0.179-0.277,0.358-0.41,0.538c0.014-0.189,0.032-0.379,0.061-0.569c0.243-1.576,0.859-2.811,0.608-4.431
		c-0.114-0.737-0.533-1.434-0.738-2.145c-0.269-0.926-0.329-1.889-0.308-2.847c0.056-2.53,1.805-4.111,4.251-4.187
		c0.138-0.004,0.251-0.044,0.346-0.103c1.699-0.033,3.466-0.188,5.054,0.521c1.487,0.665,2.606,2.149,3.55,3.417
		C21.61,39.277,22.797,38.597,22.27,37.889z"/>
	<path fill="#F9963E" d="M24.217,14.688c-1.71,1.002-3.635,1.498-5.391,2.404c-1.244,0.642-2.038,1.895-2.805,3.009
		c-0.501,0.729,0.684,1.411,1.18,0.69c1.008-1.465,1.916-2.413,3.586-3.104c1.399-0.58,2.805-1.048,4.119-1.818
		C25.667,15.422,24.979,14.241,24.217,14.688z"/>
	<path fill="#F9963E" d="M53.441,10.156c-0.007-0.067-0.019-0.168-0.034-0.322c-0.036-0.37-0.024-0.747-0.022-1.118
		c0.004-0.543,0.01-0.98-0.349-1.427c-1.13-1.409-3.253-1.682-4.901-2.068c-2.131-0.499-3.378-1.167-5.252,0.306
		c-1.101,0.865-2.077,1.261-3.387,1.661c-0.764,0.232-1.381,0.61-1.81,1.286c-0.474,0.747,0.709,1.432,1.18,0.69
		c0.522-0.824,1.957-0.89,2.799-1.227c0.819-0.328,1.508-0.893,2.185-1.444c1.433-1.167,4.762,0.166,6.471,0.697
		c0.633,0.197,1.699,0.527,1.7,1.289c0.001,0.604-0.023,1.212,0.071,1.812c0.164,1.046,0.91,1.818,1.933,1.105
		C54.707,10.92,54.123,9.828,53.441,10.156z"/>
	<path fill="#F9963E" d="M46.338,67.75c-0.021,1.337-0.394,2.782-1.55,3.584c-0.718,0.499-0.036,1.684,0.69,1.18
		c1.575-1.093,2.196-2.904,2.226-4.764C47.718,66.867,46.352,66.869,46.338,67.75z"/>
	<path fill="#F9963E" d="M33.688,81.202c-1.085-0.208-2.029,0.078-3.109,0.13c-1.496,0.075-3.267-1.698-2.972-3.166
		c0.172-0.861-1.145-1.227-1.318-0.363c-0.312,1.561,0.341,2.876,1.611,3.808c0.281,0.207,0.585,0.415,0.904,0.595
		c-0.019,0.229,0.059,0.47,0.284,0.641c1.558,1.187,2.983,0.178,4.601-0.328C34.292,82.332,34.388,81.336,33.688,81.202z"/>
	<path fill="#E0571B" d="M54.872,69.749c-0.572-0.024-1.184-0.125-1.763-0.071c-1.64-1.773-3.127-3.975-5.403-4.967
		c-0.868-0.378-1.829-0.325-2.441,0.459c-0.41,0.526-0.435,1.095-0.373,1.739c0.144,1.479,0.273,2.623-1.037,3.636
		c-0.696,0.539,0.279,1.499,0.966,0.966c1.099-0.85,1.561-2.025,1.602-3.397c0.018-0.573-0.601-1.996,0.115-2.267
		c0.431-0.164,1.075,0.338,1.405,0.554c1.554,1.015,2.679,2.541,3.904,3.916c-0.295,0.539-0.687,1.639-0.669,1.643
		c-0.735-0.162-1.105,0.779-0.657,1.172c-0.063,0.22-0.073,0.455-0.009,0.687c0.122,0.443,0.408,0.822,0.54,1.268
		c0.172,0.578,0.064,1.31,0.057,1.905c-0.013,0.882,1.354,0.88,1.367,0c0.01-0.769,0.02-1.508-0.105-2.269
		c-0.051-0.315-0.208-0.604-0.346-0.886c-0.237-0.483-0.118-0.321,0.347-0.46c0.681-0.203,0.71-1.144,1.286-1.493
		c0.589-0.357,1.183-0.478,1.698-0.968C55.806,70.488,55.445,69.773,54.872,69.749z"/>
	<path fill="#E0571B" d="M44.355,72.556c-0.405,0.095-1.066,0.188-1.684,0.148c-0.632-0.488-1.132-1.131-1.727-1.662
		c-0.317-0.284-0.744-0.226-0.983,0.041c-0.047,0.012-0.095,0.028-0.144,0.051c-1.191,0.564-2.443,0.728-3.682,0.199
		c-0.801-0.342-1.499,0.834-0.69,1.18c1.535,0.656,3.006,0.618,4.495,0.044c0.35,0.831,1.208,1.252,2.172,1.415
		c0.134,0.069,0.264,0.082,0.381,0.05c0.1,0.01,0.201,0.01,0.301,0.015c-0.943,0.876-1.281,1.886-1.399,3.233
		c-0.208,2.376-1.851,3.109-3.764,4.101c-0.783,0.406-0.092,1.585,0.689,1.18c1.487-0.771,3.001-1.47,3.893-2.957
		c1.021-1.704,0.139-3.533,1.91-4.902c0.282-0.218,0.288-0.504,0.151-0.734c0.153-0.025,0.303-0.052,0.441-0.084
		C45.577,73.673,45.212,72.355,44.355,72.556z"/>
	<path fill="#E0571B" d="M59.029,32.208c-0.595-0.249-1.708-0.482-2.309-0.99c0.648-0.787,1.151-1.831,1.642-2.674
		c0.478-0.818,1.001-1.974,0.036-2.627c-0.457-0.31-0.999,0.109-1.028,0.59c-0.04,0.655-0.215,1.264-0.49,1.857
		c-0.046,0.075-0.09,0.149-0.138,0.224c-0.315,0.34-0.918,0.288-1.291,0.506c-0.265,0.156-0.4,0.335-0.469,0.53
		c-1.262-1.876-2.196-4.355-1.438-6.314c0.318-0.823-1.004-1.176-1.318-0.363c-1.156,2.986,0.837,6.804,2.859,9.012
		c0.178,0.194,0.406,0.235,0.614,0.179c0.782,0.716,2.06,1.008,2.967,1.389C59.478,33.868,59.829,32.544,59.029,32.208z"/>
	<path fill="#E0571B" d="M47.71,22.287c-0.428-0.826-0.938-1.574-0.946-2.535c-0.008-0.984,0.214-1.882,0.021-2.866
		c-0.169-0.864-1.486-0.498-1.318,0.363c0.15,0.769,0.02,1.546-0.03,2.323c-0.369-0.42-0.743-0.828-1.006-1.359
		c-0.392-0.789-1.571-0.097-1.18,0.69c0.452,0.909,1.192,1.508,1.756,2.329c0.514,0.748,0.949,1.54,1.768,1.991
		C47.391,23.561,48.025,22.893,47.71,22.287z"/>
	<path fill="#E0571B" d="M40.38,25.749c-1.253,0.463-2.764,1.256-2.896,2.768c-0.032,0.362-0.034,0.695,0.034,1.055
		c0.214,0.495,0.136,0.604-0.235,0.328c-0.346,0.047-0.694,0.077-1.043,0.087c-1.189,0.067-2.649,0.145-3.815-0.086
		c-1.477-0.292-2.497-1.038-3.798-0.326c-0.083-0.003-0.173,0.012-0.271,0.052c-1.718,0.704-3.054,1.993-3.739,3.743
		c-0.013,0.031-0.023,0.063-0.034,0.095c-0.049,0.064-0.098,0.127-0.146,0.192c-0.376,0.241-0.788,0.418-1.178,0.83
		c-1.001,1.06-1.065,2.456-1.07,3.848c-0.001,0.415,0.292,0.63,0.606,0.656c0.204,0.146,0.477,0.188,0.721,0.034
		c0.71-0.451,1.042-1.295,1.334-2.128c0.278-0.419,0.444-0.903,0.585-1.382c0.006-0.021,0.013-0.042,0.02-0.064
		c0.161-0.15,0.323-0.299,0.48-0.452c0.121-0.05,0.23-0.143,0.311-0.292c0.01-0.018,0.02-0.037,0.03-0.054
		c0.209-0.228,0.404-0.47,0.566-0.741c0.088-0.147,0.113-0.291,0.096-0.422c0.523-0.863,1.11-1.681,1.858-2.377
		c0.918-0.854,1.856-0.406,2.858-0.02c0.821,0.317,1.686,0.279,2.547,0.238c1.161-0.055,3.494,0.483,4.438-0.46
		c0.307-0.307,0.335-0.695,0.291-1.104c-0.167-1.536,0.432-2.187,1.813-2.696C41.563,26.765,41.208,25.443,40.38,25.749z"/>
	<path fill="#E0571B" d="M50.284,89.451c-1.745-0.329-2.976-1.941-3.866-3.379c-0.487-0.786-1.197-2.106-2.252-2.192
		c-1.032-0.085-1.365,0.838-1.271,1.712c0.044,0.417,0.867,3.26-0.146,3.337c-0.873,0.066-0.88,1.434,0,1.367
		c1.038-0.079,1.46-0.887,1.719-1.812c0.31-1.109-0.079-1.986-0.22-3.061c0.161,0.145,0.31,0.302,0.433,0.484
		c0.204,0.271,0.378,0.566,0.557,0.854c0.31,0.497,0.66,0.953,1.021,1.414c0.958,1.224,2.092,2.297,3.663,2.593
		C50.782,90.931,51.149,89.613,50.284,89.451z"/>
	<path fill="#E0571B" d="M16.214,52.457c-2.436,0.195-4.342-0.856-6.67,0.329c-1.426,0.725-2.718-0.224-2.759,1.846
		C6.778,54.989,7,55.199,7.265,55.267c0.239,0.684,0.694,1.174,1.306,1.567c0.545,0.901,1.362,1.512,2.201,2.141
		c0.691,0.519,1.872,1.033,2.449,1.779c0.108,0.189,0.213,0.381,0.316,0.583c0.347,0.684,1.533,0.197,1.249-0.527
		c-0.022-0.057-0.051-0.106-0.076-0.16c0.002-0.001,0.004-0.002,0.006-0.003c-0.026-0.052-0.055-0.103-0.083-0.156
		c-0.021-0.042-0.043-0.085-0.066-0.126c-0.458-0.864-0.972-1.653-1.618-2.351c0.563-0.109,1.119-0.29,1.657-0.438
		c0.85-0.232,0.488-1.551-0.363-1.318c-0.894,0.245-1.782,0.583-2.726,0.438c-0.185-0.028-0.369-0.082-0.55-0.15
		c-0.127-0.058-0.257-0.115-0.387-0.172c-0.407-0.2-0.802-0.448-1.178-0.643c-0.053-0.027-0.106-0.045-0.159-0.059
		c-0.394-0.288-0.684-0.652-0.768-1.157c0.028,0.001,0.057,0.004,0.085,0.005c0.607,0.03,1.166-0.266,1.672-0.555
		c1.894-1.077,3.956,0.021,5.98-0.141C17.087,53.754,17.094,52.388,16.214,52.457z"/>
	<path fill="#E0571B" d="M20.076,36.956c-0.164-0.174-0.334-0.329-0.508-0.476c-0.403-0.419-0.859-0.821-1.348-1.186
		c-0.196-0.166-0.4-0.325-0.624-0.469c-0.156-0.101-0.318-0.184-0.484-0.258c-1.87-1.064-3.975-1.461-5.452-0.268
		c-0.692,0.189-0.636,1.356,0.181,1.339c0.017,0,0.034-0.001,0.05-0.002c1.611,0.283,3.243,0.305,4.769,0.815
		c2.381,2.396,4.417,6.229,3.168,9.552c-0.311,0.826,1.011,1.18,1.318,0.363c0.457-1.217,0.534-2.499,0.338-3.769
		c0.39,0.114,0.834-0.283,0.879-0.686C22.573,40.045,21.296,38.246,20.076,36.956z"/>
	<path fill="#FDD030" d="M78.274,70.313c-0.32-0.81-1.643-0.458-1.317,0.363c0.338,0.854,0.513,1.667,0.345,2.594
		c-0.148,0.817-1.198,1.226-1.644,1.838c-0.815,1.117-1.079,2.575-2.202,3.452c-0.694,0.542,0.281,1.502,0.966,0.966
		c1.469-1.148,1.716-3.103,3.142-4.328C79.037,73.935,78.937,71.986,78.274,70.313z"/>
	<path fill="#FDD030" d="M68.22,82.118c-0.919,2.12-2.701,2.408-4.796,2.417c-2.478,0.01-5.28-0.189-7.28-0.19c-1,0-1,1.366,0,1.367
		c2,0.001,5.98,0.407,8.993,0.108c1.99-0.197,3.536-1.145,4.345-3.011C69.828,82.008,68.569,81.312,68.22,82.118z"/>
	<path fill="#FDD030" d="M68.128,61.184c-0.764-0.523-1.512-1.064-2.308-1.539c-0.84-0.501-1.867-0.656-2.736-1.111
		c-0.31-0.162-0.102-0.97-0.171-1.417c-0.177-1.151-1.242-1.672-0.118-2.981c0.571-0.665-0.392-1.636-0.966-0.966
		c-0.588,0.685-1.255,1.478-1.031,2.46c0.111,0.483,0.286,0.872,0.529,1.307c0.39,0.7,0.133,0.848,0.138,1.513
		c0.007,0.802,0.737,1.164,1.37,1.496c0.723,0.379,1.551,0.55,2.296,0.881c0.822,0.364,1.57,1.033,2.309,1.538
		C68.168,62.864,68.851,61.678,68.128,61.184z"/>
	<path fill="#FDD030" d="M36.748,80.762c-0.418,0.226-0.883,0.308-1.351,0.35c0.125-0.012-0.637-0.625-0.609-0.606
		c-0.299-0.195-0.792-0.118-1.115-0.093c-0.751,0.058-1.332-0.252-1.938-0.643c-0.523-0.337-1.299,0.201-1.682-0.183
		c-1.547-1.551,0.545-2.933,1.539-3.992c0.602-0.643-0.362-1.61-0.966-0.966c-0.717,0.764-1.449,1.466-2.19,2.199
		c-0.488,0.481-0.608,0.94-0.575,1.618c0.051,1.054,1.272,2.671,2.372,2.725c0.248,0.012,0.552-0.137,0.791-0.16
		c0.094-0.009,0.742,0.444,0.852,0.505c0.585,0.325,2.152-0.032,2.446,0.375c0.719,0.998,2.188,0.553,3.117,0.052
		C38.213,81.523,37.523,80.343,36.748,80.762z"/>
	<path fill="#FDD030" d="M17.369,20.472c-0.742,1.853-0.43,3.887-1.37,5.685c-0.911,1.742-1.309,3.643-2.066,5.437
		c-0.339,0.802,0.838,1.499,1.18,0.689c0.826-1.956,1.315-4.002,2.308-5.898c0.903-1.726,0.552-3.765,1.266-5.549
		C19.015,20.016,17.692,19.664,17.369,20.472z"/>
	<path fill="#FDD030" d="M15.217,45.983c-0.886-0.235-2.215-0.793-2.351-1.861c-0.074-0.582,0.167-1.407-0.232-1.928
		c-1.018-1.327-3.183-0.997-3.412-3.074c-0.096-0.866-1.463-0.876-1.367,0c0.106,0.957,0.465,1.656,1.097,2.38
		c0.604,0.691,2.482,0.895,2.554,1.793c0.069,0.867-0.072,1.722,0.598,2.411c0.76,0.781,1.697,1.318,2.75,1.598
		C15.707,47.528,16.069,46.21,15.217,45.983z"/>
	<path fill="#FDD030" d="M73.682,30.656c0.016-0.604-0.62-0.792-1.029-0.57c-0.359-0.025-0.748,0.191-0.765,0.655
		c-0.054,1.335-0.639,2.472-1.448,3.511c-0.292,0.374-0.619,0.728-0.931,1.085c-0.334,0.383-0.896,0.542-1.269,0.905
		c-0.632,0.616,0.335,1.582,0.966,0.966c0.01-0.01,0.021-0.019,0.031-0.029c0.165,0.313,0.541,0.524,0.942,0.307
		c1.327-0.721,2.388-1.798,3.205-3.06c0.336-0.519,0.741-1.323,0.713-1.956C74.071,31.851,73.667,31.247,73.682,30.656z"/>
	<path fill="#FDD030" d="M50.763,36.039c-0.203-0.308-0.45-0.562-0.728-0.776c-0.077-0.091-0.176-0.165-0.3-0.208
		c-0.26-0.162-0.541-0.292-0.834-0.396c-1.715-1.679-3.386-1.691-5.399-0.404c-0.764,0.489-1.933,0.552-2.436,1.412
		c-0.456,0.778-0.021,1.806,0.156,2.609c0.052,0.233,0.185,0.375,0.348,0.441c0.338,0.333,1.007,0.322,1.141-0.271
		c0.203-0.897,0.628-1.504,1.289-2.121c0.016-0.015,0.035-0.034,0.052-0.05c0.298,0.194,0.706,0.183,0.899-0.23
		c0.014-0.031,0.034-0.057,0.055-0.083c0.2-0.029,0.415-0.044,0.647-0.044c0.728,0.002,1.496,0.072,2.209,0.194
		c0.719,0.124,1.428,0.684,2.13,0.931C50.552,37.24,51.083,36.526,50.763,36.039z"/>
	<path fill="#FDD030" d="M39.229,51.943c-1.542-0.016-2.768,0.248-3.137,1.923c-0.24,1.086,0.038,1.985-0.738,2.936
		c-0.527,0.646-1.356,1.7-2.205,1.834c-0.869,0.138-0.499,1.456,0.363,1.318c1.229-0.196,2.511-1.643,3.167-2.633
		c0.452-0.682,0.641-1.347,0.693-2.159c0.029-0.443,0.02-0.845,0.117-1.286c0.167-0.757,1.209-0.572,1.741-0.566
		C40.111,53.319,40.111,51.953,39.229,51.943z"/>
	<path fill="#FDD030" d="M43.7,70.484c0.066-0.21-2.11-1.801-2.525-2.08c-0.667-0.449-1.568-0.775-2.372-0.807
		c-0.833-0.032-1.51-0.09-2.203-0.63c-0.616-0.787-0.625-1.47-0.027-2.049c0.525-0.216,1.037-0.218,1.535-0.006
		c0.851,0.237,1.211-1.082,0.363-1.318c-1.426-0.396-3.384-0.272-3.662,1.674c-0.276,1.945,0.961,3.174,2.786,3.615
		c1.269,0.307,2.395,0.16,3.448,1.113c0.483,0.438,0.972,0.86,1.497,1.248c0.89,0.657,2.084,0.848,2.479-0.397
		C45.285,70.004,43.965,69.646,43.7,70.484z"/>
	<path fill="#FDD030" d="M58.123,61.519c-1.097,0.007-1.13-2.025-1.951-2.521c-0.938-0.566-1.774-0.121-2.426,0.656
		c-0.729,0.87-0.885,1.979-0.464,3.014c0.212,0.521,0.528,0.948,0.624,1.493c-0.046-0.017-0.121-0.042-0.249-0.092
		c-0.053-0.021-0.105-0.036-0.159-0.047c-0.308-0.539-1.27-0.444-1.273,0.318c-0.004,0.974,1.109,1.71,0.606,2.647
		c-0.417,0.776,0.764,1.466,1.18,0.69c0.252-0.47,0.542-0.948,0.466-1.5c-0.023-0.168-0.092-0.329-0.18-0.486
		c0.229,0.023,0.455-0.029,0.678-0.252c0.58-0.58,0.337-1.744,0.021-2.385c-0.379-0.769-0.803-1.391-0.379-2.259
		c0.555-1.133,1.123-0.063,1.383,0.521c0.417,0.938,1.061,1.577,2.122,1.57C59.004,62.88,59.005,61.513,58.123,61.519z"/>
</g>
</svg>
