<?xml version="1.0" encoding="utf-8"?>
<!-- Generator: Adobe Illustrator 15.1.0, SVG Export Plug-In . SVG Version: 6.00 Build 0)  -->
<!DOCTYPE svg PUBLIC "-//W3C//DTD SVG 1.1//EN" "http://www.w3.org/Graphics/SVG/1.1/DTD/svg11.dtd">
<svg version="1.1" id="Layer_1" xmlns="http://www.w3.org/2000/svg" xmlns:xlink="http://www.w3.org/1999/xlink" x="0px" y="0px"
	 width="96.429px" height="95.088px" viewBox="0 0 96.429 95.088" enable-background="new 0 0 96.429 95.088" xml:space="preserve">
<g>
	<path fill="#E50FBD" d="M53.113,5.068c-1.429,0.888-3.103,0.576-4.651,1.085c-0.722,0.239-1.361,0.702-2.079,0.966
		c-0.67,0.247-1.231-0.889-1.896-0.816c-1.002,0.108-1.686,0.506-2.467,1.13c-1.467,1.167-2.92,1.823-4.649,2.533
		c-0.273,0.113-0.413,0.34-0.448,0.576c-0.625,0.784-1.208,2.53-2.293,2.304c-1.513-0.313-2.174-2.874-4.087-2.272
		c-1.406,0.44-2.618,1.164-4.092,1.472c-1.061,0.223-2.55,1.006-3.458,1.63c-1.992,1.374-1.704,4.302-3.987,5.374
		c-0.062,0.028-0.112,0.064-0.157,0.101c-0.82-0.021-1.596-0.216-2.431-0.344c-0.218-0.034-0.404,0.024-0.548,0.132
		c-0.102-0.016-0.213-0.008-0.339,0.041c-2.669,1.051-1.615,3.466,0.554,4.373c0.579,0.243,1.202,0.329,1.772,0.603
		c1.688,0.812-0.091,0.75-0.246,0.722c-0.288-0.057-0.583-0.132-0.877-0.152c-1.525-0.107-3.024-0.164-3.912,1.314
		c-0.531,0.885-0.874,1.351-1.853,1.733c-0.579,0.228-1.205,0.436-1.688,0.844c-1.079,0.912-1.591,2.268-1.035,3.609
		c0.339,0.815,0.83,1.384,0.68,2.355c-0.116,0.758-0.631,1.443-0.611,2.235c0.04,1.659,0.86,3.172,1.403,4.732
		c-0.506-0.172-1.009-0.281-1.371-0.341c-1.739-0.288-2.449,0.863-2.535,2.433c-0.135,2.421-0.93,4.932-0.478,7.354
		c0.247,1.315,1.417,2.156,1.914,3.351c0.433,1.039,0.611,1.817,1.704,2.318c0.654,0.3,1.24-0.433,1-0.916
		c0.748-0.158,1.537-0.05,2.298-0.184c1.115-0.196,2.193-0.622,3.277-0.943c1.84-0.545,3.82-0.212,5.692-0.684
		c1.437-0.363,2.885-0.802,4.356-1.007c-0.016,0.024-0.032,0.053-0.047,0.085c-0.182,0.362-0.467,0.671-0.73,0.973
		c-0.541,0.625-1.169,1.179-1.796,1.714c-1.556,1.324-2.748,3.024-4.519,4.104c-0.585,0.358-1.18,0.534-1.723,0.966
		c-0.731,0.583-0.716,1.537-0.865,2.373c-0.148,0.821-1.06,1.729-1.493,2.433c-0.458,0.745-0.623,1.574-0.645,2.435
		c-0.052,2.006,1.859,3.899,2.746,5.563c0.016,0.029,0.035,0.052,0.053,0.079c0.323,1.143,0.581,2.321,1.262,3.315
		c0.68,0.987,2.144,1.227,3.212,1.513c1.53,0.412,2.796,1.385,4.351,1.743c1.707,0.391,3.317,1.334,5.064,1.491
		c0.197,0.019,0.348-0.039,0.458-0.136c0.68,0.503,1.284,0.925,2.325,0.632c0.179-0.05,0.352-0.125,0.52-0.213
		c-0.003,0.044-0.009,0.087-0.009,0.135c0.007,1.598,0.532,2.949,1.521,4.199c0.995,1.259,2.891,1.44,4.37,1.475
		c2.464,0.056,4.692-1.933,7.095-1.437c0.046,0.01,0.088,0.014,0.132,0.014c0.118,0.039,0.255,0.041,0.41-0.014
		c1.236-0.433,2.167,0.585,3.143,1.218c0.719,0.466,1.77,0.392,2.576,0.375c2.812-0.061,5.514-0.493,8.306-0.72
		c2.26-0.184,4.469-0.207,6.557-1.206c2.298-1.098,1.971-3.935,2.43-6.042c0.069-0.316-0.066-0.566-0.272-0.714
		c0.19-0.133,0.392-0.255,0.582-0.388c0.942-0.211,1.525-0.673,2.146-1.424c0.794-0.963,1.862-1.407,2.915-2.01
		c2.714-1.558,2.317-5.564,5.154-6.989c1.905-0.957,3.658-2.287,4.34-4.424c0.216-0.68-0.075-1.412-0.554-1.891
		c-0.197-0.199-0.491-0.288-0.749-0.375c-0.391-0.132,0.234-0.336,0.473-0.546c0.186-0.161,0.233-0.443,0.178-0.671
		c-0.253-1.029,2.181-1.553,2.928-2.027c0.892-0.567,1.521-1.435,1.752-2.459c0.065-0.288-0.041-0.52-0.215-0.67
		c0.52-0.466,1.041-0.935,1.451-1.472c0.824-1.075,1.009-2.819-0.232-3.737c-1.094-0.808-2.439-0.313-3.605,0.069
		c-0.326,0.108-0.653,0.195-0.988,0.273c-1.18,0.274-1.292-0.91-0.429-1.457c0.753-0.48,1.741-0.636,2.58-0.916
		c1.125-0.373,2.866-1.332,3.211-2.592c0.484-1.773-0.852-3.17-1.832-4.5c-0.549-0.745-1.139-1.447-1.805-2.089
		c-0.266-0.255-0.579-0.465-0.879-0.675c-0.579-0.405-0.699-0.302-0.611-0.73c0.526-2.545,0.605-5.089,0.606-7.687
		c0-0.146-0.041-0.266-0.101-0.363c-0.283-1.418-0.354-3.263-1.375-4.32c-1.201-1.238-2.846-1.613-3.532-3.352
		c-0.47-1.193-0.746-2.126-1.92-2.787c-1.532-0.861-2.811-1.219-3.957-2.679c-1.799-2.294-3.892-0.494-6.297-0.426
		c-1.465,0.041-2.598-2.3-3.99-2.683c-0.908-0.25-0.111,0.078-3.111-1.23v-0.001c3-0.18,1.332-0.522,1.099-0.878
		c-0.179-0.267,0.102-0.52-0.074-0.759c-0.029-0.097,0.167-0.192,0.129-0.288c-0.09-0.231-0.149-0.364-0.339-0.425
		c-0.987-1.179-2.018-1.966-3.773-2.453c-1.365-0.378-2.035-1.647-3.163-2.374C55.041,4.044,53.987,4.524,53.113,5.068z"/>
	<path fill="#FF44D2" d="M45.385,79.125c-0.62,0.799-1.393,1.486-2.458,1.53c-0.676,0.028-1.354,0.115-1.88,0.59
		c-0.053,0.048-0.099,0.098-0.145,0.147c-0.193-0.071-0.413-0.069-0.576,0.051c-0.537,0.396-0.777,0.886-0.934,1.529
		c-0.146,0.588-0.063,2.185-0.961,2.041c-0.869-0.138-1.244,1.191-0.365,1.332c0.751,0.119,1.379,0.017,1.848-0.487
		c0.308,0.238,0.774,0.228,1.01-0.177c0.329-0.566,0.362-1.364,0.492-2.068c0.065-0.146,0.122-0.284,0.152-0.403
		c0.024-0.103,0.036-0.2,0.041-0.299c0.207-0.491,0.571-0.843,1.319-0.875c1.423-0.059,2.567-0.819,3.435-1.935
		C46.9,79.407,45.932,78.422,45.385,79.125z"/>
	<path fill="#610650" d="M46.248,75.789c-0.176,0.563-0.21,1.16-0.347,1.733c-0.207,0.865,1.124,1.232,1.33,0.367
		c0.138-0.574,0.171-1.17,0.347-1.733C47.844,75.304,46.512,74.942,46.248,75.789z"/>
	<path fill="#BF0C9E" d="M28.574,59.019c-0.669,0.833-1.637,1.297-2.367,2.067c-0.709,0.747-0.872,2.017-1.172,2.956
		c-0.445,1.394-1.759,2.679-2.668,3.79c-0.943,1.155-1.979,2.223-3.152,3.145c-0.702,0.553,0.283,1.513,0.976,0.978
		c1.189-0.92,2.288-1.94,3.407-2.941c1.155-1.031,1.92-2.417,3.244-3.261c0.435-0.276,0.911-0.394,1.316-0.645
		c0.181,1.678,0.868,3.25,2.342,4.263c0.531,0.716,1.136,1.279,2.155,1.765c0.223,0.107,0.473,0.191,0.72,0.239
		c0.769,0.765,1.679,1.061,2.682,1.172c0.095,0.327,0.395,0.583,0.813,0.452c0.095-0.029,0.188-0.053,0.284-0.077
		c0.017,0.026,0.036,0.051,0.059,0.074c-0.25,0.454-0.36,1.044-0.348,1.764c0.013,0.889,1.394,0.89,1.379,0
		c-0.019-1.101,0.192-1.462,1.281-1.481c0.621-0.011,1.225-0.002,1.841-0.082c1.913-0.247,3.951-0.029,5.891-0.005
		c-0.002,0.083-0.002,0.167-0.007,0.25c-0.003-0.011-0.026,0.146-0.025,0.145c0.001-0.016-0.076,0.205-0.042,0.133
		c-0.051,0.111-0.078,0.111-0.081,0.228c-0.204,0.113-0.359,0.569-0.359,0.569h1.379c0,0-0.004,0.066-0.006,0.04
		c0.11-0.057,0.205-0.083,0.259-0.2c0.209-0.448,0.268-0.867,0.268-1.358c0-0.258-0.147-0.466-0.359-0.586
		c-0.003-0.201-0.082-0.385-0.252-0.493c0.165-0.286,0.134-0.659-0.25-0.879c-0.952-0.544-1.568-1.282-2.181-2.175
		c-0.161-0.239-0.478-0.431-0.777-0.317c-1.209,0.46-2.251,1.154-3.352,1.82c-0.984,0.595-2.067,0.748-3.156,0.918
		c-0.08-0.032-0.169-0.051-0.271-0.051c-1.117,0.005-2.35,0.129-3.278-0.463c0.037-0.099,0.067-0.207,0.083-0.334
		c0.111-0.854-1.534-1.422-2.14-1.542c-0.526-0.104-0.974-0.293-1.354-0.543c-0.235-0.406-0.428-0.843-0.658-1.22
		c-0.16-0.26-0.405-0.347-0.64-0.32c-0.611-1.313-0.634-3.009-0.36-4.485c0.143-0.481,0.263-0.964,0.375-1.423
		c0.12-0.483-0.212-0.798-0.583-0.842c0.02-0.022,0.039-0.043,0.06-0.066C30.101,59.309,29.131,58.326,28.574,59.019z
		 M28.256,62.434c-0.222,0.684-0.526,1.319-0.96,1.616c-0.32,0.217-0.663,0.36-1.001,0.512c0.189-0.499,0.333-1.018,0.486-1.55
		c0.296-1.027,1.098-1.551,1.857-2.153C28.478,61.358,28.348,61.888,28.256,62.434z"/>
	<path fill="#BF0C9E" d="M51.943,77.706c-0.162,2.43-0.164,4.96-1.466,7.104c-0.022,0.035-0.035,0.068-0.047,0.102
		c-0.142,0.042-0.277,0.082-0.407,0.101c-0.522,0.083-0.65,0.823-0.305,1.154c0.907,0.867,1.84,0.899,2.917,0.281
		c0.043-0.024,0.082-0.053,0.117-0.083c0.317,0.272,0.651,0.426,1.085,0.5c0.509,0.087,0.989-0.301,0.849-0.849
		c-0.377-1.458-1.232-2.542-1.291-4.113c-0.055-1.497,0.239-2.892-0.095-4.379C53.118,76.725,51.991,76.962,51.943,77.706z"/>
	<path fill="#BF0C9E" d="M69.621,55.001c-0.116,0.938-0.256,1.864-0.473,2.785c-0.143,0.599-0.36,1.163-0.663,1.697
		c-0.35,0.617-1.299,0.384-1.815,0.642c-1.405,0.701-3.94,1.427-4.103,3.334c-0.101,1.205,0.116,2.242-0.204,3.453
		c-0.373,1.413-1.407,1.906-2.18,2.992c-1.16,1.629-0.855,3.944-0.243,5.731c0.286,0.836,1.619,0.477,1.33-0.367
		c-0.352-1.03-0.503-2.062-0.456-3.149c0.068-1.552,1.354-1.83,2.057-2.947c0.555-0.878,0.842-1.892,1.066-2.898
		c0.29-1.295-0.509-2.726,0.788-3.641c0.806-0.571,2.337-1.301,3.281-1.313c0.788-0.011,1.249-0.551,1.669-1.14
		c1.011-1.417,1.119-3.51,1.325-5.18C71.111,54.12,69.729,54.13,69.621,55.001z"/>
	<path fill="#BF0C9E" d="M73.345,63.32c-0.272,0.068-0.521,0.166-0.749,0.288c-0.168-0.106-0.39-0.149-0.562-0.086
		c-1.442,0.529-1.685,2.45-1.984,3.756c-0.286,1.24-0.43,2.922-1.018,4.236c-0.344,0.495-0.772,0.929-1.321,1.263
		c-0.316,0.192-0.39,0.493-0.309,0.753c-0.126,0.517,0.418,1.139,1.004,0.785c0.242-0.145,0.457-0.311,0.651-0.49
		c1.846-0.638,3.612-2.304,4.061-4.162c0.333-1.383,0.435-3.28,0.05-4.811c0.08-0.047,0.158-0.092,0.246-0.126
		c1.255-0.502,2.338,1.473,2.977,2.252c0.753,0.922,1.704,1.602,2.933,1.538c0.886-0.046,0.891-1.426,0-1.381
		C76.765,67.271,76.293,62.585,73.345,63.32z"/>
	<path fill="#BF0C9E" d="M30.479,18.637c-0.17,0.177-0.324,0.352-0.467,0.537c-0.369-0.099-0.693-0.101-1.134-0.021
		c-0.295,0.052-0.512,0.379-0.507,0.666c0.014,0.742,0.338,1.342,0.806,1.852c-1.468,0.088-2.818,0.938-3.992,1.828
		c-0.961,0.729-2.219,1.417-1.29,2.722c1.053,1.479,3.19,1.316,4.796,1.473c1.111,0.109,2.406,0.091,3.504-0.14
		c0.901-0.19,1.667-0.256,2.519,0.227c0.53,0.298,1.032,0.517,1.617,0.676c0.189,0.051,0.352,0.025,0.483-0.046
		c0.071,0.051,0.14,0.103,0.217,0.15c0.33,0.205,0.647,0.094,0.837-0.135c0.173,0.036,0.354,0.059,0.551,0.056
		c0.562-0.009,0.808-0.572,0.596-1.038c-0.544-1.2-0.596-2.723-1.028-3.996c-0.37-1.085-0.843-2.047-1.501-2.984
		c-0.562-0.8-1.506-1.167-2.391-1.484c-0.862-0.308-2.005,0.047-2.781-0.451C31.058,18.365,30.69,18.424,30.479,18.637z
		 M32.528,20.162c1.443,0.188,2.371,0.438,3.268,1.71c0.997,1.414,1.131,3.112,1.521,4.719c-0.173-0.162-0.331-0.34-0.486-0.501
		c-0.123-0.125-0.259-0.187-0.393-0.203c-0.188-0.29-0.386-0.577-0.648-0.837c-0.68-0.678-1.373-1.315-2.133-1.901
		c-0.842-0.65-2.842-1.446-3.603-2.512c0.012,0.008,0.026,0.012,0.039,0.02c0.29,0.12,0.625-0.078,0.777-0.316
		c0.078-0.129,0.163-0.249,0.255-0.365C31.575,20.138,31.941,20.085,32.528,20.162z"/>
	<path fill="#BF0C9E" d="M21.36,29.905c-0.033,0.775,0.181,1.551,0.632,2.186c0.106,0.148-1.264,1.906-1.395,2.277
		c-0.248,0.701,0.239,1.867,0.455,2.51c0.326,0.966,0.571,1.895,0.747,2.896c0.21,1.202,1.467,1.556,2.559,1.629
		c0.891,0.06,1.633-0.033,2.422-0.451c0.64-0.341,1.025-0.737,1.826-0.784c0.374-0.021,0.875-0.008,1.214-0.191
		c0.634-0.342,1.025-0.719,1.349-1.368c0.398-0.801,0.418-2.129,1.368-2.527c0.807-0.338,0.455-1.672-0.364-1.332
		c-0.498-0.672-0.741-1.699-1.227-2.353c-0.601-0.812-1.418-1.513-2.137-2.221c-1.212-1.195-2.83-2.139-4.547-2.235
		C23.114,27.877,21.417,28.552,21.36,29.905z"/>
	<path fill="#BF0C9E" d="M14.852,35.244c0.007,0.772,0.663,1.371,1.156,1.896c1.137,1.206,2.088,2.414,3.021,3.796
		c1.222,1.814,2.638,3.355,4.329,4.584c-1.237,0.061-2.429,0.375-3.66,0.571c-0.193-0.234-0.519-0.359-0.864-0.178
		c-0.224,0.117-0.471,0.212-0.73,0.294c-3.167-0.096-6.318-2.178-8.971-3.588c-0.225-0.12-0.441-0.104-0.619-0.016
		c-0.307-0.045-0.614-0.073-0.942-0.078c-0.504-0.007-0.886,0.599-0.596,1.038c0.216,0.328,0.475,0.616,0.734,0.902
		c-0.254,0.076-0.504,0.212-0.788,0.447c-0.185,0.152-0.252,0.499-0.252,0.723c0,0.754,0.194,1.32-0.002,2.143
		c-0.639,2.695,1.299,4.84,3.189,6.498c0.419,0.368,0.955,0.188,1.153-0.304c0.218-0.539,0.278-1.041,0.967-0.817
		c0.351,0.114,0.799,0.218,1.143,0.016c0.887-0.519,0.702-1.742,0.561-2.57c-0.429-2.519,2.633-2.579,4.747-3.107
		c0.681,0.02,1.375-0.019,2.084-0.143c0.644-0.112,1.354-0.313,2.065-0.432c-0.535,0.748-1.012,1.535-1.627,2.223
		c-0.529,0.589-1.451,0.887-2.081,1.387c-0.451,0.358-0.119,0.985,0.305,1.152c1.41,0.554,2.707,0.588,4.198,0.408
		c1.218-0.146,2.976-0.721,3.14,0.95c0.119,1.211,0.241,2.818,1.858,2.825c1.805,0.007,2.543-1.572,2.847-3.141
		c0.503-2.593-0.973-4.597-1.118-7.081c-0.013-0.216-0.105-0.378-0.234-0.489c-0.084-0.152-0.237-0.255-0.408-0.307
		c-0.275-1.133-0.773-2.132-1.877-2.69c-1.155-0.585-2.629-0.363-3.874-0.426c-3.848-0.2-4.274-6.247-7.979-7.153
		C15.295,34.473,14.849,34.785,14.852,35.244z"/>
	<path fill="#BF0C9E" d="M36.579,54.076c-1.394,0.929-3.402,2.007-3.923,3.644c-0.555,1.742,0.869,2.402,1.977,3.469
		c0.572,0.551,0.185,1.167,0.355,1.792c0.138,0.5,0.657,0.812,1.053,1.093c0.978,0.695,3.044,1.905,4.288,1.229
		c2.849-1.549,3.304-5.799,3.078-8.688c-0.091-1.159-0.651-2.074-1.754-2.463c-1.188-0.419-3.03,0.507-3.85-0.712
		C37.324,52.726,36.182,53.359,36.579,54.076z"/>
	<path fill="#BF0C9E" d="M52.14,46.825c-0.583,0.487-1.096,1.044-1.599,1.612c-0.713,0.803-1.67,1.326-2.342,2.155
		c-0.893,1.106-0.387,2.781-1.056,4.04c-0.529,0.996-1.398,1.805-2.11,2.702c-0.198,0.075-0.348,0.241-0.368,0.497
		c-0.026,0.039-0.057,0.076-0.081,0.116c-0.246,0.378-0.062,0.739,0.24,0.913c0.135,0.52,0.338,1.005,0.616,1.516
		c0.512,0.943,0.225,2.262,0.705,3.294c0.221,0.479,0.953,0.42,1.19,0c0.886-1.549-0.105-4.125,0.548-5.685
		c1.336,0.978,4.121-1.487,3.27-3.731c0.668-0.358,1.312-0.758,2.003-1.082c0.313-0.146,0.458-0.66,0.247-0.943
		c-0.296-0.396-0.439-0.843-0.573-1.314c-0.19-0.672,0.488-1.034,0.925-1.416c0.641-0.556,0.936-1.436,0.772-2.271
		C54.258,45.86,52.976,46.125,52.14,46.825z"/>
	<path fill="#BF0C9E" d="M54.716,68.174c-0.273,2.072-3.561,2.452-4.715,4.005c-0.755,1.016-0.392,2.776-0.729,3.946
		c-0.521,1.808-1.647,3.196-2.435,4.873c-0.375,0.801,0.815,1.502,1.192,0.697c0.676-1.439,1.841-2.702,2.271-4.24
		c0.23-0.819,0.513-1.597,0.641-2.441c0.097-0.646-0.039-1.305,0.17-1.882c1.715,1.191,3.033-1.41,4.092-2.829
		c0.657,1.128,0.699,2.703,1.514,3.767c0.534,0.696,1.734,0.01,1.191-0.698c-1.004-1.311-0.92-3.182-1.995-4.436
		c0.081-0.229,0.146-0.477,0.183-0.761C56.211,67.293,54.83,67.305,54.716,68.174z"/>
	<path fill="#BF0C9E" d="M58.914,49.37c-0.625,0.057-1.493,0.347-2.112,0.209c-0.707-0.158-1.181,0.05-1.746,0.497
		c-1.161,0.92-1.663,3.187-1.727,4.579c-0.012,0.255,0.094,0.435,0.252,0.542c-0.216,0.462,0.15,1.161,0.794,0.989
		c1.699-0.454,3.11,1.481,4.493,2.184c0.481,0.243,1.01-0.058,1.04-0.596c0.066-1.195-1.056-2.107-0.013-3.235
		c0.621-0.672,1.424-1.2,1.706-2.127C62.094,50.8,60.581,49.22,58.914,49.37z"/>
	<path fill="#BF0C9E" d="M41.033,9.701c-0.202-0.147-0.465-0.189-0.708-0.011c-0.212,0.156-0.417,0.296-0.57,0.482
		c-1.47,0.675-2.725,1.75-2.89,3.06c-0.015,0.106,0.012,0.207,0.058,0.296c-0.042,0.123-0.058,0.262-0.034,0.406
		c0.453,2.769,3.282,3.432,5.42,4.578c0.714,0.382,1.248,0.865,1.664,1.561c0.654,1.096-0.34,2.368-0.997,3.167
		c-0.612,0.745-1.41,1.628-1.062,2.655c0.283,0.838,1.618,0.477,1.33-0.367c-0.202-0.594,0.891-1.534,1.212-1.937
		c0.413-0.518,0.648-1.042,0.885-1.653c0.485-1.247,0.022-2.419-0.762-3.407c-1.333-1.677-4.223-1.905-5.621-3.43
		c0.231-0.051,0.429-0.207,0.473-0.472c0.07-0.421,0.139-0.796,0.031-1.22c-0.055-0.214-0.192-0.48-0.265-0.709
		c0.201-0.198,0.401-0.396,0.598-0.596c0.192-0.045,0.381-0.093,0.533-0.182c0.248-0.146,0.325-0.423,0.433-0.668
		c0.654-0.246,1.32-0.413,1.846-0.471c0.088,0.347,0.448,0.61,0.848,0.517c0.785-0.187,1.56-0.438,2.252,0.114
		c0.832,0.662,1.47,1.59,1.936,2.528c0.353,0.714,0.626,1.418,1.098,2.066c0.721,0.988,1.028,1.784,0.347,2.943
		c-0.362,0.618-0.748,2.121,0.058,2.61c0.637,0.387,1.347,0.125,1.971-0.227c-0.019,0.384-0.311,0.802-0.49,1.228
		c-0.057,0.054-0.109,0.118-0.152,0.202c-0.304,0.611-0.286,0.96-0.031,1.618c0.386,0.996-1.091,2.137-1.425,3.053
		c-0.212,0.582,0.244,1.434,0.48,1.942c0.272,0.582,0.378,1.181,0.45,1.787c-0.131-0.142-0.274-0.272-0.437-0.371
		c-0.424-0.259-0.846-0.32-1.336-0.326c-1.011-0.01-2.087,0.824-2.135-0.596c-0.012-0.322-0.201-0.526-0.436-0.615
		c0.024-0.809-0.019-1.621-0.282-2.34c-0.303-0.83-1.637-0.472-1.332,0.366c0.88,2.407-0.309,5.344,0.097,7.858
		c0.152,0.94,0.96,1.089,1.753,0.84c1.091-0.341,1.689-0.764,2.801,0.034c1.086,0.777,1.148,2.36,1.043,3.564
		c-0.053,0.626,0.622,0.806,1.048,0.544c1.002,0.59,1.837,1.29,2.659,2.147c0.641,0.669,1.49,0.977,2.347,1.267
		c0.844,0.287,1.206-1.046,0.366-1.331c-0.979-0.333-1.578-0.708-2.257-1.484c-0.728-0.831-1.788-1.472-2.771-1.991
		c-0.013-0.238-0.04-0.477-0.081-0.712c0.107,0.093,0.247,0.159,0.42,0.17c0.657,0.045,1.223,0.399,1.858,0.54
		c0.576,0.127,1.096-0.044,1.61-0.288c0.231-0.109,0.42-0.275,0.583-0.475c0.095,0.191,0.19,0.382,0.286,0.573
		c-0.026,0.488,0.381,0.706,0.758,0.657c0.625,1.25,2.172,2.411,2.969,3.188c0.75,0.731,0.648,1.85,1.533,2.468
		c1.264,0.882,2.961,1.005,4.062-0.107c0.628-0.633-0.348-1.608-0.975-0.976c-0.737,0.747-2.325,0.34-2.621-0.625
		c-0.19-0.625-0.414-1.072-0.85-1.556c-0.568-0.629-3.711-2.845-2.833-3.774c0.369-0.393,0.156-0.904-0.206-1.104
		c0.029-0.082,0.042-0.17,0.041-0.258c0.406,0.238,0.896,0.338,1.464,0.224c0.632-0.125,1.271-0.387,1.746-0.838
		c0.969-0.919,0.799-2.275,2.447-2.476c3.079-0.375,7.336-1.529,9.356-4.228c0.169,1.085-0.59,2.418-1.094,3.215
		c-0.528,0.831-1.19,1.245-2.042,1.646c-0.312,0.146-0.83,0.597-0.989,0.902c-0.435,0.825-0.37,1.496-0.092,2.368
		c0.447,1.403,0.625,3.098,0.347,4.555c-0.014,0.075-0.014,0.143-0.008,0.209c-0.38,0.16-0.813,0.278-1.061,0.42
		c-0.495,0.283-0.919,0.905-1.294,1.321c-0.729,0.806-1.258,1.75-1.327,2.862c-0.07,1.126,0.695,1.652,1.777,1.521
		c1.208-0.146,1.992-0.427,3.196,0.112c0.784,0.35,1.479,0.865,2.319,1.077c0.753,0.189,1.345,0.277,1.736,1.027
		c0.284,0.542,0.957,0.773,1.502,0.903c1.115,0.263,2.347-0.179,3.413,0.375c1.081,0.562,1.865,1.831,2.468,2.835
		c1.179,1.96,0.826,3.614,0.625,5.714c-0.127,1.342,0.095,2.527,1.355,3.199c0.786,0.419,1.482-0.772,0.696-1.191
		c-1.424-0.76-0.397-3.174-0.318-4.438c0.098-1.531-0.649-3.121-1.417-4.397c-0.76-1.263-1.8-2.44-3.117-3.124
		c-0.552-0.288-1.366-0.252-1.963-0.268c-0.589-0.015-1.894,0.157-2.18-0.579c-0.072-0.186-0.166-0.394-0.312-0.532
		c-0.962-0.922-2.522-0.955-3.689-1.581c-0.21-0.112-0.425-0.215-0.646-0.312c0.484-0.228,0.866-0.572,1.245-1.013
		c0.83-0.969,1.385-1.605,2.634-2.062c2.179-0.797,4.519-0.649,6.716-1.302c0.25,0.109,0.554,0.079,0.754-0.083
		c-0.017,0.651,0.053,1.257,0.466,1.859c0.869,1.268,0.849,2.36,0.642,3.857c-0.121,0.87,1.208,1.244,1.331,0.367
		c0.152-1.104,0.254-2.161,0.077-3.268c-0.068-0.429-0.292-0.977-0.568-1.321c-0.416-0.515-0.536-0.944-0.553-1.444
		c0.332-0.009,0.67-0.101,1.048-0.264c0.51-0.22,1.033-0.481,1.598-0.333c0.522,0.137,1.023,0.505,1.534,0.7
		c0.833,0.316,1.191-1.019,0.367-1.332c-0.766-0.29-1.379-0.728-2.212-0.812c-0.817-0.083-1.708,0.734-2.484,0.642
		c-0.131-0.125-0.317-0.183-0.505-0.174c-0.178-0.048-0.345-0.018-0.486,0.062c-0.095-0.076-0.211-0.122-0.352-0.114
		c-0.336-0.594-0.92-0.99-1.608-1.272c-0.086-2.06-0.732-4.003-2.76-4.483c1.317-1.422,2.183-3.201,2.229-5.081
		c0.009,0.004,0.014,0.01,0.021,0.014c3.371,1.696,3.634,6.18,2.179,9.282c-0.375,0.8,0.814,1.501,1.192,0.696
		c1.757-3.748,1.406-9.117-2.675-11.17c-0.298-0.149-0.584-0.075-0.78,0.099c-0.003-0.017-0.004-0.034-0.007-0.051
		c-0.345-2.249-2.207-3.462-4.276-3.841c-0.349-0.064-0.681-0.081-0.992-0.057c0-0.077-0.008-0.155-0.04-0.243
		c-0.28-0.792-0.706-1.954-0.071-2.687c0.64-0.736,1.979-0.841,2.872-0.947c0.873-0.102,0.883-1.482,0-1.38
		c-1.343,0.159-2.842,0.354-3.846,1.353c-1.078,1.07-0.733,2.759-0.286,4.028c0.037,0.105,0.092,0.192,0.158,0.261
		c-0.605,0.387-0.992,1.053-1.04,1.975c-1.296,2.686-4.819,3.648-7.475,4.368c-1.234,0.334-2.708-0.002-3.589,1.151
		c-0.391,0.512-0.491,1.194-0.896,1.686c-0.708,0.864-2.003,0.971-2.292-0.275c-0.174-0.744-1.176-0.578-1.331,0.03
		c-0.171-0.015-0.354,0.037-0.517,0.184c-0.185,0.169-0.341,0.354-0.482,0.55c-0.909-0.54-1.941-0.603-2.669-1.522
		c-0.367-0.463-0.822-0.719-1.279-1c-0.188-0.967-0.05-1.984-0.309-2.922c-0.294-1.069-1.091-1.831-0.116-2.996
		c0.389-0.465,0.63-0.917,0.81-1.491c0.075-0.244,0-0.525-0.093-0.8c0.145-0.004,0.294-0.046,0.446-0.142
		c0.755-0.468,1.133-1.324,1.525-2.088c0.096-0.187,0.204-0.373,0.319-0.559c0.158,1.616,0.381,4.598,1.741,5.4
		c-0.366,1.206-1.378,2.06-1.907,3.204c-0.372,0.803,0.816,1.504,1.19,0.697c0.632-1.361,1.848-2.338,2.127-3.864
		c0.648-0.375,0.913-1.304,1.097-2.024c0.224-0.878,1.168-1.352,1.51-2.22c0.566,1.259,1.447,2.369,1.609,3.792
		c0.284,2.497-2.422,4.667-3.788,6.427c-0.538,0.693,0.431,1.677,0.976,0.975c1.437-1.851,3.158-3.429,3.916-5.667
		c0.065-0.049,0.127-0.11,0.178-0.191c0.9-1.416,2.53-1.754,4.009-2.293c0.682-0.25,2.205-0.686,2.408-1.509
		c0.224-0.903-0.396-1.382-1.085-1.871c-0.728-0.519-1.735-0.124-2.611,0.055c0.191-0.688,0.762-1.455,0.942-2.069
		c0.365-1.259-0.52-2.426-0.127-3.744c0.098-0.327-0.038-0.58-0.255-0.723c-0.085-0.373-0.244-0.769-0.508-1.194
		c-0.466-0.756-1.66-0.062-1.19,0.696c1.048,1.699-0.441,2.91-1.543,4.104c-0.774,0.841-1.433,1.742-1.706,2.807
		c-0.169-0.431-0.29-0.881-0.319-1.366c-0.049-0.796-1.173-0.876-1.354-0.232c-0.018-0.034-0.038-0.068-0.056-0.1
		c-0.552-0.922-0.938-1.363-0.703-2.497c0.121-0.591,0.02-1.01-0.342-1.472c-1.148-1.464-2.934,1.203-3.454,1.863
		c-0.87,1.104-1.627,2.057-2.349,3.161c0.029-0.082,0.053-0.167,0.077-0.257c0.161-0.657-0.278-1.203-0.687-1.646
		c-0.203-0.221-0.584-0.27-0.836-0.107c-0.236,0.159-0.479,0.306-0.73,0.439c-0.166,0.095-0.266,0.181-0.317,0.239
		c0.04-0.073,0.096-0.207,0.15-0.426c0.205-0.832,0.777-1.458,0.856-2.344c0.129-1.427-1.209-2.324-1.794-3.521
		c-0.739-1.508-1.462-2.826-2.803-3.895c-0.724-0.576-1.55-0.6-2.388-0.466c-0.094-0.162-0.247-0.295-0.415-0.322
		C42.915,9.332,41.979,9.431,41.033,9.701z M76.549,36.454c1.707,0.05,2.129,1.394,2.228,2.799
		c-1.042-0.226-2.125-0.333-2.911-0.515c-0.865-0.201-1.232,1.13-0.367,1.33c0.973,0.227,3.965,0.296,4.918,1.299
		c-2.088,0.549-4.298,0.486-6.373,1.203c-0.327,0.112-0.636,0.223-0.932,0.35c-0.255-1.002-1.848-1.666-2.793-1.929
		c-0.022-0.006-0.043-0.429-0.065-0.433c0.053-0.872-0.003-2.042-0.129-3.042c0.003,0,0.007,0,0.01,0
		c2.092,0,4.281-0.259,6.031-1.608C76.268,35.979,76.395,36.449,76.549,36.454z M73.431,27.565c0.045-1.59,1.707-1.131,2.755-0.766
		c1.801,0.626,2.452,2.758,2.027,4.501c-0.785,3.221-4.882,5.862-8.077,5.679c-0.106-0.006-0.199,0.009-0.28,0.04
		c-0.201-0.802-0.312-1.524,0.803-2.047c0.722-0.34,1.16-0.771,1.669-1.374C73.618,32.068,74.738,29.359,73.431,27.565z
		 M55.109,20.243c0.625-0.763,1.317-1.493,1.927-2.165c0.19-0.208,0.094,1.122,0.105,1.219c0.057,0.536,0.291,0.984,0.569,1.433
		c0.444,0.717,1.26,1.562,0.334,2.335c-0.509,0.423-0.802,0.974-1.018,1.591c-0.164,0.474-0.186,1.668-0.666,0.773
		c-0.265-0.491-0.371-1.101-0.493-1.639c-0.235-1.024-0.348-2.074-0.49-3.116C55.347,20.459,55.245,20.32,55.109,20.243z"/>
	<path fill="#BF0C9E" d="M35.16,37.812c0.019,0.024,0.04,0.046,0.058,0.07c-0.603,0.138-1.067,0.553-1.244,1.428
		c-0.189,0.936-0.29,1.765-0.638,2.673c-0.42,1.093-0.728,2.205-0.259,3.322c0.173,0.415,0.583,0.646,1.012,0.413
		c1.092-0.592,1.56-1.751,2.591-2.408c0.823-0.524,1.492-0.937,1.835-1.886c0.397-1.097-0.175-2.256-1.05-2.995
		c-0.025-0.072-0.065-0.143-0.116-0.208c-0.383-0.485-0.831-0.902-1.214-1.386C35.583,36.138,34.614,37.121,35.16,37.812z"/>
	<path fill="#BF0C9E" d="M39.286,44.354c-1.814,1.397-2.083,3.396-0.767,5.276c1.292,1.848,3.228,1.909,5.274,1.901
		c0.891-0.003,0.892-1.383,0-1.379c-1.201,0.004-2.502,0.151-3.507-0.641c-1.334-1.051-1.761-2.842-0.304-3.966
		C40.676,45.01,39.99,43.81,39.286,44.354z"/>
	<path fill="#BF0C9E" d="M43.227,42.225c-1.928,1.301-3.432,3.641-3.244,6.017c0.06,0.737,1.029,0.86,1.308,0.365
		c0.661,0.355,1.621,0.308,2.451-0.013c1.731-0.668,3.01-2.672,3.229-4.473c0.12-0.988-0.166-1.965-1.105-2.437
		C44.983,41.243,43.963,41.727,43.227,42.225z"/>
	<path fill="#7F0869" d="M28.193,61.338c-1.14,0.712-1.654,1.909-2.297,3.042c-0.735,1.296-1.781,2.397-2.353,3.783
		c-0.114,0.275-0.037,0.497,0.125,0.641c-0.434,0.673,0.482,1.557,1.029,0.897c1.819-2.195,4.58-4.686,4.535-7.768
		C29.224,61.425,28.647,61.056,28.193,61.338z"/>
	<path fill="#7F0869" d="M23.412,47.117c-0.585,0.959-0.195,1.897,1.118,2.481c0.747,0.331,1.432,0.658,2.139,1.069
		c0.606,0.353,1.373,0.843,2.102,0.85c1.932,0.018,1.265-2.425,0.534-3.372c-0.423-0.548-1.092-1.251-1.792-1.435
		c-0.728-0.189-1.597-0.038-2.353-0.164c-0.171-0.261-0.514-0.428-0.84-0.32C23.738,45.918,23.216,46.595,23.412,47.117z"/>
	<path fill="#7F0869" d="M10.433,44.735c-2.547,0.236-0.77,4.808-0.166,5.936c0.173,0.322,0.634,0.442,0.943,0.247
		c0.485-0.305,0.821-0.657,0.995-1.227c0.372-1.22,1.151-1.549,2.307-1.823c0.104-0.023,0.187-0.065,0.255-0.116
		c1.803,0.292,3.618,0.022,5.465-0.23c0.878-0.121,0.503-1.45-0.367-1.332c-2.233,0.306-4.448,0.665-6.572-0.319
		C12.369,45.44,11.522,44.635,10.433,44.735z"/>
	<path fill="#7F0869" d="M26.039,31.838c0.035,0.048,0.074-0.322,0.112-0.322c-0.001,0-0.001,0-0.004,0
		c0.004,0,0.009,0.468,0.012,0.472c0.26,0.32,0.547,0.849,0.817,1.16c-0.836,0.094-1.657,0.284-2.149,1.113
		c-0.213,0.36-0.029,0.988,0.413,1.071c1.153,0.217,4.051,0.317,4.698,1.541c-0.012,0.157,0.035,0.325,0.124,0.455
		c0.016,0.197-0.015,0.425-0.104,0.672c-0.306,0.838,1.028,1.198,1.33,0.37c0.188-0.514,0.243-0.959,0.201-1.349
		c1.971-2.648-2.855-4.409-4.364-5.79C26.573,30.729,25.544,31.188,26.039,31.838z"/>
	<path fill="#FF44D2" d="M29.571,23.139c-0.343,0.139-0.599,0.458-0.482,0.849c0.378,1.27,1.254,1.939,2.486,2.323
		c1.023,0.319,2.188,0.535,3.326,0.661c0.028,0.031,0.059,0.064,0.084,0.094c0.301,0.339,0.698,0.252,0.942-0.001
		c0.198,0.013,0.394,0.023,0.586,0.029c0.889,0.034,0.887-1.347,0-1.38c-0.333-0.011-0.664-0.045-0.99-0.092
		C34.042,24.1,31.64,22.305,29.571,23.139z"/>
	<path fill="#7F0869" d="M31,13.958c-0.272,0.303-0.287,0.889,0.139,1.084c1.909,0.874,4.138,1.146,5.789,2.357
		c0.001,0,0.002,0.002,0.003,0.002c0.78,0.9,1.098,2.207,1.479,3.307c0.225,0.652,0.424,1.312,0.586,1.979
		c-0.073,1.347-0.322,2.714-0.399,3.89c-0.055,0.849,1.195,0.88,1.362,0.116c0.402,0.112,0.9-0.097,0.885-0.634
		c-0.033-1.34-0.21-2.827-0.556-4.291c-0.032-1.224-0.237-2.428-0.814-3.605c-0.444-0.906-1.087-1.548-1.843-2.038
		c-0.053-0.059-0.102-0.124-0.155-0.179C36.103,14.463,32.878,11.869,31,13.958z"/>
	<path fill="#7F0869" d="M51.021,61.147c-0.019,0.728-1.172,0.763-1.702,1.002c-0.896,0.403-1.082,1.466-1.889,1.962
		c-0.978,0.603-1.634,0.862-1.918,1.702c-0.099,0.109-0.163,0.258-0.155,0.454c0.004,0.088,0.008,0.178,0.016,0.268
		c-0.003,0.043-0.005,0.089-0.008,0.134c-0.417,0.554-0.816,1.143-1.374,1.569c-0.595,0.454-1.356,0.524-1.998,0.874
		c-0.814,0.446-1.636,0.847-2.489,1.214c-0.815,0.35-0.112,1.539,0.695,1.191c0.719-0.31,1.421-0.629,2.108-1.003
		c0.775-0.422,1.641-0.592,2.381-1.084c0.491-0.326,0.928-0.751,1.34-1.167c0.032-0.032,0.059-0.067,0.088-0.101
		c0.187,0.114,0.418,0.183,0.707,0.186c1.029,0.004,2.01-1.1,2.654-1.771c0.669-0.7,1.252-1.454,1.953-2.127
		c0.908-0.875,1.966-1.792,2.519-2.949C54.973,59.354,51.091,58.576,51.021,61.147z"/>
	<path fill="#7F0869" d="M66.336,63.274c-0.316,0.77-0.11,1.84-0.041,2.64c0.152,1.766-1.143,3.148-2.33,4.335
		c-0.307,0.055-0.539,0.359-0.558,0.68c-0.131,0.464,0.326,0.952,0.79,0.873c3.652,1.712,6.254-4.535,5.385-7.413
		C69.174,63.042,67.138,61.323,66.336,63.274z"/>
	<path fill="#7F0869" d="M89.25,42.873c-0.179-0.118-0.4-0.148-0.6-0.105c-1.71-1.501-5.378-1.483-5.164,1.835
		c0.031,0.477,0.144,0.923,0.318,1.318c-0.012,0.466-0.023,0.916-0.12,1.271c-0.092,0.337,0.058,0.598,0.286,0.738
		c-0.055,0.171-0.097,0.351-0.127,0.54c-0.628,0.557-0.938,1.5-0.68,2.286c-0.174,0.197-0.253,0.482-0.103,0.781
		c0.08,0.159,0.173,0.286,0.273,0.401c0.333,0.942-0.32,1.764-0.517,2.707c-0.101,0.494,0.318,1.011,0.85,0.85
		c1.409-0.429,1.452-1.77,2.552-2.473c1.188-0.762,2.95,1.669,4.1,0.076c0.754-1.046,0.112-2.964-1.29-3.118
		c-0.905-0.1-1.572,0.261-2.368,0.558c-0.207,0.03-0.413,0.058-0.621,0.084c-1.166,0.137-2.244-0.669-0.814-1.428
		c1.115-0.591,2.247-1.131,3.316-1.808c0.186-0.116,0.378-0.247,0.571-0.389c0.215-0.078,0.409-0.173,0.563-0.298
		c0.361-0.293,0.669-0.689,0.888-1.126c0.602-0.874,0.753-1.875-0.255-2.832C89.94,42.391,89.47,42.551,89.25,42.873z"/>
	<path fill="#7F0869" d="M76.193,21.752c-0.952,0.229-1.947,0.652-2.313,1.609c-0.382,1.002,1.194,1.96,1.882,2.215
		c0.972,0.359,1.779,0.578,2.584,1.317c0.651,0.599,0.895,1.505,1.685,1.99c0.656,0.401,1.355,0.464,1.946,1.033
		c0.772,0.743,0.962,2.085,1.187,3.083c0.078,0.348,0.339,0.495,0.61,0.493c0.305,0.277,0.792,0.322,0.998-0.155
		c0.65-1.507,0.156-2.953,0.063-4.517c-0.083-1.451-1.315-2.69-2.046-3.859c-0.783-1.249-1.67-2.21-2.944-2.967
		C78.509,21.201,77.665,21.399,76.193,21.752z"/>
	<path fill="#7F0869" d="M54.889,6.994c-0.017,0.558-0.068,1.112-0.147,1.663c-0.206,0.1-0.365,0.294-0.373,0.589
		c-0.02,0.691-0.096,1.372-0.201,2.046c-0.49,1.707-1.164,3.374-1.833,4.993c-0.581,1.406-1.773,3.926-0.051,4.996
		c0.26,0.163,0.625,0.11,0.836-0.108c0.724-0.744,0.891-1.592,1.218-2.558c0.1-0.297-0.001-0.532-0.185-0.678
		c0.32-2.156,0.989-4.246,1.354-6.393c0.421-1.48,0.716-2.99,0.761-4.55C56.293,6.103,54.913,6.105,54.889,6.994z"/>
	<path fill="#7F0869" d="M18.001,20.197c-0.355,0.299-0.207,0.86,0.139,1.083c1.07,0.687,2.398,1.195,3.165,2.256
		c0.154,0.213,0.302,0.539,0.401,0.777c0.002,0.003-0.277,0.055-0.48,0.091c-0.476,0.081-0.907,0.172-1.352,0.363
		c-0.599,0.258-0.332,1.089,0.165,1.262c0.823,0.284,1.708,0.349,2.586,0.365c-0.015,0.17,0.049,0.347,0.229,0.497
		c0.942,0.773,2.046,1.765,3.251,2.083c1.952,0.516,3.293,1.693,4.694,3.103c1.933,1.946,3.85,3.818,6.755,4.028
		c0.482,0.036,0.741-0.463,0.667-0.873c-0.032-0.175-0.083-0.338-0.143-0.498c0.216,0.308,0.403,0.624,0.563,0.93
		c-0.15,0.151-0.239,0.367-0.193,0.628c0.329,1.835,1.898,2.16,3.125,3.251c0.62,0.551,0.335,1.615,0.837,2.261
		c0.379,0.488,1.021,0.725,1.635,0.588c1.465-0.326,2.389-1.794,2.393-3.241c0.002-0.687-0.499-1.376-0.914-1.882
		c-0.675-0.826-1.167-1.431-1.214-2.549c0.039-1.699-1.418-3.583-2.88-4.337c-0.667-0.345-1.478-0.319-2.144-0.006
		c-1.575,0.742-2.722-0.271-4.257-0.407c-1.233-0.109-2.773,0.589-2.542,1.861c-0.517-0.517-1.02-1.046-1.537-1.54
		c-0.876-0.836-1.824-1.651-2.936-2.152c-1.428-0.645-2.603-1.042-3.83-1.955c0.034-0.04,0.063-0.082,0.088-0.128
		c0.301-0.231,0.434-0.674,0.078-1.009c-0.366-0.342-0.227-0.718-0.296-1.142c-0.089-0.542-0.44-0.937-0.739-1.388
		c-0.471-0.705-0.992-1.263-1.629-1.824C20.591,19.736,19.231,19.162,18.001,20.197z M41.67,32.288
		c0.609,0.596,1.28,1.547,1.26,2.435c0.041,0.995,0.267,1.866,0.896,2.653c0.913,1.144,1.924,2.472,0.247,3.574
		c-0.684,0.449-0.881-1.315-0.972-1.573c-0.144-0.413-0.434-0.703-0.754-0.986c-0.941-0.838-2.316-1.048-2.568-2.465
		c-0.003-0.019-0.011-0.037-0.017-0.056c0.188-0.197,0.276-0.492,0.12-0.802c-0.733-1.469-1.851-2.715-3.373-3.38
		c-0.072-0.031-0.145-0.052-0.216-0.075c0-0.003-0.002-0.005-0.003-0.009c0.954,0.32,1.831,0.774,2.947,0.3
		C40.329,31.44,40.874,31.51,41.67,32.288z"/>
	<path fill="#7F0869" d="M45.211,43.767c-0.572,0.71-1.168,1.394-1.863,1.988c-0.262,0.226-0.564,0.417-0.887,0.548
		c0.076-0.134,0.167-0.264,0.196-0.312c0.452-0.769-0.741-1.463-1.192-0.695c-0.299,0.508-0.649,1.178-0.407,1.778
		c0.235,0.583,0.835,0.785,1.423,0.665c1.563-0.322,2.76-1.82,3.706-2.995C46.739,44.057,45.77,43.075,45.211,43.767z"/>
	<path fill="#7F0869" d="M47.263,44.949c0.007,1.749,1.261,1.745,2.286,2.458c-0.598,0.631-1.141,1.312-1.737,1.949
		c-0.773,0.833-1.854,1.3-2.827,1.854c-1.281,0.726-1.9,1.748-2.03,3.09c-0.109,0.109-0.183,0.263-0.183,0.467
		c0.005,0.945,0.019,1.862-0.047,2.76c-0.069-0.696-0.339-1.376-0.937-1.779c-0.599-0.405-1.311-0.543-2.019-0.677
		c-0.09-0.335-0.401-0.636-0.839-0.562c-1.659,0.282-4.142,1.751-3.671,3.738c0.242,1.023,1.259,1.162,2.12,1.311
		c0.655,0.114,0.872,0.815,1.211,1.294c0.311,0.439,0.77,0.718,1.268,0.897c1.038,0.371,1.79-0.412,2.266-1.385
		c-0.104,0.259-0.223,0.519-0.36,0.776c-0.419,0.784,0.772,1.481,1.191,0.697c1.104-2.067,1.199-4.142,1.2-6.391
		c0.097-0.107,0.159-0.254,0.155-0.445c-0.046-2.169,1.586-2.72,3.227-3.644c1.438-0.811,2.32-2.389,3.503-3.495
		c0.29-0.27,0.239-0.698,0-0.975c-0.572-0.667-2.394-0.971-2.397-1.939C48.639,44.06,47.259,44.06,47.263,44.949z"/>
	<path fill="#610650" d="M56.646,44.786c0.664,2.155,1.553,4.081,3.556,5.275c1.592,0.952,3.255,1.779,2.943,3.956
		c-0.1,0.692-0.309,1.365-0.514,2.038c-0.079,0.08-0.14,0.189-0.166,0.334c-0.026,0.136-0.039,0.268-0.05,0.401
		c-0.088,0.321-0.168,0.644-0.223,0.974c-0.072,0.43,0.215,0.737,0.541,0.833c0.624,1.291,2.06,2.042,3.785,1.647
		c1.245-0.286,2.208-0.867,2.811-2.012c0.54-1.021,0.578-2.21,1.142-3.172c0.522,1.444-0.184,3.517-1.105,4.535
		c-0.597,0.658,0.376,1.637,0.975,0.975c1.61-1.776,2.383-5.096,0.777-7.097c0.535-0.505,1.187-0.931,1.66-1.446
		c1.005-1.091,0.875-2.412,0.18-3.631c-0.44-0.772-1.633-0.077-1.191,0.697c0.739,1.297,0.137,1.96-0.879,2.801
		c-0.873,0.722-1.706,1.45-2,2.587c-0.053,0.21-0.015,0.39,0.075,0.53c-0.271,0.668-0.44,1.39-0.664,2.111
		c-0.687,2.214-4.715,2.577-4.54-0.046c0.511-1.955,1.32-3.852,0.241-5.787c-0.64-1.147-2.002-1.821-3.101-2.421
		c-1.707-0.929-2.382-2.697-2.921-4.449C57.716,43.571,56.384,43.933,56.646,44.786z"/>
	<path fill="#FF44D2" d="M42.355,43.835c-0.358,0.332-0.709,0.723-0.938,1.157c-0.076,0.143-0.122,0.304-0.139,0.464
		c-0.108,0.122-0.176,0.285-0.189,0.45c-0.103,0.25-0.082,0.525,0.136,0.744c0.243,0.242,0.745,0.296,0.977,0
		c0.013-0.017,0.023-0.035,0.036-0.05c0.121-0.03,0.237-0.077,0.351-0.133c1.132-0.171,2.239-1.328,2.443-2.355
		c0.078-0.384-0.139-0.67-0.42-0.793c-0.118-0.142-0.281-0.248-0.504-0.282C43.412,42.936,42.836,43.388,42.355,43.835z"/>
	<path fill="#FF44D2" d="M63.541,32.672c-0.62,0.174-1.136,0.386-1.584,0.86c-0.594,0.627-0.583,1.554-1.343,2.055
		c-0.836,0.551-2.796,0.895-2.796,2.202c0,0.945,0.792,2.792,1.512,3.408c0.164,0.142,0.332,0.254,0.495,0.346
		c-0.171,0.412,0.028,0.988,0.606,0.977c0.298-0.004,0.592-0.02,0.879-0.046c1.966,0.745,3.981,0.547,5.674-0.85
		c0.688-0.567-0.294-1.537-0.975-0.976c-0.668,0.551-1.427,0.833-2.208,0.885c0.143-0.126,0.282-0.268,0.411-0.429
		c0.433-0.536,0.037-1.3-0.671-1.154c-1.226,0.252-2.727,1.193-3.534-0.223c-0.258-0.452-0.463-0.935-0.649-1.418
		c-0.208-0.541-0.167-0.444,0.285-0.698c0.792-0.448,1.621-0.728,2.322-1.324c0.923-0.782,0.568-1.9,1.943-2.286
		C64.764,33.764,64.4,32.431,63.541,32.672z"/>
	<path fill="#FF44D2" d="M62.539,22.283c-0.008,0.062-0.014,0.232-0.023,0.232h-1.373c0,0,0-0.087,0-0.08
		c0,1.03,0.514,2.06,0.514,3.101c0,0.849,1.596,0.887,1.709,0.115c0.724,0.211,1.729-0.276,2.451-0.489
		c0.852-0.25,0.574-1.583-0.281-1.331c-0.396,0.118-1.303,0.793-1.59,0.323c-0.269-0.44-0.077-1.221-0.071-1.713
		C63.882,21.681,62.66,21.501,62.539,22.283z"/>
	<path fill="#610650" d="M64.416,14.174c0.12,0.058,0.235,0.125,0.349,0.194c-0.035,0.188,0.016,0.392,0.205,0.565
		c0.831,0.758,0.837,1.75,0.839,2.805c0,0.563,0.576,0.806,1.037,0.597c0.918-0.418,1.586-1.195,2.428-1.733
		c0.545-0.351,0.371-1.326-0.349-1.287c-0.754,0.041-1.303-0.438-1.846-0.903c-0.619-0.53-1.225-1.07-1.965-1.429
		C64.315,12.598,63.616,13.787,64.416,14.174z"/>
	<path fill="#610650" d="M37.478,37.672c1.006,1.332,2.078,2.609,3.164,3.876c-0.051,0.041-0.142,0.107-0.256,0.192
		c-0.17-0.074-0.373-0.084-0.582,0.013c-3.575,1.656-5.194,7.507-1.197,9.435c0.019,0.017,0.035,0.035,0.054,0.052
		c0.659,0.593,1.639-0.381,0.975-0.976c-0.016-0.015-0.029-0.028-0.044-0.042c-0.029-0.038-0.064-0.071-0.102-0.103
		c-0.854-0.838-1.266-1.876-1.374-3.078c-0.135-1.496,0.786-2.389,1.81-3.293c0.032-0.029,0.067-0.059,0.102-0.086
		c-0.161,0.296-0.301,0.549-0.353,0.698c-0.339,0.929-0.491,1.936-0.547,2.92c-0.096,1.695,0.988,2.769,2.655,2.669
		c1.876-0.11,3.688-1.533,4.784-2.962c0.77-1.004,1.058-2.129,0.97-3.236c1.82,1.789,4.863,1.713,6.557-0.706
		c0.402-0.576-0.251-1.121-0.796-0.977c0.047-0.31-0.088-0.637-0.482-0.73c-1.338-0.317-2.421-0.51-3.476-1.46
		c-0.852-0.767-1.641-1.178-2.784-0.792c-0.574,0.192-0.587,0.875-0.267,1.199c-0.076,0.147-0.121,0.314-0.142,0.497
		c-0.532-0.122-1.157,0.418-0.771,0.99c1.122,1.666,0.965,3.483-0.408,4.997c-0.825,0.909-4.403,3.252-4.46,0.514
		c-0.024-1.243,0.417-3.097,1.247-4.007c0.706-0.775,0.815-1.44,0.197-2.301c-0.052-0.074-0.112-0.131-0.174-0.178
		c-0.025-0.049-0.056-0.099-0.097-0.145c-1.03-1.203-2.056-2.41-3.01-3.673C38.14,36.274,36.941,36.96,37.478,37.672z"/>
	<path fill="#FF44D2" d="M28.053,63.007c-0.938,1.167-1.548,2.529-2.36,3.778c-0.487,0.749,0.708,1.44,1.191,0.697
		c0.054-0.084,0.106-0.168,0.158-0.254c-0.032,0.321-0.052,0.64-0.058,0.946c-0.013,0.89,1.367,0.889,1.382,0
		c0.009-0.683,0.096-1.428,0.302-2.122c0.292-0.054,0.552-0.271,0.563-0.651c0.005-0.21,0.02-0.417,0.035-0.624
		c0.016-0.022,0.026-0.046,0.044-0.068c0.203-0.275,0.151-0.546-0.021-0.735c-0.008-0.221-0.029-0.441-0.083-0.663
		C29.092,62.841,28.383,62.598,28.053,63.007z"/>
	<path fill="#610650" d="M54.939,46.621c0.021,0.153,0.02,0.3,0.007,0.441c-0.32,0.029-0.604,0.246-0.578,0.659
		c0.062,0.958-0.648,1.117-1.216,1.746c-0.581,0.646-0.669,1.399-0.75,2.186c-0.518,0.098-0.854,0.296-1.222,0.712
		c-0.639,0.719-1.412,0.516-2.183,0.924c-0.189,0.027-0.358,0.131-0.448,0.334c-0.482,0.545-0.425,1.557-0.379,2.314
		c-0.022,0.263-0.039,0.531-0.041,0.797c-0.01,0.89,1.37,0.889,1.38,0c0-0.02,0.001-0.039,0.001-0.059
		c0.041-0.086,0.064-0.187,0.061-0.304c-0.003-0.145-0.011-0.29-0.018-0.435c0.025-0.262,0.059-0.521,0.099-0.78
		c1.178,0.213,2.154-0.286,3.037-0.971c-0.027,1.121,0.05,3.022,1.477,2.604c0.338-0.1,0.635-0.302,0.95-0.07
		c0.48,0.354,1.132,0.485,1.661,0.76c0.572,0.295,2.415,1.327,2.629,2.094c-0.956,0.792-1.615,1.866-1.355,3.177
		c0.346,1.744,2.72,1.659,3.274,3.178c0.094,0.261,0.291,0.403,0.506,0.453c0.375,0.382,1.204,0.23,1.195-0.461
		c-0.012-1.028-0.184-2.121,0.149-3.11c0.041-0.122,0.034-0.253-0.003-0.376c0.125,0.007,0.25,0.015,0.377,0.016
		c0.889,0.008,0.889-1.373,0-1.38c-1.081-0.009-2.058-0.187-2.486-1.141c0.126-0.358-0.086-0.784-0.424-0.911
		c-0.597-1.398-2.633-2.503-3.838-3.058c-0.614-0.284-1.458-0.908-2.184-0.756c-0.49,0.103-0.502,0.47-0.562-0.138
		c-0.046-0.464,0.016-0.94,0.031-1.404c0.007-0.231-0.082-0.401-0.216-0.513c0.109-0.14,0.145-0.293,0.125-0.44
		c0.067-0.05,0.13-0.104,0.191-0.164c0.785-0.786,0.469-2.201,1.132-3.126c0.77-1.08,1.135-1.824,0.952-3.165
		C56.15,45.375,54.82,45.751,54.939,46.621z"/>
	<path fill="#7F0869" d="M61.326,52.564c-0.126,0.792-0.845,1.219-1.37,1.755c-0.622,0.635-0.845,1.381-0.71,2.251
		c0.136,0.877,1.467,0.503,1.332-0.367c-0.104-0.666,0.564-1.119,0.996-1.513c0.522-0.478,0.97-1.044,1.085-1.759
		C62.794,52.061,61.465,51.687,61.326,52.564z"/>
	<path fill="#610650" d="M54.636,39.231c0.194,0.425,0.149,0.591-0.272,0.79c-0.471,0.222-0.428,0.957,0,1.19
		c0.991,0.543,2.153,0.618,3.121,1.213c0.218,0.137,0.432,0.13,0.607,0.044c0.721,0.33,1.332-0.784,0.608-1.235
		c-1.301-0.81-1.753-2.49-3.286-3.016C54.785,38,54.408,38.732,54.636,39.231z"/>
	<path fill="#610650" d="M45.004,32.395c-0.254,0.132-0.419,0.502-0.316,0.779c0.112,0.301,0.26,0.525,0.437,0.695
		c0.051,0.088,0.124,0.17,0.226,0.237c0.902,0.591,2.105,0.012,3.043-0.205c0.062-0.014,0.122-0.02,0.179-0.023
		c0.02,0.002,0.042,0.007,0.062,0.011c0.014,0.059,0.023,0.122,0.026,0.193c0.027,0.603,0.417,1.093,0.92,1.372
		c0.478,0.263,0.967-0.06,1.426-0.019c0.127,0.061,0.261,0.106,0.402,0.126c0.397,0.058,0.715-0.174,0.825-0.47
		c0.129-0.284,0.079-0.625-0.294-0.792c-0.622-0.4-1.256-0.975-1.95-1.373c-0.098-0.078-0.202-0.147-0.31-0.207
		c-0.152-0.201-0.355-0.368-0.624-0.49C47.954,31.731,46.075,31.839,45.004,32.395z"/>
	<path fill="#7F0869" d="M45.039,19.786c1.147,1.044-1.218,4.044-1.907,4.917c-0.545,0.69,0.425,1.675,0.976,0.976
		c1.199-1.518,3.898-5.055,1.906-6.869C45.357,18.213,44.379,19.186,45.039,19.786z"/>
	<path fill="#7F0869" d="M39.277,32.325c-0.837,0.288-0.477,1.622,0.367,1.331c0.74-0.257,1.246,0.635,1.585,1.164
		c0.454,0.707,0.803,1.507,1.383,2.125c0.61,0.651,1.583-0.327,0.976-0.976C42.403,34.708,41.639,31.51,39.277,32.325z"/>
	<path fill="#7F0869" d="M36.194,39.047c-0.182,1.149-0.672,2.052-1.554,2.814c-0.675,0.583,0.305,1.555,0.975,0.976
		c1.039-0.896,1.697-2.067,1.91-3.423C37.664,38.542,36.333,38.168,36.194,39.047z"/>
	<path fill="#610650" d="M61.351,73.422c-0.413,0.499-0.445,0.951-0.387,1.425c-0.07,0.212-0.072,0.472,0.016,0.789
		c0.026,0.096,0.076,0.188,0.14,0.271c0.011,0.132,0.016,0.27,0.008,0.411c-0.009,0.175,0.039,0.312,0.119,0.419
		c0.138,0.251,0.408,0.434,0.763,0.367c0.975-0.185,1.928-0.458,2.928-0.477c0.295-0.006,0.491-0.165,0.59-0.37
		c0.754,0.12,1.521,0.394,1.979,1.006c0.361,0.482,0.609,0.82,1.234,0.934c0.451,0.081,1.071-0.313,0.85-0.85
		c-0.94-2.257-3.271-3.154-5.359-4.031C63.479,73.001,61.979,72.666,61.351,73.422z"/>
	<path fill="#610650" d="M76.549,24.516c0.091,0,0.181,0,0.27,0c0,0,0,0.425,0.002,0.428c0.507,0.842,1.492,1.665,2.266,2.234
		c0.886,0.652,1.916,1.58,2.999,1.866c0.478,0.125,1.03-0.285,0.848-0.797c-0.198-0.558-0.466-0.932-0.884-1.355
		c-0.57-0.581-1.12-1.333-1.721-1.856c-1.101-0.957-2.368-1.482-3.78-1.484C75.66,23.548,75.66,24.516,76.549,24.516z"/>
	<path fill="#BF0C9E" d="M36.812,53.434c-0.227-0.02-0.455,0.006-0.642,0.13c-0.042,0.027-0.084,0.046-0.127,0.073
		c-1.402,0.503-2.927,1.253-3.611,2.613c-0.32,0.324-0.513,0.673-0.602,1.042c-0.009,0.02-0.018,0.036-0.024,0.058
		c-0.331,0.966,0.4,3.013,0.828,3.886c0.174,0.359,0.667,0.623,1.026,0.742c0.021,0.007,0.036,0.018,0.058,0.025
		c0.24,0.343,0.456,0.66,0.622,0.937c0.145,0.246,0.36,0.345,0.573,0.338c0.099,0.219,0.192,0.448,0.296,0.676
		c0.909,2.018,3.844,2.655,5.433,1.132c0.643-0.617-0.334-1.591-0.976-0.976c-0.876,0.84-2.398,0.431-3.068-0.487
		c-0.399-0.549-0.573-1.274-0.919-1.86c-0.122-0.208-0.283-0.375-0.464-0.521c-0.306-0.667-0.718-1.289-1.063-1.943
		c-0.265-0.5-0.532-1.406-0.477-2.143c0.999-0.505,3.773-1.182,4.038-2.539c1.618-0.389,3.659-0.103,3.658,0.897h1.38
		C42.75,51.516,38.967,52.879,36.812,53.434z"/>
	<path fill="#FF44D2" d="M37.65,54.83c0.21,0.314,0.45,0.579,0.71,0.823c-0.195,0.218-0.345,0.43-0.433,0.725
		c-0.109,0.366,0.127,0.745,0.482,0.849c0.891,0.263,1.91,0.577,2.119,1.598c0.178,0.871,1.505,0.501,1.33-0.368
		c-0.179-0.871-0.419-1.682-0.936-2.418c-0.547-0.777-1.544-1.1-2.081-1.905C38.353,53.396,37.158,54.086,37.65,54.83z"/>
	<path fill="#FF44D2" d="M44.94,71.831c-3.232-0.548-8.653,0.057-7.761,3.387c0.149,0.552,0.988,0.71,1.262,0.165
		c0.553-1.104,0.876-1.611,2.214-1.564c1.312,0.045,2.67-0.309,3.954-0.53c0.034-0.006,0.068-0.013,0.104-0.018
		c0.685,0.096,1.212,0.225,1.414,0.353c0.223,0.143,0.439,0.135,0.614,0.047c0.049,0.226-0.001,0.544-0.19,0.981
		c-0.371,0.863-0.653,1.64-0.664,2.591c-0.012,0.89,1.368,0.889,1.38,0c0.018-1.541,1.357-2.851,0.891-4.408
		c-0.297-0.992-1.583-1.082-2.42-1.058C45.468,71.787,45.203,71.806,44.94,71.831z"/>
	<path fill="#610650" d="M83.317,42.06c-0.267,0.076-0.547,0.364-0.508,0.665c0.064,0.488,0.239,0.868,0.49,1.291
		c0.308,0.516,0.239,1.204,0.509,1.767c0.155,0.328,0.445,0.402,0.709,0.325c0.383,0.041,0.786-0.229,0.777-0.672
		c-0.022-0.835,0.051-1.191,0.873-1.48c0.6-0.21,1.151-0.415,1.634-0.841c0.308-0.273,0.219-0.694,0-0.977
		C86.885,40.953,84.48,41.73,83.317,42.06z"/>
	<path fill="#FF44D2" d="M73.981,22.671C72.76,24,74.09,25.208,75.236,25.968c0.811,0.539,1.518,1.088,2.287,1.689
		c0.803,0.628,1.432,1.596,2.382,1.988c0.06,0.024,0.117,0.037,0.17,0.044c0.104,0.096,0.242,0.164,0.414,0.18
		c0.96,0.092,1.662,0.594,2.214,1.364c0.514,0.716,1.711,0.029,1.191-0.696c-0.852-1.188-1.896-1.888-3.359-2.041
		c-0.069-0.074-0.155-0.138-0.263-0.183c-0.544-0.224-0.852-1-1.341-1.335c-0.613-0.421-1.112-0.971-1.716-1.391
		c-0.377-0.263-2.694-1.465-2.257-1.941C75.557,22.992,74.584,22.014,73.981,22.671z"/>
	<path fill="#7F0869" d="M55.758,6.586c-1.46,0.987-1.838,3.026-2.014,4.637c-0.155,1.428-0.133,2.876-0.133,4.309
		c-0.002,1.476-0.533,2.684-0.703,4.115c-0.104,0.881,1.276,0.872,1.379,0c0.104-0.876,0.561-1.647,0.667-2.525
		c0.113-0.933,0.035-1.871,0.039-2.809c0.008-1.842-0.045-3.832,0.754-5.534c0.962-2.054,2.992-0.961,4.496,0.135
		c-0.076,0.262,0,0.544,0.331,0.692c0.472,0.211,0.876,0.442,1.235,0.722c0.395,0.549,0.707,1.193,1.027,1.74
		c0.178,0.306,0.406,0.563,0.63,0.823c0.17,0.403,0.379,0.781,0.781,1.123c0.625,0.53,1.39-0.121,1.083-0.836
		c-0.238-0.553-0.608-1.038-0.987-1.522c-0.217-0.518-0.416-1.056-0.709-1.483c-0.309-0.449-0.709-0.804-1.153-1.101
		c-0.392-0.429-0.83-0.813-1.325-1.177C59.705,6.825,57.497,5.411,55.758,6.586z"/>
	<path fill="#7F0869" d="M42.377,10.552c-0.294,0.05-0.514,0.385-0.507,0.666c0.041,1.776-0.568,3.534,0.081,5.258
		c0.472,1.257,1.762,2.004,2.63,2.957c0.601,0.66,1.574-0.319,0.976-0.976c-0.003-0.004-0.007-0.008-0.011-0.012
		c0.098-0.088,0.171-0.198,0.19-0.321c0.063-0.413,0.097-0.753-0.087-1.148c-0.079-0.172-1.35-2.527-0.804-2.297
		c1.718,0.727,3.647,2.559,3.75,4.468c0.047,0.884,1.428,0.889,1.38,0c-0.025-0.449-0.098-0.858-0.21-1.248
		c0.176-0.112,0.301-0.304,0.309-0.56c0.069-2.131-1.809-3.745-3.139-5.188c-0.492-0.535-1.132-0.878-1.854-0.968
		C44.125,11.061,43.364,10.389,42.377,10.552z"/>
	<path fill="#610650" d="M56.212,18.296c-0.145,0.225-0.256,0.444-0.348,0.667c-0.171,0.01-0.338,0.075-0.446,0.195
		c-1.289,1.451-0.471,5.055,0.594,6.457c0.492,0.648,1.561,0.102,1.279-0.546c0.872-0.442,1.522-1.992,1.788-2.629
		c0.004-0.011,0.004-0.022,0.007-0.032c0.197-0.243,0.233-0.585-0.085-0.841c-0.479-0.386-0.854-0.689-1-1.32
		c-0.061-0.262-0.081-0.55-0.246-0.772c-0.101-0.136-0.216-0.223-0.337-0.276c0.016-0.122,0.035-0.245,0.055-0.373
		C57.597,18.069,56.659,17.608,56.212,18.296z"/>
	<path fill="#610650" d="M53.149,22.362c-0.828,0.545-1.217,1.481-1.62,2.354c-0.528,1.144-1.193,2.08-1.271,3.372
		c-0.026,0.452,0.231,0.933,0.412,1.334c0.38,0.848,0.356,1.393,0.307,2.297c-0.053,0.98,0.518,1.675,1.229,2.263
		c0.212,0.175,0.455,0.201,0.666,0.137c0.774,0.583,1.834,0.875,2.732,0.867c1.085-0.01,1.247-0.88,2.352-0.126
		c0.544,0.373,1.447,0.314,2.007,0.013c1.081-0.583,1.561-1.585,2.198-2.401c0.051,0.007,0.105,0.01,0.166,0.006
		c1.63-0.12,2.992-0.734,4.348-1.494c1.65-0.257,3.012-0.845,4.368-2.321c0.045-0.049,0.078-0.099,0.106-0.15
		c0.085-0.047,0.17-0.096,0.256-0.143c0.781-0.426,0.085-1.618-0.695-1.192c-1.239,0.675-2.343,1.447-3.672,1.953
		c-0.723,0.274-1.471,0.465-2.224,0.643c-0.234,0.013-0.471,0.023-0.718,0.031c-0.784,0.034-1.449,0.296-2.021,0.709
		c-0.543,0.21-1.06,0.476-1.546,0.835c-0.337,0.249-0.624,0.569-0.878,0.901c-0.575,0.754-1.274,0.594-2.057,0.275
		c-0.59-0.239-1.67-0.265-2.272-0.1c-0.207,0.057-0.349,0.218-0.5,0.357c-0.384,0.355-0.044,0.176-0.495-0.257
		c-0.464-0.451-0.95-1.033-1.324-1.646c0.188-2.687,1.459-5.187,1.184-7.922C54.14,22.476,53.626,22.047,53.149,22.362z"/>
	<path fill="#7F0869" d="M50.501,38.597c0.435,0.466,0.919,0.745,1.551,0.837c0.352,0.053,0.698,0.046,1.039,0.079
		c-0.072,0.376-0.037,0.755,0.208,1.119c0.389,0.577,1.074,0.803,1.409,1.439c0.194,0.368,0.557,0.409,0.846,0.271
		c0.103,0.065,0.204,0.136,0.31,0.193c-0.05,0.212-0.101,0.421-0.152,0.633c-0.275-0.019-0.549-0.049-0.821-0.089
		c-0.395-0.275-0.813-0.455-1.12-0.448c-1.166,0.025-3.363,2.107-4.673,1.514c-0.256-0.222-0.487-0.506-0.772-0.71
		c-0.564-0.407-1.314,0.384-0.944,0.944c0.27,0.404,0.596,0.682,0.956,0.866c0.142,0.134,0.277,0.257,0.421,0.36
		c-0.074,0.239-0.042,0.517,0.136,0.719c0.442,0.501,1.092,0.836,1.498,1.366c0.292,0.379,0.707,0.44,1.084,0.139
		c0.651-0.521,2.351-2.907,2.659-0.706c0.102,0.718,1.151,0.597,1.333,0c0.082-0.277,0.102-0.523,0.089-0.777
		c0.115-0.027,0.225-0.094,0.325-0.213c0.103,0.12,0.176,0.284,0.248,0.421c0.195,0.366,0.343,0.756,0.528,1.128
		c0.444,0.899,1.039,1.462,1.974,1.83c0.829,0.325,1.185-1.009,0.366-1.332c-1.034-0.406-1.267-1.552-1.742-2.448
		c-0.12-0.226-0.277-0.438-0.458-0.613c0.716-0.305,0.873-1.25,1.308-1.946c0.34-0.566-0.216-1.084-0.719-1.014
		c-0.304-0.458-0.861-0.813-1.335-1.135c-0.159-0.108-0.314-0.133-0.456-0.108c-0.189-0.24-0.409-0.454-0.662-0.648
		c-0.432-0.329-0.616-0.372-0.34-0.908c0.222-0.432,0.009-0.837-0.413-1.014c-0.895-0.373-2,0.029-2.706-0.724
		C50.867,36.971,49.894,37.949,50.501,38.597z"/>
	<path fill="#7F0869" d="M47.466,35.628c-0.387-0.064-0.803-0.024-1.275,0.137c-0.411-0.005-0.823,0.016-1.223,0.049
		c-0.426,0.036-0.809,0.416-0.665,0.874c0.218,0.687,0.781,1.332,1.453,1.764c-0.126,0.291-0.037,0.621,0.27,0.855
		c0.76,0.581,1.962,0.584,2.838,0.985c1.181,0.542,2.129,1.186,3.182,1.925c0.73,0.513,1.419-0.684,0.697-1.192
		c-0.905-0.635-1.531-1.208-2.583-1.622c-0.151-0.06-0.297-0.127-0.444-0.194c0.186-0.288,0.264-0.644,0.182-1.033
		c-0.101-0.475-0.277-0.858-0.509-1.171c-0.016-0.081-0.051-0.166-0.111-0.248c-0.406-0.568-0.777-0.854-1.416-1.12
		C47.719,35.58,47.585,35.585,47.466,35.628z"/>
	<path fill="#FF44D2" d="M46.711,46.053c-0.287,1.913-2.562,3.15-4.352,3.207c-0.888,0.028-0.891,1.408,0,1.379
		c2.345-0.075,5.305-1.699,5.683-4.22C48.172,45.55,46.843,45.176,46.711,46.053z"/>
	<path fill="#610650" d="M58.451,42.607c0.361,2.175,1.815,3.45,3.893,3.995c0.863,0.226,1.227-1.105,0.367-1.33
		c-1.654-0.435-2.643-1.31-2.929-3.031C59.636,41.364,58.308,41.737,58.451,42.607z"/>
	<path fill="#7F0869" d="M38.861,40.905c0.603,0.578-0.343,0.809-0.748,1.09c-0.306,0.212-0.561,0.479-0.819,0.744
		c-0.677,0.692-1.077,1.573-1.388,2.473c-0.621,1.799-0.509,3.714,0.249,5.434c0.716,1.619,1.69,1.343,2.929,1.542
		c-1.334,0.246-2.621,0.98-3.795,1.581c-0.793,0.404-0.093,1.595,0.696,1.191c1.556-0.795,5.513-2.681,6.191-0.135
		c-0.001,0.014-0.005,0.026-0.005,0.04c0,0.124,0.03,0.229,0.076,0.318c0.01,0.091,0.02,0.185,0.024,0.285
		c0.045,0.886,1.425,0.89,1.38,0c-0.036-0.771-0.234-1.393-0.596-1.896c0.232-0.033,0.465-0.076,0.692-0.148
		c0.545-0.17,0.588-0.78,0.324-1.125c0.15-0.072,0.3-0.154,0.443-0.25c0.738-0.489,0.049-1.683-0.698-1.191
		c-1.515,1.003-3.085,0.287-4.584-0.27c-0.123-0.033-0.244-0.033-0.367,0c-0.688,0.23-1.175,0.002-1.518-0.64
		c-0.543-1.016-0.525-2.207-0.365-3.315c0.308-2.136,1.544-3.095,3.087-4.361c0.878-0.722,0.43-1.71-0.231-2.343
		C39.194,39.313,38.218,40.288,38.861,40.905z"/>
	<path fill="#FF44D2" d="M46.989,67.022c-0.643,0.524-1.599,0.894-1.482,1.89c0.14,1.195,1.414,1.859,1.707,2.996
		c0.223,0.861,1.553,0.495,1.33-0.367c-0.194-0.753-0.627-1.32-1.114-1.912c-0.149-0.18-0.66-0.726-0.483-0.896
		c0.293-0.28,0.701-0.476,1.018-0.736C48.655,67.434,47.673,66.463,46.989,67.022z"/>
	<path fill="#BF0C9E" d="M53.812,59.683c-0.04,1.111,0.04,2.436,0.495,3.459c0.391,0.881,0.877,1.023,0.737,2.095
		c-0.15,1.168-0.258,2.099-1.05,3.037c-1.142,1.352-4.468,1.665-3.971,4.033c0.184,0.872,1.512,0.502,1.331-0.365
		c-0.154-0.733,2.136-1.633,2.664-1.935c1.055-0.604,1.688-1.621,2.093-2.73c0.329-0.901,0.615-2.637,0.36-3.563
		c-0.2-0.728-1.041-1.037-1.129-1.823c-0.069-0.632-0.172-1.587-0.15-2.208C55.222,58.792,53.841,58.795,53.812,59.683z"/>
	<path fill="#BF0C9E" d="M37.797,72.031c-1.549,1.151-2.99,2.375-3.945,4.08c-1.003,1.789-0.732,4.09-0.712,6.048
		c0.002,0.159,0.05,0.289,0.124,0.392c0.253,3.659,3.03,5.504,6.636,5.373c0.896-0.031,1.788-0.235,2.644-0.483
		c0.58-0.168,1.125-0.449,1.711-0.614c0.846-0.238,1.741,0.083,2.542,0.309c1.446,0.406,2.774,0.401,4.119,0.262
		c0.82,0.389,1.696,0.642,2.681,0.669c0.647,0.02,0.821-0.703,0.528-1.109c0.842-0.136,0.846-1.486-0.027-1.375
		c-0.943,0.12-1.889,0.324-2.837,0.462c-0.663-0.343-1.283-0.788-1.893-1.263c-0.691-0.542-1.676,0.428-0.975,0.976
		c0.18,0.14,0.361,0.279,0.544,0.413c-0.192-0.015-0.385-0.032-0.577-0.062c-1.591-0.246-2.836-0.868-4.474-0.614
		c-0.744,0.116-1.447,0.538-2.166,0.745c-0.935,0.271-1.907,0.333-2.874,0.312c-2.556-0.057-4.15-1.822-4.228-4.292
		c-0.004-0.139-0.045-0.253-0.105-0.35c-0.033-1.714-0.189-3.499,0.526-5.104c0.672-1.5,2.17-2.631,3.451-3.584
		C39.198,72.698,38.511,71.499,37.797,72.031z"/>
	<path fill="#BF0C9E" d="M14.37,70.064c1.013,1.728,1.514,3.672,2.428,5.443c0.648,1.255,1.912,2.058,3.038,2.832
		c0.737,0.506,1.425-0.69,0.697-1.191c-1.479-1.019-2.437-1.934-3.135-3.622c-0.585-1.413-1.057-2.832-1.835-4.159
		C15.112,68.601,13.92,69.295,14.37,70.064z"/>
	<path fill="#BF0C9E" d="M9.796,40.559c-0.068,0.007-0.17,0.018-0.327,0.034c-0.374,0.035-0.753,0.024-1.128,0.022
		C7.792,40.61,7.35,40.604,6.9,40.967c-1.423,1.141-1.698,3.285-2.088,4.947c-0.504,2.154-1.178,3.412,0.309,5.304
		c0.874,1.112,1.274,2.098,1.677,3.418c0.235,0.772,0.617,1.396,1.298,1.828c0.755,0.479,1.446-0.715,0.698-1.191
		c-0.831-0.527-0.898-1.976-1.237-2.826c-0.333-0.828-0.901-1.522-1.458-2.206c-1.179-1.446,0.167-4.808,0.704-6.534
		c0.198-0.64,0.532-1.715,1.302-1.716c0.61-0.001,1.223,0.024,1.829-0.071c1.055-0.166,1.835-0.919,1.115-1.952
		C10.567,39.279,9.464,39.87,9.796,40.559z"/>
	<path fill="#FF44D2" d="M67.946,47.73c1.351,0.021,2.81,0.397,3.618,1.564c0.505,0.726,1.702,0.037,1.193-0.697
		c-1.105-1.59-2.934-2.218-4.812-2.248C67.057,46.335,67.057,47.716,67.946,47.73z"/>
	<path fill="#BF0C9E" d="M81.53,60.504c-0.209,1.095,0.078,2.048,0.132,3.137c0.074,1.51-1.715,3.299-3.197,3.002
		c-0.869-0.174-1.24,1.156-0.367,1.331c1.577,0.316,2.905-0.344,3.845-1.625c0.208-0.286,0.42-0.591,0.601-0.914
		c0.231,0.02,0.475-0.06,0.648-0.286c1.197-1.572,0.178-3.013-0.333-4.645C82.669,59.895,81.665,59.795,81.53,60.504z"/>
	<path fill="#610650" d="M69.965,39.113c-0.024,0.577-0.125,1.197-0.073,1.78c-1.789,1.657-4.012,3.157-5.014,5.456
		c-0.382,0.876-0.328,1.846,0.464,2.464c0.53,0.415,1.104,0.44,1.754,0.376c1.495-0.145,2.649-0.276,3.672,1.046
		c0.544,0.704,1.514-0.281,0.977-0.976c-0.858-1.108-2.046-1.575-3.43-1.617c-0.58-0.017-2.016,0.606-2.29-0.116
		c-0.165-0.435,0.342-1.085,0.561-1.419c1.024-1.569,2.565-2.705,3.954-3.94c0.542,0.297,1.653,0.692,1.658,0.675
		c-0.163,0.742,0.787,1.117,1.184,0.665c0.221,0.063,0.459,0.072,0.693,0.008c0.448-0.123,0.832-0.412,1.28-0.545
		c0.583-0.174,1.324-0.065,1.924-0.058c0.891,0.012,0.889-1.367,0-1.379c-0.777-0.011-1.522-0.021-2.29,0.107
		c-0.32,0.05-0.609,0.208-0.896,0.349c-0.487,0.239-0.323,0.12-0.464-0.351c-0.205-0.688-1.154-0.718-1.508-1.298
		c-0.36-0.595-0.482-1.194-0.978-1.716C70.711,38.17,69.99,38.534,69.965,39.113z"/>
	<path fill="#610650" d="M72.799,49.73c0.096,0.411,0.189,1.079,0.15,1.701c-0.493,0.637-1.142,1.143-1.679,1.743
		c-0.286,0.32-0.228,0.751,0.042,0.994c0.012,0.047,0.029,0.094,0.052,0.144c0.57,1.203,0.736,2.467,0.2,3.718
		c-0.344,0.809,0.844,1.513,1.193,0.696c0.662-1.549,0.622-3.036,0.044-4.538c0.838-0.354,1.264-1.221,1.427-2.194
		c0.07-0.134,0.084-0.267,0.051-0.385c0.01-0.101,0.01-0.202,0.015-0.303c0.886,0.952,1.904,1.293,3.266,1.413
		c2.399,0.21,3.139,1.869,4.14,3.801c0.41,0.789,1.601,0.092,1.19-0.697c-0.777-1.501-1.482-3.031-2.984-3.932
		c-1.72-1.03-3.567-0.139-4.949-1.927c-0.221-0.286-0.51-0.291-0.741-0.154c-0.026-0.155-0.053-0.304-0.086-0.446
		C73.927,48.499,72.596,48.867,72.799,49.73z"/>
	<path fill="#610650" d="M32.062,34.916c-0.252,0.602-0.487,1.724-1,2.332c-0.794-0.655-1.85-1.163-2.7-1.659
		c-0.827-0.481-1.993-1.011-2.652-0.035c-0.312,0.462,0.11,1.009,0.596,1.039c0.66,0.039,1.276,0.216,1.875,0.494
		c0.075,0.046,0.151,0.09,0.226,0.138c0.343,0.318,0.291,0.928,0.511,1.304c0.156,0.267,0.337,0.404,0.535,0.472
		c-1.896,1.275-4.399,2.219-6.375,1.453c-0.831-0.322-1.187,1.013-0.367,1.331c3.015,1.167,6.869-0.845,9.1-2.888
		c0.195-0.179,0.237-0.409,0.181-0.619c0.721-0.79,1.018-2.081,1.402-2.996C33.736,34.463,32.401,34.108,32.062,34.916z"/>
	<path fill="#610650" d="M22.044,46.344c-0.836,0.433-1.59,0.947-2.561,0.956c-0.994,0.008-1.9-0.216-2.895-0.023
		c-0.873,0.17-0.502,1.501,0.367,1.332c0.776-0.152,1.561-0.02,2.346,0.031c-0.424,0.373-0.836,0.75-1.373,1.016
		c-0.796,0.395-0.097,1.587,0.698,1.191c0.917-0.456,1.522-1.204,2.35-1.773c0.756-0.519,1.555-0.957,2.011-1.785
		C23.331,46.666,22.655,46.026,22.044,46.344z"/>
	<path fill="#610650" d="M25.539,53.745c0.468,1.265,1.268,2.792,2.795,2.924c0.365,0.033,0.701,0.035,1.063-0.033
		c0.5-0.215,0.61-0.137,0.331,0.236c0.047,0.351,0.077,0.702,0.088,1.054c0.067,1.201,0.145,2.674-0.087,3.853
		c-0.295,1.492-1.048,2.52-0.33,3.833c-0.002,0.084,0.012,0.176,0.052,0.274c0.711,1.734,2.012,3.083,3.78,3.774
		c0.032,0.012,0.064,0.023,0.096,0.035c0.065,0.049,0.131,0.099,0.194,0.147c0.243,0.38,0.423,0.796,0.838,1.189
		c1.069,1.012,2.479,1.076,3.886,1.081c0.417,0.001,0.635-0.294,0.661-0.611c0.148-0.208,0.19-0.482,0.035-0.729
		c-0.456-0.717-1.308-1.052-2.15-1.347c-0.422-0.279-0.911-0.449-1.395-0.589c-0.022-0.007-0.043-0.014-0.065-0.02
		c-0.151-0.164-0.302-0.327-0.456-0.486c-0.051-0.122-0.146-0.232-0.297-0.314c-0.017-0.009-0.036-0.02-0.054-0.029
		c-0.23-0.211-0.475-0.407-0.749-0.572c-0.148-0.089-0.293-0.114-0.425-0.097c-0.873-0.529-1.697-1.121-2.4-1.876
		c-0.864-0.928-0.412-1.874-0.019-2.886c0.32-0.83,0.28-1.703,0.239-2.572c-0.057-1.173,0.487-3.528-0.466-4.48
		c-0.31-0.31-0.702-0.339-1.115-0.295c-1.549,0.169-2.206-0.435-2.722-1.83C26.564,52.551,25.23,52.909,25.539,53.745z"/>
	<path fill="#610650" d="M89.857,43.747c-0.332,1.761-1.958,3.004-3.411,3.903c-0.792,0.491-2.127,1.208-2.213,2.273
		c-0.086,1.042,0.846,1.377,1.728,1.284c0.422-0.046,3.293-0.876,3.37,0.147c0.067,0.882,1.447,0.888,1.381,0
		c-0.08-1.047-0.896-1.476-1.83-1.735c-1.119-0.312-2.005,0.079-3.089,0.221c0.147-0.162,0.305-0.313,0.489-0.437
		c0.272-0.207,0.572-0.382,0.862-0.563c0.502-0.311,0.961-0.666,1.427-1.031c1.235-0.967,2.319-2.112,2.618-3.698
		C91.353,43.243,90.024,42.872,89.857,43.747z"/>
	<path fill="#610650" d="M52.506,78.146c0.195,2.46-0.864,4.385,0.331,6.733c0.733,1.44-0.225,2.745,1.864,2.787
		c0.362,0.007,0.572-0.215,0.641-0.484c0.69-0.242,1.186-0.701,1.583-1.319c0.911-0.55,1.528-1.374,2.162-2.221
		c0.522-0.698,1.042-1.891,1.797-2.474c0.189-0.108,0.385-0.216,0.587-0.319c0.691-0.351,0.2-1.549-0.531-1.261
		c-0.057,0.022-0.108,0.051-0.163,0.076c-0.001-0.001-0.002-0.004-0.003-0.006c-0.053,0.027-0.105,0.056-0.157,0.083
		c-0.043,0.021-0.086,0.044-0.128,0.067c-0.873,0.462-1.669,0.981-2.373,1.634c-0.111-0.568-0.293-1.129-0.442-1.673
		c-0.235-0.857-1.567-0.493-1.33,0.368c0.246,0.901,0.588,1.797,0.441,2.75c-0.028,0.188-0.082,0.373-0.151,0.555
		c-0.058,0.129-0.118,0.26-0.173,0.391c-0.202,0.411-0.453,0.81-0.649,1.189c-0.028,0.054-0.046,0.107-0.061,0.161
		c-0.291,0.397-0.658,0.691-1.167,0.775c0-0.028,0.003-0.056,0.003-0.084c0.031-0.614-0.267-1.178-0.56-1.689
		c-1.088-1.912,0.02-3.995-0.142-6.038C53.816,77.264,52.437,77.257,52.506,78.146z"/>
	<path fill="#610650" d="M36.854,74.246c-0.175,0.165-0.332,0.337-0.48,0.512c-0.424,0.408-0.83,0.868-1.197,1.362
		c-0.168,0.197-0.328,0.404-0.475,0.63c-0.101,0.156-0.185,0.32-0.26,0.488c-1.075,1.887-1.666,4.014-0.462,5.505
		c0.191,0.7,1.162,0.641,1.162-0.182c0-0.018,0-0.035,0-0.051c0-1.628,0.498-3.274,1.013-4.816c2.418-2.404,6.383-4.46,9.739-3.198
		c0.834,0.313,1.24-1.021,0.415-1.332c-1.229-0.461-2.499-0.539-3.782-0.341c0.115-0.393-0.274-0.843-0.681-0.887
		C39.962,71.725,38.158,73.014,36.854,74.246z"/>
	<path fill="#FF44D2" d="M70.534,15.485c-0.816,0.323-0.461,1.657,0.367,1.33c0.863-0.343,1.683-0.519,2.62-0.348
		c0.824,0.149,1.237,1.209,1.855,1.66c1.128,0.823,2.6,1.088,3.486,2.223c0.548,0.701,1.517-0.283,0.977-0.976
		c-1.16-1.483-3.134-1.732-4.371-3.173C74.192,14.714,72.224,14.815,70.534,15.485z"/>
	<path fill="#FF44D2" d="M82.454,25.636c2.142,0.928,2.431,2.569,2.44,4.687c0.01,2.5-0.19,5.193-0.193,7.193c0,1,1.381,1,1.382,0
		c0-3,0.41-5.882,0.108-8.922c-0.2-2.011-1.155-3.493-3.04-4.309C82.343,23.934,81.641,25.282,82.454,25.636z"/>
	<path fill="#FF44D2" d="M61.318,25.727c-0.528,0.772-1.076,1.527-1.554,2.331c-0.506,0.849-0.662,1.885-1.123,2.763
		c-0.163,0.312-0.979,0.103-1.431,0.171c-1.162,0.179-1.688,1.255-3.008,0.12c-0.672-0.576-1.653,0.395-0.976,0.975
		c0.691,0.594,1.491,1.268,2.483,1.041c0.487-0.11,0.881-0.288,1.319-0.533c0.707-0.394,0.857-0.135,1.529-0.14
		c0.809-0.007,1.175-0.744,1.508-1.384c0.385-0.73,0.557-1.566,0.891-2.316c0.367-0.83,1.043-1.585,1.553-2.332
		C63.013,25.688,61.817,25,61.318,25.727z"/>
	<path fill="#FF44D2" d="M81.085,57.413c0.229,0.422,0.311,0.891,0.353,1.363c-0.01-0.126-0.63,0.644-0.611,0.616
		c-0.198,0.302-0.12,0.798-0.096,1.125c0.058,0.757-0.254,1.345-0.648,1.957c-0.34,0.529,0.203,1.313-0.185,1.7
		c-1.565,1.562-2.959-0.55-4.031-1.554c-0.648-0.609-1.625,0.365-0.975,0.975c0.772,0.724,1.48,1.463,2.22,2.211
		c0.487,0.493,0.95,0.615,1.634,0.581c1.065-0.051,2.699-1.284,2.751-2.395c0.013-0.25-0.137-0.558-0.162-0.799
		c-0.008-0.095,0.449-0.749,0.51-0.859c0.33-0.592-0.032-2.174,0.381-2.47c1.007-0.727,0.558-2.208,0.052-3.148
		C81.853,55.934,80.662,56.631,81.085,57.413z"/>
	<path fill="#FF44D2" d="M20.21,76.98c1.87,0.748,3.925,0.434,5.739,1.384c1.759,0.919,3.679,1.321,5.49,2.084
		c0.81,0.343,1.514-0.846,0.696-1.191c-1.975-0.834-4.041-1.329-5.956-2.331c-1.742-0.911-3.802-0.556-5.603-1.277
		C19.75,75.318,19.396,76.653,20.21,76.98z"/>
	<path fill="#FF44D2" d="M45.97,79.151c-0.238,0.895-0.801,2.237-1.879,2.375c-0.59,0.074-1.422-0.168-1.947,0.235
		c-1.34,1.025-1.007,3.212-3.104,3.444c-0.875,0.095-0.884,1.478,0,1.381c0.966-0.108,1.672-0.471,2.403-1.11
		c0.698-0.61,0.904-2.505,1.811-2.578c0.876-0.068,1.738,0.073,2.435-0.603c0.789-0.768,1.33-1.714,1.612-2.776
		C47.53,78.658,46.198,78.292,45.97,79.151z"/>
	<path fill="#FF44D2" d="M30.494,20.121c-0.61-0.016-0.8,0.625-0.576,1.04c-0.026,0.36,0.194,0.754,0.662,0.771
		c1.348,0.054,2.497,0.645,3.544,1.462c0.378,0.294,0.734,0.625,1.097,0.939c0.386,0.338,0.546,0.905,0.913,1.282
		c0.622,0.638,1.597-0.34,0.975-0.976c-0.009-0.01-0.019-0.021-0.028-0.032c0.316-0.167,0.529-0.545,0.309-0.95
		c-0.729-1.339-1.815-2.412-3.089-3.237c-0.525-0.339-1.335-0.749-1.976-0.72C31.699,19.729,31.09,20.136,30.494,20.121z"/>
	<path fill="#FF44D2" d="M35.928,43.263c-0.31,0.205-0.568,0.454-0.784,0.735c-0.09,0.078-0.166,0.178-0.209,0.302
		c-0.164,0.263-0.294,0.547-0.401,0.842c-1.695,1.732-1.707,3.42-0.406,5.453c0.493,0.771,0.556,1.951,1.424,2.459
		c0.786,0.459,1.824,0.021,2.634-0.158c0.235-0.05,0.378-0.186,0.445-0.351c0.336-0.341,0.327-1.017-0.271-1.152
		c-0.907-0.205-1.52-0.634-2.143-1.302c-0.015-0.015-0.035-0.035-0.05-0.051c0.197-0.301,0.186-0.714-0.232-0.909
		c-0.031-0.014-0.058-0.034-0.084-0.055c-0.03-0.202-0.044-0.418-0.043-0.653c0.001-0.735,0.071-1.51,0.196-2.23
		c0.124-0.727,0.689-1.442,0.939-2.152C37.142,43.475,36.421,42.938,35.928,43.263z"/>
	<path fill="#7F0869" d="M51.987,54.907c-0.016,1.557,0.251,2.794,1.941,3.167c1.097,0.243,2.004-0.036,2.963,0.746
		c0.652,0.532,1.717,1.369,1.853,2.226c0.141,0.877,1.47,0.503,1.332-0.366c-0.198-1.24-1.658-2.535-2.657-3.198
		c-0.69-0.456-1.36-0.646-2.181-0.699c-0.448-0.03-0.854-0.02-1.298-0.118c-0.765-0.168-0.578-1.221-0.572-1.758
		C53.376,54.018,51.997,54.018,51.987,54.907z"/>
	<path fill="#FF44D2" d="M70.707,50.393c-0.212-0.067-1.818,2.131-2.101,2.55c-0.451,0.673-0.781,1.583-0.812,2.396
		c-0.033,0.838-0.092,1.524-0.637,2.222c-0.794,0.623-1.485,0.633-2.069,0.029c-0.218-0.531-0.22-1.047-0.006-1.551
		c0.239-0.858-1.093-1.223-1.33-0.366c-0.4,1.441-0.276,3.417,1.691,3.698c1.962,0.28,3.203-0.97,3.649-2.813
		c0.31-1.281,0.161-2.419,1.124-3.481c0.442-0.489,0.868-0.982,1.259-1.512c0.663-0.897,0.856-2.104-0.402-2.502
		C70.224,48.793,69.862,50.126,70.707,50.393z"/>
	<path fill="#610650" d="M61.655,35.831c0.008,1.108-2.045,1.142-2.545,1.97c-0.571,0.947-0.122,1.791,0.662,2.449
		c0.878,0.737,1.999,0.895,3.042,0.469c0.527-0.215,0.958-0.532,1.509-0.63c-0.017,0.046-0.042,0.122-0.093,0.252
		c-0.022,0.051-0.037,0.105-0.047,0.159c-0.544,0.312-0.45,1.283,0.319,1.286c0.984,0.004,1.726-1.121,2.674-0.612
		c0.784,0.421,1.479-0.77,0.696-1.191c-0.475-0.254-0.957-0.547-1.515-0.47c-0.169,0.023-0.332,0.093-0.492,0.181
		c0.024-0.231-0.028-0.459-0.253-0.684c-0.585-0.587-1.763-0.34-2.409-0.022c-0.776,0.383-1.402,0.811-2.279,0.383
		c-1.145-0.561-0.065-1.134,0.526-1.397c0.946-0.422,1.592-1.072,1.584-2.142C63.03,34.941,61.65,34.94,61.655,35.831z"/>
</g>
</svg>
