<?xml version="1.0" encoding="utf-8"?>
<!-- Generator: Adobe Illustrator 15.1.0, SVG Export Plug-In . SVG Version: 6.00 Build 0)  -->
<!DOCTYPE svg PUBLIC "-//W3C//DTD SVG 1.1//EN" "http://www.w3.org/Graphics/SVG/1.1/DTD/svg11.dtd">
<svg version="1.1" id="Layer_1" xmlns="http://www.w3.org/2000/svg" xmlns:xlink="http://www.w3.org/1999/xlink" x="0px" y="0px"
	 width="55.804px" height="66.517px" viewBox="0 0 55.804 66.517" enable-background="new 0 0 55.804 66.517" xml:space="preserve">
<g>
	<path fill="#F7931E" d="M44.188,30.833c-1.891-2.817-5.393-4.562-8.639-5.168c-1.832-0.344-4.583-0.61-6.629,0.116
		c-1.834-2.311-6.073-2.355-8.722-2.086c-4.764,0.485-8.749,3.351-11.302,7.301c-2.866,4.433-4.419,9.777-4.766,15.016
		c-0.103,1.552-0.012,3.043,0.378,4.479c0.278,1.601,0.941,3.099,1.928,4.389c2.662,4.218,8.838,6.042,14.436,6.047
		c2.411,1.28,5.616,1.54,8.083,1.619c2.952,0.093,6.418-0.258,9.092-1.77c2.378-0.938,4.443-2.52,5.8-4.833
		c0.26-0.119,0.486-0.328,0.616-0.65C47.396,48.021,48.834,37.752,44.188,30.833z"/>
	<path fill="#654525" d="M26.29,5.441c-0.653,0.244-1.127,1.021-0.686,1.687c1.439,2.167,1.948,5.282,2.233,7.841
		c0.322,2.905,0.2,5.852,0.151,8.775c-0.122,0.528-0.259,1.049-0.434,1.548c-0.462,1.319,1.479,1.925,2.111,0.829
		c0.341-0.164,0.6-0.49,0.602-0.983c0.003-0.621,0.019-1.253,0.04-1.892C31.211,17.017,31.718,3.415,26.29,5.441z"/>
	<path fill="#8CC63F" d="M51.502,10.164c-0.535-1.944-3.277-2.296-4.918-2.398c-4.879-0.31-10.029,0.605-13.98,3.594
		c-0.933,0.706-1.734,1.536-2.429,2.457c-0.592,0.475-1.073,1.021-1.299,1.659c-1.11,3.13,4.356,3.01,6.048,3.01
		c4.829,0.007,9.516-0.549,13.355-3.725C49.298,13.919,51.944,11.77,51.502,10.164z"/>
</g>
</svg>
