<?xml version="1.0" encoding="utf-8"?>
<!-- Generator: Adobe Illustrator 15.1.0, SVG Export Plug-In . SVG Version: 6.00 Build 0)  -->
<!DOCTYPE svg PUBLIC "-//W3C//DTD SVG 1.1//EN" "http://www.w3.org/Graphics/SVG/1.1/DTD/svg11.dtd">
<svg version="1.1" id="Layer_1" xmlns="http://www.w3.org/2000/svg" xmlns:xlink="http://www.w3.org/1999/xlink" x="0px" y="0px"
	 width="55.804px" height="66.517px" viewBox="0 0 55.804 66.517" enable-background="new 0 0 55.804 66.517" xml:space="preserve">
<g>
	<path fill="#ED1C24" d="M33.236,23.044c-0.883-0.028-1.792-0.022-2.73,0.013c-0.287,0.012-0.537,0.077-0.761,0.172
		c-0.417-0.385-0.913-0.689-1.459-0.931c-1.749-2.327-5.17-2.706-8.168-2.219c-1.966,0.319-3.85,1.068-5.491,2.151
		c-0.712,0.224-1.41,0.511-2.089,0.893c-1.394,0.784-2.148,2.154-2.968,3.464c-4.328,3.954-6.779,10.127-6.933,16.079
		c-0.003,0.113,0.011,0.217,0.023,0.319c-0.442,4.236,0.072,8.822,2.728,12c1.115,2.237,2.693,4.192,4.839,5.544
		c1.405,0.998,3.146,1.661,4.961,1.93c3.697,0.825,7.829,0.613,10.832-1.521c5.307,3.781,13.803,4.72,18.941,0.746
		c1.988-1.01,4.003-2.426,4.568-4.435c0.884-1.353,1.439-2.916,1.784-4.56C56.39,40.164,45.843,17.023,33.236,23.044z"/>
	<path fill="#654525" d="M27.551,3.351c-0.654,0.244-1.127,1.022-0.687,1.687c1.439,2.167,1.949,5.282,2.233,7.842
		c0.323,2.904,0.201,5.851,0.152,8.775c-0.122,0.527-0.26,1.048-0.435,1.548c-0.461,1.319,1.48,1.924,2.112,0.828
		c0.341-0.164,0.6-0.488,0.602-0.982c0.003-0.622,0.019-1.253,0.04-1.892C32.472,14.926,32.979,1.325,27.551,3.351z"/>
	<path fill="#8CC63F" d="M52.764,8.072c-0.534-1.942-3.277-2.295-4.919-2.397c-4.878-0.31-10.028,0.606-13.979,3.595
		c-0.934,0.706-1.734,1.535-2.429,2.455c-0.593,0.475-1.073,1.022-1.3,1.66c-1.11,3.13,4.356,3.009,6.048,3.012
		c4.83,0.006,9.516-0.551,13.355-3.725C50.559,11.828,53.205,9.679,52.764,8.072z"/>
</g>
</svg>
