<?xml version="1.0" encoding="utf-8"?>
<!-- Generator: Adobe Illustrator 15.1.0, SVG Export Plug-In . SVG Version: 6.00 Build 0)  -->
<!DOCTYPE svg PUBLIC "-//W3C//DTD SVG 1.1//EN" "http://www.w3.org/Graphics/SVG/1.1/DTD/svg11.dtd">
<svg version="1.1" id="Layer_1" xmlns="http://www.w3.org/2000/svg" xmlns:xlink="http://www.w3.org/1999/xlink" x="0px" y="0px"
	 width="145.634px" height="100.598px" viewBox="0 0 145.634 100.598" enable-background="new 0 0 145.634 100.598"
	 xml:space="preserve">
<g>
	<path fill="#D18E2C" d="M142.734,43.909c-0.531-5.549-4.115-10.285-10.018-10.188c-3.443,0.058-6.619,1.466-9.82,2.627
		c-1.152-3.144-3.266-5.783-5.895-7.989c-1.689-1.965-3.803-3.783-6.184-4.71c-12.643-9.017-29.152-10.101-44.377-10.153
		c-9.806-0.033-19.871,1.143-28.887,5.162c-0.84-0.164-1.716,0.004-2.524,0.411c-0.817,0.091-1.619,0.448-2.282,1.033
		c-0.406,0.358-0.757,0.742-1.061,1.146c-1.893,1.112-4.057,2.228-5.766,3.505c-3.028,2.266-4.999,5.06-5.836,8.619
		c-0.277-0.061-0.564-0.088-0.859-0.063c-2.336,0.191-4.48-0.649-6.952-0.783c-3.193-0.174-5.613,1.815-7.349,4.268
		c-1.364,1.924-2.112,4.415-2.506,6.716c-0.398,2.324-0.672,5.033,0.142,7.302c2.896,8.078,13.765,8.299,21.063,8.306
		c0.315,1.053,0.643,2.102,0.986,3.146c1.164,3.533,2.577,6.961,4.171,10.312c-0.012,0.185-0.002,0.379,0.054,0.589
		c0.936,3.51,2.5,6.723,4.536,9.705c1.457,3.185,3.533,6.015,6.577,8.055c2.721,1.825,6.373,2.477,9.516,3.156
		c2.48,0.537,4.911,0.599,7.368,0.56c0.979,0.104,1.963,0.193,2.954,0.285c1.058,0.097,2.12,0.162,3.18,0.182
		c1.331,0.209,2.672,0.358,4.032,0.406C71.839,96.77,77,96.519,81.964,96.236c1.908-0.109,3.802-0.331,5.682-0.634
		c2.239,0.151,4.483,0.456,6.743,0.416c3.353-0.058,6.678-1.079,9.931-1.813c2.916-0.658,5.752-1.644,8.267-3.284
		c2.208-1.441,3.503-3.776,4.71-6.04c0.15-0.228,0.258-0.496,0.293-0.816c0.373-3.45,1.776-6.96,2.582-10.345
		c0.738-3.104,1.377-6.215,1.629-9.392c0.432-2.739,0.655-5.49,0.684-8.243c3.9,1.193,8.193,0.995,11.992-0.562
		C139.255,53.564,143.262,49.438,142.734,43.909z M20.387,51.692c-0.811-0.027-1.62-0.075-2.428-0.137
		c-0.357-0.027-0.714-0.062-1.07-0.098c-0.201-0.021-0.402-0.045-0.604-0.069c-0.055-0.008-0.119-0.017-0.203-0.029
		c-1.398-0.209-2.776-0.54-4.109-1.013c-0.1-0.047-0.503-0.21-0.565-0.24c-0.37-0.182-0.719-0.398-1.063-0.624
		c-0.01-0.007-0.017-0.01-0.026-0.017c-0.035-0.033-0.08-0.077-0.15-0.141c-0.129-0.12-0.25-0.246-0.369-0.376
		c-0.057-0.097-0.16-0.291-0.221-0.396c-0.05-0.175-0.099-0.334-0.103-0.242c-0.062-0.732-0.043-1.472-0.001-2.203
		c-0.002,0.036,0.087-0.743,0.083-0.793c0.081-0.503,0.192-1.001,0.312-1.496c0.211-0.867,0.554-1.764,0.803-2.262
		c0.353-0.706,0.589-1.208,0.947-1.478c0.11-0.084,0.176-0.139,0.217-0.178c0.035,0.009,0.121,0.002,0.307-0.045
		c-0.821,0.208,1.01,0.128,0.314,0.028c2.27,0.324,4.445,0.989,6.768,0.799c0.121-0.01,0.239-0.024,0.358-0.043
		c0.158,2.788,0.667,5.535,1.349,8.357c0.219,0.908,0.444,1.814,0.671,2.72C21.199,51.71,20.793,51.705,20.387,51.692z
		 M135.371,45.539c0.061-0.688-0.051-0.169-0.137,0.215c-0.064,0.11-0.275,0.613-0.35,0.736c-0.055,0.079-0.095,0.139-0.122,0.18
		c-0.073,0.083-0.144,0.169-0.22,0.249c-0.23,0.254-0.49,0.479-0.752,0.7c0.275-0.249-0.578,0.365-0.702,0.439
		c-0.318,0.192-0.652,0.355-0.987,0.515c0.298-0.151-0.703,0.258-0.831,0.301c-0.426,0.141-0.862,0.249-1.298,0.352
		c-0.109,0.026-0.9,0.159-0.948,0.181c-0.354,0.036-0.712,0.061-1.069,0.076c-0.439,0.021-0.879,0.008-1.318-0.011
		c-0.113-0.004-0.713-0.081-0.881-0.097c-0.314-0.062-0.627-0.135-0.936-0.219c-0.183-0.049-1.373-0.52-0.503-0.136
		c-0.323-0.142-0.653-0.248-0.985-0.322c0.38-1.624,0.609-3.255,0.484-4.875c2.625-0.885,5.168-2.022,7.887-2.606
		c0.08-0.018,0.345-0.06,0.496-0.086c0.263-0.021,0.526-0.035,0.791-0.039c0.107-0.002,0.38,0.028,0.573,0.051
		c0.127,0.038,0.268,0.083,0.365,0.111c0.093,0.06,0.188,0.122,0.257,0.165c0.149,0.166,0.318,0.364,0.338,0.37
		c0.17,0.276,0.312,0.57,0.451,0.861c-0.272-0.572,0.205,0.782,0.244,0.927C135.447,44.421,135.461,44.489,135.371,45.539z"/>
	<path fill="#654525" d="M115.5,22.018c-1.51-1.513-3.228-2.854-5.054-4.061c-1.014-0.793-2.124-1.494-3.142-2.203
		c0.935,0.65-0.894-0.624-1.007-0.695c-0.502-0.316-1.012-0.621-1.521-0.925c-1-0.598-2.02-1.165-3.041-1.726
		c-2.174-1.192-4.389-2.31-6.591-3.448c-3.932-2.032-7.741-4.346-12.054-5.486c-4.283-1.135-8.632-1.85-13-0.85
		c-0.001,0-0.003,0-0.004,0c-5.035,0-10.246,0.045-14.973,1.842c-4.539,1.729-8.897,4.003-13.049,6.516
		c-3.311,2.004-6.612,4.289-9.469,6.949c-1.086,0.562-2.124,1.257-3.073,2.156c-0.342,0.324-0.592,0.703-0.764,1.101
		c-0.381,0.172-0.745,0.42-1.079,0.755c-1.316,1.315-1.556,3.938,0,5.215c6.359,5.215,14.025,7.896,22.031,9.376
		c4.087,0.755,8.229,1.227,12.359,1.672c3.63,0.392,7.303,1.005,10.948,1.177c0.034,0.001,0.069,0.001,0.104,0.003
		c1.94,0.396,3.887,0.51,5.837,0.464c0.751,0.103,1.512,0.17,2.275,0.208c0.964,0.188,1.928,0.379,2.893,0.565
		c3.171,0.614,6.37,1.146,9.595,1.37c3.938,0.272,7.809-0.208,11.152-1.805c2.911-0.445,5.752-1.31,8.301-2.737
		c2.497-1.398,4.65-3.714,5.334-6.541C119.308,27.612,117.8,24.324,115.5,22.018z"/>
	<path fill="#FFFFFF" d="M49.649,18.019c-0.312-0.533-0.944-0.643-1.471-0.386c-0.622,0.304-1.458,0.516-2.061,1.091
		c-0.425,0.403-0.407,1.113,0,1.521c0.421,0.421,1.096,0.403,1.52,0c0.017-0.018,0.036-0.032,0.053-0.049
		c-0.018,0.022,0.101-0.067,0.135-0.087c0.021-0.012,0.043-0.021,0.064-0.032c0.038-0.018,0.126-0.058,0.149-0.066
		c0.413-0.161,0.825-0.325,1.224-0.52C49.79,19.234,49.928,18.497,49.649,18.019z"/>
	<path fill="#FFFFFF" d="M57.903,11.496c-0.587,0-1.001,0.489-1.001,1.075v0.922c0,0.586,0.414,1.075,1.001,1.075
		c0.586,0,0.999-0.489,0.999-1.075v-0.922C58.902,11.985,58.489,11.496,57.903,11.496z"/>
	<path fill="#FFFFFF" d="M69.902,7.808c-0.586,0-1,0.489-1,1.076v1.843c0,0.587,0.414,1.075,1,1.075s1-0.488,1-1.075V8.884
		C70.902,8.297,70.488,7.808,69.902,7.808z"/>
	<path fill="#FFFFFF" d="M85.318,10.142c-0.016-0.008-0.03-0.017-0.045-0.025c0.05-0.005-0.015-0.02-0.002-0.001
		c-0.035-0.021-0.072-0.041-0.107-0.062c-0.016-0.011-0.118-0.084-0.143-0.1c-0.058-0.047-0.114-0.095-0.17-0.142
		c-0.281-0.242-0.545-0.505-0.807-0.767c-0.982-0.981-2.502,0.539-1.521,1.521c0.713,0.714,1.536,1.623,2.603,1.698
		c0.586,0.041,1.076-0.521,1.076-1.076C86.203,10.64,85.814,10.25,85.318,10.142z"/>
	<path fill="#FFFFFF" d="M101.095,18.262c-0.603-0.574-1.439-0.786-2.061-1.09c-0.526-0.257-1.159-0.147-1.471,0.386
		c-0.279,0.478-0.141,1.214,0.385,1.472c0.398,0.194,0.811,0.36,1.225,0.52c0.057,0.021,0.111,0.043,0.168,0.066
		c-0.245-0.099,0.004,0.011,0.045,0.032c0.018,0.01,0.033,0.021,0.05,0.029c0.013,0.012,0.112,0.08,0.139,0.106
		c0.425,0.403,1.099,0.421,1.521,0C101.502,19.376,101.519,18.667,101.095,18.262z"/>
	<path fill="#FFFFFF" d="M111.791,27.18c-0.053-0.163-0.109-0.325-0.16-0.489c-0.028-0.09-0.01-0.182-0.033-0.272
		c-0.001-0.009,0.039-0.014,0.039-0.021c0-0.001,0-0.001,0-0.001c-0.499-0.586-0.514-1.075-1.119-1.075
		c-0.566,0-1.123,0.488-1.097,1.075c0.016,0.367,0.096,0.712,0.208,1.06c0.054,0.163,0.104,0.325,0.154,0.489
		c0.029,0.09-0.059,0.181-0.035,0.272c0.002,0.008-0.105,0.014-0.105,0.021v0.001c0,0.586,0.578,1.075,1.184,1.075
		c0.566,0,1.155-0.489,1.13-1.075C111.939,27.873,111.904,27.527,111.791,27.18z"/>
	<path fill="#FFFFFF" d="M102.478,28.863c-0.395-0.435-1.121-0.4-1.521,0c-0.429,0.428-0.396,1.087,0,1.52
		c-0.158-0.174,0.039,0.141,0.034,0.074c0.04,0.115,0.066,0.236,0.088,0.356c-0.016-0.06,0.016,0.22,0.018,0.258
		c0.006,0.132,0.006,0.264,0.006,0.395c0,0.587,0.489,1.076,1.076,1.076c0.586,0,1.075-0.489,1.075-1.076
		C103.253,30.527,103.134,29.583,102.478,28.863z"/>
	<path fill="#FFFFFF" d="M90.204,19.82c-0.257-0.527-0.995-0.643-1.472-0.364c-0.534,0.313-0.641,0.912-0.386,1.44
		c0.31,0.637,0.313,0.729,0.313,1.729c0.002,1,2.152,1,2.151,0S90.658,20.755,90.204,19.82z"/>
	<path fill="#FFFFFF" d="M74.902,16.104c-0.586,0-1,0.489-1,1.075v0.922c0,0.587,0.414,1.075,1,1.075s1-0.488,1-1.075v-0.922
		C75.902,16.593,75.488,16.104,74.902,16.104z"/>
	<path fill="#FFFFFF" d="M39.657,25.014c0-0.569-0.49-1.098-1.076-1.075c-0.452,0.017-0.79,0.172-1.129,0.457
		c-0.016,0.014-0.03,0.029-0.045,0.044c-0.467,0.121-0.823,0.521-0.823,1.034c0,0.57,0.489,1.098,1.075,1.076
		c0.452-0.017,0.79-0.173,1.13-0.458c0.016-0.013,0.03-0.028,0.045-0.043C39.301,25.927,39.657,25.527,39.657,25.014z"/>
	<path fill="#FFFFFF" d="M61.902,22.095c-0.586,0-1,0.488-1,1.075v0.922c0,0.586,0.414,1.075,1,1.075c0.587,0,1-0.489,1-1.075V23.17
		C62.902,22.583,62.489,22.095,61.902,22.095z"/>
	<path fill="#FFFFFF" d="M49.902,25.322c-0.586,0-1,0.488-1,1.075v1.843c0,0.587,0.414,1.075,1,1.075c0.586,0,1-0.488,1-1.075
		v-1.843C50.902,25.81,50.488,25.322,49.902,25.322z"/>
	<path fill="#FFFFFF" d="M77.131,30.706c-0.616-0.615-1.282-1.152-2.061-1.551c-0.522-0.268-1.163-0.141-1.472,0.386
		c-0.283,0.484-0.135,1.204,0.386,1.472c0.2,0.103,0.396,0.211,0.587,0.329c0.066,0.042,0.133,0.086,0.198,0.132
		c-0.001-0.001,0.129,0.098,0.167,0.125c0.238,0.194,0.457,0.411,0.674,0.628C76.592,33.208,78.113,31.687,77.131,30.706z"/>
	<path fill="#FFFFFF" d="M90.74,30.998c-0.522-0.266-1.163-0.141-1.472,0.387c-0.283,0.483-0.137,1.205,0.386,1.472
		c0.181,0.091,0.357,0.188,0.529,0.296c0.044,0.027,0.084,0.057,0.127,0.087c0.023,0.019,0.09,0.07,0.111,0.09
		c0.035,0.032,0.066,0.066,0.098,0.102c0.074,0.529,0.501,0.954,1.061,0.954c0.57,0,1.096-0.489,1.075-1.075
		C92.615,32.177,91.666,31.469,90.74,30.998z"/>
	<path fill="#FFFFFF" d="M61.271,32.528c0.536-0.07,0.968-0.497,0.968-1.062c0-0.569-0.489-1.096-1.076-1.075
		c-0.637,0.023-1.232,0.332-1.682,0.776c-0.417,0.412-0.413,1.108,0,1.521c0.416,0.416,1.104,0.412,1.52,0
		c0.015-0.014,0.03-0.027,0.045-0.041c0.001-0.001,0.002-0.002,0.002-0.002c0.056-0.039,0.113-0.073,0.172-0.105
		C61.238,32.535,61.255,32.531,61.271,32.528z"/>
</g>
</svg>
