<?xml version="1.0" encoding="utf-8"?>
<!-- Generator: Adobe Illustrator 15.1.0, SVG Export Plug-In . SVG Version: 6.00 Build 0)  -->
<!DOCTYPE svg PUBLIC "-//W3C//DTD SVG 1.1//EN" "http://www.w3.org/Graphics/SVG/1.1/DTD/svg11.dtd">
<svg version="1.1" id="Layer_1" xmlns="http://www.w3.org/2000/svg" xmlns:xlink="http://www.w3.org/1999/xlink" x="0px" y="0px"
	 width="113.937px" height="65.625px" viewBox="0 0 113.937 65.625" enable-background="new 0 0 113.937 65.625"
	 xml:space="preserve">
<g>
	<path fill="#C73FB6" d="M110.244,27.051c0.004-0.3-0.036-0.569-0.097-0.823c0.167-0.85-0.022-1.777-0.796-2.586
		c-7.476-7.833-18.701-14.304-29.26-16.689C70.096,4.694,58.859,2.015,48.562,4.17c-1.603-0.017-3.199,0.104-4.771,0.428
		c-3.693,0.762-7.36,1.359-11.098,1.865c-3.841,0.52-6.445,2.774-10.034,3.694c-0.655,0.167-1.139,0.488-1.488,0.886
		c-5.604,2.383-10.839,5.532-15.38,9.306c-0.066,0.056-0.117,0.116-0.178,0.173c-0.488,0.354-0.882,0.887-1.076,1.642
		c-1.053,4.073-1.164,8.184-0.641,12.244C3.484,39.898,4.16,45.245,8.22,48.359c4.829,3.703,10.74,5.85,16.899,7.292
		c3.178,1.247,6.382,2.421,9.671,3.381c7.371,2.151,14.47,2.154,21.575,1.446c0.366,0.193,0.795,0.319,1.283,0.353
		c16.606,1.146,39-3.447,50.917-16.102c0.951-1.01,1.019-2.197,0.604-3.191c0.359-1.997,0.396-4.019,0.512-6.059
		C109.841,32.666,110.198,29.874,110.244,27.051z M64.941,22.868c-5.212,2.738-17.688,5.327-22.436,1.732
		c2.466-3.17,8.906-4.048,12.477-4.217c1.946-0.092,3.854,0.283,5.729,0.736c1.35,0.355,2.615,0.901,3.792,1.637
		C65.958,22.299,66.103,22.336,64.941,22.868z"/>
	<path fill="#A22E84" d="M43.912,15.855c0.013-0.031,0.023-0.062,0.032-0.093c0.09-0.287-0.006-0.544-0.198-0.722
		c-0.029-0.03-0.063-0.053-0.096-0.079c-0.022-0.016-0.041-0.034-0.064-0.046c-0.158-0.104-0.341-0.145-0.527-0.105
		c-0.214-0.191-0.523-0.266-0.845-0.07c-1.331,0.804-2.53,2.095-3.017,3.591c-0.133,0.41,0.153,0.811,0.532,0.937
		c0.226,0.075,0.441,0.097,0.647,0.081c0.264,0.178,0.607,0.201,0.879-0.12c0.24-0.286,0.489-0.568,0.736-0.85
		c0.076-0.083,0.15-0.168,0.223-0.256c0.604-0.691,1.195-1.393,1.667-2.183C43.898,15.911,43.898,15.884,43.912,15.855z"/>
	<path fill="#A22E84" d="M30.125,17.719c-0.012-0.007-0.023-0.005-0.037-0.011c-0.17-0.157-0.342-0.312-0.517-0.465
		c-0.015-0.022-0.029-0.047-0.043-0.069c-0.497-0.769-1.058-1.565-1.912-1.963c-0.411-0.193-0.774-0.083-1.042,0.273
		c-0.81,1.072-0.548,2.028,0.415,2.873c1.027,0.901,1.807,2.183,2.994,2.873c0.207,0.121,0.4,0.132,0.57,0.084
		c0.317,0.155,0.659,0.281,1.068,0.334c0.427,0.056,0.743-0.389,0.762-0.762C32.458,19.417,31.33,18.365,30.125,17.719z"/>
	<path fill="#A22E84" d="M39.423,28.121c-0.022-0.273-0.189-0.523-0.544-0.601c-2.15-0.476-5.185-2.094-7.17-0.431
		c-0.25,0.209-0.256,0.597-0.11,0.895c-0.104,0.31-0.06,0.682,0.266,0.928c1.202,0.914,2.997,0.348,4.386,0.7
		c1.063,0.27,3.097,0.788,3.318-0.841C39.604,28.51,39.551,28.293,39.423,28.121z"/>
	<path fill="#A22E84" d="M17.891,22.072c-0.33-0.267-0.592-0.423-0.946-0.494c-0.173-0.364-0.603-0.635-1.072-0.409
		c-1.831,0.879-3.933,1.392-5.53,2.69c-0.622,0.507-1.595,2.016-0.409,2.552c1.318,0.596,2.35-0.136,3.457-0.836
		c1.387-0.877,3.025-1.361,4.347-2.307C18.098,23.01,18.304,22.407,17.891,22.072z"/>
	<path fill="#A22E84" d="M20.396,30.794c0.131-0.453-0.094-0.999-0.69-0.949c-0.029,0.002-0.048,0.014-0.076,0.017
		c-0.153-0.024-0.311-0.016-0.466,0.087c-0.013,0.008-0.021,0.02-0.034,0.027c-1.104,0.284-1.668,1.046-1.884,2.31
		c-0.159,0.938,0.293,2.012,0.527,2.902c0.322,1.229,0.108,2.532,0.413,3.774c0.003,0.011,0.014,0.014,0.017,0.025
		c0.043,0.149,0.122,0.268,0.232,0.351c0.038,0.031,0.078,0.048,0.123,0.07c0.08,0.039,0.165,0.062,0.256,0.072
		c0.056,0.006,0.102,0.013,0.158,0.007c0.132-0.009,0.257-0.051,0.369-0.12c0.009-0.005,0.016-0.007,0.023-0.013
		c0.124-0.082,0.218-0.202,0.268-0.359c0.005-0.014,0.02-0.019,0.024-0.032c0.339-1.057,0.171-2.257,0.082-3.348
		c0.037-0.611,0.097-1.216,0.229-1.78C20.192,32.873,20.605,31.792,20.396,30.794z"/>
	<path fill="#A22E84" d="M30.934,41.181c0.003-0.01,0.009-0.014,0.012-0.024c0.325-1.134-0.296-2.365-0.854-3.321
		c-0.566-0.969-1.485-2.232-2.658-2.477c-0.599-0.125-1.168,0.461-0.894,1.04c-0.118,0.2-0.144,0.447,0.033,0.707
		c1.048,1.534,1.86,3.217,2.979,4.704c0.508,0.674,1.589,0.3,1.393-0.587C30.943,41.208,30.937,41.195,30.934,41.181z"/>
	<path fill="#A22E84" d="M57.851,9.333c-2.54-1.003-5.341-1.113-8.042-1.125c-0.426-0.002-0.655,0.285-0.711,0.609
		c-0.573,0.072-0.928,0.986-0.3,1.438c1.338,0.961,3.314,0.488,4.86,0.763c1.442,0.255,3.326,0.656,4.529-0.411
		C58.658,10.188,58.342,9.526,57.851,9.333z"/>
	<path fill="#A22E84" d="M60.205,15.291c-0.514-0.08-0.862,0.302-0.935,0.699c-0.331,0.427-0.142,1.243,0.574,1.268
		c1.35,0.048,2.773,0.407,4.042,0.876c0.943,0.35,1.811,0.92,2.857,0.849c0.413-0.028,0.763-0.325,0.762-0.762
		C67.495,14.792,62.371,15.628,60.205,15.291z"/>
	<path fill="#A22E84" d="M81.105,14.365c-0.212-0.586-1.223-0.72-1.456,0.046c-0.742,2.441-2.134,4.796-2.065,7.415
		c0.014,0.514,0.475,0.841,0.964,0.734c1.283-0.277,1.724-1.871,2.017-2.961c0.409-1.523,0.551-3.111,0.738-4.672
		C81.333,14.67,81.246,14.486,81.105,14.365z"/>
	<path fill="#A22E84" d="M103.371,25.943c-0.686-1.034-1.532-2.08-2.485-2.885c-0.029-0.782-1.263-1.052-1.48-0.18
		c-0.48,1.933,1.28,3.573,2.292,5.125c0.043,0.303,0.083,0.607,0.147,0.91c0.308,1.456,1.611,1.284,2.335,0.253
		C104.855,28.208,103.89,26.728,103.371,25.943z"/>
	<path fill="#A22E84" d="M103.179,39.862c0.107-0.603-0.471-1.275-1.071-0.819c-1.463,1.108-2.066,2.79-2.891,4.368
		c-0.543,1.04-1.857,2.34-1.146,3.573c0.796,1.378,2.006-0.013,2.452-0.784c1.054-1.826,2.53-3.406,3.017-5.513
		C103.628,40.304,103.443,40.017,103.179,39.862z"/>
	<path fill="#A22E84" d="M96.215,33.179c-0.631-1.095-1.398-2.198-2.278-3.111c-0.497-0.515-1.191-0.084-1.278,0.46
		c-0.421,0.202-0.686,0.794-0.27,1.245c1.146,1.241,1.672,2.934,2.366,4.439c0.462,1.004,1.732,1.615,2.271,0.296
		C97.491,35.371,96.777,34.151,96.215,33.179z"/>
	<path fill="#A22E84" d="M84.59,47.708c-0.601-1.268-0.761-2.67-1.275-3.976c-0.247-0.624-1.016-0.621-1.356-0.264
		c-1.296,0.532-1.052,2.422-0.677,3.63c0.366,1.18,1.415,3.739,3.022,3.556c0.335-0.038,0.648-0.204,0.735-0.56
		C85.25,49.224,84.962,48.493,84.59,47.708z"/>
	<path fill="#A22E84" d="M10.053,38.065c-0.455-0.397-1.065-0.215-1.274,0.336c-0.75,1.993-0.009,4.797,0.783,6.676
		c0.284,0.673,1.192,0.614,1.457,0.156c0.261-0.115,0.48-0.35,0.511-0.672C11.717,42.593,11.677,39.482,10.053,38.065z"/>
	<path fill="#A22E84" d="M18.339,46.335c-0.552-0.158-0.909,0.277-0.932,0.721c-0.358,0.294-0.477,0.949,0.031,1.298
		c1.862,1.287,3.9,2.501,6.187,2.77c0.355,0.042,0.621-0.269,0.735-0.56C25.367,48.009,19.892,46.777,18.339,46.335z"/>
	<path fill="#A22E84" d="M37.266,51.004c-0.961-1.089-1.875-3.623-3.651-3.257c-0.325,0.066-0.482,0.28-0.527,0.522
		c-0.384,0.163-0.663,0.597-0.398,1.067c1.111,1.969,2.611,3.724,4.195,5.328c0.253,0.256,0.614,0.272,0.923,0.119
		C39.628,53.879,38.143,51.999,37.266,51.004z"/>
	<path fill="#A22E84" d="M49.15,36.514c-1.071-0.152-2.189,0.033-3.255,0.152c-1.761,0.197-3.568,0.078-5.337,0.078
		c-0.603,0-0.832,0.573-0.694,1.017c-0.051,0.05-0.109,0.09-0.156,0.146c-0.27,0.321-0.31,0.76,0,1.078
		c1.308,1.341,3.616,1.274,5.344,1.259c1.724-0.014,4.068,0.056,5.594-0.865C52.287,38.387,50.303,36.678,49.15,36.514z"/>
	<path fill="#A22E84" d="M50.876,45.117c-0.02,0.042-0.034,0.087-0.054,0.129c-0.233,0.05-0.435,0.207-0.494,0.523
		c-0.338,1.812-3.337,4.473-2.118,6.389c0.246,0.385,0.866,0.545,1.197,0.154c1.591-1.885,1.771-4.266,2.784-6.426
		C52.607,45.003,51.292,44.228,50.876,45.117z"/>
	<path fill="#A22E84" d="M63.222,50.987c-0.81-1.125-1.71-2.213-2.682-3.202c-0.305-0.31-0.679-0.263-0.948-0.064
		c-0.529-0.12-1.194,0.48-0.876,1.145c0.839,1.75,2.15,3.248,3.104,4.94c0.543,0.962,1.894,2.122,2.645,0.618
		C65.023,53.307,63.825,51.826,63.222,50.987z"/>
	<path fill="#A22E84" d="M63.875,32.437c-0.316-1.352-1.175-3.578-2.845-2.212c-0.318,0.261-0.305,0.594-0.137,0.855
		c-0.364,0.177-0.595,0.583-0.296,1.009c1.344,1.909,1.146,5.465,3.593,6.465c0.322,0.132,0.688-0.089,0.859-0.35
		C66.233,36.406,64.287,34.204,63.875,32.437z"/>
	<path fill="#A22E84" d="M82.217,33.227c-0.196-1.434-2.372-1.774-3.479-1.99c-1.733-0.338-3.5-0.427-5.253-0.608
		c-0.367-0.038-0.596,0.154-0.685,0.413c-0.486,0.303-0.549,1.196,0.17,1.396c1.668,0.468,3.35,0.873,5.022,1.319
		c1.083,0.289,2.581,0.851,3.692,0.406C82.112,33.993,82.279,33.676,82.217,33.227z"/>
	<path fill="#A22E84" d="M90.763,15.483c-0.301-0.403-0.789-0.46-1.142-0.161c-0.307,0.073-0.574,0.301-0.593,0.702
		c-0.006,0.116-0.028,0.227-0.041,0.34c-0.241,0.594-0.375,1.223-0.466,1.865c-0.497,1.339-1.2,2.627-1.374,4.066
		c-0.054,0.45,0.392,0.714,0.762,0.762c1.499,0.192,1.954-1.591,2.207-2.71C90.458,18.845,91.84,16.931,90.763,15.483z"/>
	<path fill="#A22E84" d="M74.457,9.683C73.22,7.51,69.084,7.649,66.906,7.67c-0.977,0.01-1.593,0.973-1.195,1.85
		c0.372,0.822,1.892,0.695,2.602,0.682c0.145-0.002,0.262-0.044,0.363-0.104c1.656,0.1,3.295,0.342,4.921,0.704
		C74.241,10.945,74.799,10.284,74.457,9.683z"/>
	<path fill="#A22E84" d="M39.101,9.778c-0.043-0.417-0.398-0.846-0.94-0.759c-0.869,0.138-1.691,0.258-2.311,0.944
		c-0.692,0.767-0.477,1.798-0.729,2.724c-0.227,0.827,0.973,1.353,1.393,0.587c0.57-1.038,1.639-1.786,2.547-2.511
		C39.439,10.459,39.365,10.047,39.101,9.778z"/>
	<path fill="#A22E84" d="M77.473,41.357c-0.869-0.78-2.054-0.456-3.076-0.042c-0.006,0.001-0.01,0-0.017,0.002
		c-1.702,0.64-3.614,0.287-5.16,1.365c-0.414,0.289-0.729,0.98-0.769,1.625c-0.216,0.361-0.055,0.875,0.338,1.073
		c0.102,0.093,0.227,0.167,0.378,0.214c1.59,0.488,3.402-0.317,4.754-1.076c1.307-0.733,3.176-0.807,3.748-2.42
		C77.754,41.858,77.663,41.526,77.473,41.357z"/>
	<path fill="#A22E84" d="M77.828,55.178c-0.459-1.088-2.019-1.642-2.99-2.137c-0.976-0.499-1.86-1.26-2.886-1.645
		c-0.001-0.002-0.003-0.004-0.004-0.006c-0.296-0.465-0.835-0.418-1.162-0.147c-0.357,0.188-0.499,0.718-0.31,1.073
		c0.296,0.554,0.734,0.915,1.23,1.223c0.222,0.244,0.454,0.477,0.685,0.711c0.018,0.145,0.086,0.289,0.242,0.415
		c1.101,0.889,2.247,2.124,3.672,2.431C77.625,57.379,78.326,56.362,77.828,55.178z"/>
	<path fill="#A22E84" d="M93.399,38.155c-0.008-0.001-0.013,0.002-0.019,0.002c-0.308-0.323-0.924-0.418-1.268,0.062
		c-1.074,1.501-3.362,2.254-3.684,4.258c-0.08,0.505,0.203,0.933,0.735,0.964c1.497,0.091,3.037-0.922,4.088-1.888
		C94.11,40.764,95.424,38.34,93.399,38.155z"/>
</g>
</svg>
