<?xml version="1.0" encoding="utf-8"?>
<!-- Generator: Adobe Illustrator 15.1.0, SVG Export Plug-In . SVG Version: 6.00 Build 0)  -->
<!DOCTYPE svg PUBLIC "-//W3C//DTD SVG 1.1//EN" "http://www.w3.org/Graphics/SVG/1.1/DTD/svg11.dtd">
<svg version="1.1" id="Layer_1" xmlns="http://www.w3.org/2000/svg" xmlns:xlink="http://www.w3.org/1999/xlink" x="0px" y="0px"
	 width="113.937px" height="65.625px" viewBox="0 0 113.937 65.625" enable-background="new 0 0 113.937 65.625"
	 xml:space="preserve">
<g>
	<path fill="#C88027" d="M102.776,34.903c-5.252-6.599-10.377-13.238-18.281-16.735c-1.302-0.577-2.639-1.052-4-1.463
		c-1.609-0.845-3.285-1.556-5.025-2.128c-5.799-3.689-12.227-3.987-18.695-3.147c-1.559-0.01-3.121,0.105-4.685,0.334
		c-5.249,0.14-10.495,1.074-14.65,2.315c-5.221,1.559-9.936,4.465-14.59,7.209c-3.225,1.902-6.326,3.315-8.449,6.17
		c-0.321,0.208-0.612,0.5-0.854,0.897C9.781,34.57,4.764,40.007,5.167,47.716c0.248,4.773,3.289,10.158,8.507,10.574
		c8.905,0.709,17.8,0.3,26.731,1.212c8.423,0.86,16.797,0.34,25.217,0.115c11.021,2.829,23.597,1.994,34.804,1.205
		c0.474-0.033,0.879-0.168,1.225-0.367c3.973-1.048,8.177-4.022,8.954-8.166C111.977,44.955,107.048,40.267,102.776,34.903z"/>
	<path fill="#654525" d="M60.299,3.643c-1.513-0.533-3.302-0.337-4.843,0.36c-0.403,0.145-0.794,0.318-1.154,0.539
		c-0.397,0.243-0.687,0.54-0.895,0.862c-1.137,1.141-1.778,2.673-1.39,4.408c0.6,2.68,2.812,3.744,5.065,3.57
		c0.43,0.1,0.891,0.115,1.35,0.019c1.903-0.403,3.821-1.627,4.8-3.331C64.746,7.434,62.909,4.563,60.299,3.643z"/>
	<path fill="#654525" d="M104.808,32.774c-2.192-4.942-6.847-7.896-11.105-10.924c-4.411-3.134-8.785-7.477-14.01-9.378
		c-0.435-0.625-1.128-1.081-2.101-1.122c-5.09-0.215-6.006,5.854-1.476,7.739c4.38,1.822,8.35,4.976,12.257,7.604
		c3.363,2.263,8.932,5.104,10.8,8.837c0.554,1.109,1.497,1.474,2.416,1.359C103.454,37.357,105.878,35.185,104.808,32.774z"/>
	<path fill="#654525" d="M34.612,10.237c-3.667,0.521-6.313,2.658-8.851,5.228c-0.232,0.235-0.392,0.482-0.519,0.735
		c-0.039,0.034-0.079,0.068-0.118,0.102c-1.725,1.121-3.359,2.326-4.838,3.501c-4.833,3.835-8.518,8.424-11.36,13.8
		c-0.913,0.573-1.571,1.604-1.362,2.933c0.351,2.223,1.92,3.274,4.107,3.294c2.537,0.023,3.699-2.287,4.561-4.251
		c2.728-6.224,7.149-10.44,11.976-14.696c1.534-1.031,3.169-1.877,4.991-2.28c2.672-0.591,5.431-1.204,6.519-3.98
		C40.97,11.426,36.965,9.904,34.612,10.237z"/>
	<path fill="#654525" d="M61.611,37.305c-0.223-5.112-0.643-10.21-0.765-15.328c0.382-0.7,0.401-1.573-0.231-2.461
		c-0.005-0.008-0.011-0.015-0.017-0.023c-0.236-0.584-0.657-1.009-1.17-1.274c-1.026-0.85-2.285-1.216-3.723-0.374
		c-2.692,1.577-2.779,4.895-2.734,7.652c0.071,4.336,0.665,8.76,1.083,13.074c0.207,2.135,0.08,4.673,0.747,6.825
		c0.004,0.057,0.005,0.114,0.01,0.171c0.086,1.109,0.649,1.888,1.398,2.306c1.276,1.164,3.13,0.972,4.222-0.559
		C62.405,44.554,61.75,40.481,61.611,37.305z"/>
</g>
</svg>
