<?xml version="1.0" encoding="utf-8"?>
<!-- Generator: Adobe Illustrator 15.1.0, SVG Export Plug-In . SVG Version: 6.00 Build 0)  -->
<!DOCTYPE svg PUBLIC "-//W3C//DTD SVG 1.1//EN" "http://www.w3.org/Graphics/SVG/1.1/DTD/svg11.dtd">
<svg version="1.1" id="Layer_1" xmlns="http://www.w3.org/2000/svg" xmlns:xlink="http://www.w3.org/1999/xlink" x="0px" y="0px"
	 width="142.857px" height="108.036px" viewBox="0 0 142.857 108.036" enable-background="new 0 0 142.857 108.036"
	 xml:space="preserve">
<path fill="#8CC63F" d="M138.999,62.457c0.124-2.932-1.665-4.825-3.998-5.915c2.706-1.8,4.677-4.439,3.828-7.964
	c-0.609-2.531-2.091-3.498-3.897-3.939c2.689-1.909,4.506-4.705,3.504-8.229c-0.75-2.638-3.201-3.744-5.885-4.071
	c1.86-1.857,2.981-4.119,1.874-7.218c-0.597-1.666-1.785-2.743-3.24-3.441c1.599-1.628,2.459-3.877,1.88-6.493
	c-1.013-4.574-5.84-4.784-9.872-4.435c-0.63-0.734-1.673-1.133-2.776-0.579c-1.807,0.908-4.309,0.297-6.234,0.197
	c-2.92-0.153-5.91,0.095-8.833,0.15c-6.288,0.118-12.586,0.018-18.873,0.018c-8.076,0-16.122-0.108-24.171-0.26
	c-5.301-0.899-11.084-2.367-16.303-1c-0.214,0.057-0.407,0.146-0.581,0.255c-3.735,0.135-7.468,0.302-11.206,0.336
	c-5.746,0.05-11.82-0.625-17.323,1.417c-0.528,0.196-0.901,0.525-1.148,0.913c-1.973,0.847-3.629,2.333-4.441,4.43
	c-1.208,3.125,0.123,5.489,2.352,7.047c-1.616,1.018-2.816,2.554-3.186,4.831c-0.418,2.575,0.797,4.283,2.562,5.543
	c-2.902,1.229-5.148,3.123-5.64,6.994c-0.237,1.861,0.431,3.286,1.562,4.375c-1.083,0.528-2.044,1.249-2.779,2.235
	c-1.456,1.951-0.401,4.853,1.118,6.388c0.849,0.86,2.067,1.323,3.248,1.606c-2.184,1.153-3.834,2.883-4.17,5.882
	c-0.316,2.828,1.516,4.695,3.837,5.855c-2.514,3.13-3.512,7.853-0.954,10.633c2.283,2.482,5.936,3.025,8.973,1.97
	c-0.693,3.133-0.839,6.287,1.963,8.452c2.298,1.775,5.747,2.267,8.534,1.733c0.821-0.157,1.526-0.456,2.145-0.851
	c0.388,2.466,1.664,4.589,4.581,5.687c2.44,0.92,5.042,0.967,7.594,0.539c1.338-0.227,2.354-0.992,3.184-1.987
	c1.023,1.917,2.793,3.455,5.037,4.206c3.139,1.052,5.666-0.263,7.489-2.404c0.235,0.587,0.567,1.167,1.056,1.74
	c1.747,2.055,4.047,2.918,6.696,3.052c3.342,0.169,5.761-1.941,7.413-4.601c1.877,2.604,4.892,4.266,8.313,4.601
	c3.524,0.345,5.682-1.287,6.875-3.745c2.01,1.619,4.769,2.341,7.847,2.072c2.824-0.245,4.308-2.137,4.903-4.472
	c2.672,2.33,5.951,3.901,8.938,2.328c2.674-1.41,3.575-3.689,3.575-6.174c1.991,1.382,4.242,1.992,6.907,0.464
	c4.073-2.334,4.971-5.224,4.297-8.502c3.156,1.111,6.778,1.093,9.632-0.255c3.07-1.45,3.288-5.335,2.335-8.143
	c-0.586-1.724-1.674-3.114-3.025-4.215C137.079,68.219,138.853,65.874,138.999,62.457z M111.671,39.361
	c-0.361,1-1.424,1.437-2.384,1.654c-0.682,0.152-1.425-0.107-2.139-0.153c-0.146,0.018-0.299-0.347-0.443-0.347
	c-0.005,0-0.009,0-0.013,0c-0.538,0-0.78-0.189-0.8-0.603c-0.067-0.438,0.159-0.806,0.533-1.091
	c-0.201,0.154,0.123,0.028,0.126,0.023c0.112-0.087,0.223-0.112,0.335-0.199c0.286-0.223,0.571-0.417,0.873-0.617
	c0.494-0.327,1.036-0.616,1.624-0.729C110.446,37.094,112.154,38.028,111.671,39.361z M87.462,70.533
	c0.926-1.103,2.497,0.484,1.578,1.578c-1.737,2.069-4.185,1.034-4.808-1.345c-0.541-2.066,2.119-4.989,4.224-4.779
	c2.628,0.259,3.94,2.486,5.308,4.506c1.8,2.658,4.371,3.618,7.58,2.651c1.518-0.458,3.701-1.559,3.489-3.535
	c-0.605-1.763-1.741-2.345-3.409-1.746c-0.061,0.386-0.123,0.771-0.185,1.157c1.271-0.675,2.399,1.252,1.127,1.926
	c-2.866,1.521-6.09-2.297-3.218-4.35c2.524-1.805,8.439-1.277,7.916,3.012c-0.597,4.91-5.082,6.305-9.512,6.01
	c-2.017-0.132-3.479-1.01-4.693-2.553c-0.684-0.871-1.236-1.832-1.887-2.726c-0.352-0.527-0.752-1.013-1.202-1.458
	C87.88,67.786,87.111,68.336,87.462,70.533z M96.487,35.448c1.928-0.53,2.625,1.416,2.859,3.571
	c1.423-1.167,2.813-1.651,3.444-0.082c0.577,1.434,0.164,2.793-0.727,3.913c1.906,0.087,3.599,0.605,4.003,2.076
	c0.672,2.441-1.395,2.569-3.646,2.134c0.684,0.543,1.383,1.142,1.894,1.724c0.938,1.065,1.977,2.757,0.698,4.006
	c-1.182,1.153-2.596,0.314-3.857-0.939c-0.542-0.203-1.089-0.591-1.604-1.081c0.059,2.19-0.273,4.254-1.642,4.469
	c-2.423,0.38-2.75-2.156-2.547-4.741c-1.231,1.34-2.669,2.271-4.093,1.41c-1.146-0.693-1.236-2.843-0.563-3.868
	c0.904-1.375,2.241-2.102,3.484-3.005c-1.931-0.764-3.759-1.392-5.063-3.264c-0.396-0.567-0.01-1.508,0.667-1.639
	c1.659-0.325,3.694,0.364,5.479,1.356C94.6,38.954,94.354,36.035,96.487,35.448z M102.774,60.887
	c-2.515,0.129-2.432-3.042-2.422-4.789c0.005-1.123,1.353-1.356,1.947-0.729c0.299,0.033,0.59,0.183,0.801,0.501
	c0.495,0.746,1,1.582,1.225,2.454C104.632,59.521,104.176,60.817,102.774,60.887z M92.839,57.285
	c-0.175,0.34-0.357,0.678-0.558,1.005c-0.475,0.769-1.293,2.095-2.375,1.993c-0.761-0.073-1.224-0.51-1.496-1.202
	c-0.301-0.765-0.041-1.534,0.452-2.145c0.569-0.704,1.5-1.284,2.448-1.578c0.052-0.109,0.108-0.216,0.161-0.325
	c0.595-1.209,2.292-0.292,1.991,0.885C93.592,56.438,93.388,57.056,92.839,57.285z M89.05,44.483
	c0.98,0.209,0.974,1.305,0.414,1.856c-0.082,0.202-0.221,0.388-0.481,0.517c-1.441,0.712-4.973,2.088-5.232-0.619
	c-0.127-1.327,0.849-2.277,2.135-2.31C86.973,43.901,88,44.257,89.05,44.483z M105.143,15.516h4c2,0,2,1,0,1h-4
	C103.143,16.516,103.143,15.516,105.143,15.516z M103.769,29.102c1.017,1.869-0.854,3.757-1.672,5.309
	c-0.098,0.185-0.226,0.306-0.365,0.397c-0.184,0.196-0.438,0.323-0.767,0.323c-0.549,0-1.194-0.512-1.116-1.116
	c0.25-1.916,0.939-3.64,2.168-5.139C102.47,28.323,103.449,28.513,103.769,29.102z M94.907,16.002
	c1.116,0.001,2.866,0.013,4.37,0.167c1.417,0.146,1.505,2.379,0.074,2.232c-1.502-0.155-3.328-0.167-4.443-0.168
	S93.791,16,94.907,16.002z M91.87,31.57c0.753,0.89,1.383,2.004,1.64,3.151c0.146,0.652-0.244,1.115-0.73,1.299
	c-0.29,0.451-0.841,0.696-1.411,0.296c-0.759-0.532-1.445-1.238-2.021-1.959c-0.682-0.852-1.471-1.927-0.893-3.044
	C89.174,29.925,91.111,30.674,91.87,31.57z M82.434,16.711c1.954-0.525,3.983-0.385,5.984-0.375c1.438,0.009,1.44,2.24,0,2.231
	c-1.794-0.009-3.639-0.177-5.392,0.295C81.635,19.237,81.046,17.083,82.434,16.711z M70.143,15.516h6c1,0,1,1,0,1h-6
	C69.143,16.516,69.143,15.516,70.143,15.516z M76.248,29.768c-0.016,0.028-0.021,0.061-0.037,0.09
	c-0.089,0.157-0.204,0.289-0.329,0.409c-0.143,0.162-0.294,0.316-0.465,0.449c-0.882,0.684-2.254,1.035-3.231,0.314
	c-0.804-0.593-1.199-1.624-1.082-2.614c0.124-1.048,0.526-2.039,1.427-2.656c1.002-0.684,2.238-0.473,3.234,0.098
	c0.165,0.094,0.283,0.21,0.37,0.338c0.319,0.301,0.548,0.702,0.62,1.208C76.87,28.215,76.675,29.063,76.248,29.768z M71.357,39.429
	c0.256-0.475,0.625-0.875,1.14-1.095c1.777-0.76,3.578,0.331,3.965,2.222c0.372,1.809-0.439,3.681-2.292,4.265
	c-1.63,0.516-3.786-0.256-4.18-2.087C69.684,41.31,70.349,40.122,71.357,39.429z M76.016,54.002
	c-0.125,0.417-0.322,0.806-0.618,1.125c-0.471,0.508-1.165,0.691-1.814,0.558c-1.153,0.238-2.4-0.17-2.971-1.431
	c-0.933-2.055,0.747-5.317,3.287-4.629c0.237,0.064,0.454,0.16,0.66,0.269c0.301,0.087,0.583,0.241,0.821,0.497
	c0.316,0.34,0.527,0.755,0.658,1.197c0.095,0.17,0.146,0.344,0.133,0.517c0.024,0.06,0.055,0.117,0.074,0.18
	C76.448,52.921,76.332,53.518,76.016,54.002z M69.825,64.829c0.031-0.144,0.095-0.286,0.143-0.429
	c0.02-0.111,0.023-0.217,0.062-0.333c0.163-0.488,0.468-0.893,0.842-1.208c0.302-0.335,0.635-0.635,1.019-0.833
	c1.319-0.68,2.638-0.456,3.765,0.479c0.521,0.433,0.436,1.002,0.096,1.396c0.263,0.76,0.035,1.624-0.476,2.287
	c-0.034,0.043-0.076,0.083-0.115,0.125c-0.034,0.082-0.058,0.164-0.1,0.243c-0.697,1.33-2.288,1.907-3.684,1.349
	C70.106,67.394,69.544,66.144,69.825,64.829z M61.143,15.516h3c2,0,2,1,0,1h-3C59.143,16.516,59.143,15.516,61.143,15.516z
	 M59.188,36.237c1.161-0.923,2.527-2.019,4.017-2.319c1.228-0.248,3.448,0.336,2.954,2.065c-0.347,1.214-1.857,1.571-2.94,1.776
	c-1.059,0.202-2.16,0.37-3.24,0.382c-0.471,0.005-0.773-0.239-0.935-0.559C58.729,37.192,58.674,36.646,59.188,36.237z
	 M64.065,52.045c-0.231,0.561-0.731,0.957-1.372,0.779c-1.816-0.504-3.812-1.989-4.125-3.959c-0.01-0.059,0-0.118-0.004-0.176
	c-0.067-0.059-0.147-0.104-0.211-0.167c-1.045-0.993,0.535-2.568,1.579-1.578C61.144,48.097,65.044,49.679,64.065,52.045z
	 M56.945,23.823c0.669,1.201-0.134,2.635-0.859,3.615c-0.75,1.018-1.629,2.151-2.839,2.634c-0.662,0.265-1.136-0.134-1.287-0.666
	c-0.68-0.133-1.266-0.863-0.809-1.644c0.742-1.266,1.365-2.637,2.368-3.732C54.368,23.105,56.133,22.366,56.945,23.823z
	 M49.143,15.835c2-0.001,2.275-0.028,3.279-0.295c1.394-0.369,1.869,1.783,0.479,2.152c-1.192,0.317-1.759,0.374-3.759,0.375
	C47.143,18.067,47.143,15.835,49.143,15.835z M46.967,28.924c2.212-0.75,3.005,2.696,3.355,4.859c1.017-0.823,2.119-1.5,3.465-1.758
	c1.287-0.247,3.417,0.501,3.653,2.013c0.273,1.743-0.677,3.442-2.039,4.788c2.38,0.302,4.689,1.305,4.689,3.386
	c0,2.342-2.856,2.528-5.423,2.191c1.088,1.545,1.704,3.307,0.019,4.293c-1.9,1.112-3.902-0.862-5.172-2.812
	c-0.633,1.989-0.969,4.433-3.448,4.507c-1.587,0.046-2.51-1.649-2.318-3.03c0.119-0.853,0.48-1.603,0.867-2.339
	c-2.341,0.983-5.107,1.786-6.502-0.417c-1.792-2.83,1.893-5.155,4.821-6.004c-1.885-1.129-3.736-2.958-2.825-4.837
	c1.062-2.191,3.478-1.422,5.465-0.278C45.211,31.611,45.013,29.587,46.967,28.924z M51.557,57.833
	c-1.611,0.387-2.549-1.222-2.624-2.591c-0.072-1.32,0.196-2.704,0.601-3.957c0.168-0.52,0.586-0.754,1.013-0.771
	c0.582-0.358,1.449-0.251,1.64,0.604C52.579,52.874,54.381,57.155,51.557,57.833z M39.959,49.757
	c-0.52,0.977-1.213,1.93-1.956,2.735c-0.739,0.8-2.383,2.045-3.359,0.795c-2.187-2.798,2.52-5.568,4.924-5.667
	C40.858,47.569,40.978,49.343,39.959,49.757z M42.929,29.993c-0.294,0.436-0.843,0.675-1.416,0.301
	c-1.802-1.178-3.497-4.922-2.074-6.88c0.357-0.492,0.962-0.73,1.527-0.4c1.891,1.105,2.262,3.738,2.688,5.686
	C43.796,29.345,43.411,29.807,42.929,29.993z M38.143,13.516h3c2,0,2,3,0,3h-3C37.143,16.516,37.143,13.516,38.143,13.516z
	 M38.014,37.073c0.71,0.696,0.174,1.643-0.562,1.846c-0.231,0.37-0.65,0.628-1.192,0.522c-1.74-0.339-6.205-1.152-5.043-3.906
	C32.543,32.387,36.592,35.681,38.014,37.073z M30.198,13.995c0.728,0.014,1.446,0.156,2.175,0.167c1.437,0.024,1.439,2.256,0,2.232
	c-0.729-0.011-1.447-0.152-2.175-0.167C28.761,16.198,28.759,13.966,30.198,13.995z M27.116,21.506
	c0.317-1.154,0.499-2.331,0.669-3.513c0.086-0.604,0.843-0.925,1.372-0.78c0.642,0.177,0.867,0.771,0.78,1.373
	c-0.169,1.183-0.351,2.36-0.669,3.513C28.886,23.485,26.732,22.895,27.116,21.506z M27.259,29.704
	c0.49,2.037,0.23,4.085,0.208,6.151c-0.017,1.438-2.248,1.44-2.232,0c0.021-1.85,0.311-3.738-0.126-5.559
	C24.772,28.898,26.924,28.304,27.259,29.704z M24.143,41.516c0-2,2-2,2,0v5c0,1-2,1-2,0V41.516z M22.143,53.516c0-2,3-2,3,0v5
	c0,1-3,1-3,0V53.516z M24.582,65.004c0.295,0.857,0.692,1.674,1.226,2.408c0.359,0.494,0.085,1.243-0.4,1.528
	c-0.563,0.331-1.169,0.091-1.526-0.401c-0.645-0.887-1.095-1.909-1.45-2.942C21.961,64.233,24.118,63.651,24.582,65.004z
	 M12.697,39.198c1.106-1.257,3.275-1.741,5.155-2.137c-0.32,2.159-0.54,4.321-0.592,6.489c-0.003,0.143,0.012,0.272,0.029,0.4
	C14.673,43.718,9.762,42.533,12.697,39.198z M9.98,50.032c0.024,0.027,0.04-0.113,0.197-0.223c1.669-1.163,4.196-1.316,6.277-1.343
	c-0.166,0.851-0.321,1.721-0.463,2.605c-1.67,0.135-3.277,0.604-4.972,0.089C10.394,50.97,10.145,50.592,9.98,50.032z
	 M10.938,61.042c0.328-1.458,2.522-2.129,4.329-2.55c-0.045,1.955,0.051,3.894,0.336,5.76c-0.257,0.013-0.512,0.038-0.765,0.086
	C13.007,64.045,10.444,63.221,10.938,61.042z M18.678,74.41c-0.816,2.099-4.603,2.012-6.019,0.724
	c-1.557-1.416,0.757-5.42,2.636-6.266c0.004,0,0.009,0.001,0.013,0.002c0.505,0.061,0.916-0.033,1.24-0.224
	c0.055-0.011,0.1-0.034,0.152-0.049c0.647,1.751,1.54,3.376,2.747,4.802C19.127,73.637,18.853,73.961,18.678,74.41z M18.758,32.03
	c-0.949-0.385-1.892-0.772-2.798-1.264c-4.233-2.294,1.929-4.002,4.031-4.333C19.561,28.294,19.143,30.16,18.758,32.03z
	 M21.375,17.513c-0.264,1.306-0.607,2.596-0.94,3.888c-1.517-0.086-5.441-0.74-5.12-2.711c0.385-2.362,4.249-3.622,6.4-2.652
	C21.587,16.526,21.475,17.02,21.375,17.513z M30.556,81.437c-0.593,2.114-1.113,4.34-3.742,4.522
	c-1.124,0.078-3.864-0.353-4.377-1.576c-0.875-2.083,0.429-5.022,1.106-7.344c2.183,1.501,4.704,2.677,7.365,3.66
	C30.759,80.905,30.637,81.147,30.556,81.437z M33.651,76.301c-1.624-0.929-3.107-2.184-4.92-2.732
	c-1.374-0.414-0.788-2.57,0.593-2.151c2.019,0.61,3.648,1.925,5.454,2.957C36.026,75.088,34.902,77.017,33.651,76.301z
	 M45.168,86.424c-0.742,1.414-1.343,2.96-2.328,4.232c-0.935,1.208-3.675,0.741-4.946,0.466c-4.189-0.903-2.683-5.692-1.864-8.667
	c0.008-0.027,0.009-0.052,0.016-0.08c2.528,0.746,5.04,1.415,7.392,2.119c0.782,0.412,1.576,0.804,2.385,1.169
	C45.574,85.841,45.348,86.083,45.168,86.424z M39.53,76.604c1.534,0.496,3.111,0.824,4.683,1.171c1.406,0.309,0.81,2.46-0.592,2.151
	c-1.574-0.347-3.149-0.674-4.684-1.17C37.574,78.316,38.157,76.16,39.53,76.604z M50.442,79.91c1.358,0.025,2.675,0.322,4.015,0.502
	c0.603,0.081,1.116,0.447,1.116,1.116c0,0.547-0.511,1.196-1.116,1.116c-1.337-0.179-2.662-0.477-4.015-0.502
	C49.004,82.115,49.002,79.883,50.442,79.91z M57.157,89.132c-0.652,2.066-1.582,4.376-4.058,4.435
	c-2.928,0.069-3.819-3.419-3.014-5.59c0.112-0.303,0.149-0.582,0.138-0.841c0.249-0.039,0.476-0.119,0.674-0.246
	c2.178,0.647,4.347,1.202,6.57,1.623C57.343,88.692,57.233,88.891,57.157,89.132z M55.32,74.813
	c-2.667-0.904-4.471-2.489-6.256-4.651c-1.152-1.395-2.096-3.021-3.453-4.232c-1.03-1.101-2.268-1.841-3.714-2.219
	c-2.483,2.458-2.296,3.585,0.561,3.38c-0.986-1.046,0.589-2.626,1.578-1.578c0.133,0.142,0.265,0.281,0.396,0.422
	c0.369,0.39,0.398,0.882,0.175,1.352c-2.632,5.54-12.503-2.068-6.399-5.645c2.737-1.604,7.119,0.695,8.98,2.709
	c1.814,1.964,3.221,4.52,5.241,6.251c1.476,1.267,3.284,2.414,5.329,2.359c2.627-0.07,6.188-4.15,1.55-4.263
	c1.436,0.035,1.44,2.268,0,2.232c-3.381-0.082-3.178-3.453-1.468-5.54c2.841-3.465,5.608,2.309,5.995,4.394
	C64.699,74.448,58.748,75.978,55.32,74.813z M61.483,81.75c1.744,0.024,3.445,0.366,5.148,0.708c1.41,0.285,0.812,2.436-0.593,2.154
	c-1.512-0.306-3.006-0.608-4.555-0.63C60.046,83.961,60.044,81.73,61.483,81.75z M71.712,89.633
	c-0.781,2.574-2.103,5.863-5.209,6.058c-4.058,0.255-3.855-3.625-4.273-6.472c0.035,0.003,0.069,0.009,0.104,0.012
	c2.686,0.277,5.16,0.044,7.654-0.21c0.686-0.02,1.387-0.05,2.099-0.094C71.934,89.127,71.798,89.35,71.712,89.633z M71.683,85.113
	c-1.41-0.29-0.842-2.441,0.561-2.152c1.393,0.287,2.899,0.294,3.899,0.295c2,0,2,2.232,0,2.232
	C75.143,85.487,73.275,85.44,71.683,85.113z M85.863,90.292c-0.002,0.035-0.011,0.065-0.011,0.103
	c-0.007,1.642-0.082,3.066-0.885,4.542c-0.719,1.321-2.382,0.833-3.584,0.569c-2.928-0.643-4.586-2.857-5.033-5.704
	c-0.072-0.458-0.262-0.785-0.498-1.041c1.204,0.036,2.411,0.067,3.622,0.102c2.056,0.061,4.292,0.155,6.58,0.173
	c-0.172,0.317-0.26,0.709-0.201,1.192C85.854,90.249,85.86,90.27,85.863,90.292z M86.038,84.612
	c-1.393,0.37-1.982-1.783-0.593-2.154c1.65-0.438,3.376-0.23,5.019-0.669c1.393-0.371,1.982,1.783,0.593,2.152
	C89.407,84.381,87.681,84.174,86.038,84.612z M97.675,92.634c-0.736,4.724-7.222-1.277-7.359-2.407
	c-0.005-0.044-0.021-0.082-0.027-0.124c-0.052-0.464-0.235-0.832-0.489-1.124c2.512-0.104,5.003-0.372,7.318-0.937
	c0.012,0.035,0.012,0.066,0.023,0.101C97.678,89.653,97.928,91.021,97.675,92.634z M97.286,81.975c-1.439,0.05-1.436-2.182,0-2.232
	c1.27-0.046,2.475-0.691,3.619-1.187c1.306-0.566,2.444,1.355,1.127,1.927C100.503,81.146,98.981,81.914,97.286,81.975z
	 M109.645,91.288c-0.891,4.138-7.887-3.971-8.424-4.862c0.138,0.002,0.279,0.011,0.415,0.011c2.316-0.004,4.734-0.712,6.993-1.439
	C109.558,87.043,110.174,88.833,109.645,91.288z M111.626,75.792c-1.18,0.924-2.5,1.729-4.006,1.959
	c-0.601,0.092-1.197-0.142-1.372-0.779c-0.147-0.534,0.177-1.28,0.779-1.372c1.116-0.172,2.134-0.693,3.021-1.386
	c0.478-0.375,1.109-0.469,1.578,0C112.018,74.604,112.105,75.417,111.626,75.792z M111.634,52.658
	c-1.512,0.469-3.57,0.337-4.438-1.183c-0.251-0.439-0.167-0.855,0.066-1.167c0.036-0.526,0.383-1.024,1.065-1.013
	c1.355,0.018,3.315,0.353,3.974,1.723C112.619,51.677,112.363,52.431,111.634,52.658z M134.224,37.812
	c0.688,1.194-1.403,2.949-2.158,3.457c-0.982,0.66-2.093,1.09-3.235,1.397c-0.186-1.914-0.465-3.825-0.799-5.772
	C129.898,36.539,133.283,36.182,134.224,37.812z M121.783,47.98c0.518,1.495,0.541,3.236,0.542,4.353
	c0.001,1.116-2.23,1.116-2.231,0c-0.001-1.116-0.005-2.588-0.461-3.907C119.16,47.062,121.317,46.629,121.783,47.98z M120.5,68.875
	c-0.828,1.211-1.892,2.298-3.244,2.909c-0.555,0.25-1.196,0.165-1.527-0.401c-0.283-0.483-0.155-1.276,0.4-1.526
	c1.01-0.458,1.821-1.196,2.444-2.109C119.378,66.567,121.313,67.683,120.5,68.875z M120.109,37.232
	c0.321,1.378,0.352,2.803,0.67,4.182c0.324,1.4-1.828,1.995-2.151,0.593c-0.319-1.379-0.351-2.804-0.67-4.182
	C117.634,36.424,119.784,35.83,120.109,37.232z M118.102,28.031c0.432,1.11,0.688,2.28,0.709,3.474c0.027,1.44-2.205,1.438-2.231,0
	c-0.019-1-0.269-1.953-0.629-2.881c-0.221-0.567,0.238-1.225,0.779-1.373C117.362,27.076,117.882,27.464,118.102,28.031z
	 M114.22,17.38c0.64-0.177,1.142,0.218,1.372,0.78c0.487,1.183,0.702,2.44,1.003,3.68c0.342,1.398-1.81,1.991-2.151,0.593
	c-0.303-1.238-0.518-2.497-1.003-3.68C113.209,18.188,113.688,17.526,114.22,17.38z M114.673,84.78
	c-0.393-0.427-0.748-0.861-1.102-1.294c2.468-0.71,4.768-1.407,6.993-2.65C122.994,84.262,121.032,85.578,114.673,84.78z
	 M122.492,62.457c-0.011,1.438-2.243,1.438-2.232,0c0.009-1.128,0.157-2.281-0.127-3.385c-0.359-1.395,1.793-1.986,2.151-0.593
	C122.623,59.792,122.502,61.116,122.492,62.457z M123.81,19.984c-0.28-0.053-0.542-0.058-0.788-0.024
	c-0.457-1.558-0.816-3.121-1.008-4.69c2.118-0.363,4.892-0.831,6.32,0.338c1.133,0.926,0.264,2.441-0.53,3.206
	C126.836,19.745,125.119,20.235,123.81,19.984z M130.14,26.438c1.275,1.859-1.264,3.667-3.273,4.899
	c-0.608-2.16-1.409-4.315-2.193-6.474C126.616,24.857,129.137,24.974,130.14,26.438z M131.933,78.352
	c-1.902,0.503-4.719-0.023-6.657-1.258c1.62-1.767,2.754-3.688,3.523-5.72c0.066,0.028,0.113,0.069,0.183,0.094
	c1.819,0.625,3.278,1.662,4.207,3.366C134.085,76.48,133.707,77.883,131.933,78.352z M130.028,66.211
	c0.244-2.068,0.253-4.2,0.126-6.36c1.758,0.086,4.351,0.548,4.381,2.605C134.574,65.074,132.249,66.022,130.028,66.211z
	 M133.324,52.312c-0.985,0.964-2.369,1.542-3.72,1.97c-0.188-1.471-0.397-2.94-0.595-4.394c0.021-0.509,0.055-1.025,0.062-1.526
	c0.697,0.075,1.4,0.108,2.102,0.131c0.838,0.028,2.305-0.111,3.011,0.468C135.303,49.875,134.013,51.637,133.324,52.312z"/>
</svg>
