<?xml version="1.0" encoding="utf-8"?>
<!-- Generator: Adobe Illustrator 15.1.0, SVG Export Plug-In . SVG Version: 6.00 Build 0)  -->
<!DOCTYPE svg PUBLIC "-//W3C//DTD SVG 1.1//EN" "http://www.w3.org/Graphics/SVG/1.1/DTD/svg11.dtd">
<svg version="1.1" id="Layer_1" xmlns="http://www.w3.org/2000/svg" xmlns:xlink="http://www.w3.org/1999/xlink" x="0px" y="0px"
	 width="142.857px" height="108.036px" viewBox="0 0 142.857 108.036" enable-background="new 0 0 142.857 108.036"
	 xml:space="preserve">
<g>
	<path fill="#FC5720" d="M85.143,41.028c-1,0-1,2.231,0,2.231S86.143,41.028,85.143,41.028z"/>
	<path fill="#FC5720" d="M85.143,46.214c-1,0-1,2.232,0,2.232S86.143,46.214,85.143,46.214z"/>
	<path fill="#FC5720" d="M66.143,47.386c-1,0-1,2.232,0,2.232C68.143,49.618,68.143,47.386,66.143,47.386z"/>
	<path fill="#FC5720" d="M72.589,52.288c-1.061-2.105-3.802-0.284-4.764,0.946c-0.159,0.203-0.253,0.435-0.289,0.669
		c-0.747,1.122-0.918,2.537,0.312,3.345c1.3,0.854,2.418-0.081,3.119-1.318c0.313,0.307,0.691,0.549,1.198,0.674
		c0.456,0.112,1.042-0.059,1.26-0.513c0.578-1.206,0.165-2.711-0.791-3.635C72.616,52.399,72.618,52.344,72.589,52.288z"/>
	<path fill="#FC5720" d="M79.143,49.895c-1,0-1,2.232,0,2.232V49.895z"/>
	<path fill="#FC5720" d="M76.941,60.977c-0.547-0.15-1.262,0.574-1.372,1.172c-0.182,0.984-0.208,1.366-0.208,3.366
		c0,1,2.231,1,2.231,0c0-2-0.016-1.992,0.127-2.773C77.831,62.145,77.565,61.148,76.941,60.977z"/>
	<path fill="#FC5720" d="M81.143,37.237c1,0,1-2.231,0-2.231C79.143,35.005,79.143,37.237,81.143,37.237z"/>
	<path fill="#FC5720" d="M58.143,40.583c2,0,2-2.232,0-2.232S56.143,40.583,58.143,40.583z"/>
	<path fill="#FC5720" d="M60.143,36.066c1,0,1-2.231,0-2.231C57.143,33.835,57.143,36.066,60.143,36.066z"/>
	<path fill="#FC5720" d="M76.331,41.495c-0.045,0.175-0.083,0.354-0.109,0.539c-0.315,2.219,0.412,5.098,2.775,5.865
		c1.955,0.634,3.567-1.238,4.216-2.821c0.687-1.673,0.208-3.473-0.894-4.785c0.013-0.266-0.092-0.542-0.368-0.778
		c-0.602-0.513-1.236-0.79-1.856-0.875c-0.697-0.438-1.469-0.677-2.241-0.416C76.275,38.757,75.98,40.092,76.331,41.495z"/>
	<path fill="#FC5720" d="M82.143,49.058c-1,0-1,2.231,0,2.231C84.143,51.29,84.143,49.058,82.143,49.058z"/>
	<path fill="#FC5720" d="M63.149,60.881c-0.022,0.959-0.309,1.885-0.335,2.844c-0.038,1.441,2.194,1.436,2.232,0
		c0.025-0.956,0.312-1.883,0.334-2.844C65.413,59.442,63.182,59.445,63.149,60.881z"/>
	<path fill="#FC5720" d="M85.143,39.078c1,0,1-2.232,0-2.232C83.143,36.846,83.143,39.078,85.143,39.078z"/>
	<path fill="#FC5720" d="M58.143,44.709c-1,0-1,2.232,0,2.232C60.143,46.941,60.143,44.709,58.143,44.709z"/>
	<path fill="#FC5720" d="M74.143,49.618c2,0,2-2.232,0-2.232C73.143,47.386,73.143,49.618,74.143,49.618z"/>
	<path fill="#FC5720" d="M134.265,68.108c2.084-1.175,3.718-2.896,3.841-5.328c0.121-2.392-1.137-4.433-2.877-5.981
		c-0.521-0.464-1.076-0.828-1.653-1.127c1.513-1.528,2.487-3.683,2.72-6.025c0.292-2.932-0.728-4.862-2.44-6.084
		c1.933-1.338,3.364-3.204,3.409-5.602c0.063-3.302-2.124-5.582-4.837-7.047c2.189-1.638,3.601-4.016,3.085-7.097
		c-0.434-2.591-2.417-4.246-4.788-5.239c0.574-0.601,1.044-1.31,1.313-2.223c0.904-3.07,0.047-6.135-2.361-8.273
		c-2.912-2.586-7.667-2.86-11.433-1.447c-0.188,0.025-0.375,0.052-0.563,0.077c-0.293-0.157-0.64-0.257-1.051-0.259
		c-19.939-0.078-39.68-2.289-59.542-3.245c-0.03-0.008-0.062-0.014-0.092-0.021c-0.369-0.095-0.704-0.089-1.01-0.026
		c-1.701-0.078-3.401-0.164-5.104-0.22c-0.244-0.008-0.46,0.027-0.663,0.079c-2.291-0.288-4.583-0.553-6.865-0.787
		c-5.005-0.514-10.155-0.128-15.167,0.087c-2.934,0.126-5.688,0.11-8.336,1.417c-3.975-0.422-7.845,0.727-9.481,4.91
		C9.35,11.249,10.475,14.18,12.1,16.22c0.375,0.471,0.817,0.832,1.287,1.146c-1.801,1.475-2.928,3.661-3.143,6.667
		c-0.191,2.666,1.041,4.607,2.87,5.908c-2.463,1.476-4.131,3.604-4.45,7.352c-0.25,2.933,1.293,5.062,3.466,6.498
		c-2.236,1.262-3.995,3.205-4.363,5.791c-0.371,2.605,0.951,4.186,2.844,5.161c-2.596,1.407-4.43,3.598-3.919,7.268
		c0.288,2.064,1.779,3.205,3.65,3.836c-2.694,2.269-4.438,5.735-3.46,8.997c0.833,2.782,4.11,4.203,6.707,4.676
		c0.5,0.09,0.98,0.124,1.448,0.125c-1.619,3.783-1.946,7.946,1.718,10.884c2.272,1.822,5.702,2.341,8.367,1.104
		c0.499-0.231,0.928-0.507,1.328-0.801c0.079,0.209,0.167,0.418,0.273,0.63c1.338,2.649,3.917,4.1,6.75,4.688
		c2.195,0.456,3.961-0.024,5.397-1.04c0.425,1.654,1.316,3.151,2.923,4.295c2.417,1.721,6.534,1.531,9.09,0.325
		c0.804-0.379,1.469-0.826,2.032-1.324c0.032,0.051,0.051,0.104,0.085,0.155c1.372,2.1,3.849,3.259,6.259,3.588
		c2.21,0.303,4.835,0.162,6.655-1.26c0.299-0.233,0.555-0.481,0.784-0.739c1.7,2.267,4.545,3.559,7.266,4.05
		c2.874,0.516,6.575,0.479,8.278-2.356c0.208-0.346,0.378-0.702,0.528-1.065c0.387,0.494,0.823,0.967,1.36,1.4
		c2.049,1.652,5.156,2.936,7.827,2.345c3.26-0.721,4.882-3.056,5.661-5.832c2.222,2.181,5.142,3.498,8.53,2.958
		c4.5-0.716,6.767-3.61,7.301-7.318c1.102,0.544,2.318,0.899,3.736,1.064c2.994,0.35,7.121,0.41,9.528-1.731
		c2.64-2.349,2.485-5.813,1.446-9.039c4.111,0.854,8.683-0.558,10.194-4.915C140.087,74.714,137.991,70.508,134.265,68.108z
		 M133.661,62.132c0.601,1.837-3.606,3.101-5.33,3.456c-0.043-0.653-0.118-1.295-0.225-1.92c0.118-1.736,0.1-3.487,0.01-5.244
		C130.362,59.113,132.836,59.61,133.661,62.132z M127.764,53.533c-0.113-1.37-0.223-2.734-0.292-4.085
		c-0.055-1.079-0.103-2.155-0.152-3.229c1.775,0.003,4.453,0.048,4.592,2.145c0.127,1.931-1.156,5.537-3.65,5.18
		C128.089,53.518,127.924,53.521,127.764,53.533z M132.811,37.393c0.316,2.482-3.775,3.92-5.755,4.166
		c-0.188-2.552-0.49-5.091-1.022-7.62c-0.007-0.277-0.024-0.551-0.035-0.828c0.239,0.209,0.525,0.387,0.911,0.479
		C128.737,34.03,132.519,35.101,132.811,37.393z M125.427,10.742c1.578,0.452,2.509,1.839,2.558,3.444
		c0.053,1.801-2.22,2.557-3.778,3.164c-0.243,0.023-0.455,0.09-0.649,0.175c-0.704-2.392-1.573-4.747-2.616-7.064
		C122.442,10.197,124.062,10.352,125.427,10.742z M115.098,65.917c0.158-0.23,0.346-0.447,0.574-0.639
		c0.031-0.026,0.064-0.03,0.095-0.052c0.08-0.075,0.162-0.15,0.254-0.218c0.893-0.664,2.252-0.972,3.345-0.671
		c0.797-0.011,1.566,0.198,2.066,0.774c1.282,1.471,0.235,2.944-1.367,3.892c-0.145,0.186-0.314,0.347-0.502,0.472
		c-0.774,0.518-1.706,0.648-2.614,0.539c-0.489,0.033-0.939-0.002-1.291-0.138C113.945,69.215,113.427,66.891,115.098,65.917z
		 M113.529,56.069c0.548-0.923,1.603-1.19,2.692-1.145c1.065-0.633,2.511-0.765,3.622-0.347c1.103,0.414,1.78,1.384,1.719,2.387
		c0.264,0.874-0.197,1.842-0.997,2.374c-0.599,0.398-1.333,0.614-2.049,0.584c-0.508,0.225-1.045,0.355-1.563,0.337
		c-0.384-0.013-0.776-0.16-1.134-0.381c-0.064-0.008-0.131-0.01-0.194-0.02C113.779,59.588,112.472,57.85,113.529,56.069z
		 M121.217,46.624c-0.031,0.12-0.081,0.227-0.125,0.338c-0.002,0.048,0.008,0.089,0.003,0.138c-0.076,0.788-0.75,1.461-1.633,1.921
		c-1.536,1.25-4.428,1.519-5.711,0.126c-1.131-1.226-0.959-3.489,0.678-4.244c1.206-0.556,2.543-0.58,3.795-0.228
		c0.207,0.049,0.405,0.112,0.596,0.188c0.708,0.042,1.375,0.208,1.885,0.5C121.144,45.613,121.344,46.142,121.217,46.624z
		 M119.819,39.375c-0.325,0.304-0.711,0.547-1.134,0.737c-0.077,0.056-0.142,0.038-0.224,0.088
		c-0.768,0.484-1.729,0.315-2.594,0.315c-0.05,0-0.099,0-0.149,0c-0.669,0-1.309,0.203-1.83,0.018
		c-0.493-0.103-0.924-0.304-1.264-0.741c-0.84-0.688-1.239-1.721-0.448-2.904c0.761-1.136,1.936-1.496,3.18-1.517
		c0.842-0.375,1.852-0.466,2.735-0.252C120.044,35.591,121.662,37.65,119.819,39.375z M102.279,54.452
		c0.319-0.112,0.59-0.069,0.808,0.051c0.514,0.003,1.021,0.198,1.357,0.619c1.037,1.298,0.388,3.987-0.845,5
		c-0.633,0.521-1.796,0.758-2.513,0.24c-0.681-0.492-1.01-1.202-1.046-2.04C99.975,56.765,100.729,54.997,102.279,54.452z
		 M99.118,50.334c-0.096-1.521,0.293-3.632,1.724-4.469c0.803-0.47,1.545,0.166,1.646,0.872c0.068,0.046,0.137,0.084,0.208,0.14
		c1.348,1.047,0.448,3.825-0.349,4.945c-0.47,0.661-1.449,1.164-2.215,0.61C99.429,51.924,99.17,51.178,99.118,50.334z
		 M104.631,78.284c0.706,0.486,1.263,1.393,1.398,2.211c0.037,0.222,0.056,0.457,0.053,0.689c0.135,1.062-0.086,2.228-0.885,2.938
		c-1.214,1.079-3.07,0.328-3.844-0.92c-0.625-1.007-0.977-2.359-0.742-3.535c0.147-0.741,0.594-1.237,1.168-1.477
		c0.144-0.169,0.311-0.323,0.533-0.434C103.188,77.314,103.993,77.662,104.631,78.284z M104.085,44.509
		c0.013-2.649,3.244-2.75,5.003-1.761c0.821,0.462,1.675,1.436,1.623,2.448c-0.048,0.939-0.661,1.663-1.562,1.927
		c-1.183,0.347-2.417,0.069-3.347-0.627C104.945,46.146,104.079,45.541,104.085,44.509z M107.171,51.279
		c0.621-0.262,1.341-0.277,2.001-0.148c1.579,0.306,3.948,2.35,2.17,3.926c-0.088,0.078-0.178,0.138-0.267,0.201
		c-0.066,0.083-0.143,0.161-0.241,0.23c-1.299,0.919-4.06,0.327-4.764-1.157c-0.274-0.578-0.296-1.231-0.087-1.81
		C105.853,51.821,106.51,51.263,107.171,51.279z M119.354,29.617c-0.043,0.042-0.098,0.072-0.145,0.111
		c-0.479,2.008-4.231,2.943-5.52,1.208c-1.584-0.541-2.292-2.256-1.058-3.67c0.742-0.851,1.646-1.06,2.602-1.051
		c0.305-0.091,0.625-0.147,0.952-0.155c0.293-0.007,0.589,0.03,0.876,0.096c0.955,0.054,1.915,0.338,2.51,1.131
		C120.095,27.983,119.99,29.016,119.354,29.617z M110.742,19.976c0.184-0.09,0.381-0.178,0.588-0.26
		c0.751-0.417,1.761-0.636,2.732-0.647c0.669-0.043,1.322,0.011,1.885,0.216c0.586,0.213,0.915,0.551,1.059,0.938
		c0.002,0.004,0.005,0.007,0.007,0.011c0.342,0.073,0.675,0.187,1.014,0.37c0.533,0.289,0.702,1.016,0.4,1.527
		c-0.862,1.457-3.227,2.481-5.043,2.34c-0.728,0.09-1.496,0-2.191-0.278C109.367,23.461,108.654,20.997,110.742,19.976z
		 M104.137,17.109c0.385-0.789,1.004-1.514,1.734-1.882c0.19-0.268,0.409-0.516,0.699-0.703c0.63-0.406,1.365-0.193,1.898,0.249
		c0.954,0.106,1.236,1.164,0.86,1.782c0.022,0.274,0.017,0.554-0.018,0.836c0.118,0.923-0.168,1.897-0.831,2.543
		c-0.464,0.846-1.481,1.802-2.426,1.589c-0.895,0.211-1.866-0.242-2.243-1.121C103.352,19.333,103.645,18.118,104.137,17.109z
		 M104.811,35.136c0.783,0.013,1.6,0.218,2.176,0.778c0.913,0.883,0.938,2.317,0.107,3.268c-1.116,1.28-2.729,1.016-4.045,0.196
		c-1.014-0.296-1.892-0.83-1.827-1.794c-0.383-0.719,0.169-1.383,0.833-1.51C102.798,35.435,103.891,35.122,104.811,35.136z
		 M98.589,13.244c0.213-0.165,0.445-0.301,0.724-0.366c1.215-0.282,2.056,0.715,2.254,1.823c0.011,0.061,0.018,0.127,0.026,0.19
		c0.185,0.501,0.25,1.059,0.229,1.641c-0.048,1.331-0.342,3.383-1.936,3.714c-0.741,0.153-1.318-0.068-1.75-0.486
		c-0.325-0.138-0.601-0.321-0.835-0.538C95.391,17.769,96.223,13.67,98.589,13.244z M96.325,38.504
		c0.373-0.173,0.725-0.123,1.018,0.03c0.159,0.021,0.313,0.062,0.443,0.136c2.187,1.258,2.836,6.861-0.685,6.587
		C94.328,45.042,94.047,39.56,96.325,38.504z M87.604,15.395c0.037-0.093,0.088-0.177,0.13-0.268
		c0.001-0.001,0.002-0.002,0.002-0.003c0.088-0.188,0.173-0.377,0.281-0.549c0.608-0.969,1.525-1.937,2.771-1.75
		c0.601,0.09,0.966,0.482,1.194,0.979c0.021,0.038,0.037,0.074,0.052,0.114c0.11,0.275,0.181,0.573,0.223,0.876
		c0.114,0.207,0.212,0.427,0.273,0.675c0.332,1.357,0.19,3.097-0.617,4.276c-0.864,1.263-2.637,1.967-3.919,0.786
		c-0.18-0.166-0.326-0.356-0.456-0.561c-0.18-0.164-0.296-0.379-0.306-0.649C86.817,18.132,86.997,16.623,87.604,15.395z
		 M80.467,16.738c0.285-1.863,1.859-4.193,3.934-2.66c0.376,0.279,0.504,0.675,0.472,1.051c2.065,1.34,0.109,5.597-2,6.071
		C80.404,21.756,80.225,18.315,80.467,16.738z M72.944,14.844c0.238-1.094,0.75-2.304,1.942-2.322
		c1.203-0.019,1.903,1.251,2.105,2.286c0.145,0.739,0.179,1.517,0.044,2.255c0.201,0.237,0.304,0.556,0.182,0.952
		c-0.229,0.749-0.741,1.573-1.565,1.767c-0.276,0.065-0.575,0.07-0.87,0.038c-0.578,0.129-1.189,0.028-1.715-0.397
		C71.746,18.353,71.951,16.203,72.944,14.844z M67.338,13.242c0.224,0.157,0.363,0.354,0.435,0.566
		c0.222,0.135,0.434,0.312,0.613,0.587c0.68,1.04,0.697,2.481,0.1,3.562c0.399,0.586,0.305,1.497-0.579,1.674
		c-0.46,0.092-0.907,0.089-1.326,0.004c-0.359,0.111-0.74,0.14-1.128,0.02c-1.2-0.37-1.792-1.598-1.824-2.795
		C63.577,15.001,64.98,11.596,67.338,13.242z M58.091,12.487c0.081-0.023,0.159-0.04,0.238-0.051c0.064-0.009,0.13-0.015,0.197-0.02
		c0.051-0.001,0.101-0.002,0.151,0.001c0.131-0.002,0.261-0.013,0.401,0.003c0.566,0.062,1.035,0.419,1.094,1.005
		c0.095,0.163,0.18,0.335,0.238,0.523c0.05,0.161,0.061,0.33,0.087,0.496c0.314,0.163,0.55,0.462,0.534,0.933
		c-0.028,0.831-0.397,1.523-1.023,1.92c-0.012,0.024-0.019,0.05-0.03,0.074c-0.328,0.653-0.986,1.313-1.784,1.229
		c-1.524-0.159-2.215-1.935-2.199-3.289C56.01,13.905,56.831,12.778,58.091,12.487z M67.793,24.382
		c0.206-0.221,0.501-0.369,0.898-0.363c7.805,0.125,17.12,1.752,20.958,9.402c4.043,8.057-1.257,18.13-7.223,23.688
		c-0.005,0.79-0.024,1.161-0.092,1.843c0.063,0.153,0.099,0.264,0.093,0.463c-0.047,1.884-0.084,4.979-1.973,6.087
		c-2.089,1.224-7.377,0.267-9.655,0.093c-0.253-0.02-0.511-0.038-0.772-0.057c-0.259,0.11-0.539,0.094-0.787-0.057
		c-4.545-0.327-9.855-0.827-11.478-4.849c-0.11-0.12-0.19-0.266-0.243-0.438c-0.094-0.12-0.175-0.256-0.219-0.44
		c-0.359-1.521-0.004-3.014,0.261-4.517c-0.084-0.81-0.282-1.584-0.708-2.269c-0.165-0.263-0.194-0.513-0.17-0.751
		c-3.537-4.018-4.29-10.509-3.259-15.57C55.057,28.624,60.4,24.586,67.793,24.382z M51.066,11.464
		c0.468-0.167,0.997-0.145,1.498,0.165c0.997,0.614,1.12,2.082,0.992,3.129c-0.134,1.101-0.418,1.967-1.34,2.651
		c-0.767,0.57-1.894,0.545-2.556-0.185c-0.611-0.671-0.874-1.57-0.921-2.462C48.656,13.186,49.524,11.505,51.066,11.464z
		 M48.93,32.335c0.163,1.184,0.129,2.709-1.054,3.372c-1.413,0.792-2.475-0.429-2.645-1.748c-0.051-0.4-0.056-0.814-0.038-1.229
		c-0.246-1.213-0.214-2.522,0.716-3.42c0.392-0.379,0.879-0.384,1.353-0.174C48.372,29.626,48.781,31.259,48.93,32.335z
		 M41.632,43.53c1.302,1.388,3.248,5.949,0.178,6.542c-3.114,0.603-3.152-3.351-2.016-5.413
		C39.496,43.678,40.78,42.621,41.632,43.53z M39.493,38.104c-0.898,0.527-2.498,1.037-3.309,0.05
		c-2.025-2.469,2.243-4.59,4.286-4.28c0.549,0.083,0.846,0.706,0.788,1.221C41.441,36.38,40.568,37.474,39.493,38.104z
		 M43.339,41.314c-0.502-1.262-0.404-2.86-0.059-4.152c0.241-0.902,1.225-0.961,1.789-0.515c0.455,0.075,0.895,0.3,1.198,0.618
		c1.065,1.12,1.032,3.012,0.471,4.37c-0.357,0.86-0.943,1.511-1.956,1.18C44.071,42.582,43.607,41.987,43.339,41.314z M43.41,11.155
		c0.186-0.209,0.396-0.389,0.65-0.52c1.093-0.558,1.939,0.129,2.391,1.048c0.267,0.177,0.455,0.452,0.49,0.85
		c0.074,0.842-0.208,1.783-0.512,2.568c-0.048,0.12-0.287,0.244-0.287,0.369c0,0.001,0,0.003,0,0.004c0,0.201-0.07,0.399-0.19,0.589
		c-0.046,0.074,0.024,0.158-0.024,0.228c-0.714,1.042-1.974,1.795-3.096,0.807C41.209,15.671,41.443,12.12,43.41,11.155z
		 M40.401,27.962c0.311-0.294,0.664-0.548,1.009-0.749c0.853-0.499,1.835-0.83,2.787-0.416c0.971,0.423,1.207,1.571,0.765,2.456
		c-0.401,0.805-1.178,1.454-1.913,1.944c-0.75,0.499-1.474,0.761-2.385,0.67c-0.889-0.088-1.922-0.653-1.789-1.708
		C38.981,29.318,39.613,28.541,40.401,27.962z M35.201,10.739c0.19-0.151,0.408-0.238,0.627-0.279
		c0.645-0.314,1.353-0.154,1.841,0.325c0.556,0.001,1.11,0.361,1.11,1.078c-0.001,1.307-0.102,2.541-0.654,3.742
		c-0.076,0.164-0.202,0.272-0.344,0.358c-0.185,0.211-0.415,0.373-0.721,0.421c-0.887,0.142-1.549-0.286-2.042-1.004
		C34.128,14.08,33.818,11.834,35.201,10.739z M34.124,40.617c1.289-0.628,2.908-1.063,4.338-0.72
		c1.133,0.271,0.947,1.714,0.099,2.083c-0.298,2.099-4.183,3.926-5.66,2.341C31.681,43.012,32.766,41.278,34.124,40.617z
		 M36.25,51.667c-0.683,0.939-1.809,1.892-3.024,1.222c-2.701-1.49,0.39-4.835,2.302-5.295c0.177-0.043,0.34-0.046,0.488-0.017
		c0.048-0.004,0.091-0.02,0.142-0.023c0.662-0.033,1.046,0.538,1.117,1.116C37.394,49.654,36.811,50.893,36.25,51.667z
		 M26.229,10.968c-0.048-0.591,0.297-1.221,1.062-1.224c1.124-0.005,2.353-0.069,3.391,0.434c1.328,0.643,1.356,2.561,0.058,3.272
		c-1.054,0.579-2.43,0.537-3.512,0.066c-0.511-0.223-1.086-0.724-1.169-1.311C25.992,11.726,26.065,11.338,26.229,10.968z
		 M26.614,18.167c0.134-0.397,0.471-0.72,1.012-0.728c1.54-0.023,3.209-0.352,4.281,1.015c0.536,0.682,0.795,1.648,0.13,2.352
		c-0.495,0.523-1.25,0.671-1.943,0.698c-1.14,0.042-2.941,0.125-3.759-0.822C25.502,19.719,25.859,18.785,26.614,18.167z
		 M24.938,47.391c-0.21-0.65,0.125-1.506,1.016-1.51c0.831-0.005,1.775-0.087,2.564,0.229c0.936,0.375,1.871,1.172,1.815,2.293
		c-0.096,1.936-2.622,2.543-4.164,1.897c-0.785-0.329-1.664-0.834-1.672-1.808C24.492,48.082,24.672,47.7,24.938,47.391z
		 M24.729,40.462c-0.068-0.602,0.273-1.264,1.056-1.275c1.379-0.018,3.207-0.24,3.934,1.27c0.426,0.886,0.291,2.054-0.654,2.554
		c-0.692,0.367-1.514,0.471-2.286,0.385c-0.77-0.087-1.729-0.349-2.118-1.102C24.357,41.703,24.357,41.027,24.729,40.462z
		 M24.996,33.898c-0.572-0.6-0.335-1.644,0.493-1.865c0.078-0.021,0.159-0.022,0.238-0.038c0.044-0.519,0.39-1.006,1.062-1.005
		c1.51,0.001,2.962,0.116,4.135,1.163c0.489,0.437,0.363,1.126,0,1.578C29.555,35.441,26.472,35.445,24.996,33.898z M25.155,24.673
		c0.165-0.049,0.336-0.094,0.514-0.132c0.072-0.284,0.292-0.535,0.66-0.705c0.168-0.12,0.365-0.208,0.627-0.207
		c0.078,0,0.162,0.01,0.241,0.012c0.034-0.001,0.058-0.012,0.093-0.012c0.03,0,0.05,0.018,0.078,0.021
		c0.997,0.046,2.111,0.243,2.827,0.943c0.961,0.939,0.99,2.539-0.16,3.34c-1.696,1.18-4.971-0.005-5.66-1.888
		C24.162,25.464,24.608,24.836,25.155,24.673z M23.462,54.912c0.029-0.074,0.073-0.122,0.105-0.188
		c-0.098-0.617,0.24-1.315,1.047-1.315c1.712,0.001,4.218-0.124,4.958,1.808c0.854,2.237-2.474,3.083-4.036,2.704
		C24.272,57.612,22.893,56.342,23.462,54.912z M29.371,63.507c-0.109,1.612-1.937,2.356-3.489,2.164
		c-0.101,0.045-0.2,0.092-0.301,0.134c-0.563,0.232-1.226-0.247-1.372-0.779c-0.012-0.044-0.002-0.081-0.008-0.124
		c-0.605-0.64-0.765-1.624-0.292-2.385c0.072-0.226,0.211-0.439,0.479-0.593c0.051-0.028,0.108-0.049,0.16-0.076
		c0.281-0.198,0.593-0.327,0.923-0.388c0.647-0.209,1.329-0.307,2.002-0.217C28.571,61.393,29.447,62.376,29.371,63.507z
		 M14.671,9.831c0.528-2.011,3.228-1.956,5.195-1.618c-0.032,2.045-0.187,4.083-0.343,6.121c-1.117,0.017-2.261-0.011-3.271-0.477
		C14.716,13.149,14.278,11.33,14.671,9.831z M19.32,20.964c-0.067,1.929-0.161,3.857-0.281,5.785
		c-0.075,0.237-0.141,0.474-0.197,0.711c-5.75-0.722-4.442-6.678,0.385-7.827c-0.004,0.199-0.021,0.396-0.023,0.595
		C19.2,20.502,19.25,20.742,19.32,20.964z M14.72,33.949c1.089-0.838,2.55-1.257,3.94-1.642c-0.219,3.053-0.434,6.107-0.588,9.165
		C14.745,40.745,10.457,37.233,14.72,33.949z M12.126,50.383c0.348-2.447,3.414-3.579,5.764-3.794
		c-0.001,0.085-0.003,0.168-0.005,0.253c-0.044,0.124-0.083,0.252-0.107,0.396c-0.255,1.551-0.401,3.112-0.522,4.674
		c-0.16-0.052-0.319-0.104-0.504-0.122c-1.055-0.103-2.083-0.271-3.106-0.551c-0.45-0.123-0.827-0.294-1.226-0.525
		c-0.122-0.07-0.223-0.165-0.308-0.278C12.117,50.418,12.122,50.416,12.126,50.383z M16.824,57.215
		c-0.077,0.73-0.165,1.458-0.279,2.184c-0.157,0.995-0.122,1.898,0.021,2.753c-1.001-0.007-2.001-0.031-3-0.134
		c-0.511-0.052-2.243-0.266-2.486-0.875C10.105,58.698,14.501,57.677,16.824,57.215z M14.208,75.11
		c-0.887-0.161-3.023-0.737-3.145-1.876c-0.283-2.643,3.257-5.512,5.688-5.437c0.219,0.006,0.413-0.022,0.597-0.064
		c0.498,1.759,1.148,3.368,1.951,4.854c-0.481,0.122-0.938,0.397-1.296,0.887C17.019,74.824,15.852,75.41,14.208,75.11z
		 M27.038,81.671c-0.75,1.497-1.288,3.085-2.148,4.525c-1.335,2.236-4.644,2.075-6.113,0.099c-1.978-2.66,1.395-7.134,2.913-9.231
		c0.135-0.187,0.224-0.371,0.291-0.554c1.492,1.775,3.254,3.37,5.265,4.863C27.175,81.472,27.097,81.553,27.038,81.671z
		 M29.633,72.872c-0.112-0.013-0.236-0.028-0.36-0.047c-1.195,0.214-2.447,0.008-3.093-0.931c-1.474-2.141,1.772-4.325,3.62-4.434
		c0.493-0.029,0.802,0.222,0.957,0.557c0.43,0.076,0.826,0.25,1.129,0.559c0.862,0.88,0.589,2.199-0.189,3.049
		c-0.292,0.32-0.7,0.596-1.161,0.813C30.371,72.722,30.082,72.919,29.633,72.872z M33.907,91.687
		c-4.355-0.904-3.26-4.448-2.616-7.645c2.406,1.357,5.083,2.397,7.74,3.291C38.156,89.764,36.873,92.303,33.907,91.687z
		 M36.941,77.728c-0.165,0.184-0.342,0.359-0.555,0.512c-0.311,0.224-0.812,0.193-1.126,0c-0.018-0.011-0.03-0.026-0.046-0.037
		c-3.054-0.418-2.34-8.716,2.009-6.741c0.304,0.138,0.466,0.351,0.534,0.585C40.492,72.611,38.711,76.505,36.941,77.728z
		 M49.236,95.59c-1.398,0.827-4.128,0.9-5.41-0.223c-1.567-1.376-0.941-4.398-0.251-6.664c2.71,0.571,5.576,0.547,8.234,1.218
		C51.512,92.124,51.349,94.34,49.236,95.59z M46.067,74.025c0.525-0.159,0.933,0.055,1.164,0.403
		c1.255,0.593,1.073,2.841,0.764,4.083c-0.242,0.977-0.752,1.869-1.69,2.331c-0.999,0.492-2.315,0.157-2.829-0.883
		C42.418,77.82,43.783,74.72,46.067,74.025z M57.105,76.551c0.354-0.235,0.82-0.321,1.198-0.07c1.709,1.136,1.413,3.395,0.67,5.034
		c-0.566,1.25-2.157,3.309-3.765,2.239C52.841,82.178,54.428,76.433,57.105,76.551z M64.034,95.794
		c-0.364,1.937-1.829,1.984-3.45,2.004c-1.662,0.02-3.201-0.687-4.115-2.088c-0.694-1.062-0.452-2.865-0.284-4.342
		c0.35-0.056,0.669-0.205,0.946-0.416c2.494,0.427,4.95,1.002,7.402,1.58C64.322,93.613,64.238,94.708,64.034,95.794z M64.36,73.056
		c-3.233-9.294-17.023,1.067-23.097-2.699c-2.436-1.509-4.383-4.348-1.878-6.751c1.039-0.996,2.619,0.581,1.578,1.578
		c1.389,3.309,3.552,4.483,6.49,3.522l1.458-0.367c1.294-0.29,2.586-0.603,3.902-0.777c2.543-0.338,5.191-0.632,7.733-0.06
		c3.127,0.704,4.901,1.904,5.964,4.962C66.985,73.827,64.83,74.406,64.36,73.056z M66.966,85.9
		c-0.944-0.525-1.275-1.643-1.391-2.646c-0.199-1.742,0.509-4.513,2.511-4.513c1.126-0.342,2.05,0.666,2.245,1.797
		c0.053,0.313,0.082,0.637,0.092,0.966c0.303,0.231,0.465,0.607,0.271,1.088c-0.21,0.523-0.423,1.042-0.67,1.543
		c-0.05,0.149-0.088,0.305-0.148,0.447C69.402,85.703,68.182,86.576,66.966,85.9z M79.016,97.681
		c-0.151,1.915-1.053,2.374-2.874,2.292c-2.045-0.094-3.993-0.661-5.497-2.088c-0.578-0.549-0.958-1.371-1.224-2.106
		c-0.228-0.631-0.115-2.052-0.567-1.533c0.183-0.209,0.312-0.429,0.405-0.653c2.339,0.492,4.693,0.908,7.095,1.104
		c0.922,0.074,1.836,0.155,2.747,0.23C79.101,95.845,79.088,96.762,79.016,97.681z M80.694,87.79
		c-3.597-0.048-3.411-6.833-0.765-8.131c0.064-0.03,0.124-0.029,0.188-0.049c0.406-0.393,1.118-0.312,1.499,0.057
		C83.259,81.257,84.281,87.84,80.694,87.79z M91.461,100.066c-1.851,0.688-4.148-0.902-5.377-2.116
		c-0.698-0.691-1.138-1.69-1.534-2.719c1.424,0.021,2.855-0.018,4.307-0.165c1.759-0.179,3.357-0.861,4.961-1.538
		C93.812,95.725,93.81,99.196,91.461,100.066z M94.47,84.418c-0.105,0.885-0.352,1.704-1.161,2.189
		c-0.694,0.416-1.722,0.269-2.345-0.204c-2.071-1.568-1.764-6.802,0.61-7.174c0.433-0.29,1.047-0.306,1.418,0.103
		c0.085,0.093,0.162,0.205,0.24,0.309c0.013,0.009,0.024,0.011,0.036,0.018c0.372,0.228,0.508,0.562,0.511,0.9
		C94.346,81.762,94.607,83.261,94.47,84.418z M89.874,76.51c-3.205-0.416-16.522-7.519-17.675-2.45
		c-0.318,1.404-2.47,0.809-2.151-0.593c0.761-3.346,4.769-4.131,7.802-3.291c7.832,2.168,15.854,8.21,22.432-0.214
		c0.885-1.133,2.453,0.459,1.578,1.578C98.636,75.667,95.064,77.181,89.874,76.51z M105.831,97.207
		c-3.224,0.987-6.196-2.159-7.293-4.798c-0.042-0.101-0.097-0.184-0.151-0.269c1.526-0.142,3.078-0.046,4.601-0.319
		c2.003-0.36,3.979-0.836,5.966-1.265c0,0.011,0,0.02,0.002,0.028C109.582,93.732,109.041,96.227,105.831,97.207z M108.099,66.382
		c-2.763-0.689-2.541-3.813-2.289-6.002c0.124-1.085,1.462-1.338,2.005-0.753c0.345-0.051,0.704,0.008,1.045,0.228
		c0.78,0.501,1.255,1.321,1.573,2.173C111.04,63.653,110.562,66.998,108.099,66.382z M110.663,75.589
		c-0.966-0.339-0.814-2.073,0.444-2.073c0.012,0,0.024,0,0.036,0c0.045,0,0.1-0.415,0.172-0.551
		c0.168-0.311,0.597-0.537,0.964-0.492c1.87,0.23,3.278,1.665,3.996,3.338c0.698,1.629,0.617,3.856-1.369,4.494
		C111.801,81.306,110.097,77.74,110.663,75.589z M123.926,90.181c-1.178,1.375-4.477,0.907-6.045,0.813
		c-1.798-0.107-2.97-0.757-4.069-1.85c1.24-0.582,2.312-1.412,3.048-2.609c1.826-1.237,3.818-2.496,5.567-3.973
		C123.589,84.641,125.483,88.365,123.926,90.181z M124.647,21.796c2.112,0.053,4.902,0.463,6.196,2.313
		c1.744,2.491-2.511,4.216-4.27,4.674c-0.335,0.087-0.604,0.233-0.827,0.41C125.517,26.692,125.163,24.225,124.647,21.796z
		 M134.289,77.835c-0.933,3.553-5.941,3.085-8.052,1.042c-0.115-0.11-0.232-0.206-0.354-0.287c0.36-0.625,0.666-1.284,0.894-1.992
		c0.59-1.836,1.079-3.948,1.359-6.109C132.042,70.887,135.39,73.648,134.289,77.835z"/>
	<path fill="#FC5720" d="M72.143,40.249c1,0,1-2.232,0-2.232S71.143,40.249,72.143,40.249z"/>
	<path fill="#FC5720" d="M66.025,45.588c1.739-0.663,2.945-2.238,3.631-3.91c0.657-1.598,0.396-3.64-1.132-4.638
		c-0.48-0.313-0.962-0.491-1.437-0.564c-1.738-1.129-3.411-0.266-4.517,1.429c-0.954,1.465-1.839,4.131-0.944,5.806
		C62.514,45.368,64.186,46.291,66.025,45.588z"/>
	<path fill="#FC5720" d="M74.143,45.435c1,0,1-2.232,0-2.232S73.143,45.435,74.143,45.435z"/>
	<path fill="#FC5720" d="M74.143,42.088c1,0,1-2.232,0-2.232S73.143,42.088,74.143,42.088z"/>
	<path fill="#FC5720" d="M71.143,63.95v-2.434c0-1-3-1-3,0v2.434c0,0.804,0.51,1.308,0.88,1.532
		c0.265,0.019,0.803,0.039,1.063,0.057C70.511,65.357,71.143,64.837,71.143,63.95z"/>
	<path fill="#FC5720" d="M70.143,35.062c1,0,1-2.231,0-2.231C68.143,32.83,68.143,35.062,70.143,35.062z"/>
	<path fill="#FC5720" d="M71.143,46.606c1,0,1-2.231,0-2.231S70.143,46.606,71.143,46.606z"/>
	<path fill="#FC5720" d="M64.143,33.223c1,0,1-2.232,0-2.232S63.143,33.223,64.143,33.223z"/>
	<path fill="#FC5720" d="M75.143,37.906c3,0,3-2.231,0-2.231C74.143,35.674,74.143,37.906,75.143,37.906z"/>
	<path fill="#FC5720" d="M63.143,47.218c-1,0-1,2.232,0,2.232S64.143,47.218,63.143,47.218z"/>
</g>
</svg>
