<?xml version="1.0" encoding="utf-8"?>
<!-- Generator: Adobe Illustrator 15.1.0, SVG Export Plug-In . SVG Version: 6.00 Build 0)  -->
<!DOCTYPE svg PUBLIC "-//W3C//DTD SVG 1.1//EN" "http://www.w3.org/Graphics/SVG/1.1/DTD/svg11.dtd">
<svg version="1.1" id="Layer_1" xmlns="http://www.w3.org/2000/svg" xmlns:xlink="http://www.w3.org/1999/xlink" x="0px" y="0px"
	 width="142.857px" height="108.036px" viewBox="0 0 142.857 108.036" enable-background="new 0 0 142.857 108.036"
	 xml:space="preserve">
<path fill="#29ABE2" d="M132.271,63.917c3.594-0.938,6.628-3.08,6.396-7.461c-0.172-3.252-2.726-6.026-5.792-7.742
	c3.165-3.228,2.901-8.641-0.558-11.785c2.128-1.256,3.664-3.215,3.574-6.092c-0.101-3.204-1.78-4.839-4.05-5.879
	c3.697-2.803,6.504-7.138,2.95-10.989c-2.262-2.452-4.978-2.932-8.198-2.819c-5.165,0.18-10.496,1.023-15.635,0.164
	c-0.503-0.084-0.951-0.011-1.338,0.16c-10.744-0.804-21.204,0.542-31.962,0.157c-11.968-0.429-23.907-1.642-35.887-1.735
	c-0.468-0.004-0.853,0.12-1.169,0.316c-1.908-0.268-3.825-0.483-5.773-0.508C29.317,9.63,23.553,9.781,18.058,9.173
	c-0.353-0.344-0.865-0.537-1.546-0.45c-1.812,0.232-4.015,0.182-6.066,0.501c-0.208,0.001-0.416-0.008-0.625,0.001
	C9.306,9.246,8.889,9.412,8.56,9.66c-1.536,0.504-2.858,1.391-3.679,3.013c-2.05,4.054-1.64,9.51,1.355,13.084
	c0.553,0.662,1.282,1.274,2.11,1.791c-0.97,1.021-1.634,2.316-1.776,3.903c-0.217,2.408,0.895,4.093,2.568,5.254
	c-0.73,0.696-1.302,1.641-1.639,2.934c-0.608,2.332,0.179,4.957,1.477,6.915c0.395,0.595,0.868,1.048,1.392,1.412
	c-0.811,0.969-1.255,2.266-1.107,3.978c0.219,2.543,1.112,4.434,2.529,5.922c-2.877,1.475-5.143,4.264-4.872,7.293
	c0.346,3.875,2.838,5.845,5.915,6.793c-0.183,0.216-0.356,0.44-0.513,0.679c-1.601,2.448-1.309,4.867-0.452,7.527
	c1.135,3.525,4.029,5.026,7.144,4.985c-0.059,2.526,1.263,5.202,3.115,7.524c1.8,2.257,4.273,2.952,7.023,2.248
	c1.352-0.347,2.297-1.146,3.129-2.083c0.905,3.166,2.684,6.109,5.735,7.296c2.565,0.999,5.289,0.484,7.638-0.837
	c1.091-0.612,1.9-1.611,2.63-2.626c0.735,3.376,2.415,6.307,6.362,7.062c4.11,0.787,7.243-1.635,9.694-4.69
	c0.393,0.924,1.027,1.735,2.072,2.345c0.427,0.248,0.844,0.333,1.234,0.31c0.142,0.095,0.296,0.181,0.47,0.25
	c3.757,1.511,6.906,1.454,10.479-0.461c0.527-0.282,0.966-0.616,1.346-0.979c0.538,1.37,1.506,2.532,3.395,3.328
	c3.404,1.437,6.91-1.545,9.42-5.056c0.546,1.996,1.754,3.629,4.36,4.424c4.443,1.356,8.894-1.51,11.628-5.314
	c0.638,1.248,1.521,2.346,2.846,3.126c2.231,1.313,5.5,2.474,7.716,0.357c2.646-2.525,4.643-6.464,4.894-10.28
	c0.146,0.052,0.291,0.112,0.44,0.142c2.229,1.561,5.022,2.251,7.767,1.78c1.946-0.334,3.316-1.973,4.005-3.698
	c0.277-0.695,0.303-1.456,0.219-2.229c0.016-0.19,0.015-0.389-0.021-0.6c-0.131-0.785-0.342-1.689-0.63-2.646
	c-0.012-0.065-0.028-0.134-0.039-0.198c-0.048-0.283-0.142-0.517-0.258-0.721c-0.469-1.369-1.084-2.796-1.842-4.1
	c2.016-0.733,3.705-2.188,4.239-4.315C139.306,69.616,135.967,66.428,132.271,63.917z M132.744,54.286
	c4.235,3.936-1.814,5.574-4.869,5.775c-0.026-1.12-0.054-2.241-0.054-3.364c0-1.62,0.14-3.39,0.227-5.181
	C129.834,51.933,131.382,53.022,132.744,54.286z M127.58,44.476c-0.177-1.108-0.414-3.052-0.677-5.421
	c4.51,0.839,5.15,6.283,1.075,7.549C127.898,45.871,127.76,45.163,127.58,44.476z M129.625,33.437
	c-0.911,0.593-2.11,0.765-3.234,0.836c-0.225-2.167-0.452-4.422-0.666-6.557c1.617,0.4,3.289,0.699,4.804,1.415
	C131.842,30.873,131.541,32.308,129.625,33.437z M126.188,15.666c0.578-0.042,1.157-0.08,1.737-0.101
	c2.969-0.281,3.887,1.25,2.758,4.594c-1.309,1.646-3.203,2.635-5.186,3.198c-0.075,0.021-0.127,0.067-0.197,0.095
	c-0.348-3.506-0.596-6.004-0.624-5.995C125.611,17.145,126.078,16.43,126.188,15.666z M123.226,46.011
	c-0.213,1.196-1.658,1.863-2.745,1.559c-2.706-0.755-2.643-4.424-2.644-6.67c0-1.166,0.734-1.851,1.606-2.073
	c0.065-0.026,0.131-0.06,0.2-0.078c1.253-0.346,2.316,0.42,2.744,1.558C123.097,42.192,123.585,43.988,123.226,46.011z
	 M122.534,58.22c-1.044,0.49-2.474,0.354-3.054-0.802c-0.847-1.687-0.567-3.53-0.894-5.216c-0.231-1.193,0.318-2.405,1.559-2.745
	c0.979-0.27,2.198,0.229,2.621,1.182c0.225,0.245,0.394,0.537,0.459,0.878C123.613,53.552,125.175,56.976,122.534,58.22z
	 M122.174,30.006c0.015,0.12,0.032,0.248,0.038,0.292c0.074,0.549,0.178,1.116,0.175,1.672c-0.008,1.46-0.595,2.732-2.061,3.22
	c-1.305,0.434-2.94-0.741-2.824-2.152c0.11-1.324-0.448-2.632-0.334-4.015c0.099-1.212,0.938-2.232,2.231-2.232
	c0.714,0,1.446,0.399,1.871,0.994c0.511,0.412,0.843,1.04,0.863,1.741C122.139,29.687,122.154,29.847,122.174,30.006z
	 M119.232,15.248c1.209,0.134,2.232,0.914,2.232,2.231c0,0.267-0.062,0.54-0.167,0.801c0.184,0.84,0.33,1.697,0.349,2.544
	c0.022,0.958-0.181,1.833-0.814,2.573c-0.796,0.93-2.229,0.982-3.239,0.41C114.404,22.003,114.664,14.741,119.232,15.248z
	 M116.981,63.466c-0.152,1.333-0.327,2.949-0.927,4.244c-0.245,1.829-2.87,2.938-4.007,1.065c-0.414-0.379-0.671-0.889-0.651-1.458
	c-0.592-1.696-0.755-3.541-0.536-5.33c0.266-2.179,1.654-4.615,4.248-3.355C116.92,59.512,117.187,61.672,116.981,63.466z
	 M114.143,55.516h-3c-2,0-2-2,0-2h3C115.143,53.516,115.143,55.516,114.143,55.516z M99.864,55.551
	c0.757-0.188,1.521-0.356,2.304-0.375c1.439-0.035,1.437,2.196,0,2.231c-0.587,0.014-1.144,0.154-1.711,0.295
	C99.062,58.052,98.469,55.9,99.864,55.551z M99.764,45.292c0.524-0.273,0.983-0.578,1.272-1.106
	c0.692-1.262,2.619-0.137,1.928,1.126c-0.465,0.847-1.227,1.466-2.073,1.906C99.615,47.881,98.486,45.955,99.764,45.292z
	 M104.881,64.259c1.521,1.27,3.207,3.009,3.366,5.082c0.094,1.215-1.085,2.231-2.231,2.231c-0.461,0-0.863-0.135-1.198-0.358
	c-1.517-0.417-3.121-1.365-4.353-2.241c-0.871-0.62-1.76-1.29-2.286-2.247c-0.575-1.044-0.578-2.648,0.404-3.479
	C100.662,61.487,103.083,62.76,104.881,64.259z M104.438,40.103c0.224-0.565,0.738-0.954,1.372-0.78
	c0.539,0.148,1.004,0.806,0.779,1.373c-0.269,0.679-0.704,1.182-1.115,1.773c-0.348,0.498-0.971,0.726-1.527,0.4
	c-0.494-0.289-0.748-1.027-0.4-1.527C103.82,40.948,104.259,40.552,104.438,40.103z M102.391,24.003c0.02-0.506,0.147-1,0.168-1.506
	c0.054-1.434,2.286-1.438,2.231,0c-0.02,0.508-0.148,1-0.168,1.506C104.567,25.439,102.335,25.444,102.391,24.003z M105.553,56.532
	c-1.404-0.314-0.809-2.467,0.593-2.152c0.521,0.118,1.06,0.118,1.581,0c1.401-0.315,1.997,1.837,0.593,2.152
	C107.398,56.739,106.474,56.739,105.553,56.532z M108.485,37.616c-0.766,1.214-2.697,0.095-1.927-1.126
	c0.249-0.396,0.407-0.795,0.557-1.238c0.455-1.358,2.611-0.776,2.151,0.593C109.061,36.458,108.833,37.066,108.485,37.616z
	 M108.58,32.202c0.014-0.563,0.15-1.112,0.167-1.673c0.045-1.437,2.277-1.44,2.232,0c-0.018,0.562-0.154,1.109-0.167,1.673
	C110.778,33.639,108.546,33.641,108.58,32.202z M111.031,20.93c0-1,2-1,2,0v1c0,1-2,1-2,0V20.93z M110.294,26.385
	c0.141-0.609,0.192-1.233,0.334-1.841c0.326-1.401,2.479-0.807,2.151,0.593c-0.142,0.608-0.192,1.231-0.334,1.841
	C112.121,28.38,109.969,27.785,110.294,26.385z M102.913,13.989c2.47-0.403,7.49-0.848,7.342,2.988
	c-0.04,0.992-0.652,1.89-1.64,2.152c-0.979,0.261-1.928,0.153-2.914,0.014c-0.892-0.126-1.354-0.25-2.027-0.269
	c-1.103-0.03-1.778-0.708-2.035-1.524c-0.118-0.183-0.22-0.381-0.285-0.616C101.058,15.657,101.71,14.186,102.913,13.989z
	 M100.702,28.459c0.224-0.457,0.396-0.923,0.558-1.406c0.452-1.359,2.607-0.777,2.15,0.593c-0.22,0.664-0.475,1.311-0.781,1.939
	c-0.267,0.546-1.031,0.69-1.527,0.4C100.549,29.663,100.436,29.005,100.702,28.459z M98.535,32.249
	c0.216-0.232,0.353-0.497,0.494-0.779c0.646-1.286,2.571-0.155,1.927,1.127c-0.228,0.453-0.497,0.858-0.843,1.23
	C99.13,34.882,97.556,33.301,98.535,32.249z M97.604,37.507c-0.368,0.388-0.579,0.837-0.717,1.349
	c-0.375,1.389-2.527,0.798-2.151-0.593c0.237-0.881,0.661-1.67,1.29-2.334C97.018,34.883,98.593,36.463,97.604,37.507z
	 M97.437,49.72c-0.528,0.511-1.122,0.938-1.731,1.345c-1.201,0.803-2.317-1.131-1.127-1.927c0.457-0.305,0.885-0.613,1.28-0.996
	C96.893,47.142,98.473,48.719,97.437,49.72z M91.294,13.742c1.45-0.011,2.903-0.154,4.349,0c1.21,0.13,2.232,0.918,2.232,2.232
	c0,0.982-0.681,1.901-1.639,2.152c-1.594,0.415-3.343,0.429-4.961,0.078C88.416,18.204,88.424,13.763,91.294,13.742z M94.63,27.812
	c-0.867,2.481-4.676,2.446-6.819,2.269c-2.202-0.182-4.479-0.528-6.199-1.858c-2.542,0.635-3.559-3.435-0.948-4.363
	C82.85,23.082,96.55,22.308,94.63,27.812z M88.378,78.516c-0.401-1.384,1.751-1.62,2.151-0.24c0.215,0.741,0.207,2.24,0.207,2.24
	c0.001,2-2.231,2-2.231,0C88.505,80.516,88.537,79.067,88.378,78.516z M87.393,73.901v-1.845c0-1.23,1.845-1.23,1.845,0v1.845
	C89.237,75.131,87.393,75.131,87.393,73.901z M89.86,69.137c-0.305,1.405-2.455,0.811-2.151-0.593
	c0.133-0.618,0.438-1.244,0.461-1.878c0.053-1.434,2.285-1.439,2.231,0C90.37,67.524,90.041,68.306,89.86,69.137z M89.286,53.895
	c-1.439,0.043-1.436-2.188,0-2.231c0.549-0.017,0.99-0.223,1.444-0.517c1.212-0.785,2.33,1.148,1.127,1.927
	C91.076,53.58,90.219,53.867,89.286,53.895z M90.017,44.875c-0.919,0.488-1.649,1.101-2.738,1.157c-1.438,0.074-1.432-2.157,0-2.231
	c0.573-0.031,1.119-0.591,1.612-0.852C90.161,42.274,91.289,44.2,90.017,44.875z M72.389,52.222c-1.439,0.002-1.439-2.229,0-2.231
	c0.442,0,0.867,0.009,1.277-0.182c0.551-0.257,1.198-0.16,1.526,0.4c0.286,0.488,0.152,1.271-0.399,1.527
	C74.006,52.103,73.253,52.221,72.389,52.222z M72.634,64.062v1.845c0,1.23-1.845,1.23-1.845,0v-1.845
	C70.789,62.832,72.634,62.832,72.634,64.062z M73.96,42.071c-0.58,2.602-3.057,4.584-5.689,3.128
	c-2.3-1.271-2.121-4.893-1.632-7.047c0.545-2.405,1.941-5.128,4.746-5.172c0.908-0.013,1.527,0.42,1.862,1.022
	c0.209,0.244,0.372,0.554,0.457,0.953C74.186,37.221,74.47,39.787,73.96,42.071z M69.773,59.512c0.465,0.264,0.854,0.634,1.229,1.01
	c1.02,1.017-0.559,2.595-1.578,1.578c-0.245-0.244-0.477-0.491-0.778-0.662C67.396,60.729,68.521,58.8,69.773,59.512z M71.031,73.93
	c0-1,2-1,2,0v2c0,2-2,2-2,0V73.93z M73.297,80.378c0.151,0.649,0.207,1.312,0.207,2.428c0.002,1.116-2.229,1.116-2.231,0
	c0,0-0.021-1.146-0.127-1.606C70.82,79.801,72.972,78.977,73.297,80.378z M73.464,69.806c-0.103,0.352-0.126,0.676-0.127,1.042
	c-0.003,1.438-2.234,1.439-2.231,0c0.001-0.552,0.051-1.103,0.208-1.634C71.719,67.835,73.873,68.422,73.464,69.806z M73.666,60.181
	c0.929-0.54,1.948-0.89,2.943-1.283c0.566-0.225,1.224,0.239,1.372,0.779c0.175,0.634-0.214,1.149-0.779,1.372
	c-0.819,0.325-1.645,0.615-2.409,1.059C73.547,62.832,72.423,60.903,73.666,60.181z M77.909,50.884
	c-1.439,0.057-1.434-2.175,0-2.232c0.419-0.017,0.815-0.164,1.21-0.295c1.369-0.454,1.951,1.701,0.593,2.152
	C79.12,50.706,78.537,50.858,77.909,50.884z M78.158,36.495c-0.729-0.958-1.288-2.305-1.352-3.595
	c-0.361-0.651-0.411-1.436,0.013-2.16c0.581-0.992,2.048-1.489,3.054-0.8c2.004,1.374,5.559,4.27,3.957,7.008
	c-0.665,1.139-2.009,1.507-3.239,1.3C79.547,38.071,78.771,37.297,78.158,36.495z M81.963,46.685
	c0.632-0.176,1.208-0.495,1.841-0.669c1.389-0.385,1.978,1.768,0.593,2.151c-0.633,0.175-1.209,0.495-1.841,0.67
	C81.166,49.221,80.578,47.068,81.963,46.685z M77.909,13.575c1.338-0.028,2.624-0.318,3.963-0.05
	c1.566,0.314,3.01,2.077,2.428,3.726c-0.933,2.64-3.782,1.857-5.889,1.791c-1.07-0.033-1.984-0.773-2.188-1.799
	c-0.335-0.396-0.546-0.899-0.546-1.436C75.678,14.571,76.693,13.599,77.909,13.575z M76.07,27.462
	c-1.037,2.085-2.839,3.163-5.328,2.848c-2.615-0.331-5.48-1.77-5.437-4.801c0.023-1.539,1.4-2.421,2.824-2.152
	c2.166,0.409,4.414,0.108,6.601,0.088C77.056,23.424,77.5,26.328,76.07,27.462z M65.117,14.093c0.351-0.31,0.817-0.513,1.417-0.518
	c1.663-0.013,3.338-0.118,4.941,0.414c2.206,0.73,2.035,3.511,0,4.304c-1.87,0.728-4.468,0.802-6.371,0.167
	C62.82,17.698,63.285,14.539,65.117,14.093z M64.748,34.269c-0.431,1.425-1.888,2.729-3.131,3.378
	c-1.574,0.819-4.13,1.17-5.062-0.837c-1.986-4.281,3.266-6.288,6.632-6.337C65.382,30.439,65.896,33.018,64.748,34.269z
	 M48.8,48.652c1.431,0.085,1.438,2.317,0,2.232c-0.527-0.033-0.975-0.205-1.468-0.375c-0.574-0.198-0.948-0.758-0.778-1.373
	c0.152-0.558,0.796-0.979,1.371-0.779C48.173,48.443,48.684,48.645,48.8,48.652z M49.924,38.44c0.257,0.231,0.634,0.345,0.944,0.495
	c0.549,0.262,0.688,1.035,0.4,1.525c-0.326,0.558-0.978,0.663-1.526,0.401c-0.509-0.243-0.972-0.461-1.396-0.844
	C47.274,39.052,48.858,37.479,49.924,38.44z M44.785,53.336c0.849,0.02,1.676,0.205,2.403,0.655
	c1.222,0.754,0.102,2.685-1.127,1.927c-0.398-0.247-0.811-0.339-1.276-0.35C43.348,55.535,43.346,53.303,44.785,53.336z
	 M44.846,46.462c0.335,0.168,0.669,0.336,1.004,0.502c1.286,0.644,0.156,2.569-1.127,1.927c-0.335-0.167-0.669-0.334-1.004-0.502
	C42.432,47.744,43.563,45.819,44.846,46.462z M45.502,37.507c-0.435-0.434-0.828-0.891-1.18-1.396c-0.347-0.5-0.094-1.237,0.4-1.527
	c0.556-0.326,1.181-0.098,1.527,0.4c0.24,0.348,0.532,0.646,0.829,0.945C48.098,36.949,46.52,38.527,45.502,37.507z M42.323,34.162
	c-0.489-0.49-0.949-0.996-1.346-1.564c-0.349-0.5-0.093-1.238,0.399-1.526c0.558-0.327,1.18-0.098,1.527,0.399
	c0.285,0.41,0.646,0.762,0.996,1.114C44.919,33.603,43.341,35.182,42.323,34.162z M39.472,30.088
	c-0.28-0.566-0.461-1.098-0.487-1.734c-0.061-1.439,2.172-1.434,2.231,0c0.01,0.236,0.079,0.397,0.182,0.607
	C42.033,30.248,40.109,31.379,39.472,30.088z M40.329,43.786l1.003,0.501c1.287,0.644,0.158,2.569-1.126,1.927l-1.004-0.501
	C37.915,45.069,39.046,43.144,40.329,43.786z M43.537,63.969c1.613-0.545,3.986-1.066,5.275,0.419c1.675,1.93,0.115,4-1.496,5.253
	c-0.671,0.522-1.458,1.277-2.242,1.627c-1.265,0.563-2.547,0.871-3.879,1.228c-1.563,0.421-2.622-0.755-2.755-1.999
	c-0.517-0.634-0.731-1.52-0.267-2.45C39.271,65.848,41.4,64.69,43.537,63.969z M50.305,55.847c0.906,0.054,1.519,0.493,2.237,0.988
	c0.5,0.344,0.725,0.972,0.4,1.527c-0.29,0.495-1.025,0.745-1.527,0.399c-0.308-0.212-0.72-0.659-1.11-0.683
	C48.875,57.99,48.867,55.757,50.305,55.847z M52.025,52.732c0.036,0.03-0.043-0.008-0.047-0.009
	c-0.605-0.048-1.115-0.471-1.115-1.116c0-0.571,0.509-1.164,1.115-1.116c0.637,0.05,1.139,0.245,1.625,0.662
	c0.462,0.396,0.405,1.173,0,1.578C53.149,53.186,52.486,53.126,52.025,52.732z M57.619,52.827c0.461,0.397,0.406,1.171,0,1.578
	c-0.453,0.453-1.118,0.397-1.578,0c-0.134-0.117-0.421-0.232-0.611-0.328c-1.285-0.646-0.155-2.572,1.127-1.927
	C56.941,52.344,57.291,52.544,57.619,52.827z M56.871,45.524c0.326-0.558,0.977-0.661,1.526-0.4c0.384,0.181,0.786,0.32,1.171,0.501
	c0.55,0.26,0.688,1.037,0.4,1.527c-0.327,0.558-0.977,0.661-1.527,0.399c-0.383-0.181-0.786-0.319-1.171-0.501
	C56.721,46.791,56.583,46.015,56.871,45.524z M55.229,43.708c-0.147,0.537-0.807,1.005-1.372,0.779
	c-0.869-0.347-1.473-0.924-2.005-1.684c-0.35-0.499-0.093-1.238,0.399-1.527c0.559-0.327,1.179-0.097,1.527,0.4
	c0.162,0.231,0.398,0.549,0.671,0.658C55.014,42.559,55.403,43.071,55.229,43.708z M55.284,60.414
	c0.391,0.753,0.878,1.45,1.116,2.274c0.4,1.386-1.753,1.974-2.151,0.593c-0.181-0.625-0.593-1.166-0.892-1.74
	C52.694,60.264,54.621,59.135,55.284,60.414z M57.109,66.665c0.013,0.533,0.164,1.03,0.294,1.544
	c0.355,1.396-1.797,1.987-2.151,0.593c-0.18-0.708-0.355-1.403-0.374-2.137C54.842,65.225,57.073,65.229,57.109,66.665z
	 M58.281,71.349c0.016,0.418,0.163,0.815,0.294,1.209c0.455,1.37-1.7,1.953-2.151,0.593c-0.197-0.591-0.35-1.175-0.375-1.802
	C55.991,69.91,58.224,69.915,58.281,71.349z M58.407,75.726c0.151,0.649,0.207,1.79,0.208,1.79c0.001,3-2.23,3-2.231,0
	c-0.001,0-0.021-0.826-0.128-1.286C55.931,74.828,58.083,74.325,58.407,75.726z M57.143,80.516c0-1,2-1,2,0v3c0,1-2,1-2,0V80.516z
	 M59.228,55.624c0-0.576,0.509-1.16,1.116-1.116c0.721,0.051,1.266,0.34,1.793,0.829c1.057,0.981-0.526,2.555-1.579,1.578
	c-0.004-0.004-0.191-0.174-0.214-0.175C59.736,56.696,59.228,56.265,59.228,55.624z M62.289,49.895
	c-0.194-0.143-0.568-0.22-0.836-0.335c-0.56-0.238-0.68-1.051-0.4-1.527c0.336-0.573,0.968-0.639,1.526-0.4
	c0.278,0.119,0.583,0.147,0.837,0.335c0.489,0.359,0.732,0.961,0.4,1.526C63.533,49.978,62.781,50.257,62.289,49.895z
	 M64.024,56.682c0.866,0.021,1.646,0.237,2.294,0.83c1.064,0.972-0.518,2.545-1.578,1.578c-0.115-0.106-0.435-0.169-0.716-0.176
	C62.587,58.88,62.585,56.649,64.024,56.682z M52.254,14.49c0.227-0.861,0.91-1.585,2.066-1.584c2.188,0,5.622,0.013,6.335,2.642
	c0.317,1.17-0.383,2.425-1.56,2.746c-1.938,0.526-4.156-0.222-5.901-1.061C52.207,16.757,51.888,15.464,52.254,14.49z
	 M52.312,23.184c2.074-0.674,4.297-0.25,6.413,0.149c0.437-0.073,0.916-0.01,1.406,0.25c0.069,0.036,0.125,0.079,0.189,0.115
	c0.259,0.117,0.472,0.271,0.633,0.457c0.293,0.26,0.553,0.555,0.813,0.896c0.713,0.937,0.186,2.541-0.8,3.054
	c-2.069,1.075-4.402,1.488-6.704,1.732c-1.896,0.201-3.875-0.009-4.944-1.801C48.005,25.836,50.438,23.793,52.312,23.184z
	 M41.645,13.807c0.359-0.434,0.903-0.729,1.634-0.734c1.603-0.012,3.203-0.145,4.775,0.248c2.193,0.545,2.07,3.694,0,4.304
	c-2.004,0.588-3.985,0.88-6.037,0.333C39.843,17.378,40.098,14.625,41.645,13.807z M38.143,21.516c0-2,2-2,2,0v3c0,1-2,1-2,0V21.516
	z M38.557,52.541c0.722,0.135,1.459,0.169,2.175,0.333c1.402,0.323,0.807,2.476-0.593,2.153c-0.716-0.166-1.454-0.201-2.176-0.336
	c-0.598-0.111-0.931-0.824-0.779-1.372C37.355,52.697,37.959,52.428,38.557,52.541z M36.873,40.279
	c0.48,0.484,0.776,0.932,0.83,1.625c0.047,0.608-0.543,1.116-1.116,1.116c-0.576,0-0.963-0.417-1.073-0.939
	c-0.072-0.076-0.145-0.15-0.218-0.224C34.281,40.835,35.859,39.257,36.873,40.279z M29.769,25.95
	c0.236-0.56,1.054-0.677,1.527-0.398c0.574,0.335,0.636,0.965,0.399,1.525c-0.05,0.119-0.014,0.319-0.016,0.44
	c-0.006,1.439-2.238,1.441-2.231,0C29.451,26.949,29.548,26.473,29.769,25.95z M29.334,21.516
	C29.334,21.516,29.334,23.516,29.334,21.516c0,0,2.459-2,2.459,0l0,0C31.793,23.516,29.334,23.516,29.334,21.516z M32.684,32.035
	c0,0.122-0.035,0.323,0.016,0.44c0.237,0.56,0.174,1.19-0.4,1.526c-0.475,0.278-1.29,0.16-1.526-0.4
	c-0.222-0.523-0.318-0.999-0.32-1.567C30.445,30.594,32.678,30.595,32.684,32.035z M32.845,35.923
	c0.477-0.279,1.287-0.159,1.526,0.4c0.116,0.267,0.192,0.642,0.335,0.835c0.361,0.493,0.084,1.245-0.399,1.528
	c-0.566,0.332-1.169,0.089-1.527-0.401c-0.186-0.253-0.215-0.558-0.334-0.836C32.205,36.891,32.272,36.258,32.845,35.923z
	 M33.143,50.516h1c2,0,2,3,0,3h-1C31.143,53.516,31.143,50.516,33.143,50.516z M29.561,12.57c1.196-0.006,2.5-0.109,3.656,0.257
	c1.627,0.515,3.011,2.065,2.381,3.877c-0.525,1.51-2.019,2.138-3.535,1.997c-0.628-0.058-1.252-0.061-1.872-0.176
	c-0.148-0.028-0.297-0.01-0.444-0.01c-0.009,0-0.009,0-0.019,0c-1.216,0-2.232-1.058-2.232-2.302c0-0.142,0.017-0.297,0.044-0.433
	c-0.132-0.283-0.21-0.622-0.21-0.949C27.329,13.609,28.345,12.578,29.561,12.57z M28.093,51.536
	c0.531-0.156,1.082-0.206,1.635-0.207c1.439-0.003,1.439,2.228,0,2.231c-0.365,0.001-0.69,0.024-1.042,0.127
	C27.302,54.094,26.714,51.941,28.093,51.536z M24.254,55.537c0.049,0.835,0.043,1.703-0.184,2.503
	c-0.738,2.612-3.576,3.116-4.659,0.55c-0.535-1.264-0.636-3.435-0.267-4.812c0.234-0.875,0.611-1.809,1.352-2.197
	c0.135-0.07,0.268-0.12,0.401-0.166c0.444-0.691,1.268-1.02,1.957-0.789c0.806,0.271,1.257,1.094,1.312,2.017
	c0.147,0.53,0.146,1.128-0.006,1.653C24.19,54.711,24.229,55.123,24.254,55.537z M19.771,39.272c0.252-0.59,0.823-0.928,1.445-1.041
	c1.325-0.485,3.095,0.177,3.048,2c-0.027,1.035-0.223,2.055-0.385,3.074c-0.097,0.612-0.146,1.309-0.029,1.687
	c0.736,2.388-2.999,4.033-4.079,1.719c-0.084-0.179-0.146-0.357-0.219-0.535c-0.002,0-0.005,0.001-0.006,0.002
	c-0.005-0.016-0.006-0.03-0.011-0.044C18.617,43.812,18.762,41.635,19.771,39.272z M18.143,32.516v-4c0-4,5-4,5,0v4
	C23.143,35.516,18.143,35.516,18.143,32.516z M18.708,14.517c0.285-0.954,1.144-2.001,2.152-2.001h0.837
	c0.589,0,1.05,0.554,1.396,0.851c0.662,0.32,1.164,1.265,1.17,2.224c0.013,2.459,0.064,5.421-2.643,6.461
	c-0.85,0.327-2.145-0.292-2.52-1.129C18.271,19.07,18.125,16.474,18.708,14.517z M18.203,56.897
	c-0.132-0.091-0.268-0.181-0.43-0.248c-1.753-0.723-3.237-1.603-3.824-3.49c-0.223-0.717-0.65-2.197,0.113-2.698
	c0.8-0.525,2.043-0.456,2.95-0.469c0.362-0.006,0.673-0.087,0.942-0.213C18.023,52.156,18.045,54.546,18.203,56.897z M16.896,39.222
	c0.112,1.168,0.202,2.341,0.229,3.52c0.012,0.541,0.181,0.98,0.445,1.318c0.062,0.473,0.102,0.954,0.146,1.433
	c-0.319-0.249-0.716-0.424-1.204-0.468c-1.255-0.112-3.172,0.046-3.951-1.131c-0.706-1.066-0.945-2.347-0.627-3.567
	C12.325,38.828,15.162,39.074,16.896,39.222z M15.072,15.705c-0.029,2.5-0.01,6.365-1.484,7.861
	c-1.675-0.676-2.703-2.64-3.217-4.407C9.54,16.306,12.909,15.783,15.072,15.705z M11.048,31.759
	c-0.466-1.749,3.054-2.603,4.616-2.612c0.171,1.774,0.41,3.543,0.652,5.313C14.189,34.37,11.63,33.949,11.048,31.759z M11.84,66.249
	c-1.891-2.914,2.79-5.697,5.25-4.792c0.612,0.225,1.144,0.174,1.571-0.046c0.228,2.313,0.335,4.62,0.509,6.92
	c-0.107-0.014-0.2-0.049-0.316-0.05C16.556,68.271,13.264,68.443,11.84,66.249z M15.997,78.429c-0.91-2.833,0.486-4.356,2.984-5.219
	c0.507,2.468,1.622,4.609,3.023,6.595C19.698,81.099,16.942,81.366,15.997,78.429z M22.483,72.07
	c-1.7-0.037-2.704-2.192-2.662-4.182c0.034-1.689,0.597-3.223,1.692-3.912c0.791-1.609,3.226-1.219,3.246,1.183
	c0.009,1.04,0.096,2.077,0.016,3.117C24.648,69.958,24.14,72.105,22.483,72.07z M23.238,77.769c0.16-1.178,0.851-1.842,1.77-2.161
	c0.178-0.062,0.358-0.095,0.538-0.106c0.539-0.183,1.163-0.042,1.661,0.644c0.603,0.826,1.174,1.709,1.636,2.651
	c0.761,1.547,0.727,3.661-0.967,4.057c-1.427,0.333-2.996-1.087-3.784-2.457c-0.104-0.179-0.533-0.941-0.265-0.491
	c-0.096-0.16-0.294-0.473-0.365-0.694C23.312,78.742,23.169,78.267,23.238,77.769z M26.093,90.393
	c-1.771-1.463-4.021-5.009-1.724-6.804c0.145-0.086,0.292-0.167,0.434-0.258c0.55,0.64,1.104,1.277,1.652,1.915
	c1.104,1.283,2.328,2.409,3.63,3.427C28.937,90.146,27.524,91.578,26.093,90.393z M28.973,66.787
	c-0.826-1.632-1.715-3.299-2.035-5.117c-0.326-1.854,0.214-4.721,2.46-5.178c2.293-0.465,3.706,1.265,4.386,3.25
	c0.771,2.253,0.602,4.642-0.23,6.848c-0.569,1.51-2.198,1.793-3.32,1.266C29.737,67.731,29.281,67.399,28.973,66.787z
	 M30.471,71.763c0.322-1.386,1.616-2.304,2.987-2.207c0.755-0.213,1.6-0.027,2.197,0.55c1.394,1.348,3.261,2.61,3.278,4.782
	c0.013,1.399-0.928,3.154-2.444,3.408c-1.409,0.236-2.529-0.179-3.6-1.1C31.45,75.957,30.012,73.737,30.471,71.763z M34.906,87.952
	c-0.03-0.016-0.065-0.035-0.126-0.068c-0.392-0.22-0.826-0.438-1.124-0.75c-0.843-0.878-0.89-1.853-0.393-2.868
	c0.469-0.957,1.46-1.631,2.744-1.33c0.191,0.044,0.376,0.126,0.553,0.222c0.605-0.024,1.212,0.142,1.604,0.552
	c0.101,0.106,0.227,0.195,0.351,0.28c0.007,0.004,0.008,0.004,0.014,0.009c0.08,0.05,0.158,0.102,0.238,0.151
	c0.61,0.387,1.226,0.771,1.812,1.185c0.463,0.329,0.994,0.724,1.266,1.188c0.636,1.092,0.383,2.204-0.809,2.927
	c-0.717,0.436-1.968,0.472-2.789,0.266c-1.09-0.274-1.965-0.848-2.848-1.434C35.233,88.173,35.071,88.062,34.906,87.952z
	 M44.464,94.372c-1.189,1.689-3.497,2.352-5.312,1.36c-1.092-0.595-1.828-1.746-2.314-3.058c0.714,0.318,1.434,0.623,2.168,0.903
	c0.866,0.331,1.569,0.106,2.043-0.382c1.241,0.28,2.514,0.503,3.802,0.686C44.702,94.058,44.565,94.226,44.464,94.372z
	 M40.195,81.292c-0.526-0.601-0.653-1.277-0.534-1.897c-0.427-1.422,0.744-3.396,2.704-3.003c0.077,0.016,0.348,0.05,0.306,0.048
	c0.134,0.014,0.27,0.028,0.403,0.042c0.408,0.042,0.815,0.085,1.224,0.136c1.034,0.129,2.072,0.271,3.048,0.654
	c2.358,0.928,3.659,3.088,2.596,5.544C48.101,87.071,42.178,83.551,40.195,81.292z M51.067,91.262
	c-0.825-0.104-1.826-0.207-2.521-0.713c-1.04-0.759-1.462-1.865-1.31-3.138c0.146-1.208,0.905-2.231,2.231-2.231
	c0.445,0,0.911,0.17,1.307,0.444c0.151,0.017,0.304,0.033,0.455,0.048c0.741,0.081,1.489,0.158,2.223,0.3
	c1.816,0.351,3.603,1.917,2.443,3.911C54.912,91.575,52.741,91.475,51.067,91.262z M57.2,99.235
	c-3.342,1.25-4.406-1.845-4.784-4.654c2.771,0.159,5.511,0.253,8.094,0.414c0.447,0.029,0.895,0.042,1.344,0.049
	C60.637,96.848,59.181,98.494,57.2,99.235z M64.779,91.373c-1.319,0.235-2.994-0.089-4.14-0.832c-0.86-0.558-1.553-1.432-1.472-2.52
	c0.07-0.948,0.618-2.064,1.545-2.458c1.247-0.531,2.355-0.249,3.646-0.217c0.17,0.004,0.336,0.031,0.496,0.07
	c0.167-0.042,0.337-0.07,0.508-0.07c1.271,0,2.16,1.018,2.231,2.231C67.699,89.346,66.584,91.05,64.779,91.373z M66.031,50.93
	c-1,0-1-2,0-2h1c2,0,2,2,0,2H66.031z M76.812,97.25c-2.053,2.452-5.227,1.307-7.512,0.388c-0.241-0.097-0.463-0.137-0.677-0.152
	c-0.58-0.399-0.638-1.606-0.602-2.744c1.553-0.135,3.103-0.283,4.639-0.371c1.768-0.1,3.536-0.15,5.305-0.195
	C77.66,95.433,77.299,96.669,76.812,97.25z M78.941,87.93c0.055,0.834-0.295,1.727-1.076,2.076c-1.473,0.658-3.143,0.801-4.73,0.582
	c-1.81-0.25-3.006-2.044-2.561-3.813c0.694-2.761,4.374-2.291,6.499-2.264C79.037,84.533,79.659,86.62,78.941,87.93z M82.153,58.259
	c-0.738,0.377-1.457,0.77-2.273,0.95c-1.403,0.31-1.998-1.842-0.594-2.153c0.638-0.141,1.163-0.429,1.74-0.724
	C82.307,55.682,83.436,57.607,82.153,58.259z M83.703,54.827c0.609-0.404,1.231-0.752,1.94-0.948
	c1.39-0.387,1.979,1.766,0.594,2.151c-0.524,0.146-0.959,0.425-1.407,0.724C83.627,57.553,82.512,55.62,83.703,54.827z
	 M83.636,97.833c-0.312-1.239-0.31-2.528-0.379-3.81c1.229-0.047,2.458-0.108,3.687-0.198c0.007-0.001,0.012-0.003,0.017-0.003
	c1.112-0.027,2.222-0.04,3.329-0.053C88.162,97.005,84.505,101.287,83.636,97.833z M84.845,89.897
	c-0.97-0.344-1.605-1.1-1.639-2.153c-0.054-1.708,0.985-3.474,2.797-3.747c1.293-0.195,2.492-0.01,3.785,0.009
	c1.084,0.017,1.76,0.662,2.026,1.456c0.361,0.393,0.589,0.896,0.539,1.446C92.057,90.272,87.468,90.828,84.845,89.897z
	 M92.418,62.435c-0.235,0.235-0.499,0.441-0.511,0.717c-0.061,1.434-2.294,1.439-2.231,0c0.041-0.968,0.499-1.629,1.164-2.295
	C91.857,59.837,93.435,61.415,92.418,62.435z M92.87,42.034c-0.229,0.562-0.731,0.957-1.371,0.78
	c-0.533-0.146-1.012-0.809-0.779-1.373c0.291-0.71,0.748-1.144,1.29-1.663c1.038-0.996,2.618,0.58,1.578,1.578
	C93.397,41.539,92.971,41.792,92.87,42.034z M94.176,57.893c0.574-0.17,1.048-0.613,1.573-0.891c1.27-0.674,2.397,1.253,1.126,1.926
	c-0.713,0.378-1.319,0.885-2.106,1.117C93.387,60.454,92.799,58.3,94.176,57.893z M103.172,74.594
	c1.809,0.146,2.938,2.949,0.96,4.204c-1.281,0.811-2.972,1.484-4.48,1.689c-2.007,0.272-4.528-0.229-4.566-2.78
	C95.024,73.66,100.281,73.535,103.172,74.594z M95.967,88.229c-1.101-2.206,0.368-4.124,2.628-4.457
	c1.371-0.202,2.7-0.121,4.075-0.1c0.547,0.009,0.988,0.178,1.328,0.445c1.214,0.176,2.297,1.204,1.828,2.714
	c-0.611,1.969-2.888,2.492-4.689,2.737C99.432,89.801,96.906,90.112,95.967,88.229z M98.989,98.896
	c-2.329,0.313-2.407-2.926-2.265-5.274c1.389-0.064,2.775-0.153,4.167-0.306c1.96-0.217,3.919-0.701,5.859-1.274
	C105.75,95.658,102.935,98.369,98.989,98.896z M108.205,73c1.018-0.984,2.323-1.605,3.701-1.879c0.344-0.205,0.734-0.33,1.136-0.33
	c0.378,0,0.721,0.1,1.023,0.262c1.584,0.451,1.884,2.555,0.895,3.672c-0.406,1.054-1.147,2.026-1.903,2.758
	c-1.18,1.139-3.189,2.504-4.852,1.419C106.124,77.545,106.595,74.557,108.205,73z M109.424,86.056
	c-1.662-1.461-0.453-3.678,1.128-4.537c1.105-0.599,2.389-1.132,3.662-1.193c0.052-0.003,0.101,0.009,0.152,0.011
	c0.876-0.126,1.833,0.337,2.276,1.095c0.646,1.105,0.202,2.369-0.801,3.053C114.058,85.702,111.534,87.91,109.424,86.056z
	 M118.226,95.381c-0.753,2.345-2.59,2.539-5.514,0.581c-0.95-1.234-1.089-3.78-1.365-5.297c-0.006-0.028-0.017-0.051-0.022-0.079
	c0.55-0.179,1.098-0.354,1.642-0.522c0.186-0.058,0.351-0.133,0.501-0.219c1.298-0.235,2.417-0.773,3.652-1.479
	c0.615-0.35,1.264-0.641,1.912-0.93C120.703,89.812,119.192,93.123,118.226,95.381z M122.999,75.655
	c-0.018,0.028-0.026,0.036-0.04,0.052c-0.002,0.006-0.002,0.009-0.004,0.015c-0.079,0.244-0.151,0.488-0.223,0.734
	c-0.136,0.469-0.272,0.937-0.457,1.39c-0.635,1.554-1.808,2.769-3.636,2.347c-1.398-0.323-2.061-2.082-1.334-3.279
	c0.573-0.943,0.92-1.94,1.033-2.889c0.146-1.208,0.906-2.231,2.231-2.231c0.691,0,1.446,0.397,1.88,0.991
	C123.272,73.452,123.615,74.732,122.999,75.655z M121.643,69.231c-1.217,0-2.5-1.014-2.5-2.231v-3.513
	c0-1.217,1.283-2.231,2.5-2.231c1.216,0,2.5,1.014,2.5,2.231V67C124.143,68.217,122.859,69.231,121.643,69.231z M130.927,88.737
	c-1.562,0.129-3.773-0.678-4.749-1.952c-0.418-0.547-0.964-0.826-1.525-0.909c-0.053-0.065-0.108-0.129-0.162-0.194
	c0.031,0.031-0.259-0.353-0.258-0.351c-0.131-0.18-0.261-0.36-0.393-0.539c-0.107-0.148-0.228-0.288-0.339-0.434
	c0.871-0.98,1.61-2.062,2.305-3.2c0.552-0.903,0.895-1.811,1.19-2.723c0.408,0.227,0.838,0.424,1.298,0.566
	c1.762,1.465,3.095,5.034,3.702,7.301C132.265,87.448,132.35,88.62,130.927,88.737z M130.582,75.046
	c-0.677-0.468-1.407-0.797-2.187-0.951c0.01-0.243-0.026-0.475-0.088-0.698c-0.036-2.298-0.121-4.594-0.215-6.889
	c1.222,0.739,2.438,1.488,3.561,2.374C134.537,71.157,133.366,75.349,130.582,75.046z"/>
</svg>
