<?xml version="1.0" encoding="utf-8"?>
<!-- Generator: Adobe Illustrator 15.1.0, SVG Export Plug-In . SVG Version: 6.00 Build 0)  -->
<!DOCTYPE svg PUBLIC "-//W3C//DTD SVG 1.1//EN" "http://www.w3.org/Graphics/SVG/1.1/DTD/svg11.dtd">
<svg version="1.1" id="Layer_1" xmlns="http://www.w3.org/2000/svg" xmlns:xlink="http://www.w3.org/1999/xlink" x="0px" y="0px"
	 width="96.429px" height="95.088px" viewBox="0 0 96.429 95.088" enable-background="new 0 0 96.429 95.088" xml:space="preserve">
<g>
	<path fill="#EFE63C" d="M90.47,24.166c-0.39-3.84-0.771-8.534-2.45-12.353c-0.469-1.664-1.188-3.211-2.342-4.42
		c-0.132-0.138-0.272-0.239-0.414-0.322c0.003-0.026,0.01-0.05,0.013-0.077c0.212-1.915-1.51-2.877-3.67-3.223
		c-1.872-0.907-4.375-0.977-5.907,0.005c-0.26,0.167-0.471,0.368-0.66,0.582c-0.252,0.105-0.473,0.219-0.643,0.339
		c-0.541,0.384-0.873,0.954-0.88,1.562c-1.124,1.27-1.917,2.782-3.09,4.009c-1.098,1.148-1.971,2.662-3.458,3.344
		c-0.612,0.28-0.884,0.741-0.922,1.23c-2.395,2.141-5.463,3.185-8.583,4.023c-4.309,1.157-8.771,2.2-13.19,2.792
		c-4.815,0.646-9.709,0.891-14.563,0.946c-2.768,0.031-5.683,0.15-8.406-0.383c-1.342-0.263-2.654-0.55-3.986-0.72
		c-2.18-0.676-4.318-1.356-6.408-1.68c-0.825-0.128-1.98-0.241-3.031-0.128c-0.456-0.103-0.929-0.024-1.306,0.306
		c-0.077,0.032-0.146,0.072-0.218,0.109c-0.021,0.005-0.041,0.006-0.062,0.011c-0.189,0.051-0.165,0.114-0.343,0.183
		c-0.003,0.001,0.195,0.002,0.195,0.003c0,0,0,0.001,0,0.001c0,0.056-0.49,0.115-0.635,0.18c-0.958,0.426-1.178,1.425-0.812,2.225
		c0.012,0.176,0.001,0.346,0.065,0.508c-0.655,3.606,2.763,6.653,5.483,8.808c3.075,2.437,6.423,5.423,10.464,5.868
		c3.166,1.6,6.68,2.322,10.212,2.498c1.924,0.095,3.838-0.356,5.629-1.009c0.227-0.083,0.453-0.151,0.681-0.22
		c1.404,0.013,2.807-0.095,4.192-0.345c3.572-0.644,7.084-1.314,10.526-2.496c1.567-0.538,3.093-1.328,4.643-2.036
		c-1.65,2.229-3.805,4.05-5.963,5.795c-1.364,1.102-2.666,1.993-4.279,2.69c-0.601,0.26-1.164,0.594-1.725,0.929
		c-0.774,0.385-1.545,0.776-2.324,1.156c-0.175,0.057-0.353,0.109-0.536,0.148c-0.428,0.09-0.74,0.287-0.951,0.544
		c-0.3,0.132-0.601,0.263-0.907,0.385c-0.124,0.049-0.235,0.109-0.338,0.175c-1.252,0.144-2.508,0.285-3.763,0.467
		c-4.467,0.648-8.781,2.201-13.237,2.779c-0.875,0.114-1.888,0.263-2.927,0.479c-2.042,0.195-4.081,0.415-6.108,0.743
		c-1.537,0.249-2.887,0.712-3.789,1.503c-0.796,0.109-1.603,0.68-1.603,1.718v2.229c0,0.187,0.157,0.353,0.2,0.51
		c-0.082,0.632,0.174,1.312,0.798,1.787c2.305,1.756,4.497,3.196,7.236,4.184c1.112,0.401,2.276,0.717,3.438,0.999
		c2.328,1.059,4.747,1.926,7.244,2.517c3.722,0.879,8.275,1.001,12.224-0.21c0.984-0.088,1.961-0.214,3.025-0.619
		c1.786-0.68,3.447-1.675,5.133-2.563c4.027-2.121,7.933-4.364,11.526-7.175c0.298-0.234,0.594-0.47,0.89-0.706
		c0.219-0.11,0.439-0.22,0.66-0.328c-1.231,1.748-2.501,3.461-3.957,5.043c-0.374,0.405-0.764,0.837-1.169,1.277
		c-1.558,1.062-3.066,2.194-4.507,3.414c-0.317-0.013-0.66,0.087-1.005,0.345c-3.862,2.89-7.773,5.734-10.765,9.568
		c-1.439,1.845-2.494,3.997-3.695,5.999c-1.079,1.796-2.673,3.006-3.843,4.705c-0.991,1.438-1.299,4.813,0.184,5.966
		c0.066,0.13,0.134,0.256,0.2,0.371c0.547,0.935,1.514,1.032,2.273,0.672c0.045-0.012,0.086-0.016,0.132-0.031
		c4.307-1.481,8.714-2.833,13.265-3.279c4.119-0.403,7.871-2.872,11.18-5.163c5.321-3.685,9.954-7.974,14.412-12.521
		c2.332-1.868,4.483-4,6.452-6.23c4.417-5.005,7.619-10.973,9.43-17.39C91.186,39.79,91.238,31.736,90.47,24.166z"/>
	<path fill="#5F4A32" d="M83.867,5.35c-0.61-0.651-1.535-0.706-2.347-0.875c-1.347-0.281-2.684-0.71-4.075-0.687
		c-2.182,0.037-3.351,1.934-2.418,3.896c0.393,0.828,1.095,1.387,1.889,1.811c0.009,0.007,0.016,0.015,0.023,0.021
		c0.264,0.524,0.769,0.925,1.523,0.949c0.123,0.004,0.246,0.012,0.369,0.023c0.561,0.166,1.142,0.243,1.706,0.218
		c0.303,0.031,0.607,0.048,0.914,0.031c0.256-0.015,0.493-0.062,0.72-0.126c0.666-0.158,1.272-0.499,1.739-1.11
		c0.312-0.409,0.459-0.828,0.487-1.238C84.729,7.23,84.658,6.194,83.867,5.35z"/>
	<path fill="#5F4A32" d="M33.701,84.501c-0.981,0-1.8,0.818-1.8,1.8v0.895c-0.116,0.237-0.188,0.499-0.186,0.776
		c0.004,0.614,0.176,1.101,0.431,1.651c0.335,0.722,1.311,1.025,2.033,0.827c0.772-0.212,1.321-0.935,1.321-1.735v-2.414
		C35.5,85.319,34.682,84.501,33.701,84.501z"/>
	<path fill="#5F4A32" d="M11.042,52.741c-0.981,0-1.799,0.818-1.8,1.8c0,0.134-0.005,0.269-0.007,0.404
		c-0.046,0.106-0.084,0.216-0.113,0.331c-0.129,0.285-0.249,0.592-0.23,0.91c0.046,0.781,0.39,1.362,1.055,1.766
		c1.024,0.62,2.303,0.015,2.644-1.076c0.235-0.751,0.25-1.555,0.25-2.335C12.842,53.56,12.022,52.741,11.042,52.741z"/>
	<path fill="#5F4A32" d="M7.327,20.795c-0.849,0-1.573,0.613-1.754,1.413c-0.256,0.311-0.418,0.702-0.417,1.129
		c0.001,0.792,0.102,1.484,0.432,2.209c0.255,0.56,0.971,0.891,1.554,0.891c0.817,0,1.5-0.552,1.735-1.321
		c0.247-0.809,0.25-1.683,0.25-2.522C9.127,21.614,8.308,20.795,7.327,20.795z"/>
	<path fill="#5F4A32" d="M56.212,73.712c-1.366,0.986-2.662,2.066-4.086,2.972c-1.115,0.709-0.084,2.49,1.039,1.776
		c1.423-0.906,2.719-1.985,4.086-2.972C58.315,74.719,57.29,72.934,56.212,73.712z"/>
	<path fill="#5F4A32" d="M77.99,30.21c-0.42,6.229-1.122,12.42-2.755,18.458c-1.52,5.62-4.115,12.047-8.644,15.918
		c-1.01,0.863,0.452,2.311,1.454,1.455c4.418-3.776,6.901-9.699,8.662-15.104c2.17-6.661,2.872-13.772,3.34-20.727
		C80.136,28.886,78.079,28.894,77.99,30.21z"/>
	<path fill="#5F4A32" d="M35.001,59.641c-4.25,0.376-8.953,0.773-12.667-1.716c-1.106-0.741-2.134,1.042-1.039,1.776
		c4.025,2.697,9.09,2.406,13.706,1.998C36.312,61.582,36.322,59.524,35.001,59.641z"/>
	<path fill="#5F4A32" d="M64.733,43.227c-4.866,5.681-10.992,9.836-17.808,12.84c-1.211,0.534-0.164,2.306,1.038,1.776
		c6.961-3.069,13.256-7.361,18.224-13.162C67.045,43.68,65.597,42.218,64.733,43.227z"/>
	<path fill="#5F4A32" d="M54.874,32.524c-6.726,0.357-13.43,1.09-20.175,0.987c-3.71-0.057-7.393-0.484-10.994-1.387
		c-3.229-0.81-7.281-2.079-9.361-4.849c-0.786-1.046-2.573-0.023-1.775,1.039c3.825,5.094,11.803,6.403,17.721,7.009
		c8.17,0.836,16.425-0.31,24.584-0.742C56.193,34.512,56.2,32.455,54.874,32.524z"/>
	<path fill="#5F4A32" d="M70.699,21.336c-2.651,1.908-5.268,4.06-8.483,4.911c-1.282,0.339-0.737,2.324,0.546,1.983
		c3.404-0.901,6.167-3.098,8.975-5.118C72.803,22.345,71.778,20.56,70.699,21.336z"/>
	<path fill="#5F4A32" d="M87.068,13.592c-0.493-1.212-2.483-0.682-1.983,0.547c1.032,2.54,1.439,5.177,1.635,7.899
		c0.094,1.315,2.152,1.324,2.057,0C88.569,19.142,88.168,16.298,87.068,13.592z"/>
</g>
</svg>
