<?xml version="1.0" encoding="utf-8"?>
<!-- Generator: Adobe Illustrator 15.1.0, SVG Export Plug-In . SVG Version: 6.00 Build 0)  -->
<!DOCTYPE svg PUBLIC "-//W3C//DTD SVG 1.1//EN" "http://www.w3.org/Graphics/SVG/1.1/DTD/svg11.dtd">
<svg version="1.1" id="Layer_1" xmlns="http://www.w3.org/2000/svg" xmlns:xlink="http://www.w3.org/1999/xlink" x="0px" y="0px"
	 width="145.634px" height="100.598px" viewBox="0 0 145.634 100.598" enable-background="new 0 0 145.634 100.598"
	 xml:space="preserve">
<g>
	<path fill="#D18E2C" d="M142.345,40.582c-0.404-4.478-3.542-7.432-7.822-8.647c-3.438-0.976-8.651-1.554-12.088,0.396
		c-0.482-1.198-1.117-2.343-1.953-3.409c-1.852-2.362-4.114-4.312-6.379-6.264c-1.479-1.272-2.939-2.623-4.828-3.027
		c-3.375-1.645-7.623-2.482-11.23-3.11c-2.114-0.368-4.312-0.389-6.453-0.425c-2.589-0.043-5.165-0.463-7.751-0.585
		c-1.755-0.083-3.52-0.147-5.286-0.176c-2.178-0.278-4.365-0.471-6.582-0.562c-5.105-0.209-10.26-0.093-15.364,0.1
		c-4.344,0.164-9.294,0.399-13.474,1.822c-2.076,0.267-4.137,0.646-6.164,1.173c-2.467,0.642-5.377,1.562-7.625,2.765
		c-0.146,0.08-0.266,0.173-0.371,0.272c-1.066,0.368-2.116,0.773-3.14,1.227c-2.339,1.035-4.116,2.64-5.644,4.665
		c-1.387,1.837-1.814,3.559-1.996,5.498c-1.801-0.43-4.004,0.144-5.635,0.578c-0.42,0.111-0.84,0.238-1.262,0.379
		c-1.601,0.344-3.154,0.893-4.715,1.4c-0.375,0.121-0.648,0.331-0.836,0.585c-1.528,0.884-2.646,2.325-3.539,3.826
		c-1.181,1.979-1.07,4.181-1.042,6.397c-0.147,2.385,0.392,4.828,1.662,6.839c1.628,2.578,4.615,3.925,7.371,4.912
		c3.618,1.294,7.067,0.487,10.724-0.026c0.141-0.02,0.27-0.045,0.397-0.071c1.237,6.592,5.058,12.87,9.309,17.899
		c0.897,1.062,1.839,2.041,2.841,2.938c1.244,1.722,3.153,3.259,4.562,4.346c1.611,1.244,3.44,2.163,5.324,2.96
		c0.123,0.144,0.277,0.277,0.479,0.385c1.741,0.939,3.52,1.59,5.367,2.35c0.922,0.378,1.875,0.608,2.844,0.759
		c4.811,2.012,10.135,2.322,15.387,2.177c6.806-0.188,14.128-0.583,20.779-2.431c3.129-0.59,6.231-1.484,9.232-2.341
		c4.627-1.32,8.855-4.18,12.589-7.145c3.703-2.941,7.029-6.645,9.687-10.557c2.219-3.264,4.604-7.482,5.203-11.57
		c3.795-0.026,7.615-0.526,11.09-2.076c3.679-1.641,5.73-4.744,6.379-8.625C142.724,44.198,143.196,42.495,142.345,40.582z
		 M15.164,49.826c-2.412-0.379-3.39-1.536-4.062-3.701c-0.644-2.069-0.651-4.437,1.285-5.812c1.802-1.28,4.486-1.01,6.402-0.185
		c0.004,0.002,0.009,0.003,0.013,0.004c0.296,1.714,0.626,3.424,0.789,5.162c0.124,1.325,0.259,2.64,0.399,3.954
		C18.621,50.017,16.578,50.048,15.164,49.826z M134.227,47.63c-0.485,0.539-1.037,1.016-1.622,1.454
		c-0.07,0.021-0.14,0.044-0.209,0.064c-1.61,0.479-3.264,0.864-4.939,1c-0.744,0.06-1.424,0.021-2.073-0.081
		c-0.129-2.275-0.413-4.523-0.839-6.746c-0.05-0.442-0.104-0.881-0.164-1.317c2.52-1.498,7.922-1.519,10.057,0.134
		C135.976,43.328,135.3,46.439,134.227,47.63z"/>
	<path fill="#614325" d="M108.89,24.238c-0.953-0.389-1.922-0.706-2.899-0.969c-1.913-0.827-3.931-1.443-5.917-1.927
		c-0.346-0.084-0.694-0.157-1.041-0.229c-0.363-0.137-0.719-0.264-1.059-0.381c-6.028-2.076-12.865-0.51-19.082-0.682
		c-1.035-0.028-2.072-0.056-3.107-0.083c-2.148-0.126-4.314-0.158-6.479-0.136c-4.404-0.071-8.81-0.088-13.215,0.009
		c-3.246,0.071-6.389,0.727-9.518,1.482c-3.492,0.562-6.922,1.392-10.167,2.652c-1.834,0.712-6.847,2.442-7.362,4.709
		c-0.816,0.495-1.229,1.617-0.338,2.518c0.801,0.81,1.725,1.28,2.737,1.594c1.353,0.516,2.797,0.798,4.272,1.173
		c3.416,0.869,6.947,1.281,10.463,1.449c1.066,0.052,2.129,0.039,3.189-0.007c2.43,0.312,4.861,0.614,7.293,0.878
		c5.355,0.583,10.57,0.244,15.896-0.441c1.463-0.188,2.949-0.308,4.44-0.417c5.564,0.389,11.11,1.091,16.69,0.545
		c4.162-0.407,8.28-1.143,12.45-1.503c2.566-0.222,5.997,0.776,8.159-1.104C118.216,29.963,111.714,25.39,108.89,24.238z"/>
	<path fill="#8A7853" d="M57.548,22.966c-0.375-0.14-0.774-0.23-1.188-0.265c-0.661-0.053-1.115,0.229-1.363,0.649
		c-0.237,0.084-0.459,0.179-0.654,0.287c-0.023,0.013-0.039,0.031-0.062,0.045c-0.893-1.376-2.445-1.731-4.145-1.436
		c-1.652,0.286-3.561,1.588-3.884,3.326c-0.144,0.773,0.097,1.428,0.761,1.87c0.644,0.428,1.348,0.602,2.053,0.585
		c-0.346,0.111-0.67,0.302-0.943,0.554c-0.129,0.12-0.257,0.239-0.373,0.401c-0.045,0.022-0.088,0.047-0.131,0.071
		c-0.604-0.666-1.596-1.006-2.51-1.081c-0.641-0.053-1.316,0.019-1.979,0.168c0.281-0.451,0.5-0.94,0.639-1.452
		c0.273-1.003-0.51-2.144-1.596-2.095c-1.682,0.075-3.039,1.268-3.794,2.711c-0.405,0.774-0.219,1.726,0.524,2.213
		c0.228,0.348,0.561,0.569,0.928,0.67c-0.16,0.255-0.287,0.549-0.361,0.906c-0.352,1.679,0.834,3.242,2.414,3.568
		c1.545,0.318,3.664-1.038,5.009-1.038c0.003,0,0.007,0,0.01,0c0.145,0,0.292-0.29,0.438-0.334c0.292,0.147,0.621,0.117,0.972,0.159
		c1.01,0.122,1.967-0.222,2.725-0.9c0.271-0.243,0.475-0.453,0.619-0.78c1.615-0.476,1.454-3.145-0.496-3.145h-0.067
		c-0.095,0-0.194-0.297-0.305-0.371c-0.299-0.198-0.62-0.296-0.942-0.317c0.436-0.093,0.862-0.251,1.266-0.461
		c1.043-0.154,2.057-0.605,2.873-1.273c0.009,0.012,0.015,0.024,0.025,0.036c1.111,1.314,2.893,1.682,4.359,0.994
		c0.577,1.073,2.591,1.231,3.136-0.306C62.494,24.13,60.019,22.998,57.548,22.966z"/>
	<path fill="#8A7853" d="M73.513,29.076c-2.172-1.613-6.814-1.085-8.355,1.351c-1.122-1.707-4.305-1.358-5.849-0.405
		c-1.144,0.707-0.903,2.105-0.114,2.76c0.041,0.394,0.223,0.799,0.488,1.022c1.058,0.887,2.795,1.017,4.106,0.476
		c0.184,0.016,0.376,0.006,0.578-0.049c0.391-0.107,0.752-0.395,0.981-0.758c0.699,0.615,1.814,0.907,2.826,0.94
		c1.449,0.05,2.936-0.404,4.098-1.267c0.921-0.395,1.656-1.087,2-2.2C74.509,30.181,74.103,29.514,73.513,29.076z"/>
	<path fill="#8A7853" d="M76.729,24.597c-0.38-2.19-2.995-2.478-4.737-1.756c-0.192-0.001-0.383,0.015-0.57,0.043
		c-0.008-0.002-0.015-0.004-0.021-0.006c-1.534-0.339-2.98,0.272-3.506,1.796c-0.408,1.183,0.275,2.414,1.303,2.989
		c0.873,0.489,1.957,0.592,2.938,0.584C74.224,28.23,77.178,27.191,76.729,24.597z"/>
	<path fill="#8A7853" d="M85.929,30.616c-0.744-1.044-1.764-1.597-2.832-1.68c-1.67-1.295-4.246-1.67-5.679,0.163
		c-0.468,0.598-0.667,1.301-0.259,2.005c1.529,2.643,6.93,4.282,8.77,1.183C86.21,31.814,86.263,31.083,85.929,30.616z"/>
	<path fill="#8A7853" d="M96.333,25.177c-1.859-2.424-5.859-2.306-8.038-0.335c-0.698,0.632-0.573,1.691,0,2.341
		c0.277,0.313,0.649,0.573,1.079,0.777c-1.193,0.223-2.432,1.433-2.994,2.419c-0.384,0.675-0.244,1.443,0.26,2.006
		c1.699,1.897,6.045,2.778,7.982,0.871c1.228-1.208,1.038-3.477-0.406-4.383c-0.617-0.388-1.442-0.386-2.137-0.296
		c-0.297,0.039-0.59,0.088-0.884,0.141c-0.083-0.113-0.171-0.211-0.261-0.298c0.879,0.13,1.814,0.082,2.631-0.166
		c0.596,0.24,1.27,0.069,1.8-0.361c0.405-0.33,0.682-0.597,0.968-1.044C96.62,26.401,96.671,25.618,96.333,25.177z"/>
	<path fill="#8A7853" d="M110.021,28.074c-0.012-0.273-0.076-0.542-0.209-0.769c-1.043-1.771-3.351-1.815-4.268-0.385
		c-0.186-0.013-0.373-0.032-0.562-0.057c-0.075-0.221-0.2-0.428-0.396-0.602c-1.17-1.04-2.421-1.602-4.008-1.431
		c-1.121,0.12-2.229,1.358-1.43,2.491c0.154,0.219,0.336,0.422,0.529,0.619c-0.732,0.45-0.967,1.487-0.529,2.219
		c0.711,1.187,2.527,1.931,4.181,1.898c0.298,0.117,0.636,0.146,0.999,0.045c0.254-0.07,0.492-0.221,0.692-0.413
		c0.454-0.219,0.841-0.534,1.107-0.967c0.009-0.014,0.015-0.028,0.022-0.042c1.373,1.257,3.854,1.339,5.432,0.309
		C113.327,29.851,111.771,27.085,110.021,28.074z"/>
	<path fill="#8A7853" d="M84.22,22.19c-0.133-0.099-0.271-0.188-0.412-0.269c-0.172-0.197-0.371-0.376-0.601-0.526
		c-0.923-0.602-2.114-0.807-3.2-0.821c-1.029-0.015-1.557,0.748-1.594,1.543c-0.452,0.236-0.871,0.517-1.232,0.833
		c-0.648,0.568-0.645,1.771,0,2.34c0.661,0.583,1.693,0.997,2.777,1.154c0.252,0.188,0.582,0.297,0.994,0.277
		c1.287-0.063,2.82-0.166,3.79-1.132C85.827,24.513,85.304,22.997,84.22,22.19z"/>
	<path fill="#B7582C" d="M41.428,29.105c-0.274-0.898-1.065-1.601-1.935-1.943c-0.467-0.184-1.057-0.436-1.55-0.384
		c-0.291,0.032-0.582-0.153-0.872-0.153c-0.001,0-0.002,0-0.003,0c-0.111,0-0.222,0.294-0.335,0.297
		c-1.027,0.028-1.556,0.95-1.592,1.749c-0.52,0.467-0.892,1.169-0.907,1.875c-0.026,1.204,0.87,1.925,1.87,2.34
		c1.695,0.703,4.07-0.109,5.016-1.696C41.707,30.673,41.971,29.832,41.428,29.105z"/>
	<path fill="#B7582C" d="M48.736,26.045c-0.471-1.281-1.322-2.052-2.69-2.216c-1.081-0.13-2.208,0.679-2.7,1.584
		c-0.387,0.711-0.227,1.403,0.259,2.006c0.503,0.623,1.281,1.07,2.095,1.084c0.505,0.009,0.943-0.13,1.326-0.372
		c0.179,0.013,0.363,0.002,0.555-0.05C48.394,27.857,49.046,26.893,48.736,26.045z"/>
	<path fill="#B7582C" d="M60.865,29.197c-0.176-0.232-0.375-0.447-0.59-0.649c-0.111-1.287-1.391-2.173-2.617-2.311
		c-0.815-0.091-1.589,0.096-2.229,0.497c-0.682,0.005-1.352,0.11-1.967,0.325c-1.338,0.465-3.08,1.934-2.154,3.509
		c0.721,1.221,2.309,1.389,3.598,1.353c1.064-0.03,2.418-0.16,3.503-0.639c0.524,0.423,1.2,0.567,1.862,0.181
		C60.981,31.046,61.409,29.919,60.865,29.197z"/>
	<path fill="#B7582C" d="M68.881,22.951c-1.105-0.885-2.128-1.007-3.21-0.375c-1.579-0.497-3.307-0.263-4.569,1.084
		c-0.505,0.537-0.653,1.356-0.259,2.006c0.859,1.413,2.59,1.71,4.12,1.545c1.489-0.161,3.528-0.728,4.177-2.254
		C69.41,24.321,69.505,23.449,68.881,22.951z"/>
	<path fill="#B7582C" d="M89.643,25.336c-0.383-0.943-0.921-1.859-1.884-2.312c-0.076-0.036-0.155-0.067-0.234-0.099
		c-0.581-0.449-1.291-0.677-2.079-0.696c-0.868-0.021-1.591,0.712-1.646,1.557c-0.234,0.264-0.426,0.574-0.561,0.945
		c-0.31,0.86,0.008,1.937,0.718,2.506c0.807,0.646,1.796,0.996,2.829,0.742c0.383-0.094,0.724-0.299,1.011-0.566
		c0.215,0.036,0.445,0.026,0.689-0.042C89.281,27.154,89.984,26.173,89.643,25.336z"/>
	<path fill="#B7582C" d="M100.669,27.206c-0.064-0.14-0.145-0.263-0.23-0.378c-0.104-0.188-0.225-0.368-0.371-0.532
		c-0.771-0.866-1.888-0.883-2.742-0.367c-1.152,0.321-2.189,1.265-2.6,2.315c-0.418,1.069,0.143,2.287,1.13,2.803
		c0.808,0.423,1.657,0.389,2.446,0.109c0.85,0.48,2.111,0.298,2.455-0.92C101.044,29.217,101.125,28.183,100.669,27.206z"/>
	<path fill="#B7582C" d="M79.218,29.241c-0.449-1.008-1.844-1.222-2.795-1.311c-1.711-0.158-4.76,0.195-5.55,2.033
		c-0.56,1.304-0.081,2.86,1.21,3.553c1.299,0.697,3.082,0.646,4.474,0.311c1.05-0.252,1.972-1.093,2.248-2.093
		C79.414,31.063,79.662,30.235,79.218,29.241z"/>
	<path fill="#B7582C" d="M110.215,30.774c-0.076-0.197-0.169-0.381-0.274-0.554c0.164-0.545,0.085-1.123-0.388-1.595
		c-0.535-0.535-1.61-0.684-2.205-0.132c-0.356-0.014-0.712,0.008-1.04,0.049c-0.72,0.062-1.478,0.303-1.967,0.857
		c-0.598,0.679-0.704,1.492-0.467,2.285c0.045,0.215,0.127,0.408,0.232,0.582c0.004,0.006,0.006,0.013,0.009,0.019
		c0.104,0.199,0.267,0.371,0.457,0.506c0.569,0.456,1.382,0.656,2.14,0.609c1.056-0.066,2.246-0.331,3.078-1.017
		C110.201,32.045,110.408,31.273,110.215,30.774z"/>
	<path fill="#F5E7C7" d="M70.675,26.475c-0.912-0.64-2.023-0.829-3.149-0.779c-0.897-0.087-1.843,0.076-2.647,0.476
		c-0.151,0.045-0.301,0.089-0.445,0.136c-0.682,0.22-1.029,0.729-1.121,1.283c-0.035,0.062-0.072,0.123-0.104,0.188
		c-0.346,0.694-0.274,1.427,0.258,2.006c1.32,1.434,3.777,1.534,5.662,0.708c0.15,0.003,0.301-0.007,0.441-0.045
		c0.533-0.146,0.877-0.503,1.051-0.943c0.348-0.338,0.633-0.724,0.814-1.158C71.734,27.632,71.228,26.863,70.675,26.475z"/>
	<path fill="#F5E7C7" d="M81.259,24.847c-1.139-0.18-2.24-0.033-3.38-0.017c-1.625,0.023-2.011,1.947-1.159,2.85
		c0.049,0.35,0.199,0.683,0.461,0.921c1.549,1.408,5.811,2.191,6.322-0.691C83.783,26.331,82.821,25.093,81.259,24.847z"/>
	<path fill="#F5E7C7" d="M100.568,30.754c-1.252-1.074-3.09-1.146-4.398-0.278c-0.061,0.009-0.121,0.02-0.181,0.03
		c-0.062-0.031-0.12-0.067-0.183-0.091c-0.205-0.092-0.43-0.145-0.666-0.145c-0.122,0-0.244,0.005-0.366,0.017
		c-0.175-0.017-0.353-0.011-0.546,0.042c-0.134,0.037-0.258,0.097-0.378,0.165c-0.075,0.029-0.157,0.062-0.251,0.104
		c-0.645,0.276-1.013,0.98-1.236,1.597c-0.191,0.528,0.022,1.237,0.426,1.61c0.487,0.453,1.133,0.779,1.818,0.726
		c0.48-0.038,0.966-0.191,1.359-0.475c0.147,0.002,0.294,0.005,0.441,0.009c0.736,0.194,1.438,0.171,2.248-0.071
		c0.072-0.022,0.139-0.049,0.205-0.079c0.475-0.106,0.936-0.274,1.372-0.561C101.064,32.806,101.418,31.483,100.568,30.754z"/>
	<path fill="#F5E7C7" d="M52.255,31.416c-0.037-0.114-0.08-0.225-0.141-0.327c-0.889-1.513-2.972-1.778-4.305-0.875
		c-0.21,0.032-0.423,0.071-0.639,0.113c-0.885,0.177-1.381,1.215-1.155,2.037c0.157,0.575,0.571,0.952,1.075,1.11
		c0.164,0.191,0.373,0.344,0.625,0.448c0.332,0.243,0.711,0.426,1.081,0.531c1.171,0.333,2.422-0.094,3.295-0.886
		C52.679,33.036,52.724,32.039,52.255,31.416z"/>
	<path fill="#F5E7C7" d="M55.911,22.294c-0.75-0.625-1.624-0.768-2.567-0.611c-0.144,0.024-0.284,0.062-0.422,0.109
		c-0.82-0.238-1.726,0.402-1.939,1.179c-0.07,0.253-0.074,0.494-0.033,0.72c-0.168,0.455-0.223,0.948-0.12,1.44
		c0.179,0.866,1.108,1.434,1.948,1.406c0.604-0.021,1.146-0.258,1.605-0.631c0.04,0.015,0.078,0.036,0.119,0.047
		c0.883,0.243,1.781-0.292,2.037-1.156C56.792,23.939,56.63,22.894,55.911,22.294z"/>
	<path fill="#F5E7C7" d="M107.433,26.364c-0.729-1.083-2.057-1.565-3.319-1.306c-0.729,0.15-1.313,0.705-1.737,1.277
		c-0.511,0.69-0.421,1.606-0.1,2.339c0.271,0.615,0.935,1.046,1.56,1.222c0.659,0.185,1.316,0.072,1.933-0.167
		c0.713-0.193,1.314-0.553,1.722-1.178C107.906,27.916,107.849,26.981,107.433,26.364z"/>
	<path fill="#587558" d="M60.728,30.731c-2.293,1.198-5.46,0.066-7.914,0.011c-2.137-0.048-2.131,3.262,0,3.311
		c3.261,0.074,6.52,1.139,9.585-0.462C64.292,32.601,62.618,29.744,60.728,30.731z"/>
	<path fill="#587558" d="M77.169,21.047c-2.195-0.03-4.514-0.474-6.51,0.699c-1.84,1.08-0.174,3.941,1.67,2.859
		c1.344-0.789,3.358-0.267,4.84-0.247C79.306,24.386,79.302,21.075,77.169,21.047z"/>
	<path fill="#587558" d="M88.867,26.238c-1.498,0.871-2.902,1.894-4.492,2.601c-0.825,0.368-1.012,1.552-0.595,2.265
		c0.493,0.842,1.44,0.961,2.265,0.594c1.59-0.708,2.994-1.73,4.493-2.601C92.382,28.025,90.716,25.164,88.867,26.238z"/>
	<path fill="#587558" d="M100.343,23.412c-1.865-0.041-3.635-0.628-5.472-0.887c-0.893-0.125-1.773,0.203-2.036,1.156
		c-0.216,0.784,0.261,1.91,1.156,2.036c2.132,0.3,4.183,0.958,6.352,1.005C102.48,26.768,102.474,23.458,100.343,23.412z"/>
	<path fill="#587558" d="M43.355,23.412c-1.995,0.034-3.859,0.754-4.976,2.475c-1.166,1.797,1.702,3.455,2.858,1.671
		c0.427-0.658,1.289-0.822,2.117-0.835C45.488,26.686,45.492,23.376,43.355,23.412z"/>
	<path fill="#587558" d="M104.016,30.495c-0.96-0.508-1.233-1.218-1.604-2.321c-0.287-0.854-1.129-1.405-2.035-1.156
		c-0.834,0.229-1.444,1.181-1.156,2.037c0.598,1.778,1.398,3.385,3.125,4.3c0.798,0.422,1.795,0.208,2.265-0.594
		C105.051,32.006,104.812,30.917,104.016,30.495z"/>
</g>
</svg>
