<?xml version="1.0" encoding="utf-8"?>
<!-- Generator: Adobe Illustrator 15.1.0, SVG Export Plug-In . SVG Version: 6.00 Build 0)  -->
<!DOCTYPE svg PUBLIC "-//W3C//DTD SVG 1.1//EN" "http://www.w3.org/Graphics/SVG/1.1/DTD/svg11.dtd">
<svg version="1.1" id="Layer_1" xmlns="http://www.w3.org/2000/svg" xmlns:xlink="http://www.w3.org/1999/xlink" x="0px" y="0px"
	 width="55.804px" height="80.802px" viewBox="0 0 55.804 80.802" enable-background="new 0 0 55.804 80.802" xml:space="preserve">
<g>
	<path fill="#FAF6EF" d="M52.176,17.309c-0.703-5.392-5.135-7.741-9.755-9.38c-6.526-2.314-13.707-2.093-20.563-2.223
		c-3.055-0.058-5.991,0.382-8.874,1.391c-2.535,0.886-5.075,1.107-6.839,3.381c-0.027,0.035-0.05,0.071-0.075,0.107
		C5.314,11,4.89,11.725,4.827,12.84c-0.009,0.164,0.011,0.326,0.051,0.482c-0.003,0.235,0.009,0.471,0.032,0.705
		c0.076,0.728,0.234,1.439,0.402,2.149c0.236,1.01-0.056,2.208-0.007,3.25c0.075,1.655,0.357,3.291,0.751,4.899
		c0.157,2.6,0.685,5.337,1.197,7.81c0.004,0.021,0.011,0.042,0.016,0.064c0.011,0.079,0.021,0.159,0.032,0.238
		c-0.032,0.152-0.05,0.316-0.045,0.494c0.046,1.954,0.058,3.901,0.251,5.848c0.078,0.789,0.258,1.55,0.465,2.302
		c0.06,0.286,0.112,0.575,0.17,0.862c0,0.014-0.003,0.026-0.002,0.041c0.035,1.201,0.22,2.357,0.485,3.488
		c0.008,0.476,0.017,0.95,0.02,1.426c-0.077,0.236-0.104,0.511-0.064,0.827c0.342,2.68,0.43,5.347,0.92,8.013
		c0.297,1.628,0.454,3.52,0.842,5.292c0.111,3.545,0.796,7.264,3.08,10.075c1.042,1.284,2.473,2.809,3.991,3.512
		c1.641,0.76,3.574,0.695,5.285,1.298c0.441,0.156,0.838,0.154,1.175,0.045c1.831,0.461,3.776,0.627,5.567,0.725
		c4.373,0.24,9.309,0.29,13.307-1.703c2.076-1.034,2.896-3.33,3.363-5.452c0.724-3.29,1.123-6.646,1.877-9.937
		c1.572-6.87,1.976-13.88,2.328-20.908c0.161-3.254,0.218-6.542,0.595-9.78c0.108-0.937,0.245-1.868,0.382-2.798
		C51.822,23.286,52.547,20.156,52.176,17.309z"/>
	<g>
		<g>
			<path fill="#B5572C" d="M36.313,58.141c0.091-1.062-0.03-2.155-0.341-3.169c-0.145-0.469-0.302-0.936-0.468-1.402
				c-0.367-1.816-1.165-3.922-1.881-5.669c-0.061-0.298-0.123-0.597-0.198-0.894c-0.372-1.484-0.793-4.019-2.562-4.486
				c-1.366-0.361-2.192,0.275-2.64,1.233c-0.208,0.301-0.334,0.666-0.335,1.083c-0.064,0.36-0.097,0.731-0.097,1.088
				c-0.003,1.597-0.427,3.118-1.067,4.584c-0.475,1.084-1.128,2.001-1.502,3.085c-0.2,0.293-0.322,0.661-0.303,1.122
				c0.002,0.07,0.001,0.147,0.004,0.218c-0.049,0.312-0.078,0.627-0.083,0.948c-0.045,0.532-0.024,1.071,0.054,1.623
				c-0.014,0.526,0.045,1.051,0.163,1.563c0.137,1.172,0.437,2.286,1.103,3.17c0.951,1.26,2.438,2.315,4.017,2.563
				c0.242,0.103,0.525,0.158,0.851,0.146c2.47-0.089,4.19-1.432,5.008-3.741C36.384,60.225,36.43,59.188,36.313,58.141z"/>
			<path fill="#D5952B" d="M32.834,58.292c0.001-0.672-0.04-1.062-0.04-2.062c0-3-4.651-3-4.651,0c0,0,0,0.261,0,0.357
				c0,0.161,0.268,0.351,0.266,0.54c-0.002,0.325,0.189,0.655,0.227,0.975c-0.019,0.799,0.021,1.598-0.099,2.406
				c-0.222,1.505,0.005,3.514,1.773,4.001c1.614,0.443,3.237-1.097,3.175-2.711C33.44,60.611,33.041,59.448,32.834,58.292z"/>
		</g>
		<path fill="#776551" d="M37.507,72.073c-0.26-1.615-1.806-2.486-3.111-3.208c-0.558-0.309-1.483-0.652-1.724-1.301
			c-0.427-1.139,0.015-2.824,0.049-4.015c0.074-2.564-3.899-2.557-3.974,0c-0.061,2.059-0.533,4.533,0.665,6.357
			c-0.457-0.11-0.908-0.212-1.347-0.282c-1.771-0.283-3.322-0.127-4.959,0.599c-1.725,0.766-0.957,3.118,0.476,3.632
			c2.105,0.757,4.301,0.677,6.505,0.748c2.008,0.066,4.078,0.639,6.033-0.086C37.222,74.109,37.693,73.218,37.507,72.073z"/>
	</g>
	<path fill="#FFFFFF" d="M44.203,15.194c-2.477,0.264-4.86-0.504-7.236-1.102c-2.95-0.741-5.988-1.084-9.003-1.443
		c-5.472-0.652-10.863-2.387-16.304-0.475c-1.344,0.472-2.04,2.239-0.878,3.321c0.932,0.868,2.145,1.186,3.384,1.353
		c6.233,1.513,12.269,3.544,18.712,4.061c2.342,0.188,4.687,0.395,7.029,0.566c1.843,0.135,3.946-0.204,4.908-1.966
		c0.098-0.181,0.172-0.385,0.216-0.599C46.69,17.973,46.432,14.957,44.203,15.194z"/>
</g>
</svg>
