<?xml version="1.0" encoding="utf-8"?>
<!-- Generator: Adobe Illustrator 15.1.0, SVG Export Plug-In . SVG Version: 6.00 Build 0)  -->
<!DOCTYPE svg PUBLIC "-//W3C//DTD SVG 1.1//EN" "http://www.w3.org/Graphics/SVG/1.1/DTD/svg11.dtd">
<svg version="1.1" id="Layer_1" xmlns="http://www.w3.org/2000/svg" xmlns:xlink="http://www.w3.org/1999/xlink" x="0px" y="0px"
	 width="55.804px" height="109.82px" viewBox="0 0 55.804 109.82" enable-background="new 0 0 55.804 109.82" xml:space="preserve">
<g>
	<path fill="#FAF6EF" d="M44.404,40.228c-2.049-0.846-4.166-1.487-6.247-2.242c-1.099-0.398-2.113-0.744-3.292-0.609
		c-1.301,0.147-2.279,1.208-3.516,1.31c-1.249,0.103-2.161-0.707-3.104-1.387c-0.84-0.605-1.797-0.954-2.785-1.238
		c-2.283-0.659-4.83-0.559-7.155-0.234c-3.747,0.523-7.513,1.678-10.824,3.563c-0.027-0.006-0.057-0.008-0.085-0.012
		c-0.231-0.088-0.49-0.131-0.778-0.099c-1.635,0.183-2.517,1.008-2.611,2.687c-0.011,0.167,0.01,0.331,0.051,0.489
		c-0.003,0.238,0.008,0.477,0.032,0.714c0.077,0.738,0.238,1.459,0.407,2.18c0.24,1.024-0.056,2.239-0.007,3.296
		c0.077,1.678,0.363,3.337,0.763,4.968c0.158,2.636,0.693,5.411,1.213,7.919c0.005,0.021,0.011,0.043,0.017,0.065
		c0.011,0.081,0.021,0.161,0.032,0.242c-0.032,0.154-0.05,0.321-0.046,0.5c0.046,1.981,0.059,3.956,0.254,5.929
		c0.08,0.8,0.263,1.572,0.473,2.334c0.059,0.29,0.114,0.583,0.172,0.874c0,0.015-0.003,0.027-0.003,0.042
		c0.037,1.218,0.223,2.39,0.493,3.537c0.008,0.482,0.017,0.964,0.02,1.446c-0.078,0.24-0.105,0.519-0.064,0.838
		c0.346,2.718,0.436,5.421,0.932,8.125c0.303,1.65,0.461,3.568,0.854,5.366c0.112,3.593,0.807,7.365,3.122,10.215
		c1.058,1.302,2.508,2.847,4.048,3.561c1.663,0.771,3.624,0.705,5.358,1.317c0.448,0.158,0.85,0.156,1.19,0.045
		c1.857,0.468,3.829,0.635,5.645,0.735c4.435,0.243,9.439,0.293,13.495-1.727c2.104-1.048,2.936-3.376,3.409-5.528
		c0.733-3.336,1.139-6.739,1.902-10.076c1.595-6.966,2.005-14.073,2.36-21.199c0.165-3.3,0.222-6.633,0.604-9.916
		c0.333-2.863,0.921-5.674,0.984-8.566C51.827,44.731,48.728,42.013,44.404,40.228z"/>
	<g>
		<path fill="#776551" d="M33.034,37.487c-0.542-4.072-0.421-8.148-0.597-12.238c-0.11-2.588-4.141-2.599-4.03,0
			c0.176,4.09,0.056,8.167,0.597,12.238C29.341,40.024,33.375,40.057,33.034,37.487z"/>
		<g>
			<path fill="#B5572C" d="M35.93,19.839c0.092-1.077-0.031-2.185-0.347-3.212c-0.146-0.476-0.306-0.95-0.474-1.422
				c-0.372-1.842-1.182-3.977-1.906-5.748c-0.062-0.303-0.126-0.606-0.201-0.907c-0.377-1.505-0.805-4.075-2.599-4.548
				c-1.384-0.366-2.222,0.28-2.675,1.25c-0.213,0.305-0.339,0.675-0.34,1.098c-0.066,0.366-0.099,0.741-0.099,1.104
				c-0.003,1.619-0.433,3.161-1.083,4.647c-0.479,1.1-1.142,2.03-1.522,3.129c-0.203,0.297-0.327,0.67-0.307,1.138
				c0.003,0.07,0.001,0.148,0.004,0.22c-0.05,0.316-0.079,0.636-0.085,0.96c-0.046,0.54-0.023,1.086,0.056,1.646
				c-0.014,0.534,0.044,1.066,0.166,1.585c0.138,1.188,0.441,2.317,1.117,3.214c0.964,1.277,2.471,2.347,4.071,2.599
				c0.247,0.104,0.534,0.16,0.863,0.148c2.504-0.09,4.248-1.452,5.078-3.792C36.001,21.953,36.049,20.901,35.93,19.839z"/>
			<path fill="#D5952B" d="M32.402,20.166c0.003-0.682-0.039-1.918-0.039-1.918c0-3-4.22-3-4.22,0c0,0,0-0.081,0,0.017
				c0,0.164,0.022,0.355,0.021,0.548c-0.003,0.329,0.069,0.664,0.105,0.988c-0.02,0.81-0.041,1.62-0.162,2.439
				c-0.226,1.527-0.024,3.564,1.769,4.057c1.635,0.45,3.265-1.025,3.202-2.662C33.032,22.43,32.611,21.337,32.402,20.166z"/>
		</g>
	</g>
</g>
</svg>
